<svg class="main-svg" xmlns="http://www.w3.org/2000/svg" xmlns:xlink="http://www.w3.org/1999/xlink" width="700" height="500" style="" viewBox="0 0 700 500"><rect x="0" y="0" width="700" height="500" style="fill: rgb(255, 255, 255); fill-opacity: 1;"/><defs id="defs-7a7667"><g class="clips"><clipPath id="clip7a7667xyplot" class="plotclip"><rect width="494" height="63.999999999999986"/></clipPath><clipPath id="clip7a7667x2y2plot" class="plotclip"><rect width="494" height="63.999999999999986"/></clipPath><clipPath id="clip7a7667x3y3plot" class="plotclip"><rect width="494" height="63.99999999999999"/></clipPath><clipPath class="axesclip" id="clip7a7667x"><rect x="80" y="0" width="494" height="500"/></clipPath><clipPath class="axesclip" id="clip7a7667y"><rect x="0" y="100" width="700" height="63.999999999999986"/></clipPath><clipPath class="axesclip" id="clip7a7667xy"><rect x="80" y="100" width="494" height="63.999999999999986"/></clipPath><clipPath class="axesclip" id="clip7a7667y2"><rect x="0" y="228" width="700" height="63.999999999999986"/></clipPath><clipPath class="axesclip" id="clip7a7667xy2"><rect x="80" y="228" width="494" height="63.999999999999986"/></clipPath><clipPath class="axesclip" id="clip7a7667y3"><rect x="0" y="356" width="700" height="63.99999999999999"/></clipPath><clipPath class="axesclip" id="clip7a7667xy3"><rect x="80" y="356" width="494" height="63.99999999999999"/></clipPath><clipPath class="axesclip" id="clip7a7667x2"><rect x="80" y="0" width="494" height="500"/></clipPath><clipPath class="axesclip" id="clip7a7667x2y"><rect x="80" y="100" width="494" height="63.999999999999986"/></clipPath><clipPath class="axesclip" id="clip7a7667x2y2"><rect x="80" y="228" width="494" height="63.999999999999986"/></clipPath><clipPath class="axesclip" id="clip7a7667x2y3"><rect x="80" y="356" width="494" height="63.99999999999999"/></clipPath><clipPath class="axesclip" id="clip7a7667x3"><rect x="80" y="0" width="494" height="500"/></clipPath><clipPath class="axesclip" id="clip7a7667x3y"><rect x="80" y="100" width="494" height="63.999999999999986"/></clipPath><clipPath class="axesclip" id="clip7a7667x3y2"><rect x="80" y="228" width="494" height="63.999999999999986"/></clipPath><clipPath class="axesclip" id="clip7a7667x3y3"><rect x="80" y="356" width="494" height="63.99999999999999"/></clipPath></g><g class="gradients"/><g class="patterns"/></defs><g class="bglayer"><rect class="bg" x="80" y="100" width="494" height="63.999999999999986" style="fill: rgb(229, 236, 246); fill-opacity: 1; stroke-width: 0;"/><rect class="bg" x="80" y="228" width="494" height="63.999999999999986" style="fill: rgb(229, 236, 246); fill-opacity: 1; stroke-width: 0;"/><rect class="bg" x="80" y="356" width="494" height="63.99999999999999" style="fill: rgb(229, 236, 246); fill-opacity: 1; stroke-width: 0;"/></g><g class="layer-below"><g class="imagelayer"/><g class="shapelayer"/></g><g class="cartesianlayer"><g class="subplot xy"><g class="layer-subplot"><g class="shapelayer"/><g class="imagelayer"/></g><g class="minor-gridlayer"><g class="x"/><g class="y"/></g><g class="gridlayer"><g class="x"><path class="xgrid crisp" transform="translate(204.12,0)" d="M0,100v63.999999999999986" style="stroke: rgb(255, 255, 255); stroke-opacity: 1; stroke-width: 1px;"/><path class="xgrid crisp" transform="translate(328.24,0)" d="M0,100v63.999999999999986" style="stroke: rgb(255, 255, 255); stroke-opacity: 1; stroke-width: 1px;"/><path class="xgrid crisp" transform="translate(452.36,0)" d="M0,100v63.999999999999986" style="stroke: rgb(255, 255, 255); stroke-opacity: 1; stroke-width: 1px;"/></g><g class="y"><path class="ygrid crisp" transform="translate(0,132)" d="M80,0h494" style="stroke: rgb(255, 255, 255); stroke-opacity: 1; stroke-width: 1px;"/><path class="ygrid crisp" transform="translate(0,103.2)" d="M80,0h494" style="stroke: rgb(255, 255, 255); stroke-opacity: 1; stroke-width: 1px;"/></g></g><g class="zerolinelayer"><path class="xzl zl crisp" transform="translate(80,0)" d="M0,100v63.999999999999986" style="stroke: rgb(255, 255, 255); stroke-opacity: 1; stroke-width: 2px;"/><path class="yzl zl crisp" transform="translate(0,160.8)" d="M80,0h494" style="stroke: rgb(255, 255, 255); stroke-opacity: 1; stroke-width: 2px;"/></g><path class="xlines-below"/><path class="ylines-below"/><g class="overlines-below"/><g class="xaxislayer-below"/><g class="yaxislayer-below"/><g class="overaxes-below"/><g class="plot" transform="translate(80,100)" clip-path="url(#clip7a7667xyplot)"><g class="scatterlayer mlayer"><g class="trace scatter trace2d2b0c" style="stroke-miterlimit: 2; opacity: 1;"><g class="fills"/><g class="errorbars"/><g class="lines"><path class="js-line" d="M0,3.2L42.2,7.18L44.68,7.47L84.4,13.01L86.88,13.41L121.64,19.95L124.12,20.48L158.87,28.63L161.36,29.26L211.01,42.83L213.49,43.52L248.24,52.5L250.72,53.05L270.58,56.75L273.07,57.11L292.92,59.22L295.41,59.39L322.71,60.45L325.2,60.49L389.74,60.79L392.22,60.79L494,60.8" style="vector-effect: non-scaling-stroke; fill: none; stroke: rgb(30, 67, 130); stroke-opacity: 1; stroke-width: 2px; opacity: 1;"/></g><g class="points"/><g class="text"/></g><g class="trace scatter traceff5ac3" style="stroke-miterlimit: 2;"><g class="fills"><g><path class="js-fill" d="M0,3.2L39.72,6.9L42.2,7.19L76.95,11.83L79.44,12.21L116.67,18.93L119.16,19.44L156.39,28L158.87,28.63L201.08,40.05L203.56,40.74L245.76,51.94L248.24,52.5L268.1,56.36L270.58,56.75L290.44,59.03L292.92,59.22L320.23,60.4L322.71,60.45L389.74,60.79L392.22,60.79L494,60.8L494,60.8L412.08,60.8L409.6,60.8L330.16,60.56L327.68,60.53L297.89,59.55L295.41,59.39L275.55,57.45L273.07,57.11L250.72,53.05L248.24,52.5L211.01,42.82L208.52,42.13L158.87,28.62L156.39,28L119.16,19.43L116.67,18.92L81.92,12.6L79.44,12.21L44.68,7.47L42.2,7.18L0,3.2Z" style="fill: rgb(30, 67, 130); fill-opacity: 0.2; stroke-width: 0;"/></g></g><g class="errorbars"/><g class="lines"><path class="js-line" d="M0,3.2L42.2,7.18L44.68,7.47L79.44,12.21L81.92,12.6L116.67,18.92L119.16,19.43L156.39,28L158.87,28.62L208.52,42.13L211.01,42.82L248.24,52.5L250.72,53.05L273.07,57.11L275.55,57.45L295.41,59.39L297.89,59.55L327.68,60.53L330.16,60.56L409.6,60.8L412.08,60.8L494,60.8" style="vector-effect: non-scaling-stroke; fill: none; stroke: rgb(239, 85, 59); stroke-opacity: 1; stroke-width: 0px; opacity: 1;"/></g><g class="points"/><g class="text"/></g><g class="trace scatter trace421c0e" style="stroke-miterlimit: 2;"><g class="fills"/><g class="errorbars"/><g class="lines"><path class="js-line" d="M0,3.2L39.72,6.9L42.2,7.19L76.95,11.83L79.44,12.21L116.67,18.93L119.16,19.44L156.39,28L158.87,28.63L201.08,40.05L203.56,40.74L245.76,51.94L248.24,52.5L268.1,56.36L270.58,56.75L290.44,59.03L292.92,59.22L320.23,60.4L322.71,60.45L389.74,60.79L392.22,60.79L494,60.8" style="vector-effect: non-scaling-stroke; fill: none; stroke: rgb(0, 204, 150); stroke-opacity: 1; stroke-width: 0px; opacity: 1;"/></g><g class="points"/><g class="text"/></g></g></g><g class="overplot"/><path class="xlines-above crisp" d="M0,0" style="fill: none;"/><path class="ylines-above crisp" d="M0,0" style="fill: none;"/><g class="overlines-above"/><g class="xaxislayer-above"><g class="xtick"><text text-anchor="middle" x="0" y="177" transform="translate(80,0)" style="font-family: 'Open Sans', verdana, arial, sans-serif; font-size: 12px; fill: rgb(42, 63, 95); fill-opacity: 1; white-space: pre; opacity: 1;">0</text></g><g class="xtick"><text text-anchor="middle" x="0" y="177" style="font-family: 'Open Sans', verdana, arial, sans-serif; font-size: 12px; fill: rgb(42, 63, 95); fill-opacity: 1; white-space: pre; opacity: 1;" transform="translate(204.12,0)">50</text></g><g class="xtick"><text text-anchor="middle" x="0" y="177" style="font-family: 'Open Sans', verdana, arial, sans-serif; font-size: 12px; fill: rgb(42, 63, 95); fill-opacity: 1; white-space: pre; opacity: 1;" transform="translate(328.24,0)">100</text></g><g class="xtick"><text text-anchor="middle" x="0" y="177" style="font-family: 'Open Sans', verdana, arial, sans-serif; font-size: 12px; fill: rgb(42, 63, 95); fill-opacity: 1; white-space: pre; opacity: 1;" transform="translate(452.36,0)">150</text></g></g><g class="yaxislayer-above"><g class="ytick"><text text-anchor="end" x="79" y="4.199999999999999" transform="translate(0,160.8)" style="font-family: 'Open Sans', verdana, arial, sans-serif; font-size: 12px; fill: rgb(42, 63, 95); fill-opacity: 1; white-space: pre; opacity: 1;">0</text></g><g class="ytick"><text text-anchor="end" x="79" y="4.199999999999999" style="font-family: 'Open Sans', verdana, arial, sans-serif; font-size: 12px; fill: rgb(42, 63, 95); fill-opacity: 1; white-space: pre; opacity: 1;" transform="translate(0,132)">50</text></g><g class="ytick"><text text-anchor="end" x="79" y="4.199999999999999" style="font-family: 'Open Sans', verdana, arial, sans-serif; font-size: 12px; fill: rgb(42, 63, 95); fill-opacity: 1; white-space: pre; opacity: 1;" transform="translate(0,103.2)">100</text></g></g><g class="overaxes-above"/></g><g class="subplot x2y2"><g class="layer-subplot"><g class="shapelayer"/><g class="imagelayer"/></g><g class="minor-gridlayer"><g class="x2"/><g class="y2"/></g><g class="gridlayer"><g class="x2"><path class="x2grid crisp" transform="translate(204.12,0)" d="M0,228v63.999999999999986" style="stroke: rgb(255, 255, 255); stroke-opacity: 1; stroke-width: 1px;"/><path class="x2grid crisp" transform="translate(328.24,0)" d="M0,228v63.999999999999986" style="stroke: rgb(255, 255, 255); stroke-opacity: 1; stroke-width: 1px;"/><path class="x2grid crisp" transform="translate(452.36,0)" d="M0,228v63.999999999999986" style="stroke: rgb(255, 255, 255); stroke-opacity: 1; stroke-width: 1px;"/></g><g class="y2"><path class="y2grid crisp" transform="translate(0,260)" d="M80,0h494" style="stroke: rgb(255, 255, 255); stroke-opacity: 1; stroke-width: 1px;"/><path class="y2grid crisp" transform="translate(0,231.2)" d="M80,0h494" style="stroke: rgb(255, 255, 255); stroke-opacity: 1; stroke-width: 1px;"/></g></g><g class="zerolinelayer"><path class="x2zl zl crisp" transform="translate(80,0)" d="M0,228v63.999999999999986" style="stroke: rgb(255, 255, 255); stroke-opacity: 1; stroke-width: 2px;"/><path class="y2zl zl crisp" transform="translate(0,288.8)" d="M80,0h494" style="stroke: rgb(255, 255, 255); stroke-opacity: 1; stroke-width: 2px;"/></g><path class="xlines-below"/><path class="ylines-below"/><g class="overlines-below"/><g class="xaxislayer-below"/><g class="yaxislayer-below"/><g class="overaxes-below"/><g class="plot" transform="translate(80,228)" clip-path="url(#clip7a7667x2y2plot)"><g class="scatterlayer mlayer"><g class="trace scatter tracef8afa0" style="stroke-miterlimit: 2; opacity: 1;"><g class="fills"/><g class="errorbars"/><g class="lines"><path class="js-line" d="M0,3.2L27.31,12.3L29.79,13.19L71.99,29.47L74.47,30.45L109.23,43.27L111.71,44.08L134.05,50.5L136.53,51.11L156.39,55.1L158.87,55.5L181.22,58.22L183.7,58.43L211.01,59.97L213.49,60.05L263.14,60.73L265.62,60.73L466.69,60.8L469.18,60.8L494,60.8" style="vector-effect: non-scaling-stroke; fill: none; stroke: rgb(214, 135, 15); stroke-opacity: 1; stroke-width: 2px; opacity: 1;"/></g><g class="points"/><g class="text"/></g><g class="trace scatter tracecd9d68" style="stroke-miterlimit: 2;"><g class="fills"><g><path class="js-fill" d="M0,3.2L29.79,13.22L32.27,14.12L79.44,32.41L81.92,33.37L111.71,44.1L114.19,44.89L134.05,50.51L136.53,51.11L156.39,55.11L158.87,55.51L181.22,58.22L183.7,58.43L211.01,59.97L213.49,60.05L263.14,60.73L265.62,60.73L466.69,60.8L469.18,60.8L494,60.8L494,60.8L466.69,60.8L464.21,60.8L253.21,60.68L250.72,60.66L211.01,59.96L208.52,59.88L181.22,58.21L178.73,57.98L156.39,55.1L153.91,54.68L134.05,50.49L131.57,49.87L109.23,43.25L106.74,42.42L64.54,26.51L62.06,25.53L27.31,12.28L24.82,11.39L0,3.2Z" style="fill: rgb(214, 135, 15); fill-opacity: 0.5; stroke-width: 0;"/></g></g><g class="errorbars"/><g class="lines"><path class="js-line" d="M0,3.2L24.82,11.39L27.31,12.28L62.06,25.53L64.54,26.51L106.74,42.42L109.23,43.25L131.57,49.87L134.05,50.49L153.91,54.68L156.39,55.1L178.73,57.98L181.22,58.21L208.52,59.88L211.01,59.96L250.72,60.66L253.21,60.68L464.21,60.8L466.69,60.8L494,60.8" style="vector-effect: non-scaling-stroke; fill: none; stroke: rgb(255, 161, 90); stroke-opacity: 1; stroke-width: 0px; opacity: 1;"/></g><g class="points"/><g class="text"/></g><g class="trace scatter trace610d0d" style="stroke-miterlimit: 2;"><g class="fills"/><g class="errorbars"/><g class="lines"><path class="js-line" d="M0,3.2L29.79,13.22L32.27,14.12L79.44,32.41L81.92,33.37L111.71,44.1L114.19,44.89L134.05,50.51L136.53,51.11L156.39,55.11L158.87,55.51L181.22,58.22L183.7,58.43L211.01,59.97L213.49,60.05L263.14,60.73L265.62,60.73L466.69,60.8L469.18,60.8L494,60.8" style="vector-effect: non-scaling-stroke; fill: none; stroke: rgb(214, 135, 15); stroke-opacity: 0.3; stroke-width: 0px; opacity: 1;"/></g><g class="points"/><g class="text"/></g><g class="trace scatter trace8703c1" style="stroke-miterlimit: 2; opacity: 1;"><g class="fills"/><g class="errorbars"/><g class="lines"><path class="js-line" d="M0,3.2L27.31,12.29L29.79,13.18L71.99,29.46L74.47,30.43L106.74,42.43L109.23,43.26L131.57,49.87L134.05,50.5L153.91,54.68L156.39,55.1L178.73,57.98L181.22,58.21L208.52,59.88L211.01,59.97L255.69,60.69L258.17,60.7L362.43,60.8L364.91,60.8L494,60.8" style="vector-effect: non-scaling-stroke; fill: none; stroke: rgb(141, 191, 4); stroke-opacity: 1; stroke-width: 2px; opacity: 1;"/></g><g class="points"/><g class="text"/></g><g class="trace scatter trace39b82b" style="stroke-miterlimit: 2;"><g class="fills"><g><path class="js-fill" d="M0,3.2L29.79,13.2L32.27,14.1L67.03,27.5L69.51,28.48L106.74,42.43L109.23,43.26L131.57,49.87L134.05,50.5L153.91,54.68L156.39,55.1L178.73,57.98L181.22,58.21L208.52,59.88L211.01,59.97L255.69,60.69L258.17,60.7L362.43,60.8L364.91,60.8L494,60.8L494,60.8L466.69,60.8L464.21,60.8L253.21,60.68L250.72,60.66L211.01,59.96L208.52,59.88L181.22,58.21L178.73,57.98L156.39,55.1L153.91,54.68L134.05,50.49L131.57,49.87L109.23,43.26L106.74,42.42L67.03,27.49L64.54,26.51L29.79,13.17L27.31,12.27L0,3.2Z" style="fill: rgb(141, 191, 4); fill-opacity: 0.5; stroke-width: 0;"/></g></g><g class="errorbars"/><g class="lines"><path class="js-line" d="M0,3.2L27.31,12.27L29.79,13.17L64.54,26.51L67.03,27.49L106.74,42.42L109.23,43.26L131.57,49.87L134.05,50.49L153.91,54.68L156.39,55.1L178.73,57.98L181.22,58.21L208.52,59.88L211.01,59.96L250.72,60.66L253.21,60.68L464.21,60.8L466.69,60.8L494,60.8" style="vector-effect: non-scaling-stroke; fill: none; stroke: rgb(182, 232, 128); stroke-opacity: 1; stroke-width: 0px; opacity: 1;"/></g><g class="points"/><g class="text"/></g><g class="trace scatter tracecbf097" style="stroke-miterlimit: 2;"><g class="fills"/><g class="errorbars"/><g class="lines"><path class="js-line" d="M0,3.2L29.79,13.2L32.27,14.1L67.03,27.5L69.51,28.48L106.74,42.43L109.23,43.26L131.57,49.87L134.05,50.5L153.91,54.68L156.39,55.1L178.73,57.98L181.22,58.21L208.52,59.88L211.01,59.97L255.69,60.69L258.17,60.7L362.43,60.8L364.91,60.8L494,60.8" style="vector-effect: non-scaling-stroke; fill: none; stroke: rgb(141, 191, 4); stroke-opacity: 0.3; stroke-width: 0px; opacity: 1;"/></g><g class="points"/><g class="text"/></g></g></g><g class="overplot"/><path class="xlines-above crisp" d="M0,0" style="fill: none;"/><path class="ylines-above crisp" d="M0,0" style="fill: none;"/><g class="overlines-above"/><g class="xaxislayer-above"><g class="x2tick"><text text-anchor="middle" x="0" y="305" transform="translate(80,0)" style="font-family: 'Open Sans', verdana, arial, sans-serif; font-size: 12px; fill: rgb(42, 63, 95); fill-opacity: 1; white-space: pre; opacity: 1;">0</text></g><g class="x2tick"><text text-anchor="middle" x="0" y="305" style="font-family: 'Open Sans', verdana, arial, sans-serif; font-size: 12px; fill: rgb(42, 63, 95); fill-opacity: 1; white-space: pre; opacity: 1;" transform="translate(204.12,0)">50</text></g><g class="x2tick"><text text-anchor="middle" x="0" y="305" style="font-family: 'Open Sans', verdana, arial, sans-serif; font-size: 12px; fill: rgb(42, 63, 95); fill-opacity: 1; white-space: pre; opacity: 1;" transform="translate(328.24,0)">100</text></g><g class="x2tick"><text text-anchor="middle" x="0" y="305" style="font-family: 'Open Sans', verdana, arial, sans-serif; font-size: 12px; fill: rgb(42, 63, 95); fill-opacity: 1; white-space: pre; opacity: 1;" transform="translate(452.36,0)">150</text></g></g><g class="yaxislayer-above"><g class="y2tick"><text text-anchor="end" x="79" y="4.199999999999999" transform="translate(0,288.8)" style="font-family: 'Open Sans', verdana, arial, sans-serif; font-size: 12px; fill: rgb(42, 63, 95); fill-opacity: 1; white-space: pre; opacity: 1;">0</text></g><g class="y2tick"><text text-anchor="end" x="79" y="4.199999999999999" style="font-family: 'Open Sans', verdana, arial, sans-serif; font-size: 12px; fill: rgb(42, 63, 95); fill-opacity: 1; white-space: pre; opacity: 1;" transform="translate(0,260)">5</text></g><g class="y2tick"><text text-anchor="end" x="79" y="4.199999999999999" style="font-family: 'Open Sans', verdana, arial, sans-serif; font-size: 12px; fill: rgb(42, 63, 95); fill-opacity: 1; white-space: pre; opacity: 1;" transform="translate(0,231.2)">10</text></g></g><g class="overaxes-above"/></g><g class="subplot x3y3"><g class="layer-subplot"><g class="shapelayer"/><g class="imagelayer"/></g><g class="minor-gridlayer"><g class="x3"/><g class="y3"/></g><g class="gridlayer"><g class="x3"><path class="x3grid crisp" transform="translate(204.12,0)" d="M0,356v63.99999999999999" style="stroke: rgb(255, 255, 255); stroke-opacity: 1; stroke-width: 1px;"/><path class="x3grid crisp" transform="translate(328.24,0)" d="M0,356v63.99999999999999" style="stroke: rgb(255, 255, 255); stroke-opacity: 1; stroke-width: 1px;"/><path class="x3grid crisp" transform="translate(452.36,0)" d="M0,356v63.99999999999999" style="stroke: rgb(255, 255, 255); stroke-opacity: 1; stroke-width: 1px;"/></g><g class="y3"><path class="y3grid crisp" transform="translate(0,406.1)" d="M80,0h494" style="stroke: rgb(255, 255, 255); stroke-opacity: 1; stroke-width: 1px;"/><path class="y3grid crisp" transform="translate(0,384.71)" d="M80,0h494" style="stroke: rgb(255, 255, 255); stroke-opacity: 1; stroke-width: 1px;"/><path class="y3grid crisp" transform="translate(0,363.32)" d="M80,0h494" style="stroke: rgb(255, 255, 255); stroke-opacity: 1; stroke-width: 1px;"/></g></g><g class="zerolinelayer"><path class="x3zl zl crisp" transform="translate(80,0)" d="M0,356v63.99999999999999" style="stroke: rgb(255, 255, 255); stroke-opacity: 1; stroke-width: 2px;"/></g><path class="xlines-below"/><path class="ylines-below"/><g class="overlines-below"/><g class="xaxislayer-below"/><g class="yaxislayer-below"/><g class="overaxes-below"/><g class="plot" transform="translate(80,356)" clip-path="url(#clip7a7667x3y3plot)"><g class="scatterlayer mlayer"><g class="trace scatter traceebe5ca" style="stroke-miterlimit: 2; opacity: 1;"><g class="fills"/><g class="errorbars"/><g class="lines"><path class="js-line" d="M0,60.8L37.24,56.04L39.72,55.67L76.95,49.37L79.44,48.91L126.6,39.05L129.09,38.49L186.18,24.86L188.66,24.25L243.28,11.33L245.76,10.83L270.58,6.69L273.07,6.37L295.41,4.42L297.89,4.28L330.16,3.41L332.64,3.39L446.83,3.22L449.32,3.22L494,3.22" style="vector-effect: non-scaling-stroke; fill: none; stroke: rgb(163, 2, 2); stroke-opacity: 1; stroke-width: 2px; opacity: 1;"/></g><g class="points"/><g class="text"/></g><g class="trace scatter trace65c63c" style="stroke-miterlimit: 2;"><g class="fills"><g><path class="js-fill" d="M0,60.8L37.24,56.04L39.72,55.67L76.95,49.38L79.44,48.91L126.6,39.06L129.09,38.5L198.59,21.8L201.08,21.18L248.24,10.35L250.72,9.88L273.07,6.39L275.55,6.1L297.89,4.3L300.37,4.18L335.13,3.38L337.61,3.36L494,3.24L494,3.2L446.83,3.2L444.35,3.2L335.13,3.35L332.64,3.37L300.37,4.14L297.89,4.26L275.55,6.07L273.07,6.36L250.72,9.85L248.24,10.33L201.08,21.16L198.59,21.78L129.09,38.49L126.6,39.05L81.92,48.43L79.44,48.9L39.72,55.67L37.24,56.04L0,60.8Z" style="fill: rgb(163, 2, 2); fill-opacity: 0.2; stroke-width: 0;"/></g></g><g class="errorbars"/><g class="lines"><path class="js-line" d="M0,60.8L37.24,56.04L39.72,55.67L79.44,48.9L81.92,48.43L126.6,39.05L129.09,38.49L198.59,21.78L201.08,21.16L248.24,10.33L250.72,9.85L273.07,6.36L275.55,6.07L297.89,4.26L300.37,4.14L332.64,3.37L335.13,3.35L444.35,3.2L446.83,3.2L494,3.2" style="vector-effect: non-scaling-stroke; fill: none; stroke: rgb(99, 110, 250); stroke-opacity: 1; stroke-width: 0px; opacity: 1;"/></g><g class="points"/><g class="text"/></g><g class="trace scatter tracec0b1c8" style="stroke-miterlimit: 2;"><g class="fills"/><g class="errorbars"/><g class="lines"><path class="js-line" d="M0,60.8L37.24,56.04L39.72,55.67L76.95,49.38L79.44,48.91L126.6,39.06L129.09,38.5L198.59,21.8L201.08,21.18L248.24,10.35L250.72,9.88L273.07,6.39L275.55,6.1L297.89,4.3L300.37,4.18L335.13,3.38L337.61,3.36L494,3.24" style="vector-effect: non-scaling-stroke; fill: none; stroke: rgb(239, 85, 59); stroke-opacity: 1; stroke-width: 0px; opacity: 1;"/></g><g class="points"/><g class="text"/></g><g class="trace scatter trace916973" style="stroke-miterlimit: 2; opacity: 1;"><g class="fills"/><g class="errorbars"/><g class="lines"><path class="js-line" d="M0,60.8L37.24,56.05L39.72,55.68L76.95,49.39L79.44,48.92L121.64,40.18L124.12,39.63L186.18,24.89L188.66,24.28L243.28,11.37L245.76,10.87L270.58,6.73L273.07,6.41L295.41,4.46L297.89,4.32L330.16,3.46L332.64,3.43L446.83,3.26L449.32,3.26L494,3.26" style="vector-effect: non-scaling-stroke; fill: none; stroke: rgb(252, 3, 136); stroke-opacity: 1; stroke-width: 2px; opacity: 1;"/></g><g class="points"/><g class="text"/></g><g class="trace scatter trace5dd62d" style="stroke-miterlimit: 2;"><g class="fills"><g><path class="js-fill" d="M0,60.8L37.24,56.06L39.72,55.69L79.44,48.93L81.92,48.46L126.6,39.08L129.09,38.52L186.18,24.91L188.66,24.29L248.24,10.4L250.72,9.92L273.07,6.43L275.55,6.14L297.89,4.34L300.37,4.22L332.64,3.45L335.13,3.43L444.35,3.28L446.83,3.28L494,3.28L494,3.25L449.32,3.24L446.83,3.24L332.64,3.41L330.16,3.44L297.89,4.3L295.41,4.44L273.07,6.4L270.58,6.71L245.76,10.85L243.28,11.35L201.08,21.19L198.59,21.8L134.05,37.37L131.57,37.94L86.88,47.47L84.4,47.96L44.68,54.92L42.2,55.3L0,60.8Z" style="fill: rgb(252, 3, 136); fill-opacity: 0.2; stroke-width: 0;"/></g></g><g class="errorbars"/><g class="lines"><path class="js-line" d="M0,60.8L42.2,55.3L44.68,54.92L84.4,47.96L86.88,47.47L131.57,37.94L134.05,37.37L198.59,21.8L201.08,21.19L243.28,11.35L245.76,10.85L270.58,6.71L273.07,6.4L295.41,4.44L297.89,4.3L330.16,3.44L332.64,3.41L446.83,3.24L449.32,3.24L494,3.25" style="vector-effect: non-scaling-stroke; fill: none; stroke: rgb(171, 99, 250); stroke-opacity: 1; stroke-width: 0px; opacity: 1;"/></g><g class="points"/><g class="text"/></g><g class="trace scatter trace276caa" style="stroke-miterlimit: 2;"><g class="fills"/><g class="errorbars"/><g class="lines"><path class="js-line" d="M0,60.8L37.24,56.06L39.72,55.69L79.44,48.93L81.92,48.46L126.6,39.08L129.09,38.52L186.18,24.91L188.66,24.29L248.24,10.4L250.72,9.92L273.07,6.43L275.55,6.14L297.89,4.34L300.37,4.22L332.64,3.45L335.13,3.43L444.35,3.28L446.83,3.28L494,3.28" style="vector-effect: non-scaling-stroke; fill: none; stroke: rgb(255, 161, 90); stroke-opacity: 1; stroke-width: 0px; opacity: 1;"/></g><g class="points"/><g class="text"/></g></g></g><g class="overplot"/><path class="xlines-above crisp" d="M0,0" style="fill: none;"/><path class="ylines-above crisp" d="M0,0" style="fill: none;"/><g class="overlines-above"/><g class="xaxislayer-above"><g class="x3tick"><text text-anchor="middle" x="0" y="433" transform="translate(80,0)" style="font-family: 'Open Sans', verdana, arial, sans-serif; font-size: 12px; fill: rgb(42, 63, 95); fill-opacity: 1; white-space: pre; opacity: 1;">0</text></g><g class="x3tick"><text text-anchor="middle" x="0" y="433" style="font-family: 'Open Sans', verdana, arial, sans-serif; font-size: 12px; fill: rgb(42, 63, 95); fill-opacity: 1; white-space: pre; opacity: 1;" transform="translate(204.12,0)">50</text></g><g class="x3tick"><text text-anchor="middle" x="0" y="433" style="font-family: 'Open Sans', verdana, arial, sans-serif; font-size: 12px; fill: rgb(42, 63, 95); fill-opacity: 1; white-space: pre; opacity: 1;" transform="translate(328.24,0)">100</text></g><g class="x3tick"><text text-anchor="middle" x="0" y="433" style="font-family: 'Open Sans', verdana, arial, sans-serif; font-size: 12px; fill: rgb(42, 63, 95); fill-opacity: 1; white-space: pre; opacity: 1;" transform="translate(452.36,0)">150</text></g></g><g class="yaxislayer-above"><g class="y3tick"><text text-anchor="end" x="79" y="4.199999999999999" transform="translate(0,406.1)" style="font-family: 'Open Sans', verdana, arial, sans-serif; font-size: 12px; fill: rgb(42, 63, 95); fill-opacity: 1; white-space: pre; opacity: 1;">0.2</text></g><g class="y3tick"><text text-anchor="end" x="79" y="4.199999999999999" style="font-family: 'Open Sans', verdana, arial, sans-serif; font-size: 12px; fill: rgb(42, 63, 95); fill-opacity: 1; white-space: pre; opacity: 1;" transform="translate(0,384.71)">0.4</text></g><g class="y3tick"><text text-anchor="end" x="79" y="4.199999999999999" style="font-family: 'Open Sans', verdana, arial, sans-serif; font-size: 12px; fill: rgb(42, 63, 95); fill-opacity: 1; white-space: pre; opacity: 1;" transform="translate(0,363.32)">0.6</text></g></g><g class="overaxes-above"/></g></g><g class="polarlayer"/><g class="smithlayer"/><g class="ternarylayer"/><g class="geolayer"/><g class="funnelarealayer"/><g class="pielayer"/><g class="iciclelayer"/><g class="treemaplayer"/><g class="sunburstlayer"/><g class="glimages"/><defs id="topdefs-7a7667"><g class="clips"/><clipPath id="legend7a7667"><rect width="104" height="123" x="0" y="0"/></clipPath></defs><g class="layer-above"><g class="imagelayer"/><g class="shapelayer"/></g><g class="infolayer"><g class="legend" pointer-events="all" transform="translate(583.88,100)"><rect class="bg" shape-rendering="crispEdges" width="104" height="123" x="0" y="0" style="stroke: rgb(68, 68, 68); stroke-opacity: 1; fill: rgb(255, 255, 255); fill-opacity: 1; stroke-width: 0px;"/><g class="scrollbox" transform="" clip-path="url(#legend7a7667)"><g class="groups"><g class="traces" transform="translate(0,16.25)" style="opacity: 1;"><text class="legendtext" text-anchor="start" x="40" y="5.85" style="font-family: 'Open Sans', verdana, arial, sans-serif; font-size: 15px; fill: rgb(42, 63, 95); fill-opacity: 1; white-space: pre;">Agent 2</text><g class="layers" style="opacity: 1;"><g class="legendfill"/><g class="legendlines"><path class="js-line" d="M5,0h30" style="fill: none; stroke: rgb(252, 3, 136); stroke-opacity: 1; stroke-width: 2px;"/></g><g class="legendsymbols"><g class="legendpoints"/></g></g><rect class="legendtoggle" x="0" y="-11.25" width="98.75" height="22.5" style="fill: rgb(0, 0, 0); fill-opacity: 0;"/></g><g class="traces" transform="translate(0,38.75)" style="opacity: 1;"><text class="legendtext" text-anchor="start" x="40" y="5.85" style="font-family: 'Open Sans', verdana, arial, sans-serif; font-size: 15px; fill: rgb(42, 63, 95); fill-opacity: 1; white-space: pre;">Agent 1</text><g class="layers" style="opacity: 1;"><g class="legendfill"/><g class="legendlines"><path class="js-line" d="M5,0h30" style="fill: none; stroke: rgb(163, 2, 2); stroke-opacity: 1; stroke-width: 2px;"/></g><g class="legendsymbols"><g class="legendpoints"/></g></g><rect class="legendtoggle" x="0" y="-11.25" width="98.75" height="22.5" style="fill: rgb(0, 0, 0); fill-opacity: 0;"/></g><g class="traces" transform="translate(0,61.25)" style="opacity: 1;"><text class="legendtext" text-anchor="start" x="40" y="5.85" style="font-family: 'Open Sans', verdana, arial, sans-serif; font-size: 15px; fill: rgb(42, 63, 95); fill-opacity: 1; white-space: pre;">B</text><g class="layers" style="opacity: 1;"><g class="legendfill"/><g class="legendlines"><path class="js-line" d="M5,0h30" style="fill: none; stroke: rgb(141, 191, 4); stroke-opacity: 1; stroke-width: 2px;"/></g><g class="legendsymbols"><g class="legendpoints"/></g></g><rect class="legendtoggle" x="0" y="-11.25" width="98.75" height="22.5" style="fill: rgb(0, 0, 0); fill-opacity: 0;"/></g><g class="traces" transform="translate(0,83.75)" style="opacity: 1;"><text class="legendtext" text-anchor="start" x="40" y="5.85" style="font-family: 'Open Sans', verdana, arial, sans-serif; font-size: 15px; fill: rgb(42, 63, 95); fill-opacity: 1; white-space: pre;">A</text><g class="layers" style="opacity: 1;"><g class="legendfill"/><g class="legendlines"><path class="js-line" d="M5,0h30" style="fill: none; stroke: rgb(214, 135, 15); stroke-opacity: 1; stroke-width: 2px;"/></g><g class="legendsymbols"><g class="legendpoints"/></g></g><rect class="legendtoggle" x="0" y="-11.25" width="98.75" height="22.5" style="fill: rgb(0, 0, 0); fill-opacity: 0;"/></g><g class="traces" transform="translate(0,106.25)" style="opacity: 1;"><text class="legendtext" text-anchor="start" x="40" y="5.85" style="font-family: 'Open Sans', verdana, arial, sans-serif; font-size: 15px; fill: rgb(42, 63, 95); fill-opacity: 1; white-space: pre;">S</text><g class="layers" style="opacity: 1;"><g class="legendfill"/><g class="legendlines"><path class="js-line" d="M5,0h30" style="fill: none; stroke: rgb(30, 67, 130); stroke-opacity: 1; stroke-width: 2px;"/></g><g class="legendsymbols"><g class="legendpoints"/></g></g><rect class="legendtoggle" x="0" y="-11.25" width="98.75" height="22.5" style="fill: rgb(0, 0, 0); fill-opacity: 0;"/></g></g></g><rect class="scrollbar" rx="20" ry="3" width="0" height="0" x="0" y="0" style="fill: rgb(128, 139, 164); fill-opacity: 1;"/></g><g class="g-gtitle"/><g class="g-xtitle"/><g class="g-x2title"/><g class="g-x3title"><text class="x3title" x="327" y="460.3" text-anchor="middle" style="font-family: 'Open Sans', verdana, arial, sans-serif; font-size: 14px; fill: rgb(42, 63, 95); opacity: 1; font-weight: normal; white-space: pre;">Time</text></g><g class="g-ytitle"><text class="ytitle" transform="rotate(-90,31.309375000000003,132)" x="31.309375000000003" y="132" text-anchor="middle" style="font-family: 'Open Sans', verdana, arial, sans-serif; font-size: 14px; fill: rgb(42, 63, 95); opacity: 1; font-weight: normal; white-space: pre;">Concentration</text></g><g class="g-y2title"><text class="y2title" transform="rotate(-90,38.934375,260)" x="38.934375" y="260" text-anchor="middle" style="font-family: 'Open Sans', verdana, arial, sans-serif; font-size: 14px; fill: rgb(42, 63, 95); opacity: 1; font-weight: normal; white-space: pre;">Concentration</text></g><g class="g-y3title"><text class="y3title" transform="rotate(-90,34.575,388)" x="34.575" y="388" text-anchor="middle" style="font-family: 'Open Sans', verdana, arial, sans-serif; font-size: 14px; fill: rgb(42, 63, 95); opacity: 1; font-weight: normal; white-space: pre;">Concentration</text></g><g class="annotation" data-index="0" style="opacity: 1;"><g class="annotation-text-g" transform="rotate(0,327,88)"><g class="cursor-pointer" transform="translate(250,76)"><rect class="bg" x="0.5" y="0.5" width="153" height="23" style="stroke-width: 1px; stroke: rgb(0, 0, 0); stroke-opacity: 0; fill: rgb(0, 0, 0); fill-opacity: 0;"/><text class="annotation-text" text-anchor="middle" x="76.90625" y="18" style="font-family: 'Open Sans', verdana, arial, sans-serif; font-size: 16px; fill: rgb(42, 63, 95); fill-opacity: 1; white-space: pre;">Concentration of S</text></g></g></g><g class="annotation" data-index="1" style="opacity: 1;"><g class="annotation-text-g" transform="rotate(0,327,216)"><g class="cursor-pointer" transform="translate(220,204)"><rect class="bg" x="0.5" y="0.5" width="213" height="23" style="stroke-width: 1px; stroke: rgb(0, 0, 0); stroke-opacity: 0; fill: rgb(0, 0, 0); fill-opacity: 0;"/><text class="annotation-text" text-anchor="middle" x="107.03125" y="18" style="font-family: 'Open Sans', verdana, arial, sans-serif; font-size: 16px; fill: rgb(42, 63, 95); fill-opacity: 1; white-space: pre;">Concentrations of A and B</text></g></g></g><g class="annotation" data-index="2" style="opacity: 1;"><g class="annotation-text-g" transform="rotate(0,327,344)"><g class="cursor-pointer" transform="translate(228,332)"><rect class="bg" x="0.5" y="0.5" width="197" height="23" style="stroke-width: 1px; stroke: rgb(0, 0, 0); stroke-opacity: 0; fill: rgb(0, 0, 0); fill-opacity: 0;"/><text class="annotation-text" text-anchor="middle" x="99.03125" y="18" style="font-family: 'Open Sans', verdana, arial, sans-serif; font-size: 16px; fill: rgb(42, 63, 95); fill-opacity: 1; white-space: pre;">Concentration of Agents</text></g></g></g></g></svg>