<svg class="main-svg" xmlns="http://www.w3.org/2000/svg" xmlns:xlink="http://www.w3.org/1999/xlink" width="1200" height="900" style="" viewBox="0 0 1200 900"><rect x="0" y="0" width="1200" height="900" style="fill: rgb(255, 255, 255); fill-opacity: 1;"/><defs id="defs-095b2a"><g class="clips"><clipPath id="clip095b2axyplot" class="plotclip"><rect width="974" height="160"/></clipPath><clipPath id="clip095b2ax2y2plot" class="plotclip"><rect width="974" height="160.00000000000003"/></clipPath><clipPath id="clip095b2ax3y3plot" class="plotclip"><rect width="974" height="160"/></clipPath><clipPath class="axesclip" id="clip095b2ax"><rect x="80" y="0" width="974" height="900"/></clipPath><clipPath class="axesclip" id="clip095b2ay"><rect x="0" y="100" width="1200" height="160"/></clipPath><clipPath class="axesclip" id="clip095b2axy"><rect x="80" y="100" width="974" height="160"/></clipPath><clipPath class="axesclip" id="clip095b2ay2"><rect x="0" y="379.99999999999994" width="1200" height="160.00000000000003"/></clipPath><clipPath class="axesclip" id="clip095b2axy2"><rect x="80" y="379.99999999999994" width="974" height="160.00000000000003"/></clipPath><clipPath class="axesclip" id="clip095b2ay3"><rect x="0" y="660" width="1200" height="160"/></clipPath><clipPath class="axesclip" id="clip095b2axy3"><rect x="80" y="660" width="974" height="160"/></clipPath><clipPath class="axesclip" id="clip095b2ax2"><rect x="80" y="0" width="974" height="900"/></clipPath><clipPath class="axesclip" id="clip095b2ax2y"><rect x="80" y="100" width="974" height="160"/></clipPath><clipPath class="axesclip" id="clip095b2ax2y2"><rect x="80" y="379.99999999999994" width="974" height="160.00000000000003"/></clipPath><clipPath class="axesclip" id="clip095b2ax2y3"><rect x="80" y="660" width="974" height="160"/></clipPath><clipPath class="axesclip" id="clip095b2ax3"><rect x="80" y="0" width="974" height="900"/></clipPath><clipPath class="axesclip" id="clip095b2ax3y"><rect x="80" y="100" width="974" height="160"/></clipPath><clipPath class="axesclip" id="clip095b2ax3y2"><rect x="80" y="379.99999999999994" width="974" height="160.00000000000003"/></clipPath><clipPath class="axesclip" id="clip095b2ax3y3"><rect x="80" y="660" width="974" height="160"/></clipPath></g><g class="gradients"/><g class="patterns"/></defs><g class="bglayer"><rect class="bg" x="80" y="100" width="974" height="160" style="fill: rgb(229, 236, 246); fill-opacity: 1; stroke-width: 0;"/><rect class="bg" x="80" y="379.99999999999994" width="974" height="160.00000000000003" style="fill: rgb(229, 236, 246); fill-opacity: 1; stroke-width: 0;"/><rect class="bg" x="80" y="660" width="974" height="160" style="fill: rgb(229, 236, 246); fill-opacity: 1; stroke-width: 0;"/></g><g class="layer-below"><g class="imagelayer"/><g class="shapelayer"/></g><g class="cartesianlayer"><g class="subplot xy"><g class="layer-subplot"><g class="shapelayer"/><g class="imagelayer"/></g><g class="minor-gridlayer"><g class="x"/><g class="y"/></g><g class="gridlayer"><g class="x"><path class="xgrid crisp" transform="translate(201.9,0)" d="M0,100v160" style="stroke: rgb(255, 255, 255); stroke-opacity: 1; stroke-width: 1px;"/><path class="xgrid crisp" transform="translate(323.8,0)" d="M0,100v160" style="stroke: rgb(255, 255, 255); stroke-opacity: 1; stroke-width: 1px;"/><path class="xgrid crisp" transform="translate(445.71,0)" d="M0,100v160" style="stroke: rgb(255, 255, 255); stroke-opacity: 1; stroke-width: 1px;"/><path class="xgrid crisp" transform="translate(567.61,0)" d="M0,100v160" style="stroke: rgb(255, 255, 255); stroke-opacity: 1; stroke-width: 1px;"/><path class="xgrid crisp" transform="translate(689.51,0)" d="M0,100v160" style="stroke: rgb(255, 255, 255); stroke-opacity: 1; stroke-width: 1px;"/><path class="xgrid crisp" transform="translate(811.41,0)" d="M0,100v160" style="stroke: rgb(255, 255, 255); stroke-opacity: 1; stroke-width: 1px;"/><path class="xgrid crisp" transform="translate(933.32,0)" d="M0,100v160" style="stroke: rgb(255, 255, 255); stroke-opacity: 1; stroke-width: 1px;"/></g><g class="y"><path class="ygrid crisp" transform="translate(0,180.01)" d="M80,0h974" style="stroke: rgb(255, 255, 255); stroke-opacity: 1; stroke-width: 1px;"/><path class="ygrid crisp" transform="translate(0,108)" d="M80,0h974" style="stroke: rgb(255, 255, 255); stroke-opacity: 1; stroke-width: 1px;"/></g></g><g class="zerolinelayer"><path class="xzl zl crisp" transform="translate(80,0)" d="M0,100v160" style="stroke: rgb(255, 255, 255); stroke-opacity: 1; stroke-width: 2px;"/><path class="yzl zl crisp" transform="translate(0,252.01)" d="M80,0h974" style="stroke: rgb(255, 255, 255); stroke-opacity: 1; stroke-width: 2px;"/></g><path class="xlines-below"/><path class="ylines-below"/><g class="overlines-below"/><g class="xaxislayer-below"/><g class="yaxislayer-below"/><g class="overaxes-below"/><g class="plot" transform="translate(80,100)" clip-path="url(#clip095b2axyplot)"><g class="scatterlayer mlayer"><g class="trace scatter trace0cc641" style="stroke-miterlimit: 2; opacity: 1;"><g class="fills"/><g class="errorbars"/><g class="lines"><path class="js-line" d="M0,8L13.41,13.98L14.63,14.61L26.82,21.71L28.04,22.52L40.23,31.51L41.45,32.51L53.64,43.6L54.86,44.82L68.27,59.5L69.48,60.94L84.11,79.63L85.33,81.29L123.12,132.63L124.34,133.96L131.65,140.9L132.87,141.87L140.19,146.46L141.41,147.04L148.72,149.55L149.94,149.83L160.91,151.32L162.13,151.4L181.63,151.93L182.85,151.94L242.59,152L243.8,8L257.21,13.98L258.43,14.61L270.62,21.71L271.84,22.51L284.03,31.51L285.25,32.51L297.44,43.6L298.66,44.81L312.07,59.49L313.29,60.93L327.92,79.62L329.14,81.27L365.71,131.24L366.93,132.62L375.46,140.9L376.68,141.86L383.99,146.46L385.21,147.04L392.53,149.54L393.74,149.83L404.72,151.32L405.93,151.4L425.44,151.93L426.66,151.94L486.39,152L487.61,8L501.02,13.98L502.24,14.61L514.43,21.72L515.65,22.52L527.84,31.52L529.06,32.52L541.25,43.61L542.47,44.83L555.87,59.51L557.09,60.95L571.72,79.64L572.94,81.3L610.73,132.64L611.95,133.97L619.26,140.91L620.48,141.88L627.8,146.47L629.02,147.04L636.33,149.55L637.55,149.83L647.3,151.22L648.52,151.32L669.24,151.93L670.46,151.94L730.2,152L731.41,8L744.82,13.98L746.04,14.61L758.23,21.72L759.45,22.52L771.64,31.51L772.86,32.52L785.05,43.61L786.27,44.82L799.68,59.5L800.9,60.95L814.31,78L815.53,79.64L837.47,110.52L838.69,112.23L852.1,129.84L853.32,131.26L861.85,139.89L863.07,140.91L870.38,145.84L871.6,146.47L878.92,149.23L880.14,149.55L889.89,151.12L891.11,151.22L908.17,151.88L909.39,151.9L974,152" style="vector-effect: non-scaling-stroke; fill: none; stroke: rgb(99, 110, 250); stroke-opacity: 1; stroke-width: 2px; opacity: 1;"/></g><g class="points"/><g class="text"/></g></g></g><g class="overplot"/><path class="xlines-above crisp" d="M0,0" style="fill: none;"/><path class="ylines-above crisp" d="M0,0" style="fill: none;"/><g class="overlines-above"/><g class="xaxislayer-above"><g class="xtick"><text text-anchor="middle" x="0" y="273" transform="translate(80,0)" style="font-family: 'Open Sans', verdana, arial, sans-serif; font-size: 12px; fill: rgb(42, 63, 95); fill-opacity: 1; white-space: pre; opacity: 1;">0</text></g><g class="xtick"><text text-anchor="middle" x="0" y="273" style="font-family: 'Open Sans', verdana, arial, sans-serif; font-size: 12px; fill: rgb(42, 63, 95); fill-opacity: 1; white-space: pre; opacity: 1;" transform="translate(201.9,0)">100</text></g><g class="xtick"><text text-anchor="middle" x="0" y="273" style="font-family: 'Open Sans', verdana, arial, sans-serif; font-size: 12px; fill: rgb(42, 63, 95); fill-opacity: 1; white-space: pre; opacity: 1;" transform="translate(323.8,0)">200</text></g><g class="xtick"><text text-anchor="middle" x="0" y="273" style="font-family: 'Open Sans', verdana, arial, sans-serif; font-size: 12px; fill: rgb(42, 63, 95); fill-opacity: 1; white-space: pre; opacity: 1;" transform="translate(445.71,0)">300</text></g><g class="xtick"><text text-anchor="middle" x="0" y="273" style="font-family: 'Open Sans', verdana, arial, sans-serif; font-size: 12px; fill: rgb(42, 63, 95); fill-opacity: 1; white-space: pre; opacity: 1;" transform="translate(567.61,0)">400</text></g><g class="xtick"><text text-anchor="middle" x="0" y="273" style="font-family: 'Open Sans', verdana, arial, sans-serif; font-size: 12px; fill: rgb(42, 63, 95); fill-opacity: 1; white-space: pre; opacity: 1;" transform="translate(689.51,0)">500</text></g><g class="xtick"><text text-anchor="middle" x="0" y="273" style="font-family: 'Open Sans', verdana, arial, sans-serif; font-size: 12px; fill: rgb(42, 63, 95); fill-opacity: 1; white-space: pre; opacity: 1;" transform="translate(811.41,0)">600</text></g><g class="xtick"><text text-anchor="middle" x="0" y="273" style="font-family: 'Open Sans', verdana, arial, sans-serif; font-size: 12px; fill: rgb(42, 63, 95); fill-opacity: 1; white-space: pre; opacity: 1;" transform="translate(933.32,0)">700</text></g></g><g class="yaxislayer-above"><g class="ytick"><text text-anchor="end" x="79" y="4.199999999999999" transform="translate(0,252.01)" style="font-family: 'Open Sans', verdana, arial, sans-serif; font-size: 12px; fill: rgb(42, 63, 95); fill-opacity: 1; white-space: pre; opacity: 1;">0</text></g><g class="ytick"><text text-anchor="end" x="79" y="4.199999999999999" style="font-family: 'Open Sans', verdana, arial, sans-serif; font-size: 12px; fill: rgb(42, 63, 95); fill-opacity: 1; white-space: pre; opacity: 1;" transform="translate(0,180.01)">50</text></g><g class="ytick"><text text-anchor="end" x="79" y="4.199999999999999" style="font-family: 'Open Sans', verdana, arial, sans-serif; font-size: 12px; fill: rgb(42, 63, 95); fill-opacity: 1; white-space: pre; opacity: 1;" transform="translate(0,108)">100</text></g></g><g class="overaxes-above"/></g><g class="subplot x2y2"><g class="layer-subplot"><g class="shapelayer"/><g class="imagelayer"/></g><g class="minor-gridlayer"><g class="x2"/><g class="y2"/></g><g class="gridlayer"><g class="x2"><path class="x2grid crisp" transform="translate(201.9,0)" d="M0,379.99999999999994v160.00000000000003" style="stroke: rgb(255, 255, 255); stroke-opacity: 1; stroke-width: 1px;"/><path class="x2grid crisp" transform="translate(323.8,0)" d="M0,379.99999999999994v160.00000000000003" style="stroke: rgb(255, 255, 255); stroke-opacity: 1; stroke-width: 1px;"/><path class="x2grid crisp" transform="translate(445.71,0)" d="M0,379.99999999999994v160.00000000000003" style="stroke: rgb(255, 255, 255); stroke-opacity: 1; stroke-width: 1px;"/><path class="x2grid crisp" transform="translate(567.61,0)" d="M0,379.99999999999994v160.00000000000003" style="stroke: rgb(255, 255, 255); stroke-opacity: 1; stroke-width: 1px;"/><path class="x2grid crisp" transform="translate(689.51,0)" d="M0,379.99999999999994v160.00000000000003" style="stroke: rgb(255, 255, 255); stroke-opacity: 1; stroke-width: 1px;"/><path class="x2grid crisp" transform="translate(811.41,0)" d="M0,379.99999999999994v160.00000000000003" style="stroke: rgb(255, 255, 255); stroke-opacity: 1; stroke-width: 1px;"/><path class="x2grid crisp" transform="translate(933.32,0)" d="M0,379.99999999999994v160.00000000000003" style="stroke: rgb(255, 255, 255); stroke-opacity: 1; stroke-width: 1px;"/></g><g class="y2"><path class="y2grid crisp" transform="translate(0,459.99999999999994)" d="M80,0h974" style="stroke: rgb(255, 255, 255); stroke-opacity: 1; stroke-width: 1px;"/><path class="y2grid crisp" transform="translate(0,387.99999999999994)" d="M80,0h974" style="stroke: rgb(255, 255, 255); stroke-opacity: 1; stroke-width: 1px;"/></g></g><g class="zerolinelayer"><path class="x2zl zl crisp" transform="translate(80,0)" d="M0,379.99999999999994v160.00000000000003" style="stroke: rgb(255, 255, 255); stroke-opacity: 1; stroke-width: 2px;"/><path class="y2zl zl crisp" transform="translate(0,532)" d="M80,0h974" style="stroke: rgb(255, 255, 255); stroke-opacity: 1; stroke-width: 2px;"/></g><path class="xlines-below"/><path class="ylines-below"/><g class="overlines-below"/><g class="xaxislayer-below"/><g class="yaxislayer-below"/><g class="overaxes-below"/><g class="plot" transform="translate(80,379.99999999999994)" clip-path="url(#clip095b2ax2y2plot)"><g class="scatterlayer mlayer"><g class="trace scatter traced6c276" style="stroke-miterlimit: 2; opacity: 1;"><g class="fills"/><g class="errorbars"/><g class="lines"><path class="js-line" d="M0,8L12.19,28.52L13.41,30.74L28.04,58.97L29.26,61.42L51.2,103.96L52.42,106.09L62.17,121.39L63.39,123.07L71.92,133.22L73.14,134.44L80.46,140.6L81.67,141.44L88.99,145.54L90.21,146.07L98.74,148.89L99.96,149.18L110.93,150.9L112.15,151.01L129.22,151.81L130.44,151.84L185.29,152L186.51,152L242.59,152L243.8,8L253.56,24.1L254.78,26.26L269.4,54.05L270.62,56.48L296.22,106.04L297.44,108.13L307.19,123.04L308.41,124.66L315.73,133.2L316.95,134.42L324.26,140.58L325.48,141.43L332.79,145.53L334.01,146.07L342.55,148.89L343.76,149.18L354.74,150.9L355.95,151.01L373.02,151.81L374.24,151.84L429.1,152L430.32,152L486.39,152L487.61,8L498.58,26.4L499.8,28.59L514.43,56.6L515.65,59.04L538.81,104.01L540.03,106.13L549.78,121.42L551,123.1L559.53,133.24L560.75,134.46L568.07,140.61L569.28,141.46L576.6,145.55L577.82,146.08L586.35,148.9L587.57,149.18L598.54,150.9L599.76,151.01L616.83,151.81L618.05,151.84L672.9,152L674.12,152L730.2,152L731.41,8L743.6,28.55L744.82,30.77L759.45,59L760.67,61.44L782.61,103.98L783.83,106.1L793.58,121.4L794.8,123.08L803.34,133.23L804.56,134.45L811.87,140.6L813.09,141.45L820.4,145.54L821.62,146.08L830.16,148.89L831.37,149.18L842.35,150.9L843.56,151.01L860.63,151.81L861.85,151.84L916.71,152L917.92,152L974,152" style="vector-effect: non-scaling-stroke; fill: none; stroke: rgb(239, 85, 59); stroke-opacity: 1; stroke-width: 2px; opacity: 1;"/></g><g class="points"/><g class="text"/></g><g class="trace scatter traced5c135" style="stroke-miterlimit: 2; opacity: 1;"><g class="fills"/><g class="errorbars"/><g class="lines"><path class="js-line" d="M0,8L10.97,26.32L12.19,28.49L26.82,56.52L28.04,58.95L51.2,103.95L52.42,106.07L62.17,121.38L63.39,123.06L71.92,133.21L73.14,134.43L80.46,140.6L81.67,141.44L88.99,145.53L90.21,146.07L98.74,148.89L99.96,149.18L110.93,150.9L112.15,151.01L129.22,151.81L130.44,151.84L185.29,152L186.51,152L242.59,152L243.8,8L255.99,28.5L257.21,30.72L270.62,56.5L271.84,58.94L295,103.94L296.22,106.06L305.97,121.37L307.19,123.05L315.73,133.2L316.95,134.42L324.26,140.59L325.48,141.43L332.79,145.53L334.01,146.07L342.55,148.89L343.76,149.18L354.74,150.9L355.95,151.01L373.02,151.81L374.24,151.84L429.1,152L430.32,152L486.39,152L487.61,8L499.8,28.54L501.02,30.76L516.87,61.39L518.09,63.84L537.59,101.79L538.81,103.95L548.56,119.65L549.78,121.38L558.31,131.94L559.53,133.21L566.85,139.7L568.07,140.6L575.38,144.96L576.6,145.54L585.13,148.58L586.35,148.89L597.32,150.77L598.54,150.9L616.83,151.81L618.05,151.84L672.9,152L674.12,152L730.2,152L731.41,8L742.39,26.26L743.6,28.45L758.23,56.48L759.45,58.92L782.61,103.93L783.83,106.06L793.58,121.37L794.8,123.05L803.34,133.21L804.56,134.43L811.87,140.59L813.09,141.44L820.4,145.53L821.62,146.07L830.16,148.89L831.37,149.18L842.35,150.9L843.56,151.01L860.63,151.81L861.85,151.84L916.71,152L917.92,152L974,152" style="vector-effect: non-scaling-stroke; fill: none; stroke: rgb(0, 204, 150); stroke-opacity: 1; stroke-width: 2px; opacity: 1;"/></g><g class="points"/><g class="text"/></g></g></g><g class="overplot"/><path class="xlines-above crisp" d="M0,0" style="fill: none;"/><path class="ylines-above crisp" d="M0,0" style="fill: none;"/><g class="overlines-above"/><g class="xaxislayer-above"><g class="x2tick"><text text-anchor="middle" x="0" y="553" transform="translate(80,0)" style="font-family: 'Open Sans', verdana, arial, sans-serif; font-size: 12px; fill: rgb(42, 63, 95); fill-opacity: 1; white-space: pre; opacity: 1;">0</text></g><g class="x2tick"><text text-anchor="middle" x="0" y="553" style="font-family: 'Open Sans', verdana, arial, sans-serif; font-size: 12px; fill: rgb(42, 63, 95); fill-opacity: 1; white-space: pre; opacity: 1;" transform="translate(201.9,0)">100</text></g><g class="x2tick"><text text-anchor="middle" x="0" y="553" style="font-family: 'Open Sans', verdana, arial, sans-serif; font-size: 12px; fill: rgb(42, 63, 95); fill-opacity: 1; white-space: pre; opacity: 1;" transform="translate(323.8,0)">200</text></g><g class="x2tick"><text text-anchor="middle" x="0" y="553" style="font-family: 'Open Sans', verdana, arial, sans-serif; font-size: 12px; fill: rgb(42, 63, 95); fill-opacity: 1; white-space: pre; opacity: 1;" transform="translate(445.71,0)">300</text></g><g class="x2tick"><text text-anchor="middle" x="0" y="553" style="font-family: 'Open Sans', verdana, arial, sans-serif; font-size: 12px; fill: rgb(42, 63, 95); fill-opacity: 1; white-space: pre; opacity: 1;" transform="translate(567.61,0)">400</text></g><g class="x2tick"><text text-anchor="middle" x="0" y="553" style="font-family: 'Open Sans', verdana, arial, sans-serif; font-size: 12px; fill: rgb(42, 63, 95); fill-opacity: 1; white-space: pre; opacity: 1;" transform="translate(689.51,0)">500</text></g><g class="x2tick"><text text-anchor="middle" x="0" y="553" style="font-family: 'Open Sans', verdana, arial, sans-serif; font-size: 12px; fill: rgb(42, 63, 95); fill-opacity: 1; white-space: pre; opacity: 1;" transform="translate(811.41,0)">600</text></g><g class="x2tick"><text text-anchor="middle" x="0" y="553" style="font-family: 'Open Sans', verdana, arial, sans-serif; font-size: 12px; fill: rgb(42, 63, 95); fill-opacity: 1; white-space: pre; opacity: 1;" transform="translate(933.32,0)">700</text></g></g><g class="yaxislayer-above"><g class="y2tick"><text text-anchor="end" x="79" y="4.199999999999999" transform="translate(0,532)" style="font-family: 'Open Sans', verdana, arial, sans-serif; font-size: 12px; fill: rgb(42, 63, 95); fill-opacity: 1; white-space: pre; opacity: 1;">0</text></g><g class="y2tick"><text text-anchor="end" x="79" y="4.199999999999999" style="font-family: 'Open Sans', verdana, arial, sans-serif; font-size: 12px; fill: rgb(42, 63, 95); fill-opacity: 1; white-space: pre; opacity: 1;" transform="translate(0,459.99999999999994)">5</text></g><g class="y2tick"><text text-anchor="end" x="79" y="4.199999999999999" style="font-family: 'Open Sans', verdana, arial, sans-serif; font-size: 12px; fill: rgb(42, 63, 95); fill-opacity: 1; white-space: pre; opacity: 1;" transform="translate(0,387.99999999999994)">10</text></g></g><g class="overaxes-above"/></g><g class="subplot x3y3"><g class="layer-subplot"><g class="shapelayer"/><g class="imagelayer"/></g><g class="minor-gridlayer"><g class="x3"/><g class="y3"/></g><g class="gridlayer"><g class="x3"><path class="x3grid crisp" transform="translate(201.9,0)" d="M0,660v160" style="stroke: rgb(255, 255, 255); stroke-opacity: 1; stroke-width: 1px;"/><path class="x3grid crisp" transform="translate(323.8,0)" d="M0,660v160" style="stroke: rgb(255, 255, 255); stroke-opacity: 1; stroke-width: 1px;"/><path class="x3grid crisp" transform="translate(445.71,0)" d="M0,660v160" style="stroke: rgb(255, 255, 255); stroke-opacity: 1; stroke-width: 1px;"/><path class="x3grid crisp" transform="translate(567.61,0)" d="M0,660v160" style="stroke: rgb(255, 255, 255); stroke-opacity: 1; stroke-width: 1px;"/><path class="x3grid crisp" transform="translate(689.51,0)" d="M0,660v160" style="stroke: rgb(255, 255, 255); stroke-opacity: 1; stroke-width: 1px;"/><path class="x3grid crisp" transform="translate(811.41,0)" d="M0,660v160" style="stroke: rgb(255, 255, 255); stroke-opacity: 1; stroke-width: 1px;"/><path class="x3grid crisp" transform="translate(933.32,0)" d="M0,660v160" style="stroke: rgb(255, 255, 255); stroke-opacity: 1; stroke-width: 1px;"/></g><g class="y3"><path class="y3grid crisp" transform="translate(0,785.26)" d="M80,0h974" style="stroke: rgb(255, 255, 255); stroke-opacity: 1; stroke-width: 1px;"/><path class="y3grid crisp" transform="translate(0,731.78)" d="M80,0h974" style="stroke: rgb(255, 255, 255); stroke-opacity: 1; stroke-width: 1px;"/><path class="y3grid crisp" transform="translate(0,678.3)" d="M80,0h974" style="stroke: rgb(255, 255, 255); stroke-opacity: 1; stroke-width: 1px;"/></g></g><g class="zerolinelayer"><path class="x3zl zl crisp" transform="translate(80,0)" d="M0,660v160" style="stroke: rgb(255, 255, 255); stroke-opacity: 1; stroke-width: 2px;"/></g><path class="xlines-below"/><path class="ylines-below"/><g class="overlines-below"/><g class="xaxislayer-below"/><g class="yaxislayer-below"/><g class="overaxes-below"/><g class="plot" transform="translate(80,660)" clip-path="url(#clip095b2ax3y3plot)"><g class="scatterlayer mlayer"><g class="trace scatter trace7a6145" style="stroke-miterlimit: 2; opacity: 1;"><g class="fills"/><g class="errorbars"/><g class="lines"><path class="js-line" d="M0,152L13.41,143.62L14.63,142.76L26.82,133.31L28.04,132.27L41.45,119.88L42.67,118.67L60.95,99.03L62.17,97.63L84.11,71.33L85.33,69.81L118.25,29.63L119.46,28.34L128,20.33L129.22,19.36L136.53,14.53L137.75,13.9L145.06,11.05L146.28,10.71L156.04,9.02L157.25,8.9L173.1,8.19L174.32,8.17L226.74,8.06L227.96,8.06L242.59,8.06L243.8,152L257.21,143.62L258.43,142.76L270.62,133.31L271.84,132.27L285.25,119.88L286.47,118.66L303.54,100.4L304.76,99.01L327.92,71.31L329.14,69.79L362.05,29.59L363.27,28.3L371.8,20.29L373.02,19.31L380.34,14.49L381.55,13.85L388.87,11L390.09,10.66L399.84,8.96L401.06,8.84L418.13,8.12L419.34,8.1L486.39,8.01L487.61,152L501.02,143.62L502.24,142.77L515.65,132.28L516.87,131.23L531.49,117.45L532.71,116.21L551,96.25L552.22,94.84L575.38,66.78L576.6,65.26L604.64,30.98L605.85,29.66L615.61,20.37L616.83,19.4L624.14,14.58L625.36,13.94L632.67,11.09L633.89,10.76L642.43,9.2L643.64,9.06L658.27,8.28L659.49,8.26L714.35,8.11L715.57,8.11L730.2,8.11L731.41,152L744.82,143.62L746.04,142.76L759.45,132.28L760.67,131.23L775.3,117.44L776.52,116.2L792.37,99.03L793.58,97.64L815.53,71.34L816.75,69.82L849.66,29.64L850.88,28.35L860.63,19.37L861.85,18.45L869.16,13.92L870.38,13.33L878.92,10.43L880.14,10.15L891.11,8.72L892.33,8.63L914.27,8.11L915.49,8.11L974,8.08" style="vector-effect: non-scaling-stroke; fill: none; stroke: rgb(171, 99, 250); stroke-opacity: 1; stroke-width: 2px; opacity: 1;"/></g><g class="points"/><g class="text"/></g><g class="trace scatter trace1eaafa" style="stroke-miterlimit: 2; opacity: 1;"><g class="fills"/><g class="errorbars"/><g class="lines"><path class="js-line" d="M0,152L13.41,143.64L14.63,142.79L28.04,132.31L29.26,131.26L43.88,117.48L45.1,116.24L62.17,97.69L63.39,96.29L85.33,69.88L86.55,68.36L118.25,29.73L119.46,28.44L128,20.44L129.22,19.46L136.53,14.64L137.75,14.01L145.06,11.16L146.28,10.82L156.04,9.13L157.25,9.01L173.1,8.3L174.32,8.28L242.59,8.18L243.8,152L255.99,144.5L257.21,143.66L269.4,134.38L270.62,133.36L284.03,121.15L285.25,119.95L301.1,103.23L302.32,101.87L321.82,78.95L323.04,77.46L363.27,28.5L364.49,27.24L373.02,19.52L374.24,18.59L381.55,14.07L382.77,13.48L390.09,10.88L391.31,10.57L401.06,9.06L402.28,8.96L418.13,8.34L419.34,8.32L486.39,8.23L487.61,152L501.02,143.62L502.24,142.77L515.65,132.28L516.87,131.23L530.28,118.68L531.49,117.45L548.56,99.04L549.78,97.65L571.72,71.36L572.94,69.84L605.85,29.68L607.07,28.39L615.61,20.38L616.83,19.41L624.14,14.59L625.36,13.96L632.67,11.11L633.89,10.77L643.64,9.08L644.86,8.96L660.71,8.25L661.93,8.23L730.2,8.13L731.41,152L743.6,144.48L744.82,143.64L758.23,133.33L759.45,132.3L772.86,119.91L774.08,118.7L791.15,100.45L792.37,99.06L815.53,71.38L816.75,69.87L847.22,32.37L848.44,31.03L858.19,21.43L859.41,20.42L866.73,15.3L867.94,14.62L875.26,11.51L876.48,11.14L885.01,9.4L886.23,9.24L900.86,8.36L902.08,8.33L939.87,8.15L941.09,8.15L974,8.16" style="vector-effect: non-scaling-stroke; fill: none; stroke: rgb(255, 161, 90); stroke-opacity: 1; stroke-width: 2px; opacity: 1;"/></g><g class="points"/><g class="text"/></g></g></g><g class="overplot"/><path class="xlines-above crisp" d="M0,0" style="fill: none;"/><path class="ylines-above crisp" d="M0,0" style="fill: none;"/><g class="overlines-above"/><g class="xaxislayer-above"><g class="x3tick"><text text-anchor="middle" x="0" y="833" transform="translate(80,0)" style="font-family: 'Open Sans', verdana, arial, sans-serif; font-size: 12px; fill: rgb(42, 63, 95); fill-opacity: 1; white-space: pre; opacity: 1;">0</text></g><g class="x3tick"><text text-anchor="middle" x="0" y="833" style="font-family: 'Open Sans', verdana, arial, sans-serif; font-size: 12px; fill: rgb(42, 63, 95); fill-opacity: 1; white-space: pre; opacity: 1;" transform="translate(201.9,0)">100</text></g><g class="x3tick"><text text-anchor="middle" x="0" y="833" style="font-family: 'Open Sans', verdana, arial, sans-serif; font-size: 12px; fill: rgb(42, 63, 95); fill-opacity: 1; white-space: pre; opacity: 1;" transform="translate(323.8,0)">200</text></g><g class="x3tick"><text text-anchor="middle" x="0" y="833" style="font-family: 'Open Sans', verdana, arial, sans-serif; font-size: 12px; fill: rgb(42, 63, 95); fill-opacity: 1; white-space: pre; opacity: 1;" transform="translate(445.71,0)">300</text></g><g class="x3tick"><text text-anchor="middle" x="0" y="833" style="font-family: 'Open Sans', verdana, arial, sans-serif; font-size: 12px; fill: rgb(42, 63, 95); fill-opacity: 1; white-space: pre; opacity: 1;" transform="translate(567.61,0)">400</text></g><g class="x3tick"><text text-anchor="middle" x="0" y="833" style="font-family: 'Open Sans', verdana, arial, sans-serif; font-size: 12px; fill: rgb(42, 63, 95); fill-opacity: 1; white-space: pre; opacity: 1;" transform="translate(689.51,0)">500</text></g><g class="x3tick"><text text-anchor="middle" x="0" y="833" style="font-family: 'Open Sans', verdana, arial, sans-serif; font-size: 12px; fill: rgb(42, 63, 95); fill-opacity: 1; white-space: pre; opacity: 1;" transform="translate(811.41,0)">600</text></g><g class="x3tick"><text text-anchor="middle" x="0" y="833" style="font-family: 'Open Sans', verdana, arial, sans-serif; font-size: 12px; fill: rgb(42, 63, 95); fill-opacity: 1; white-space: pre; opacity: 1;" transform="translate(933.32,0)">700</text></g></g><g class="yaxislayer-above"><g class="y3tick"><text text-anchor="end" x="79" y="4.199999999999999" transform="translate(0,785.26)" style="font-family: 'Open Sans', verdana, arial, sans-serif; font-size: 12px; fill: rgb(42, 63, 95); fill-opacity: 1; white-space: pre; opacity: 1;">0.2</text></g><g class="y3tick"><text text-anchor="end" x="79" y="4.199999999999999" style="font-family: 'Open Sans', verdana, arial, sans-serif; font-size: 12px; fill: rgb(42, 63, 95); fill-opacity: 1; white-space: pre; opacity: 1;" transform="translate(0,731.78)">0.4</text></g><g class="y3tick"><text text-anchor="end" x="79" y="4.199999999999999" style="font-family: 'Open Sans', verdana, arial, sans-serif; font-size: 12px; fill: rgb(42, 63, 95); fill-opacity: 1; white-space: pre; opacity: 1;" transform="translate(0,678.3)">0.6</text></g></g><g class="overaxes-above"/></g></g><g class="polarlayer"/><g class="smithlayer"/><g class="ternarylayer"/><g class="geolayer"/><g class="funnelarealayer"/><g class="pielayer"/><g class="iciclelayer"/><g class="treemaplayer"/><g class="sunburstlayer"/><g class="glimages"/><defs id="topdefs-095b2a"><g class="clips"/><clipPath id="legend095b2a"><rect width="115" height="155" x="0" y="0"/></clipPath></defs><g class="layer-above"><g class="imagelayer"/><g class="shapelayer"/></g><g class="infolayer"><g class="legend" pointer-events="all" transform="translate(1073.48,100)"><rect class="bg" shape-rendering="crispEdges" width="115" height="155" x="0" y="0" style="stroke: rgb(68, 68, 68); stroke-opacity: 1; fill: rgb(255, 255, 255); fill-opacity: 1; stroke-width: 0px;"/><g class="scrollbox" transform="" clip-path="url(#legend095b2a)"><g class="groups"><g class="traces" transform="translate(0,19.5)" style="opacity: 1;"><text class="legendtext" text-anchor="start" x="40" y="7.8" style="font-family: 'Open Sans', verdana, arial, sans-serif; font-size: 20px; fill: rgb(42, 63, 95); fill-opacity: 1; white-space: pre;">S</text><g class="layers" style="opacity: 1;"><g class="legendfill"/><g class="legendlines"><path class="js-line" d="M5,0h30" style="fill: none; stroke: rgb(99, 110, 250); stroke-opacity: 1; stroke-width: 2px;"/></g><g class="legendsymbols"><g class="legendpoints"/></g></g><rect class="legendtoggle" x="0" y="-14.5" width="109.640625" height="29" style="fill: rgb(0, 0, 0); fill-opacity: 0;"/></g><g class="traces" transform="translate(0,48.5)" style="opacity: 1;"><text class="legendtext" text-anchor="start" x="40" y="7.8" style="font-family: 'Open Sans', verdana, arial, sans-serif; font-size: 20px; fill: rgb(42, 63, 95); fill-opacity: 1; white-space: pre;">A</text><g class="layers" style="opacity: 1;"><g class="legendfill"/><g class="legendlines"><path class="js-line" d="M5,0h30" style="fill: none; stroke: rgb(239, 85, 59); stroke-opacity: 1; stroke-width: 2px;"/></g><g class="legendsymbols"><g class="legendpoints"/></g></g><rect class="legendtoggle" x="0" y="-14.5" width="109.640625" height="29" style="fill: rgb(0, 0, 0); fill-opacity: 0;"/></g><g class="traces" transform="translate(0,77.5)" style="opacity: 1;"><text class="legendtext" text-anchor="start" x="40" y="7.8" style="font-family: 'Open Sans', verdana, arial, sans-serif; font-size: 20px; fill: rgb(42, 63, 95); fill-opacity: 1; white-space: pre;">B</text><g class="layers" style="opacity: 1;"><g class="legendfill"/><g class="legendlines"><path class="js-line" d="M5,0h30" style="fill: none; stroke: rgb(0, 204, 150); stroke-opacity: 1; stroke-width: 2px;"/></g><g class="legendsymbols"><g class="legendpoints"/></g></g><rect class="legendtoggle" x="0" y="-14.5" width="109.640625" height="29" style="fill: rgb(0, 0, 0); fill-opacity: 0;"/></g><g class="traces" transform="translate(0,106.5)" style="opacity: 1;"><text class="legendtext" text-anchor="start" x="40" y="7.8" style="font-family: 'Open Sans', verdana, arial, sans-serif; font-size: 20px; fill: rgb(42, 63, 95); fill-opacity: 1; white-space: pre;">agent1</text><g class="layers" style="opacity: 1;"><g class="legendfill"/><g class="legendlines"><path class="js-line" d="M5,0h30" style="fill: none; stroke: rgb(171, 99, 250); stroke-opacity: 1; stroke-width: 2px;"/></g><g class="legendsymbols"><g class="legendpoints"/></g></g><rect class="legendtoggle" x="0" y="-14.5" width="109.640625" height="29" style="fill: rgb(0, 0, 0); fill-opacity: 0;"/></g><g class="traces" transform="translate(0,135.5)" style="opacity: 1;"><text class="legendtext" text-anchor="start" x="40" y="7.8" style="font-family: 'Open Sans', verdana, arial, sans-serif; font-size: 20px; fill: rgb(42, 63, 95); fill-opacity: 1; white-space: pre;">agent2</text><g class="layers" style="opacity: 1;"><g class="legendfill"/><g class="legendlines"><path class="js-line" d="M5,0h30" style="fill: none; stroke: rgb(255, 161, 90); stroke-opacity: 1; stroke-width: 2px;"/></g><g class="legendsymbols"><g class="legendpoints"/></g></g><rect class="legendtoggle" x="0" y="-14.5" width="109.640625" height="29" style="fill: rgb(0, 0, 0); fill-opacity: 0;"/></g></g></g><rect class="scrollbar" rx="20" ry="3" width="0" height="0" x="0" y="0" style="fill: rgb(128, 139, 164); fill-opacity: 1;"/></g><g class="g-gtitle"><text class="gtitle" x="600" y="50" text-anchor="middle" dy="0em" style="font-family: 'Open Sans', verdana, arial, sans-serif; font-size: 25px; fill: rgb(42, 63, 95); opacity: 1; font-weight: normal; white-space: pre;">Concentration Profiles in Toy-NECOM-Facultative</text></g><g class="g-xtitle"/><g class="g-x2title"/><g class="g-x3title"><text class="x3title" x="567" y="860.3" text-anchor="middle" style="font-family: 'Open Sans', verdana, arial, sans-serif; font-size: 14px; fill: rgb(42, 63, 95); opacity: 1; font-weight: normal; white-space: pre;">Time</text></g><g class="g-ytitle"><text class="ytitle" transform="rotate(-90,31.309375000000003,180)" x="31.309375000000003" y="180" text-anchor="middle" style="font-family: 'Open Sans', verdana, arial, sans-serif; font-size: 14px; fill: rgb(42, 63, 95); opacity: 1; font-weight: normal; white-space: pre;">Concentration</text></g><g class="g-y2title"><text class="y2title" transform="rotate(-90,38.934375,459.99999999999994)" x="38.934375" y="459.99999999999994" text-anchor="middle" style="font-family: 'Open Sans', verdana, arial, sans-serif; font-size: 14px; fill: rgb(42, 63, 95); opacity: 1; font-weight: normal; white-space: pre;">Concentration</text></g><g class="g-y3title"><text class="y3title" transform="rotate(-90,34.575,740)" x="34.575" y="740" text-anchor="middle" style="font-family: 'Open Sans', verdana, arial, sans-serif; font-size: 14px; fill: rgb(42, 63, 95); opacity: 1; font-weight: normal; white-space: pre;">Concentration</text></g><g class="annotation" data-index="0" style="opacity: 1;"><g class="annotation-text-g" transform="rotate(0,567,88)"><g class="cursor-pointer" transform="translate(560,76)"><rect class="bg" x="0.5" y="0.5" width="14" height="23" style="stroke-width: 1px; stroke: rgb(0, 0, 0); stroke-opacity: 0; fill: rgb(0, 0, 0); fill-opacity: 0;"/><text class="annotation-text" text-anchor="middle" x="7.46875" y="18" style="font-family: 'Open Sans', verdana, arial, sans-serif; font-size: 16px; fill: rgb(42, 63, 95); fill-opacity: 1; white-space: pre;">S</text></g></g></g><g class="annotation" data-index="1" style="opacity: 1;"><g class="annotation-text-g" transform="rotate(0,567,367.99999999999994)"><g class="cursor-pointer" transform="translate(560,356)"><rect class="bg" x="0.5" y="0.5" width="14" height="23" style="stroke-width: 1px; stroke: rgb(0, 0, 0); stroke-opacity: 0; fill: rgb(0, 0, 0); fill-opacity: 0;"/><text class="annotation-text" text-anchor="middle" x="7.46875" y="18" style="font-family: 'Open Sans', verdana, arial, sans-serif; font-size: 16px; fill: rgb(42, 63, 95); fill-opacity: 1; white-space: pre;">A</text></g></g></g><g class="annotation" data-index="2" style="opacity: 1;"><g class="annotation-text-g" transform="rotate(0,567,648)"><g class="cursor-pointer" transform="translate(538,636)"><rect class="bg" x="0.5" y="0.5" width="58" height="23" style="stroke-width: 1px; stroke: rgb(0, 0, 0); stroke-opacity: 0; fill: rgb(0, 0, 0); fill-opacity: 0;"/><text class="annotation-text" text-anchor="middle" x="29.609375" y="18" style="font-family: 'Open Sans', verdana, arial, sans-serif; font-size: 16px; fill: rgb(42, 63, 95); fill-opacity: 1; white-space: pre;">Agents</text></g></g></g></g></svg>