<svg class="main-svg" xmlns="http://www.w3.org/2000/svg" xmlns:xlink="http://www.w3.org/1999/xlink" width="700" height="500" style="" viewBox="0 0 700 500"><rect x="0" y="0" width="700" height="500" style="fill: rgb(255, 255, 255); fill-opacity: 1;"/><defs id="defs-4dc3f3"><g class="clips"><clipPath id="clip4dc3f3xyplot" class="plotclip"><rect width="494" height="127.99999999999997"/></clipPath><clipPath id="clip4dc3f3x2y2plot" class="plotclip"><rect width="494" height="128"/></clipPath><clipPath class="axesclip" id="clip4dc3f3x"><rect x="80" y="0" width="494" height="500"/></clipPath><clipPath class="axesclip" id="clip4dc3f3y"><rect x="0" y="100" width="700" height="127.99999999999997"/></clipPath><clipPath class="axesclip" id="clip4dc3f3xy"><rect x="80" y="100" width="494" height="127.99999999999997"/></clipPath><clipPath class="axesclip" id="clip4dc3f3y2"><rect x="0" y="292" width="700" height="128"/></clipPath><clipPath class="axesclip" id="clip4dc3f3xy2"><rect x="80" y="292" width="494" height="128"/></clipPath><clipPath class="axesclip" id="clip4dc3f3x2"><rect x="80" y="0" width="494" height="500"/></clipPath><clipPath class="axesclip" id="clip4dc3f3x2y"><rect x="80" y="100" width="494" height="127.99999999999997"/></clipPath><clipPath class="axesclip" id="clip4dc3f3x2y2"><rect x="80" y="292" width="494" height="128"/></clipPath></g><g class="gradients"/><g class="patterns"/></defs><g class="bglayer"><rect class="bg" x="80" y="100" width="494" height="127.99999999999997" style="fill: rgb(229, 236, 246); fill-opacity: 1; stroke-width: 0;"/><rect class="bg" x="80" y="292" width="494" height="128" style="fill: rgb(229, 236, 246); fill-opacity: 1; stroke-width: 0;"/></g><g class="layer-below"><g class="imagelayer"/><g class="shapelayer"/></g><g class="cartesianlayer"><g class="subplot xy"><g class="layer-subplot"><g class="shapelayer"/><g class="imagelayer"/></g><g class="minor-gridlayer"><g class="x"/><g class="y"/></g><g class="gridlayer"><g class="x"><path class="xgrid crisp" transform="translate(178.9,0)" d="M0,100v127.99999999999997" style="stroke: rgb(255, 255, 255); stroke-opacity: 1; stroke-width: 1px;"/><path class="xgrid crisp" transform="translate(277.8,0)" d="M0,100v127.99999999999997" style="stroke: rgb(255, 255, 255); stroke-opacity: 1; stroke-width: 1px;"/><path class="xgrid crisp" transform="translate(376.7,0)" d="M0,100v127.99999999999997" style="stroke: rgb(255, 255, 255); stroke-opacity: 1; stroke-width: 1px;"/><path class="xgrid crisp" transform="translate(475.6,0)" d="M0,100v127.99999999999997" style="stroke: rgb(255, 255, 255); stroke-opacity: 1; stroke-width: 1px;"/></g><g class="y"><path class="ygrid crisp" transform="translate(0,164.01)" d="M80,0h494" style="stroke: rgb(255, 255, 255); stroke-opacity: 1; stroke-width: 1px;"/><path class="ygrid crisp" transform="translate(0,106.4)" d="M80,0h494" style="stroke: rgb(255, 255, 255); stroke-opacity: 1; stroke-width: 1px;"/></g></g><g class="zerolinelayer"><path class="xzl zl crisp" transform="translate(80,0)" d="M0,100v127.99999999999997" style="stroke: rgb(255, 255, 255); stroke-opacity: 1; stroke-width: 2px;"/><path class="yzl zl crisp" transform="translate(0,221.61)" d="M80,0h494" style="stroke: rgb(255, 255, 255); stroke-opacity: 1; stroke-width: 2px;"/></g><path class="xlines-below"/><path class="ylines-below"/><g class="overlines-below"/><g class="xaxislayer-below"/><g class="yaxislayer-below"/><g class="overaxes-below"/><g class="plot" transform="translate(80,100)" clip-path="url(#clip4dc3f3xyplot)"><g class="scatterlayer mlayer"><g class="trace scatter trace8394ba" style="stroke-miterlimit: 2; opacity: 1;"><g class="fills"/><g class="errorbars"/><g class="lines"><path class="js-line" d="M0,6.4L15.33,13.76L15.82,14.03L28.19,21.51L28.68,21.84L41.54,31.44L42.03,31.84L54.89,43.62L55.38,44.12L67.25,57.22L67.75,57.81L81.59,75.9L82.09,76.59L107.8,112.65L108.29,113.18L113.73,117.83L114.23,118.14L119.17,120.28L119.67,120.41L126.59,121.35L127.09,121.38L150.82,121.6L151.32,121.6L494,121.6" style="vector-effect: non-scaling-stroke; fill: none; stroke: rgb(30, 67, 130); stroke-opacity: 1; stroke-width: 2px; opacity: 1;"/></g><g class="points"/><g class="text"/></g><g class="trace scatter trace60a8bc" style="stroke-miterlimit: 2;"><g class="fills"><g><path class="js-fill" d="M0,6.4L15.33,13.76L15.82,14.03L28.19,21.51L28.68,21.84L41.54,31.44L42.03,31.84L54.89,43.62L55.38,44.12L67.25,57.22L67.75,57.81L81.59,75.9L82.09,76.59L107.8,112.65L108.29,113.18L113.73,117.83L114.23,118.14L119.17,120.28L119.67,120.41L126.59,121.35L127.09,121.38L150.82,121.6L151.32,121.6L494,121.6L494,121.6L151.32,121.6L150.82,121.6L127.09,121.38L126.59,121.35L119.67,120.41L119.17,120.28L114.23,118.14L113.73,117.83L108.29,113.18L107.8,112.65L82.09,76.59L81.59,75.9L67.75,57.81L67.25,57.22L55.38,44.12L54.89,43.62L42.03,31.84L41.54,31.44L28.68,21.84L28.19,21.51L15.82,14.03L15.33,13.76L0,6.4Z" style="fill: rgb(30, 67, 130); fill-opacity: 0.2; stroke-width: 0;"/></g></g><g class="errorbars"/><g class="lines"><path class="js-line" d="M0,6.4L15.33,13.76L15.82,14.03L28.19,21.51L28.68,21.84L41.54,31.44L42.03,31.84L54.89,43.62L55.38,44.12L67.25,57.22L67.75,57.81L81.59,75.9L82.09,76.59L107.8,112.65L108.29,113.18L113.73,117.83L114.23,118.14L119.17,120.28L119.67,120.41L126.59,121.35L127.09,121.38L150.82,121.6L151.32,121.6L494,121.6" style="vector-effect: non-scaling-stroke; fill: none; stroke: rgb(239, 85, 59); stroke-opacity: 1; stroke-width: 0px; opacity: 1;"/></g><g class="points"/><g class="text"/></g><g class="trace scatter trace8b5f34" style="stroke-miterlimit: 2;"><g class="fills"/><g class="errorbars"/><g class="lines"><path class="js-line" d="M0,6.4L15.33,13.76L15.82,14.03L28.19,21.51L28.68,21.84L41.54,31.44L42.03,31.84L54.89,43.62L55.38,44.12L67.25,57.22L67.75,57.81L81.59,75.9L82.09,76.59L107.8,112.65L108.29,113.18L113.73,117.83L114.23,118.14L119.17,120.28L119.67,120.41L126.59,121.35L127.09,121.38L150.82,121.6L151.32,121.6L494,121.6" style="vector-effect: non-scaling-stroke; fill: none; stroke: rgb(0, 204, 150); stroke-opacity: 1; stroke-width: 0px; opacity: 1;"/></g><g class="points"/><g class="text"/></g></g></g><g class="overplot"/><path class="xlines-above crisp" d="M0,0" style="fill: none;"/><path class="ylines-above crisp" d="M0,0" style="fill: none;"/><g class="overlines-above"/><g class="xaxislayer-above"><g class="xtick"><text text-anchor="middle" x="0" y="240.99999999999997" transform="translate(80,0)" style="font-family: 'Open Sans', verdana, arial, sans-serif; font-size: 12px; fill: rgb(42, 63, 95); fill-opacity: 1; white-space: pre; opacity: 1;">0</text></g><g class="xtick"><text text-anchor="middle" x="0" y="240.99999999999997" style="font-family: 'Open Sans', verdana, arial, sans-serif; font-size: 12px; fill: rgb(42, 63, 95); fill-opacity: 1; white-space: pre; opacity: 1;" transform="translate(178.9,0)">200</text></g><g class="xtick"><text text-anchor="middle" x="0" y="240.99999999999997" style="font-family: 'Open Sans', verdana, arial, sans-serif; font-size: 12px; fill: rgb(42, 63, 95); fill-opacity: 1; white-space: pre; opacity: 1;" transform="translate(277.8,0)">400</text></g><g class="xtick"><text text-anchor="middle" x="0" y="240.99999999999997" style="font-family: 'Open Sans', verdana, arial, sans-serif; font-size: 12px; fill: rgb(42, 63, 95); fill-opacity: 1; white-space: pre; opacity: 1;" transform="translate(376.7,0)">600</text></g><g class="xtick"><text text-anchor="middle" x="0" y="240.99999999999997" style="font-family: 'Open Sans', verdana, arial, sans-serif; font-size: 12px; fill: rgb(42, 63, 95); fill-opacity: 1; white-space: pre; opacity: 1;" transform="translate(475.6,0)">800</text></g></g><g class="yaxislayer-above"><g class="ytick"><text text-anchor="end" x="79" y="4.199999999999999" transform="translate(0,221.61)" style="font-family: 'Open Sans', verdana, arial, sans-serif; font-size: 12px; fill: rgb(42, 63, 95); fill-opacity: 1; white-space: pre; opacity: 1;">0</text></g><g class="ytick"><text text-anchor="end" x="79" y="4.199999999999999" style="font-family: 'Open Sans', verdana, arial, sans-serif; font-size: 12px; fill: rgb(42, 63, 95); fill-opacity: 1; white-space: pre; opacity: 1;" transform="translate(0,164.01)">50</text></g><g class="ytick"><text text-anchor="end" x="79" y="4.199999999999999" style="font-family: 'Open Sans', verdana, arial, sans-serif; font-size: 12px; fill: rgb(42, 63, 95); fill-opacity: 1; white-space: pre; opacity: 1;" transform="translate(0,106.4)">100</text></g></g><g class="overaxes-above"/></g><g class="subplot x2y2"><g class="layer-subplot"><g class="shapelayer"/><g class="imagelayer"/></g><g class="minor-gridlayer"><g class="x2"/><g class="y2"/></g><g class="gridlayer"><g class="x2"><path class="x2grid crisp" transform="translate(178.9,0)" d="M0,292v128" style="stroke: rgb(255, 255, 255); stroke-opacity: 1; stroke-width: 1px;"/><path class="x2grid crisp" transform="translate(277.8,0)" d="M0,292v128" style="stroke: rgb(255, 255, 255); stroke-opacity: 1; stroke-width: 1px;"/><path class="x2grid crisp" transform="translate(376.7,0)" d="M0,292v128" style="stroke: rgb(255, 255, 255); stroke-opacity: 1; stroke-width: 1px;"/><path class="x2grid crisp" transform="translate(475.6,0)" d="M0,292v128" style="stroke: rgb(255, 255, 255); stroke-opacity: 1; stroke-width: 1px;"/></g><g class="y2"><path class="y2grid crisp" transform="translate(0,372.5)" d="M80,0h494" style="stroke: rgb(255, 255, 255); stroke-opacity: 1; stroke-width: 1px;"/><path class="y2grid crisp" transform="translate(0,331.47)" d="M80,0h494" style="stroke: rgb(255, 255, 255); stroke-opacity: 1; stroke-width: 1px;"/></g></g><g class="zerolinelayer"><path class="x2zl zl crisp" transform="translate(80,0)" d="M0,292v128" style="stroke: rgb(255, 255, 255); stroke-opacity: 1; stroke-width: 2px;"/><path class="y2zl zl crisp" transform="translate(0,413.53)" d="M80,0h494" style="stroke: rgb(255, 255, 255); stroke-opacity: 1; stroke-width: 2px;"/></g><path class="xlines-below"/><path class="ylines-below"/><g class="overlines-below"/><g class="xaxislayer-below"/><g class="yaxislayer-below"/><g class="overaxes-below"/><g class="plot" transform="translate(80,292)" clip-path="url(#clip4dc3f3x2y2plot)"><g class="scatterlayer mlayer"><g class="trace scatter trace696795" style="stroke-miterlimit: 2; opacity: 1;"><g class="fills"/><g class="errorbars"/><g class="lines"><path class="js-line" d="M0,121.53L494,121.53" style="vector-effect: non-scaling-stroke; fill: none; stroke: rgb(214, 135, 15); stroke-opacity: 1; stroke-width: 2px; opacity: 1;"/></g><g class="points"/><g class="text"/></g><g class="trace scatter trace638904" style="stroke-miterlimit: 2;"><g class="fills"><g><path class="js-fill" d="M0,121.53L494,121.53L494,121.53L0,121.53Z" style="fill: rgb(214, 135, 15); fill-opacity: 0.5; stroke-width: 0;"/></g></g><g class="errorbars"/><g class="lines"><path class="js-line" d="M0,121.53L494,121.53" style="vector-effect: non-scaling-stroke; fill: none; stroke: rgb(255, 161, 90); stroke-opacity: 1; stroke-width: 0px; opacity: 1;"/></g><g class="points"/><g class="text"/></g><g class="trace scatter trace119202" style="stroke-miterlimit: 2;"><g class="fills"/><g class="errorbars"/><g class="lines"><path class="js-line" d="M0,121.53L494,121.53" style="vector-effect: non-scaling-stroke; fill: none; stroke: rgb(214, 135, 15); stroke-opacity: 0.3; stroke-width: 0px; opacity: 1;"/></g><g class="points"/><g class="text"/></g><g class="trace scatter traced56b2d" style="stroke-miterlimit: 2; opacity: 1;"><g class="fills"/><g class="errorbars"/><g class="lines"><path class="js-line" d="M0,121.53L494,121.53" style="vector-effect: non-scaling-stroke; fill: none; stroke: rgb(141, 191, 4); stroke-opacity: 1; stroke-width: 2px; opacity: 1;"/></g><g class="points"/><g class="text"/></g><g class="trace scatter trace489d31" style="stroke-miterlimit: 2;"><g class="fills"><g><path class="js-fill" d="M0,121.53L494,121.55L494,121.43L0,121.53Z" style="fill: rgb(141, 191, 4); fill-opacity: 0.5; stroke-width: 0;"/></g></g><g class="errorbars"/><g class="lines"><path class="js-line" d="M0,121.53L494,121.43" style="vector-effect: non-scaling-stroke; fill: none; stroke: rgb(182, 232, 128); stroke-opacity: 1; stroke-width: 0px; opacity: 1;"/></g><g class="points"/><g class="text"/></g><g class="trace scatter trace225555" style="stroke-miterlimit: 2;"><g class="fills"/><g class="errorbars"/><g class="lines"><path class="js-line" d="M0,121.53L494,121.55" style="vector-effect: non-scaling-stroke; fill: none; stroke: rgb(141, 191, 4); stroke-opacity: 0.3; stroke-width: 0px; opacity: 1;"/></g><g class="points"/><g class="text"/></g><g class="trace scatter tracef0cbe1" style="stroke-miterlimit: 2; opacity: 1;"><g class="fills"/><g class="errorbars"/><g class="lines"><path class="js-line" d="M0,101.02L15.82,94.76L16.32,94.53L30.16,87.51L30.66,87.23L45.99,77.34L46.48,76.98L58.35,67.51L58.84,67.08L70.22,56.31L70.71,55.81L83.57,41.63L84.06,41.05L108.29,13.3L108.79,12.88L114.23,9.23L114.72,8.99L120.16,7.27L120.66,7.18L129.06,6.51L129.56,6.49L170.11,6.41L170.6,6.41L494,6.54" style="vector-effect: non-scaling-stroke; fill: none; stroke: rgb(163, 2, 2); stroke-opacity: 1; stroke-width: 2px; opacity: 1;"/></g><g class="points"/><g class="text"/></g><g class="trace scatter trace6ca9f0" style="stroke-miterlimit: 2;"><g class="fills"><g><path class="js-fill" d="M0,101.02L15.82,94.76L16.32,94.53L30.16,87.51L30.66,87.23L45.99,77.34L46.48,76.98L58.35,67.51L58.84,67.08L70.22,56.31L70.71,55.81L83.57,41.63L84.06,41.05L108.29,13.3L108.79,12.88L114.23,9.23L114.72,8.99L120.16,7.27L120.66,7.18L129.06,6.51L129.56,6.49L170.11,6.41L170.6,6.41L494,6.54L494,6.54L170.6,6.41L170.11,6.41L129.56,6.49L129.06,6.51L120.66,7.18L120.16,7.27L114.72,8.99L114.23,9.23L108.79,12.88L108.29,13.3L84.06,41.05L83.57,41.63L70.71,55.81L70.22,56.31L58.84,67.08L58.35,67.51L46.48,76.98L45.99,77.34L30.66,87.23L30.16,87.51L16.32,94.53L15.82,94.76L0,101.02Z" style="fill: rgb(163, 2, 2); fill-opacity: 0.2; stroke-width: 0;"/></g></g><g class="errorbars"/><g class="lines"><path class="js-line" d="M0,101.02L15.82,94.76L16.32,94.53L30.16,87.51L30.66,87.23L45.99,77.34L46.48,76.98L58.35,67.51L58.84,67.08L70.22,56.31L70.71,55.81L83.57,41.63L84.06,41.05L108.29,13.3L108.79,12.88L114.23,9.23L114.72,8.99L120.16,7.27L120.66,7.18L129.06,6.51L129.56,6.49L170.11,6.41L170.6,6.41L494,6.54" style="vector-effect: non-scaling-stroke; fill: none; stroke: rgb(99, 110, 250); stroke-opacity: 1; stroke-width: 0px; opacity: 1;"/></g><g class="points"/><g class="text"/></g><g class="trace scatter tracea17e08" style="stroke-miterlimit: 2;"><g class="fills"/><g class="errorbars"/><g class="lines"><path class="js-line" d="M0,101.02L15.82,94.76L16.32,94.53L30.16,87.51L30.66,87.23L45.99,77.34L46.48,76.98L58.35,67.51L58.84,67.08L70.22,56.31L70.71,55.81L83.57,41.63L84.06,41.05L108.29,13.3L108.79,12.88L114.23,9.23L114.72,8.99L120.16,7.27L120.66,7.18L129.06,6.51L129.56,6.49L170.11,6.41L170.6,6.41L494,6.54" style="vector-effect: non-scaling-stroke; fill: none; stroke: rgb(239, 85, 59); stroke-opacity: 1; stroke-width: 0px; opacity: 1;"/></g><g class="points"/><g class="text"/></g><g class="trace scatter tracef02097" style="stroke-miterlimit: 2; opacity: 1;"><g class="fills"/><g class="errorbars"/><g class="lines"><path class="js-line" d="M0,101.02L15.82,94.76L16.32,94.53L30.16,87.51L30.66,87.23L45.99,77.34L46.48,76.98L58.35,67.51L58.84,67.08L70.22,56.31L70.71,55.81L83.57,41.63L84.06,41.05L108.29,13.3L108.79,12.88L114.23,9.23L114.72,8.99L120.16,7.27L120.66,7.18L129.06,6.51L129.56,6.49L170.11,6.41L170.6,6.41L494,6.54" style="vector-effect: non-scaling-stroke; fill: none; stroke: rgb(252, 3, 136); stroke-opacity: 1; stroke-width: 2px; opacity: 1;"/></g><g class="points"/><g class="text"/></g><g class="trace scatter tracef0d23c" style="stroke-miterlimit: 2;"><g class="fills"><g><path class="js-fill" d="M0,101.02L15.82,94.76L16.32,94.53L30.16,87.51L30.66,87.23L45.99,77.34L46.48,76.98L58.35,67.51L58.84,67.08L70.22,56.31L70.71,55.81L83.57,41.63L84.06,41.05L108.29,13.3L108.79,12.88L114.23,9.23L114.72,8.99L120.16,7.27L120.66,7.18L129.06,6.51L129.56,6.49L170.11,6.41L170.6,6.41L494,6.54L494,6.54L170.6,6.41L170.11,6.41L129.56,6.49L129.06,6.51L120.66,7.18L120.16,7.27L114.72,8.99L114.23,9.23L108.79,12.88L108.29,13.3L84.06,41.05L83.57,41.63L70.71,55.81L70.22,56.31L58.84,67.08L58.35,67.51L46.48,76.98L45.99,77.34L30.66,87.23L30.16,87.51L16.32,94.53L15.82,94.76L0,101.02Z" style="fill: rgb(252, 3, 136); fill-opacity: 0.2; stroke-width: 0;"/></g></g><g class="errorbars"/><g class="lines"><path class="js-line" d="M0,101.02L15.82,94.76L16.32,94.53L30.16,87.51L30.66,87.23L45.99,77.34L46.48,76.98L58.35,67.51L58.84,67.08L70.22,56.31L70.71,55.81L83.57,41.63L84.06,41.05L108.29,13.3L108.79,12.88L114.23,9.23L114.72,8.99L120.16,7.27L120.66,7.18L129.06,6.51L129.56,6.49L170.11,6.41L170.6,6.41L494,6.54" style="vector-effect: non-scaling-stroke; fill: none; stroke: rgb(171, 99, 250); stroke-opacity: 1; stroke-width: 0px; opacity: 1;"/></g><g class="points"/><g class="text"/></g><g class="trace scatter tracea0fa1d" style="stroke-miterlimit: 2;"><g class="fills"/><g class="errorbars"/><g class="lines"><path class="js-line" d="M0,101.02L15.82,94.76L16.32,94.53L30.16,87.51L30.66,87.23L45.99,77.34L46.48,76.98L58.35,67.51L58.84,67.08L70.22,56.31L70.71,55.81L83.57,41.63L84.06,41.05L108.29,13.3L108.79,12.88L114.23,9.23L114.72,8.99L120.16,7.27L120.66,7.18L129.06,6.51L129.56,6.49L170.11,6.41L170.6,6.41L494,6.54" style="vector-effect: non-scaling-stroke; fill: none; stroke: rgb(255, 161, 90); stroke-opacity: 1; stroke-width: 0px; opacity: 1;"/></g><g class="points"/><g class="text"/></g></g></g><g class="overplot"/><path class="xlines-above crisp" d="M0,0" style="fill: none;"/><path class="ylines-above crisp" d="M0,0" style="fill: none;"/><g class="overlines-above"/><g class="xaxislayer-above"><g class="x2tick"><text text-anchor="middle" x="0" y="433" transform="translate(80,0)" style="font-family: 'Open Sans', verdana, arial, sans-serif; font-size: 12px; fill: rgb(42, 63, 95); fill-opacity: 1; white-space: pre; opacity: 1;">0</text></g><g class="x2tick"><text text-anchor="middle" x="0" y="433" style="font-family: 'Open Sans', verdana, arial, sans-serif; font-size: 12px; fill: rgb(42, 63, 95); fill-opacity: 1; white-space: pre; opacity: 1;" transform="translate(178.9,0)">200</text></g><g class="x2tick"><text text-anchor="middle" x="0" y="433" style="font-family: 'Open Sans', verdana, arial, sans-serif; font-size: 12px; fill: rgb(42, 63, 95); fill-opacity: 1; white-space: pre; opacity: 1;" transform="translate(277.8,0)">400</text></g><g class="x2tick"><text text-anchor="middle" x="0" y="433" style="font-family: 'Open Sans', verdana, arial, sans-serif; font-size: 12px; fill: rgb(42, 63, 95); fill-opacity: 1; white-space: pre; opacity: 1;" transform="translate(376.7,0)">600</text></g><g class="x2tick"><text text-anchor="middle" x="0" y="433" style="font-family: 'Open Sans', verdana, arial, sans-serif; font-size: 12px; fill: rgb(42, 63, 95); fill-opacity: 1; white-space: pre; opacity: 1;" transform="translate(475.6,0)">800</text></g></g><g class="yaxislayer-above"><g class="y2tick"><text text-anchor="end" x="79" y="4.199999999999999" transform="translate(0,413.53)" style="font-family: 'Open Sans', verdana, arial, sans-serif; font-size: 12px; fill: rgb(42, 63, 95); fill-opacity: 1; white-space: pre; opacity: 1;">0</text></g><g class="y2tick"><text text-anchor="end" x="79" y="4.199999999999999" style="font-family: 'Open Sans', verdana, arial, sans-serif; font-size: 12px; fill: rgb(42, 63, 95); fill-opacity: 1; white-space: pre; opacity: 1;" transform="translate(0,372.5)">0.2</text></g><g class="y2tick"><text text-anchor="end" x="79" y="4.199999999999999" style="font-family: 'Open Sans', verdana, arial, sans-serif; font-size: 12px; fill: rgb(42, 63, 95); fill-opacity: 1; white-space: pre; opacity: 1;" transform="translate(0,331.47)">0.4</text></g></g><g class="overaxes-above"/></g></g><g class="polarlayer"/><g class="smithlayer"/><g class="ternarylayer"/><g class="geolayer"/><g class="funnelarealayer"/><g class="pielayer"/><g class="iciclelayer"/><g class="treemaplayer"/><g class="sunburstlayer"/><g class="glimages"/><defs id="topdefs-4dc3f3"><g class="clips"/><clipPath id="legend4dc3f3"><rect width="104" height="123" x="0" y="0"/></clipPath></defs><g class="layer-above"><g class="imagelayer"/><g class="shapelayer"/></g><g class="infolayer"><g class="legend" pointer-events="all" transform="translate(583.88,100)"><rect class="bg" shape-rendering="crispEdges" width="104" height="123" x="0" y="0" style="stroke: rgb(68, 68, 68); stroke-opacity: 1; fill: rgb(255, 255, 255); fill-opacity: 1; stroke-width: 0px;"/><g class="scrollbox" transform="" clip-path="url(#legend4dc3f3)"><g class="groups"><g class="traces" transform="translate(0,16.25)" style="opacity: 1;"><text class="legendtext" text-anchor="start" x="40" y="5.85" style="font-family: 'Open Sans', verdana, arial, sans-serif; font-size: 15px; fill: rgb(42, 63, 95); fill-opacity: 1; white-space: pre;">Agent 2</text><g class="layers" style="opacity: 1;"><g class="legendfill"/><g class="legendlines"><path class="js-line" d="M5,0h30" style="fill: none; stroke: rgb(252, 3, 136); stroke-opacity: 1; stroke-width: 2px;"/></g><g class="legendsymbols"><g class="legendpoints"/></g></g><rect class="legendtoggle" x="0" y="-11.25" width="98.75" height="22.5" style="fill: rgb(0, 0, 0); fill-opacity: 0;"/></g><g class="traces" transform="translate(0,38.75)" style="opacity: 1;"><text class="legendtext" text-anchor="start" x="40" y="5.85" style="font-family: 'Open Sans', verdana, arial, sans-serif; font-size: 15px; fill: rgb(42, 63, 95); fill-opacity: 1; white-space: pre;">Agent 1</text><g class="layers" style="opacity: 1;"><g class="legendfill"/><g class="legendlines"><path class="js-line" d="M5,0h30" style="fill: none; stroke: rgb(163, 2, 2); stroke-opacity: 1; stroke-width: 2px;"/></g><g class="legendsymbols"><g class="legendpoints"/></g></g><rect class="legendtoggle" x="0" y="-11.25" width="98.75" height="22.5" style="fill: rgb(0, 0, 0); fill-opacity: 0;"/></g><g class="traces" transform="translate(0,61.25)" style="opacity: 1;"><text class="legendtext" text-anchor="start" x="40" y="5.85" style="font-family: 'Open Sans', verdana, arial, sans-serif; font-size: 15px; fill: rgb(42, 63, 95); fill-opacity: 1; white-space: pre;">B</text><g class="layers" style="opacity: 1;"><g class="legendfill"/><g class="legendlines"><path class="js-line" d="M5,0h30" style="fill: none; stroke: rgb(141, 191, 4); stroke-opacity: 1; stroke-width: 2px;"/></g><g class="legendsymbols"><g class="legendpoints"/></g></g><rect class="legendtoggle" x="0" y="-11.25" width="98.75" height="22.5" style="fill: rgb(0, 0, 0); fill-opacity: 0;"/></g><g class="traces" transform="translate(0,83.75)" style="opacity: 1;"><text class="legendtext" text-anchor="start" x="40" y="5.85" style="font-family: 'Open Sans', verdana, arial, sans-serif; font-size: 15px; fill: rgb(42, 63, 95); fill-opacity: 1; white-space: pre;">A</text><g class="layers" style="opacity: 1;"><g class="legendfill"/><g class="legendlines"><path class="js-line" d="M5,0h30" style="fill: none; stroke: rgb(214, 135, 15); stroke-opacity: 1; stroke-width: 2px;"/></g><g class="legendsymbols"><g class="legendpoints"/></g></g><rect class="legendtoggle" x="0" y="-11.25" width="98.75" height="22.5" style="fill: rgb(0, 0, 0); fill-opacity: 0;"/></g><g class="traces" transform="translate(0,106.25)" style="opacity: 1;"><text class="legendtext" text-anchor="start" x="40" y="5.85" style="font-family: 'Open Sans', verdana, arial, sans-serif; font-size: 15px; fill: rgb(42, 63, 95); fill-opacity: 1; white-space: pre;">S</text><g class="layers" style="opacity: 1;"><g class="legendfill"/><g class="legendlines"><path class="js-line" d="M5,0h30" style="fill: none; stroke: rgb(30, 67, 130); stroke-opacity: 1; stroke-width: 2px;"/></g><g class="legendsymbols"><g class="legendpoints"/></g></g><rect class="legendtoggle" x="0" y="-11.25" width="98.75" height="22.5" style="fill: rgb(0, 0, 0); fill-opacity: 0;"/></g></g></g><rect class="scrollbar" rx="20" ry="3" width="0" height="0" x="0" y="0" style="fill: rgb(128, 139, 164); fill-opacity: 1;"/></g><g class="g-gtitle"/><g class="g-xtitle"/><g class="g-x2title"><text class="x2title" x="327" y="460.3" text-anchor="middle" style="font-family: 'Open Sans', verdana, arial, sans-serif; font-size: 14px; fill: rgb(42, 63, 95); opacity: 1; font-weight: normal; white-space: pre;">Time</text></g><g class="g-ytitle"><text class="ytitle" transform="rotate(-90,31.309375000000003,164)" x="31.309375000000003" y="164" text-anchor="middle" style="font-family: 'Open Sans', verdana, arial, sans-serif; font-size: 14px; fill: rgb(42, 63, 95); opacity: 1; font-weight: normal; white-space: pre;">Concentration</text></g><g class="g-y2title"><text class="y2title" transform="rotate(-90,34.575,356)" x="34.575" y="356" text-anchor="middle" style="font-family: 'Open Sans', verdana, arial, sans-serif; font-size: 14px; fill: rgb(42, 63, 95); opacity: 1; font-weight: normal; white-space: pre;">Concentration</text></g><g class="annotation" data-index="0" style="opacity: 1;"><g class="annotation-text-g" transform="rotate(0,327,88)"><g class="cursor-pointer" transform="translate(250,76)"><rect class="bg" x="0.5" y="0.5" width="153" height="23" style="stroke-width: 1px; stroke: rgb(0, 0, 0); stroke-opacity: 0; fill: rgb(0, 0, 0); fill-opacity: 0;"/><text class="annotation-text" text-anchor="middle" x="76.90625" y="18" style="font-family: 'Open Sans', verdana, arial, sans-serif; font-size: 16px; fill: rgb(42, 63, 95); fill-opacity: 1; white-space: pre;">Concentration of S</text></g></g></g><g class="annotation" data-index="1" style="opacity: 1;"><g class="annotation-text-g" transform="rotate(0,327,280)"><g class="cursor-pointer" transform="translate(156,268)"><rect class="bg" x="0.5" y="0.5" width="341" height="23" style="stroke-width: 1px; stroke: rgb(0, 0, 0); stroke-opacity: 0; fill: rgb(0, 0, 0); fill-opacity: 0;"/><text class="annotation-text" text-anchor="middle" x="170.90625" y="18" style="font-family: 'Open Sans', verdana, arial, sans-serif; font-size: 16px; fill: rgb(42, 63, 95); fill-opacity: 1; white-space: pre;">Concentrations of A and B and the Agents</text></g></g></g></g></svg>