<svg class="main-svg" xmlns="http://www.w3.org/2000/svg" xmlns:xlink="http://www.w3.org/1999/xlink" width="1200" height="500" style="" viewBox="0 0 1200 500"><rect x="0" y="0" width="1200" height="500" style="fill: rgb(255, 255, 255); fill-opacity: 1;"/><defs id="defs-488e33"><g class="clips"><clipPath id="clip488e33xyplot" class="plotclip"><rect width="252.7777777777778" height="320"/></clipPath><clipPath id="clip488e33x2y2plot" class="plotclip"><rect width="252.7777777777778" height="320"/></clipPath><clipPath id="clip488e33x3y3plot" class="plotclip"><rect width="252.77777777777774" height="320"/></clipPath><clipPath class="axesclip" id="clip488e33x"><rect x="80" y="0" width="252.7777777777778" height="500"/></clipPath><clipPath class="axesclip" id="clip488e33y"><rect x="0" y="100" width="1200" height="320"/></clipPath><clipPath class="axesclip" id="clip488e33xy"><rect x="80" y="100" width="252.7777777777778" height="320"/></clipPath><clipPath class="axesclip" id="clip488e33y2"><rect x="0" y="100" width="1200" height="320"/></clipPath><clipPath class="axesclip" id="clip488e33xy2"><rect x="80" y="100" width="252.7777777777778" height="320"/></clipPath><clipPath class="axesclip" id="clip488e33y3"><rect x="0" y="100" width="1200" height="320"/></clipPath><clipPath class="axesclip" id="clip488e33xy3"><rect x="80" y="100" width="252.7777777777778" height="320"/></clipPath><clipPath class="axesclip" id="clip488e33x2"><rect x="391.11111111111114" y="0" width="252.7777777777778" height="500"/></clipPath><clipPath class="axesclip" id="clip488e33x2y"><rect x="391.11111111111114" y="100" width="252.7777777777778" height="320"/></clipPath><clipPath class="axesclip" id="clip488e33x2y2"><rect x="391.11111111111114" y="100" width="252.7777777777778" height="320"/></clipPath><clipPath class="axesclip" id="clip488e33x2y3"><rect x="391.11111111111114" y="100" width="252.7777777777778" height="320"/></clipPath><clipPath class="axesclip" id="clip488e33x3"><rect x="702.2222222222223" y="0" width="252.77777777777774" height="500"/></clipPath><clipPath class="axesclip" id="clip488e33x3y"><rect x="702.2222222222223" y="100" width="252.77777777777774" height="320"/></clipPath><clipPath class="axesclip" id="clip488e33x3y2"><rect x="702.2222222222223" y="100" width="252.77777777777774" height="320"/></clipPath><clipPath class="axesclip" id="clip488e33x3y3"><rect x="702.2222222222223" y="100" width="252.77777777777774" height="320"/></clipPath></g><g class="gradients"/><g class="patterns"/></defs><g class="bglayer"><rect class="bg" x="80" y="100" width="252.7777777777778" height="320" style="fill: rgb(229, 236, 246); fill-opacity: 1; stroke-width: 0;"/><rect class="bg" x="391.11111111111114" y="100" width="252.7777777777778" height="320" style="fill: rgb(229, 236, 246); fill-opacity: 1; stroke-width: 0;"/><rect class="bg" x="702.2222222222223" y="100" width="252.77777777777774" height="320" style="fill: rgb(229, 236, 246); fill-opacity: 1; stroke-width: 0;"/></g><g class="layer-below"><g class="imagelayer"/><g class="shapelayer"/></g><g class="cartesianlayer"><g class="subplot xy"><g class="layer-subplot"><g class="shapelayer"/><g class="imagelayer"/></g><g class="minor-gridlayer"><g class="x"/><g class="y"/></g><g class="gridlayer"><g class="x"><path class="xgrid crisp" transform="translate(130.61,0)" d="M0,100v320" style="stroke: rgb(255, 255, 255); stroke-opacity: 1; stroke-width: 1px;"/><path class="xgrid crisp" transform="translate(181.20999999999998,0)" d="M0,100v320" style="stroke: rgb(255, 255, 255); stroke-opacity: 1; stroke-width: 1px;"/><path class="xgrid crisp" transform="translate(231.82,0)" d="M0,100v320" style="stroke: rgb(255, 255, 255); stroke-opacity: 1; stroke-width: 1px;"/><path class="xgrid crisp" transform="translate(282.41999999999996,0)" d="M0,100v320" style="stroke: rgb(255, 255, 255); stroke-opacity: 1; stroke-width: 1px;"/></g><g class="y"><path class="ygrid crisp" transform="translate(0,347.39)" d="M80,0h252.7777777777778" style="stroke: rgb(255, 255, 255); stroke-opacity: 1; stroke-width: 1px;"/><path class="ygrid crisp" transform="translate(0,289.53999999999996)" d="M80,0h252.7777777777778" style="stroke: rgb(255, 255, 255); stroke-opacity: 1; stroke-width: 1px;"/><path class="ygrid crisp" transform="translate(0,231.7)" d="M80,0h252.7777777777778" style="stroke: rgb(255, 255, 255); stroke-opacity: 1; stroke-width: 1px;"/><path class="ygrid crisp" transform="translate(0,173.85)" d="M80,0h252.7777777777778" style="stroke: rgb(255, 255, 255); stroke-opacity: 1; stroke-width: 1px;"/><path class="ygrid crisp" transform="translate(0,116)" d="M80,0h252.7777777777778" style="stroke: rgb(255, 255, 255); stroke-opacity: 1; stroke-width: 1px;"/></g></g><g class="zerolinelayer"><path class="xzl zl crisp" transform="translate(80,0)" d="M0,100v320" style="stroke: rgb(255, 255, 255); stroke-opacity: 1; stroke-width: 2px;"/><path class="yzl zl crisp" transform="translate(0,405.24)" d="M80,0h252.7777777777778" style="stroke: rgb(255, 255, 255); stroke-opacity: 1; stroke-width: 2px;"/></g><path class="xlines-below"/><path class="ylines-below"/><g class="overlines-below"/><g class="xaxislayer-below"/><g class="yaxislayer-below"/><g class="overaxes-below"/><g class="plot" transform="translate(80,100)" clip-path="url(#clip488e33xyplot)"><g class="scatterlayer mlayer"><g class="trace scatter trace839160" style="stroke-miterlimit: 2; opacity: 1;"><g class="fills"/><g class="errorbars"/><g class="lines"><path class="js-line" d="M0,16L8.35,51.3L8.6,52.49L15.69,88.37L15.94,89.75L36.18,199.46L36.44,200.57L38.71,207.34L38.97,207.89L40.74,211.94L40.99,212.41L43.02,214.98L43.27,214.94L44.28,216.41L44.53,215.49L44.79,215.84L45.04,215.34L45.29,215.25L45.55,214.73L46.05,215.37L46.3,215.69L47.32,216.81L47.57,216.22L47.82,216.07L49.59,215.63L49.85,215.83L50.61,217.67L50.86,217.42L51.11,216.73L51.87,215.89L52.12,216.04L52.38,215.75L53.14,215.69L53.39,215.79L53.9,215.99L54.15,214.77L57.94,210.01L58.2,210.06L59.72,204.3L59.97,204.81L60.22,205.31L61.99,203.08L62.25,203.56L62.5,204.03L62.75,203.57L63,202.62L63.51,202.14L63.76,201.66L64.27,201.17L64.52,200.2L65.79,198.71L66.04,199.19L67.05,198.13L67.31,198.11L68.82,199.41L69.08,199.36L69.84,198.65L70.09,197.58L70.6,197.98L70.85,197.42L71.1,196.86L72.11,194.67L72.37,195.17L73.63,194.05L73.88,194.05L75.91,191.04L76.16,191.62L76.92,190.73L77.17,191.33L77.43,191.39L78.44,190.17L78.69,190.83L78.95,191.49L79.2,191.08L79.45,190.14L80.21,191.15L80.46,191.86L81.48,193.16L81.73,192.29L82.24,191.7L82.49,192.51L82.74,193.32L84.51,194.38L84.77,194.2L85.78,193.09L86.03,194.1L87.04,193.94L87.3,193.97L87.8,193.52L88.05,194.15L89.83,197.62L90.08,197.33L90.33,197.1L90.59,197.49L90.84,197.88L91.09,197.2L91.6,197.6L91.85,198.15L92.36,198.77L92.61,199.94L99.69,219.18L99.95,221.53L102.48,232.76L102.73,234.08L106.78,260.3L107.03,262.22L111.84,293.28L112.09,294.26L114.62,300.68L114.88,301.06L117.41,303.48L117.66,303.62L252.78,303.57" style="vector-effect: non-scaling-stroke; fill: none; stroke: rgb(168, 50, 70); stroke-opacity: 1; stroke-width: 2px; opacity: 1;"/></g><g class="points"/><g class="text"/></g><g class="trace scatter trace193bd7" style="stroke-miterlimit: 2;"><g class="fills"><g><path class="js-fill" d="M0,16L8.1,50.25L8.35,51.43L17.21,97.17L17.46,98.6L35.42,197.91L35.68,197.95L39.47,212.29L39.73,212.3L39.98,211.33L40.23,212.23L40.48,212.71L41.5,214.47L41.75,214.03L42.76,216.75L43.02,216.49L43.27,215.65L44.28,218.06L44.53,217.15L44.79,217L45.04,216.41L45.55,216.64L45.8,216.91L46.56,216.88L46.81,217.62L47.32,218.56L47.57,218.23L47.82,217.92L48.08,218.1L48.33,217.29L48.58,217.94L48.83,217.08L49.09,217.66L49.34,217.82L50.61,220.22L50.86,219.75L51.11,219.2L51.87,217.51L52.12,218.48L52.38,218.78L52.63,219.25L53.14,218.67L53.39,218.45L54.15,216.84L54.4,216.3L54.65,215.48L55.16,215.81L55.41,215.61L55.92,214.18L56.17,214.79L56.43,215.52L56.68,213.97L57.18,214.35L57.44,215.09L59.72,209L59.97,209.45L60.22,209.88L61.74,208.1L61.99,207.03L62.5,207.81L62.75,206.96L63,206.29L64.27,205.25L64.52,203.39L64.78,203.93L65.03,202.37L65.53,200.54L65.79,201.44L66.04,201.89L66.29,199.9L66.8,200.46L67.05,200.42L68.32,201.4L68.57,201.91L69.08,202.92L69.33,202.23L69.58,200.54L70.6,199.41L70.85,199.85L71.86,196.2L72.11,196.24L72.37,196.77L73.38,197.93L73.63,197.1L74.9,193.56L75.4,193.94L75.66,194.15L76.42,193.28L76.67,193.83L77.68,191.81L77.93,192.31L78.19,192.25L78.44,193.05L78.95,194.32L79.2,194.05L79.45,193.23L79.96,193.84L80.21,194.19L80.97,196.37L81.48,195.66L81.73,195.05L82.24,192.95L82.49,193.65L82.74,194.36L82.99,194.49L83.25,195.76L83.5,195.88L83.75,197.3L84.77,198.57L85.02,197.14L85.27,198.47L85.78,197.29L86.03,198.4L87.04,197.13L87.3,196.19L87.8,194.3L88.05,195.75L88.31,196.09L88.56,195.92L88.81,197.21L89.83,199.87L90.08,200.54L90.33,199.64L90.59,200.07L90.84,201.62L91.09,201.06L91.6,201.37L91.85,202.33L92.61,206.14L92.86,205.71L93.12,205.02L96.91,213.09L97.16,214.78L99.69,223.22L99.95,226.32L102.48,237.09L102.73,238.37L106.53,261.79L106.78,263.64L111.33,292.43L111.59,293.45L114.12,300.26L114.37,300.68L116.9,303.31L117.15,303.46L119.18,303.84L119.43,303.63L121.2,303.85L121.45,303.65L123.23,303.86L123.48,303.68L125.25,303.87L125.5,303.71L127.27,303.78L127.53,303.74L129.05,303.79L129.3,303.81L135.37,303.77L135.62,303.89L137.14,303.83L137.4,303.82L138.66,303.66L138.91,303.79L141.44,303.79L141.7,303.72L143.22,303.84L143.47,303.62L144.99,303.89L145.24,303.75L147.52,303.72L147.77,303.85L252.78,303.67L252.78,303.48L186.74,303.4L186.48,303.66L183.95,303.4L183.7,303.63L182.44,303.4L182.18,303.35L180.92,303.6L180.66,303.44L173.58,303.4L173.33,303.45L172.06,303.45L171.81,303.37L169.78,303.55L169.53,303.63L167,303.37L166.75,303.65L164.22,303.32L163.96,303.68L161.43,303.35L161.18,303.71L159.66,303.43L159.41,303.32L158.4,303.74L158.14,303.6L157.39,303.71L157.13,303.57L154.6,303.45L154.35,303.61L151.82,303.35L151.57,303.65L150.05,303.36L149.79,303.45L148.78,303.7L148.53,303.55L147.77,303.67L147.52,303.52L146.76,303.64L146.5,303.49L144.99,303.46L144.73,303.58L143.47,303.39L143.22,303.42L141.44,303.38L141.19,303.38L139.93,303.58L139.67,303.42L136.89,303.49L136.64,303.33L134.61,303.55L134.36,303.39L133.09,303.54L132.84,303.39L129.55,303.47L129.3,303.43L127.78,303.59L127.53,303.45L123.73,303.55L123.48,303.4L120.7,303.53L120.44,303.38L117.66,303.51L117.41,303.35L114.88,300.72L114.62,300.3L112.35,294.23L112.09,293.23L106.53,255L106.27,253.08L102.48,228.42L102.22,227.09L99.95,216.74L99.69,215.13L98.68,211.23L98.43,210.65L97.67,208.44L97.42,208.15L96.15,203.99L95.9,203.58L95.39,201.47L95.14,201.57L92.86,195.53L92.61,193.74L92.36,192.83L92.1,193.4L91.85,193.96L91.09,193.35L90.84,194.13L90.59,194.91L90.08,194.12L89.83,195.37L89.07,193.98L88.81,195.2L86.54,188.44L86.28,189.92L85.78,188.89L85.52,189.32L84.77,189.83L84.51,191.25L84.26,190.99L84.01,191.9L83.75,191.68L83.5,192.48L82.99,192.7L81.98,189.55L81.73,189.52L81.48,190.67L81.22,190.02L80.97,189.11L80.72,188.29L80.46,188.91L80.21,188.11L79.96,188.15L79.7,187.36L79.45,187.05L78.95,188.66L78.69,187.97L78.44,187.28L77.93,188.7L77.68,190.09L77.43,189.83L77.17,190.19L75.91,188.89L75.66,187.83L75.15,187.86L74.9,189.34L74.64,189.39L74.39,190.93L74.14,190.37L73.88,191.66L73.63,191L73.38,190.16L72.37,193.57L72.11,193.11L71.35,194.22L71.1,195.52L70.85,194.99L70.6,196.55L70.09,195.87L69.84,197.1L68.57,196.01L68.32,196.57L68.07,197.22L67.31,195.63L67.05,195.85L66.8,196.84L66.55,196.37L66.29,196.47L65.79,195.99L65.53,196.88L65.28,196.51L64.78,195.51L64.52,197L64.27,197.09L64.02,197.86L63.76,197.36L63.51,198.82L63.26,199.31L63,198.96L62.75,200.17L61.74,198.96L61.49,197.92L60.22,200.73L59.97,200.17L59.72,199.6L58.7,203.96L58.45,205.27L57.69,206.43L57.44,206.51L55.92,211.24L55.67,210.44L55.16,210.91L54.91,211.7L54.15,212.71L53.9,213.9L52.88,212.09L52.63,211.64L51.11,214.25L50.86,215.09L50.1,213.8L49.85,213.12L48.58,214.92L48.33,214.22L48.08,213.73L47.82,214.22L47.57,214.22L47.32,215.05L47.06,214.47L46.81,214.9L46.56,215.08L45.8,213.2L45.55,212.81L44.28,214.76L44.03,213.98L43.77,213.96L43.52,214.55L41.5,211.34L41.24,211.72L39.22,206.34L38.97,205.32L38.71,205.35L38.46,206.1L35.93,197.62L35.68,196.48L26.06,146.5L25.81,145.02L16.19,90.75L15.94,89.39L8.6,52.35L8.35,51.17L0,16Z" style="fill: rgb(168, 50, 70); fill-opacity: 0.3; stroke-width: 0;"/></g></g><g class="errorbars"/><g class="lines"><path class="js-line" d="M0,16L8.35,51.17L8.6,52.35L15.94,89.39L16.19,90.75L25.81,145.02L26.06,146.5L35.68,196.48L35.93,197.62L38.46,206.1L38.71,205.35L38.97,205.32L39.22,206.34L41.24,211.72L41.5,211.34L43.52,214.55L43.77,213.96L44.03,213.98L44.28,214.76L45.55,212.81L45.8,213.2L46.56,215.08L46.81,214.9L47.06,214.47L47.32,215.05L47.57,214.22L47.82,214.22L48.08,213.73L48.33,214.22L48.58,214.92L49.85,213.12L50.1,213.8L50.86,215.09L51.11,214.25L52.63,211.64L52.88,212.09L53.9,213.9L54.15,212.71L54.91,211.7L55.16,210.91L55.67,210.44L55.92,211.24L57.44,206.51L57.69,206.43L58.45,205.27L58.7,203.96L59.72,199.6L59.97,200.17L60.22,200.73L61.49,197.92L61.74,198.96L62.75,200.17L63,198.96L63.26,199.31L63.51,198.82L63.76,197.36L64.02,197.86L64.27,197.09L64.52,197L64.78,195.51L65.28,196.51L65.53,196.88L65.79,195.99L66.29,196.47L66.55,196.37L66.8,196.84L67.05,195.85L67.31,195.63L68.07,197.22L68.32,196.57L68.57,196.01L69.84,197.1L70.09,195.87L70.6,196.55L70.85,194.99L71.1,195.52L71.35,194.22L72.11,193.11L72.37,193.57L73.38,190.16L73.63,191L73.88,191.66L74.14,190.37L74.39,190.93L74.64,189.39L74.9,189.34L75.15,187.86L75.66,187.83L75.91,188.89L77.17,190.19L77.43,189.83L77.68,190.09L77.93,188.7L78.44,187.28L78.69,187.97L78.95,188.66L79.45,187.05L79.7,187.36L79.96,188.15L80.21,188.11L80.46,188.91L80.72,188.29L80.97,189.11L81.22,190.02L81.48,190.67L81.73,189.52L81.98,189.55L82.99,192.7L83.5,192.48L83.75,191.68L84.01,191.9L84.26,190.99L84.51,191.25L84.77,189.83L85.52,189.32L85.78,188.89L86.28,189.92L86.54,188.44L88.81,195.2L89.07,193.98L89.83,195.37L90.08,194.12L90.59,194.91L90.84,194.13L91.09,193.35L91.85,193.96L92.1,193.4L92.36,192.83L92.61,193.74L92.86,195.53L95.14,201.57L95.39,201.47L95.9,203.58L96.15,203.99L97.42,208.15L97.67,208.44L98.43,210.65L98.68,211.23L99.69,215.13L99.95,216.74L102.22,227.09L102.48,228.42L106.27,253.08L106.53,255L112.09,293.23L112.35,294.23L114.62,300.3L114.88,300.72L117.41,303.35L117.66,303.51L120.44,303.38L120.7,303.53L123.48,303.4L123.73,303.55L127.53,303.45L127.78,303.59L129.3,303.43L129.55,303.47L132.84,303.39L133.09,303.54L134.36,303.39L134.61,303.55L136.64,303.33L136.89,303.49L139.67,303.42L139.93,303.58L141.19,303.38L141.44,303.38L143.22,303.42L143.47,303.39L144.73,303.58L144.99,303.46L146.5,303.49L146.76,303.64L147.52,303.52L147.77,303.67L148.53,303.55L148.78,303.7L149.79,303.45L150.05,303.36L151.57,303.65L151.82,303.35L154.35,303.61L154.6,303.45L157.13,303.57L157.39,303.71L158.14,303.6L158.4,303.74L159.41,303.32L159.66,303.43L161.18,303.71L161.43,303.35L163.96,303.68L164.22,303.32L166.75,303.65L167,303.37L169.53,303.63L169.78,303.55L171.81,303.37L172.06,303.45L173.33,303.45L173.58,303.4L180.66,303.44L180.92,303.6L182.18,303.35L182.44,303.4L183.7,303.63L183.95,303.4L186.48,303.66L186.74,303.4L252.78,303.48" style="vector-effect: non-scaling-stroke; fill: none; stroke: rgb(239, 85, 59); stroke-opacity: 1; stroke-width: 0px; opacity: 1;"/></g><g class="points"/><g class="text"/></g><g class="trace scatter tracef9e00e" style="stroke-miterlimit: 2;"><g class="fills"/><g class="errorbars"/><g class="lines"><path class="js-line" d="M0,16L8.1,50.25L8.35,51.43L17.21,97.17L17.46,98.6L35.42,197.91L35.68,197.95L39.47,212.29L39.73,212.3L39.98,211.33L40.23,212.23L40.48,212.71L41.5,214.47L41.75,214.03L42.76,216.75L43.02,216.49L43.27,215.65L44.28,218.06L44.53,217.15L44.79,217L45.04,216.41L45.55,216.64L45.8,216.91L46.56,216.88L46.81,217.62L47.32,218.56L47.57,218.23L47.82,217.92L48.08,218.1L48.33,217.29L48.58,217.94L48.83,217.08L49.09,217.66L49.34,217.82L50.61,220.22L50.86,219.75L51.11,219.2L51.87,217.51L52.12,218.48L52.38,218.78L52.63,219.25L53.14,218.67L53.39,218.45L54.15,216.84L54.4,216.3L54.65,215.48L55.16,215.81L55.41,215.61L55.92,214.18L56.17,214.79L56.43,215.52L56.68,213.97L57.18,214.35L57.44,215.09L59.72,209L59.97,209.45L60.22,209.88L61.74,208.1L61.99,207.03L62.5,207.81L62.75,206.96L63,206.29L64.27,205.25L64.52,203.39L64.78,203.93L65.03,202.37L65.53,200.54L65.79,201.44L66.04,201.89L66.29,199.9L66.8,200.46L67.05,200.42L68.32,201.4L68.57,201.91L69.08,202.92L69.33,202.23L69.58,200.54L70.6,199.41L70.85,199.85L71.86,196.2L72.11,196.24L72.37,196.77L73.38,197.93L73.63,197.1L74.9,193.56L75.4,193.94L75.66,194.15L76.42,193.28L76.67,193.83L77.68,191.81L77.93,192.31L78.19,192.25L78.44,193.05L78.95,194.32L79.2,194.05L79.45,193.23L79.96,193.84L80.21,194.19L80.97,196.37L81.48,195.66L81.73,195.05L82.24,192.95L82.49,193.65L82.74,194.36L82.99,194.49L83.25,195.76L83.5,195.88L83.75,197.3L84.77,198.57L85.02,197.14L85.27,198.47L85.78,197.29L86.03,198.4L87.04,197.13L87.3,196.19L87.8,194.3L88.05,195.75L88.31,196.09L88.56,195.92L88.81,197.21L89.83,199.87L90.08,200.54L90.33,199.64L90.59,200.07L90.84,201.62L91.09,201.06L91.6,201.37L91.85,202.33L92.61,206.14L92.86,205.71L93.12,205.02L96.91,213.09L97.16,214.78L99.69,223.22L99.95,226.32L102.48,237.09L102.73,238.37L106.53,261.79L106.78,263.64L111.33,292.43L111.59,293.45L114.12,300.26L114.37,300.68L116.9,303.31L117.15,303.46L119.18,303.84L119.43,303.63L121.2,303.85L121.45,303.65L123.23,303.86L123.48,303.68L125.25,303.87L125.5,303.71L127.27,303.78L127.53,303.74L129.05,303.79L129.3,303.81L135.37,303.77L135.62,303.89L137.14,303.83L137.4,303.82L138.66,303.66L138.91,303.79L141.44,303.79L141.7,303.72L143.22,303.84L143.47,303.62L144.99,303.89L145.24,303.75L147.52,303.72L147.77,303.85L252.78,303.67" style="vector-effect: non-scaling-stroke; fill: none; stroke: rgb(0, 204, 150); stroke-opacity: 1; stroke-width: 0px; opacity: 1;"/></g><g class="points"/><g class="text"/></g></g></g><g class="overplot"/><path class="xlines-above crisp" d="M0,0" style="fill: none;"/><path class="ylines-above crisp" d="M0,0" style="fill: none;"/><g class="overlines-above"/><g class="xaxislayer-above"><g class="xtick"><text text-anchor="middle" x="0" y="433" transform="translate(80,0)" style="font-family: 'Open Sans', verdana, arial, sans-serif; font-size: 12px; fill: rgb(42, 63, 95); fill-opacity: 1; white-space: pre; opacity: 1;">0</text></g><g class="xtick"><text text-anchor="middle" x="0" y="433" style="font-family: 'Open Sans', verdana, arial, sans-serif; font-size: 12px; fill: rgb(42, 63, 95); fill-opacity: 1; white-space: pre; opacity: 1;" transform="translate(130.61,0)">200</text></g><g class="xtick"><text text-anchor="middle" x="0" y="433" style="font-family: 'Open Sans', verdana, arial, sans-serif; font-size: 12px; fill: rgb(42, 63, 95); fill-opacity: 1; white-space: pre; opacity: 1;" transform="translate(181.20999999999998,0)">400</text></g><g class="xtick"><text text-anchor="middle" x="0" y="433" style="font-family: 'Open Sans', verdana, arial, sans-serif; font-size: 12px; fill: rgb(42, 63, 95); fill-opacity: 1; white-space: pre; opacity: 1;" transform="translate(231.82,0)">600</text></g><g class="xtick"><text text-anchor="middle" x="0" y="433" style="font-family: 'Open Sans', verdana, arial, sans-serif; font-size: 12px; fill: rgb(42, 63, 95); fill-opacity: 1; white-space: pre; opacity: 1;" transform="translate(282.41999999999996,0)">800</text></g></g><g class="yaxislayer-above"><g class="ytick"><text text-anchor="end" x="79" y="4.199999999999999" transform="translate(0,405.24)" style="font-family: 'Open Sans', verdana, arial, sans-serif; font-size: 12px; fill: rgb(42, 63, 95); fill-opacity: 1; white-space: pre; opacity: 1;">0</text></g><g class="ytick"><text text-anchor="end" x="79" y="4.199999999999999" style="font-family: 'Open Sans', verdana, arial, sans-serif; font-size: 12px; fill: rgb(42, 63, 95); fill-opacity: 1; white-space: pre; opacity: 1;" transform="translate(0,347.39)">20</text></g><g class="ytick"><text text-anchor="end" x="79" y="4.199999999999999" style="font-family: 'Open Sans', verdana, arial, sans-serif; font-size: 12px; fill: rgb(42, 63, 95); fill-opacity: 1; white-space: pre; opacity: 1;" transform="translate(0,289.53999999999996)">40</text></g><g class="ytick"><text text-anchor="end" x="79" y="4.199999999999999" style="font-family: 'Open Sans', verdana, arial, sans-serif; font-size: 12px; fill: rgb(42, 63, 95); fill-opacity: 1; white-space: pre; opacity: 1;" transform="translate(0,231.7)">60</text></g><g class="ytick"><text text-anchor="end" x="79" y="4.199999999999999" style="font-family: 'Open Sans', verdana, arial, sans-serif; font-size: 12px; fill: rgb(42, 63, 95); fill-opacity: 1; white-space: pre; opacity: 1;" transform="translate(0,173.85)">80</text></g><g class="ytick"><text text-anchor="end" x="79" y="4.199999999999999" style="font-family: 'Open Sans', verdana, arial, sans-serif; font-size: 12px; fill: rgb(42, 63, 95); fill-opacity: 1; white-space: pre; opacity: 1;" transform="translate(0,116)">100</text></g></g><g class="overaxes-above"/></g><g class="subplot x2y2"><g class="layer-subplot"><g class="shapelayer"/><g class="imagelayer"/></g><g class="minor-gridlayer"><g class="x2"/><g class="y2"/></g><g class="gridlayer"><g class="x2"><path class="x2grid crisp" transform="translate(441.72111111111116,0)" d="M0,100v320" style="stroke: rgb(255, 255, 255); stroke-opacity: 1; stroke-width: 1px;"/><path class="x2grid crisp" transform="translate(492.3211111111111,0)" d="M0,100v320" style="stroke: rgb(255, 255, 255); stroke-opacity: 1; stroke-width: 1px;"/><path class="x2grid crisp" transform="translate(542.9311111111111,0)" d="M0,100v320" style="stroke: rgb(255, 255, 255); stroke-opacity: 1; stroke-width: 1px;"/><path class="x2grid crisp" transform="translate(593.5311111111112,0)" d="M0,100v320" style="stroke: rgb(255, 255, 255); stroke-opacity: 1; stroke-width: 1px;"/></g><g class="y2"><path class="y2grid crisp" transform="translate(0,394.24)" d="M391.11111111111114,0h252.7777777777778" style="stroke: rgb(255, 255, 255); stroke-opacity: 1; stroke-width: 1px;"/><path class="y2grid crisp" transform="translate(0,338.59000000000003)" d="M391.11111111111114,0h252.7777777777778" style="stroke: rgb(255, 255, 255); stroke-opacity: 1; stroke-width: 1px;"/><path class="y2grid crisp" transform="translate(0,282.94)" d="M391.11111111111114,0h252.7777777777778" style="stroke: rgb(255, 255, 255); stroke-opacity: 1; stroke-width: 1px;"/><path class="y2grid crisp" transform="translate(0,227.3)" d="M391.11111111111114,0h252.7777777777778" style="stroke: rgb(255, 255, 255); stroke-opacity: 1; stroke-width: 1px;"/><path class="y2grid crisp" transform="translate(0,171.65)" d="M391.11111111111114,0h252.7777777777778" style="stroke: rgb(255, 255, 255); stroke-opacity: 1; stroke-width: 1px;"/><path class="y2grid crisp" transform="translate(0,116)" d="M391.11111111111114,0h252.7777777777778" style="stroke: rgb(255, 255, 255); stroke-opacity: 1; stroke-width: 1px;"/></g></g><g class="zerolinelayer"><path class="x2zl zl crisp" transform="translate(391.11111111111114,0)" d="M0,100v320" style="stroke: rgb(255, 255, 255); stroke-opacity: 1; stroke-width: 2px;"/></g><path class="xlines-below"/><path class="ylines-below"/><g class="overlines-below"/><g class="xaxislayer-below"/><g class="yaxislayer-below"/><g class="overaxes-below"/><g class="plot" transform="translate(391.11111111111114,100)" clip-path="url(#clip488e33x2y2plot)"><g class="scatterlayer mlayer"><g class="trace scatter traced33a57" style="stroke-miterlimit: 2; opacity: 1;"><g class="fills"/><g class="errorbars"/><g class="lines"><path class="js-line" d="M0,16L9.11,16.73L9.36,16.77L17.21,18.99L17.46,19.09L24.04,22.5L24.29,22.66L31.63,28.51L31.88,28.75L38.97,36.57L39.22,36.88L48.08,49.36L48.33,49.75L57.94,66.87L58.2,67.38L66.8,86.52L67.05,87.15L73.63,104.72L73.88,105.45L80.72,126.76L80.97,127.61L90.08,161.21L90.33,162.22L99.19,199.98L99.44,201.11L109.06,241.25L109.31,242.06L112.6,249.81L112.85,250.21L115.64,253.1L115.89,253.26L119.94,254.87L120.19,254.95L188,277.43L188.25,277.52L225.45,289.75L225.7,289.84L252.78,298.69" style="vector-effect: non-scaling-stroke; fill: none; stroke: rgb(31, 119, 180); stroke-opacity: 1; stroke-width: 2px; opacity: 1;"/></g><g class="points"/><g class="text"/></g><g class="trace scatter trace98517d" style="stroke-miterlimit: 2;"><g class="fills"><g><path class="js-fill" d="M0,16L9.11,16.73L9.36,16.77L17.21,19L17.46,19.1L24.04,22.52L24.29,22.68L31.63,28.55L31.88,28.8L38.71,36.34L38.97,36.65L47.82,49.12L48.08,49.52L56.68,64.66L56.93,65.16L65.53,83.93L65.79,84.54L74.64,108.4L74.9,109.16L83.75,138.34L84.01,139.26L93.37,176.41L93.62,177.5L110.57,249.55L110.83,250.23L113.61,255.59L113.86,255.92L116.9,258.34L117.15,258.45L127.53,262.03L127.78,262.12L171.81,276.98L172.06,277.08L227.73,295.66L227.98,295.75L252.78,304L252.78,293.38L175.1,268.27L174.84,268.18L131.32,254.01L131.07,253.93L119.94,250.28L119.68,250.21L115.64,248.61L115.38,248.44L112.6,245.57L112.35,245.19L109.06,237.63L108.8,236.85L99.44,198.87L99.19,197.77L90.33,160.75L90.08,159.76L80.72,125.8L80.46,124.97L71.61,98.39L71.35,97.7L62.5,76.07L62.25,75.51L53.9,58.95L53.64,58.5L46.3,46.49L46.05,46.11L37.45,34.65L37.2,34.35L30.36,27.3L30.11,27.07L23.78,22.32L23.53,22.16L16.19,18.59L15.94,18.5L9.36,16.77L9.11,16.72L0,16Z" style="fill: rgb(68, 68, 68); fill-opacity: 0.3; stroke-width: 0;"/></g></g><g class="errorbars"/><g class="lines"><path class="js-line" d="M0,16L9.11,16.72L9.36,16.77L15.94,18.5L16.19,18.59L23.53,22.16L23.78,22.32L30.11,27.07L30.36,27.3L37.2,34.35L37.45,34.65L46.05,46.11L46.3,46.49L53.64,58.5L53.9,58.95L62.25,75.51L62.5,76.07L71.35,97.7L71.61,98.39L80.46,124.97L80.72,125.8L90.08,159.76L90.33,160.75L99.19,197.77L99.44,198.87L108.8,236.85L109.06,237.63L112.35,245.19L112.6,245.57L115.38,248.44L115.64,248.61L119.68,250.21L119.94,250.28L131.07,253.93L131.32,254.01L174.84,268.18L175.1,268.27L252.78,293.38" style="vector-effect: non-scaling-stroke; fill: none; stroke: rgb(68, 68, 68); stroke-opacity: 1; stroke-width: 0px; opacity: 1;"/></g><g class="points"/><g class="text"/></g><g class="trace scatter trace2270fa" style="stroke-miterlimit: 2;"><g class="fills"/><g class="errorbars"/><g class="lines"><path class="js-line" d="M0,16L9.11,16.73L9.36,16.77L17.21,19L17.46,19.1L24.04,22.52L24.29,22.68L31.63,28.55L31.88,28.8L38.71,36.34L38.97,36.65L47.82,49.12L48.08,49.52L56.68,64.66L56.93,65.16L65.53,83.93L65.79,84.54L74.64,108.4L74.9,109.16L83.75,138.34L84.01,139.26L93.37,176.41L93.62,177.5L110.57,249.55L110.83,250.23L113.61,255.59L113.86,255.92L116.9,258.34L117.15,258.45L127.53,262.03L127.78,262.12L171.81,276.98L172.06,277.08L227.73,295.66L227.98,295.75L252.78,304" style="vector-effect: non-scaling-stroke; fill: none; stroke: rgb(25, 211, 243); stroke-opacity: 1; stroke-width: 0px; opacity: 1;"/></g><g class="points"/><g class="text"/></g></g></g><g class="overplot"/><path class="xlines-above crisp" d="M0,0" style="fill: none;"/><path class="ylines-above crisp" d="M0,0" style="fill: none;"/><g class="overlines-above"/><g class="xaxislayer-above"><g class="x2tick"><text text-anchor="middle" x="0" y="433" transform="translate(391.11111111111114,0)" style="font-family: 'Open Sans', verdana, arial, sans-serif; font-size: 12px; fill: rgb(42, 63, 95); fill-opacity: 1; white-space: pre; opacity: 1;">0</text></g><g class="x2tick"><text text-anchor="middle" x="0" y="433" style="font-family: 'Open Sans', verdana, arial, sans-serif; font-size: 12px; fill: rgb(42, 63, 95); fill-opacity: 1; white-space: pre; opacity: 1;" transform="translate(441.72111111111116,0)">200</text></g><g class="x2tick"><text text-anchor="middle" x="0" y="433" style="font-family: 'Open Sans', verdana, arial, sans-serif; font-size: 12px; fill: rgb(42, 63, 95); fill-opacity: 1; white-space: pre; opacity: 1;" transform="translate(492.3211111111111,0)">400</text></g><g class="x2tick"><text text-anchor="middle" x="0" y="433" style="font-family: 'Open Sans', verdana, arial, sans-serif; font-size: 12px; fill: rgb(42, 63, 95); fill-opacity: 1; white-space: pre; opacity: 1;" transform="translate(542.9311111111111,0)">600</text></g><g class="x2tick"><text text-anchor="middle" x="0" y="433" style="font-family: 'Open Sans', verdana, arial, sans-serif; font-size: 12px; fill: rgb(42, 63, 95); fill-opacity: 1; white-space: pre; opacity: 1;" transform="translate(593.5311111111112,0)">800</text></g></g><g class="yaxislayer-above"><g class="y2tick"><text text-anchor="end" x="390.11111111111114" y="4.199999999999999" transform="translate(0,394.24)" style="font-family: 'Open Sans', verdana, arial, sans-serif; font-size: 12px; fill: rgb(42, 63, 95); fill-opacity: 1; white-space: pre; opacity: 1;">5</text></g><g class="y2tick"><text text-anchor="end" x="390.11111111111114" y="4.199999999999999" style="font-family: 'Open Sans', verdana, arial, sans-serif; font-size: 12px; fill: rgb(42, 63, 95); fill-opacity: 1; white-space: pre; opacity: 1;" transform="translate(0,338.59000000000003)">6</text></g><g class="y2tick"><text text-anchor="end" x="390.11111111111114" y="4.199999999999999" style="font-family: 'Open Sans', verdana, arial, sans-serif; font-size: 12px; fill: rgb(42, 63, 95); fill-opacity: 1; white-space: pre; opacity: 1;" transform="translate(0,282.94)">7</text></g><g class="y2tick"><text text-anchor="end" x="390.11111111111114" y="4.199999999999999" style="font-family: 'Open Sans', verdana, arial, sans-serif; font-size: 12px; fill: rgb(42, 63, 95); fill-opacity: 1; white-space: pre; opacity: 1;" transform="translate(0,227.3)">8</text></g><g class="y2tick"><text text-anchor="end" x="390.11111111111114" y="4.199999999999999" style="font-family: 'Open Sans', verdana, arial, sans-serif; font-size: 12px; fill: rgb(42, 63, 95); fill-opacity: 1; white-space: pre; opacity: 1;" transform="translate(0,171.65)">9</text></g><g class="y2tick"><text text-anchor="end" x="390.11111111111114" y="4.199999999999999" style="font-family: 'Open Sans', verdana, arial, sans-serif; font-size: 12px; fill: rgb(42, 63, 95); fill-opacity: 1; white-space: pre; opacity: 1;" transform="translate(0,116)">10</text></g></g><g class="overaxes-above"/></g><g class="subplot x3y3"><g class="layer-subplot"><g class="shapelayer"/><g class="imagelayer"/></g><g class="minor-gridlayer"><g class="x3"/><g class="y3"/></g><g class="gridlayer"><g class="x3"><path class="x3grid crisp" transform="translate(752.8322222222223,0)" d="M0,100v320" style="stroke: rgb(255, 255, 255); stroke-opacity: 1; stroke-width: 1px;"/><path class="x3grid crisp" transform="translate(803.4322222222223,0)" d="M0,100v320" style="stroke: rgb(255, 255, 255); stroke-opacity: 1; stroke-width: 1px;"/><path class="x3grid crisp" transform="translate(854.0422222222223,0)" d="M0,100v320" style="stroke: rgb(255, 255, 255); stroke-opacity: 1; stroke-width: 1px;"/><path class="x3grid crisp" transform="translate(904.6422222222222,0)" d="M0,100v320" style="stroke: rgb(255, 255, 255); stroke-opacity: 1; stroke-width: 1px;"/></g><g class="y3"><path class="y3grid crisp" transform="translate(0,373.93)" d="M702.2222222222223,0h252.77777777777774" style="stroke: rgb(255, 255, 255); stroke-opacity: 1; stroke-width: 1px;"/><path class="y3grid crisp" transform="translate(0,336.35)" d="M702.2222222222223,0h252.77777777777774" style="stroke: rgb(255, 255, 255); stroke-opacity: 1; stroke-width: 1px;"/><path class="y3grid crisp" transform="translate(0,298.77)" d="M702.2222222222223,0h252.77777777777774" style="stroke: rgb(255, 255, 255); stroke-opacity: 1; stroke-width: 1px;"/><path class="y3grid crisp" transform="translate(0,261.19)" d="M702.2222222222223,0h252.77777777777774" style="stroke: rgb(255, 255, 255); stroke-opacity: 1; stroke-width: 1px;"/><path class="y3grid crisp" transform="translate(0,223.61)" d="M702.2222222222223,0h252.77777777777774" style="stroke: rgb(255, 255, 255); stroke-opacity: 1; stroke-width: 1px;"/><path class="y3grid crisp" transform="translate(0,186.03)" d="M702.2222222222223,0h252.77777777777774" style="stroke: rgb(255, 255, 255); stroke-opacity: 1; stroke-width: 1px;"/><path class="y3grid crisp" transform="translate(0,148.44)" d="M702.2222222222223,0h252.77777777777774" style="stroke: rgb(255, 255, 255); stroke-opacity: 1; stroke-width: 1px;"/><path class="y3grid crisp" transform="translate(0,110.86)" d="M702.2222222222223,0h252.77777777777774" style="stroke: rgb(255, 255, 255); stroke-opacity: 1; stroke-width: 1px;"/></g></g><g class="zerolinelayer"><path class="x3zl zl crisp" transform="translate(702.2222222222223,0)" d="M0,100v320" style="stroke: rgb(255, 255, 255); stroke-opacity: 1; stroke-width: 2px;"/><path class="y3zl zl crisp" transform="translate(0,411.52)" d="M702.2222222222223,0h252.77777777777774" style="stroke: rgb(255, 255, 255); stroke-opacity: 1; stroke-width: 2px;"/></g><path class="xlines-below"/><path class="ylines-below"/><g class="overlines-below"/><g class="xaxislayer-below"/><g class="yaxislayer-below"/><g class="overaxes-below"/><g class="plot" transform="translate(702.2222222222223,100)" clip-path="url(#clip488e33x3y3plot)"><g class="scatterlayer mlayer"><g class="trace scatter tracebd87ab" style="stroke-miterlimit: 2; opacity: 1;"><g class="fills"/><g class="errorbars"/><g class="lines"><path class="js-line" d="M0,304L8.1,299L8.35,298.79L14.17,294.22L14.42,293.99L32.13,279.61L32.39,279.46L39.47,276.56L39.73,276.51L62.25,273.06L62.5,272.99L76.42,270.02L76.67,269.91L80.72,269.2L80.97,269.15L97.42,267.11L97.67,267.11L252.78,267.31" style="vector-effect: non-scaling-stroke; fill: none; stroke: rgb(191, 54, 187); stroke-opacity: 1; stroke-width: 2px; opacity: 1;"/></g><g class="points"/><g class="text"/></g><g class="trace scatter trace6945e1" style="stroke-miterlimit: 2;"><g class="fills"><g><path class="js-fill" d="M0,304L7.08,299.79L7.34,299.63L25.56,284.95L25.81,284.74L36.18,278.05L36.44,278.01L39.22,277.1L39.47,277.08L43.77,276.38L44.03,276.27L47.06,275.79L47.32,275.79L61.99,273.97L62.25,273.91L72.11,271.76L72.37,271.65L80.21,270L80.46,269.92L101.97,267.69L102.22,267.69L252.78,267.95L252.78,266.66L100.45,266.39L100.2,266.39L95.39,266.56L95.14,266.56L78.44,268.86L78.19,268.96L48.33,274.38L48.08,274.46L37.95,276.36L37.7,276.38L28.34,281.31L28.09,281.49L25.05,284.01L24.8,284.27L19.48,289.29L19.23,289.53L9.62,297.74L9.36,297.95L0,304Z" style="fill: rgb(191, 54, 187); fill-opacity: 0.3; stroke-width: 0;"/></g></g><g class="errorbars"/><g class="lines"><path class="js-line" d="M0,304L9.36,297.95L9.62,297.74L19.23,289.53L19.48,289.29L24.8,284.27L25.05,284.01L28.09,281.49L28.34,281.31L37.7,276.38L37.95,276.36L48.08,274.46L48.33,274.38L78.19,268.96L78.44,268.86L95.14,266.56L95.39,266.56L100.2,266.39L100.45,266.39L252.78,266.66" style="vector-effect: non-scaling-stroke; fill: none; stroke: rgb(182, 232, 128); stroke-opacity: 1; stroke-width: 0px; opacity: 1;"/></g><g class="points"/><g class="text"/></g><g class="trace scatter trace1760d6" style="stroke-miterlimit: 2;"><g class="fills"/><g class="errorbars"/><g class="lines"><path class="js-line" d="M0,304L7.08,299.79L7.34,299.63L25.56,284.95L25.81,284.74L36.18,278.05L36.44,278.01L39.22,277.1L39.47,277.08L43.77,276.38L44.03,276.27L47.06,275.79L47.32,275.79L61.99,273.97L62.25,273.91L72.11,271.76L72.37,271.65L80.21,270L80.46,269.92L101.97,267.69L102.22,267.69L252.78,267.95" style="vector-effect: non-scaling-stroke; fill: none; stroke: rgb(255, 151, 255); stroke-opacity: 1; stroke-width: 0px; opacity: 1;"/></g><g class="points"/><g class="text"/></g><g class="trace scatter trace416e3c" style="stroke-miterlimit: 2; opacity: 1;"><g class="fills"/><g class="errorbars"/><g class="lines"><path class="js-line" d="M0,304L26.57,296.21L26.82,296.12L42,291.43L42.26,291.36L56.68,284.92L56.93,284.81L61.99,281.16L62.25,280.93L72.11,269.75L72.37,269.34L77.17,260.97L77.43,260.44L84.26,243.04L84.51,242.24L87.8,231.26L88.05,230.23L93.12,207.26L93.37,205.8L99.19,169.46L99.44,167.71L105.01,120.9L105.26,118.34L111.84,48.1L112.09,46.58L114.62,36.9L114.88,36.38L116.9,34.09L117.15,33.98L122.21,33.39L122.47,33.37L133.85,32.3L134.11,32.27L185.98,27.38L186.23,27.35L245.69,21.87L245.95,21.83L252.78,21.2" style="vector-effect: non-scaling-stroke; fill: none; stroke: rgb(6, 138, 50); stroke-opacity: 1; stroke-width: 2px; opacity: 1;"/></g><g class="points"/><g class="text"/></g><g class="trace scatter trace2b5d8d" style="stroke-miterlimit: 2;"><g class="fills"><g><path class="js-fill" d="M0,304L20.75,298.48L21,298.4L37.95,293.05L38.21,293L55.67,285.85L55.92,285.66L63.26,280.57L63.51,280.33L73.13,269.05L73.38,268.62L76.16,264.08L76.42,263.59L80.97,253.2L81.22,252.53L85.52,241.09L85.78,240.1L93.12,208.66L93.37,207.06L100.45,161.81L100.71,159.57L104.75,125.06L105.01,122.32L112.09,50.22L112.35,48.94L114.62,41.45L114.88,40.99L116.9,38.97L117.15,38.89L123.23,38.22L123.48,38.21L147.77,36.04L148.02,36.03L179.15,33.15L179.4,33.16L183.7,32.7L183.95,32.7L232.79,28.22L233.04,28.18L238.61,27.7L238.86,27.66L249.49,26.69L249.74,26.69L252.78,26.41L252.78,16L251.26,16.11L251.01,16.16L243.67,16.87L243.42,16.91L187.75,22.1L187.5,22.1L180.16,22.85L179.9,22.88L168.77,23.91L168.52,23.9L164.22,24.39L163.96,24.38L158.65,24.93L158.4,24.92L153.84,25.38L153.59,25.37L121.2,28.56L120.95,28.55L117.15,29.08L116.9,29.2L114.88,31.77L114.62,32.34L112.35,41.4L112.09,42.93L104.75,122.51L104.5,125.03L99.44,166.13L99.19,167.83L93.87,201.72L93.62,203.23L89.07,224.42L88.81,225.5L85.02,239.08L84.77,239.7L80.72,251.74L80.46,252.5L74.64,264.64L74.39,265.16L72.11,268.77L71.86,269.29L68.32,274.02L68.07,274.41L60.98,281.37L60.73,281.66L55.92,284.97L55.67,285.14L41.24,291.36L40.99,291.38L23.53,296.98L23.28,297.1L11.64,301.08L11.39,301.14L0,304Z" style="fill: rgb(6, 138, 50); fill-opacity: 0.3; stroke-width: 0;"/></g></g><g class="errorbars"/><g class="lines"><path class="js-line" d="M0,304L11.39,301.14L11.64,301.08L23.28,297.1L23.53,296.98L40.99,291.38L41.24,291.36L55.67,285.14L55.92,284.97L60.73,281.66L60.98,281.37L68.07,274.41L68.32,274.02L71.86,269.29L72.11,268.77L74.39,265.16L74.64,264.64L80.46,252.5L80.72,251.74L84.77,239.7L85.02,239.08L88.81,225.5L89.07,224.42L93.62,203.23L93.87,201.72L99.19,167.83L99.44,166.13L104.5,125.03L104.75,122.51L112.09,42.93L112.35,41.4L114.62,32.34L114.88,31.77L116.9,29.2L117.15,29.08L120.95,28.55L121.2,28.56L153.59,25.37L153.84,25.38L158.4,24.92L158.65,24.93L163.96,24.38L164.22,24.39L168.52,23.9L168.77,23.91L179.9,22.88L180.16,22.85L187.5,22.1L187.75,22.1L243.42,16.91L243.67,16.87L251.01,16.16L251.26,16.11L252.78,16" style="vector-effect: non-scaling-stroke; fill: none; stroke: rgb(99, 110, 250); stroke-opacity: 1; stroke-width: 0px; opacity: 1;"/></g><g class="points"/><g class="text"/></g><g class="trace scatter traced3007b" style="stroke-miterlimit: 2;"><g class="fills"/><g class="errorbars"/><g class="lines"><path class="js-line" d="M0,304L20.75,298.48L21,298.4L37.95,293.05L38.21,293L55.67,285.85L55.92,285.66L63.26,280.57L63.51,280.33L73.13,269.05L73.38,268.62L76.16,264.08L76.42,263.59L80.97,253.2L81.22,252.53L85.52,241.09L85.78,240.1L93.12,208.66L93.37,207.06L100.45,161.81L100.71,159.57L104.75,125.06L105.01,122.32L112.09,50.22L112.35,48.94L114.62,41.45L114.88,40.99L116.9,38.97L117.15,38.89L123.23,38.22L123.48,38.21L147.77,36.04L148.02,36.03L179.15,33.15L179.4,33.16L183.7,32.7L183.95,32.7L232.79,28.22L233.04,28.18L238.61,27.7L238.86,27.66L249.49,26.69L249.74,26.69L252.78,26.41" style="vector-effect: non-scaling-stroke; fill: none; stroke: rgb(239, 85, 59); stroke-opacity: 1; stroke-width: 0px; opacity: 1;"/></g><g class="points"/><g class="text"/></g></g></g><g class="overplot"/><path class="xlines-above crisp" d="M0,0" style="fill: none;"/><path class="ylines-above crisp" d="M0,0" style="fill: none;"/><g class="overlines-above"/><g class="xaxislayer-above"><g class="x3tick"><text text-anchor="middle" x="0" y="433" transform="translate(702.2222222222223,0)" style="font-family: 'Open Sans', verdana, arial, sans-serif; font-size: 12px; fill: rgb(42, 63, 95); fill-opacity: 1; white-space: pre; opacity: 1;">0</text></g><g class="x3tick"><text text-anchor="middle" x="0" y="433" style="font-family: 'Open Sans', verdana, arial, sans-serif; font-size: 12px; fill: rgb(42, 63, 95); fill-opacity: 1; white-space: pre; opacity: 1;" transform="translate(752.8322222222223,0)">200</text></g><g class="x3tick"><text text-anchor="middle" x="0" y="433" style="font-family: 'Open Sans', verdana, arial, sans-serif; font-size: 12px; fill: rgb(42, 63, 95); fill-opacity: 1; white-space: pre; opacity: 1;" transform="translate(803.4322222222223,0)">400</text></g><g class="x3tick"><text text-anchor="middle" x="0" y="433" style="font-family: 'Open Sans', verdana, arial, sans-serif; font-size: 12px; fill: rgb(42, 63, 95); fill-opacity: 1; white-space: pre; opacity: 1;" transform="translate(854.0422222222223,0)">600</text></g><g class="x3tick"><text text-anchor="middle" x="0" y="433" style="font-family: 'Open Sans', verdana, arial, sans-serif; font-size: 12px; fill: rgb(42, 63, 95); fill-opacity: 1; white-space: pre; opacity: 1;" transform="translate(904.6422222222222,0)">800</text></g></g><g class="yaxislayer-above"><g class="y3tick"><text text-anchor="end" x="701.2222222222223" y="4.199999999999999" transform="translate(0,411.52)" style="font-family: 'Open Sans', verdana, arial, sans-serif; font-size: 12px; fill: rgb(42, 63, 95); fill-opacity: 1; white-space: pre; opacity: 1;">0</text></g><g class="y3tick"><text text-anchor="end" x="701.2222222222223" y="4.199999999999999" style="font-family: 'Open Sans', verdana, arial, sans-serif; font-size: 12px; fill: rgb(42, 63, 95); fill-opacity: 1; white-space: pre; opacity: 1;" transform="translate(0,373.93)">0.5</text></g><g class="y3tick"><text text-anchor="end" x="701.2222222222223" y="4.199999999999999" style="font-family: 'Open Sans', verdana, arial, sans-serif; font-size: 12px; fill: rgb(42, 63, 95); fill-opacity: 1; white-space: pre; opacity: 1;" transform="translate(0,336.35)">1</text></g><g class="y3tick"><text text-anchor="end" x="701.2222222222223" y="4.199999999999999" style="font-family: 'Open Sans', verdana, arial, sans-serif; font-size: 12px; fill: rgb(42, 63, 95); fill-opacity: 1; white-space: pre; opacity: 1;" transform="translate(0,298.77)">1.5</text></g><g class="y3tick"><text text-anchor="end" x="701.2222222222223" y="4.199999999999999" style="font-family: 'Open Sans', verdana, arial, sans-serif; font-size: 12px; fill: rgb(42, 63, 95); fill-opacity: 1; white-space: pre; opacity: 1;" transform="translate(0,261.19)">2</text></g><g class="y3tick"><text text-anchor="end" x="701.2222222222223" y="4.199999999999999" style="font-family: 'Open Sans', verdana, arial, sans-serif; font-size: 12px; fill: rgb(42, 63, 95); fill-opacity: 1; white-space: pre; opacity: 1;" transform="translate(0,223.61)">2.5</text></g><g class="y3tick"><text text-anchor="end" x="701.2222222222223" y="4.199999999999999" style="font-family: 'Open Sans', verdana, arial, sans-serif; font-size: 12px; fill: rgb(42, 63, 95); fill-opacity: 1; white-space: pre; opacity: 1;" transform="translate(0,186.03)">3</text></g><g class="y3tick"><text text-anchor="end" x="701.2222222222223" y="4.199999999999999" style="font-family: 'Open Sans', verdana, arial, sans-serif; font-size: 12px; fill: rgb(42, 63, 95); fill-opacity: 1; white-space: pre; opacity: 1;" transform="translate(0,148.44)">3.5</text></g><g class="y3tick"><text text-anchor="end" x="701.2222222222223" y="4.199999999999999" style="font-family: 'Open Sans', verdana, arial, sans-serif; font-size: 12px; fill: rgb(42, 63, 95); fill-opacity: 1; white-space: pre; opacity: 1;" transform="translate(0,110.86)">4</text></g></g><g class="overaxes-above"/></g></g><g class="polarlayer"/><g class="smithlayer"/><g class="ternarylayer"/><g class="geolayer"/><g class="funnelarealayer"/><g class="pielayer"/><g class="iciclelayer"/><g class="treemaplayer"/><g class="sunburstlayer"/><g class="glimages"/><defs id="topdefs-488e33"><g class="clips"/><clipPath id="legend488e33"><rect width="215" height="100" x="0" y="0"/></clipPath></defs><g class="layer-above"><g class="imagelayer"/><g class="shapelayer"/></g><g class="infolayer"><g class="legend" pointer-events="all" transform="translate(972.5,100)"><rect class="bg" shape-rendering="crispEdges" style="stroke: rgb(68, 68, 68); stroke-opacity: 1; fill: rgb(255, 255, 255); fill-opacity: 1; stroke-width: 0px;" width="215" height="100" x="0" y="0"/><g class="scrollbox" transform="" clip-path="url(#legend488e33)"><g class="groups"><g class="traces" transform="translate(0,16.25)" style="opacity: 1;"><text class="legendtext" text-anchor="start" x="40" y="5.85" style="font-family: 'Open Sans', verdana, arial, sans-serif; font-size: 15px; fill: rgb(42, 63, 95); fill-opacity: 1; white-space: pre;">Agent 2</text><g class="layers" style="opacity: 1;"><g class="legendfill"/><g class="legendlines"><path class="js-line" d="M5,0h30" style="fill: none; stroke: rgb(6, 138, 50); stroke-opacity: 1; stroke-width: 2px;"/></g><g class="legendsymbols"><g class="legendpoints"/></g></g><rect class="legendtoggle" x="0" y="-11.25" width="209.453125" height="22.5" style="fill: rgb(0, 0, 0); fill-opacity: 0;"/></g><g class="traces" transform="translate(0,38.75)" style="opacity: 1;"><text class="legendtext" text-anchor="start" x="40" y="5.85" style="font-family: 'Open Sans', verdana, arial, sans-serif; font-size: 15px; fill: rgb(42, 63, 95); fill-opacity: 1; white-space: pre;">Agent 1</text><g class="layers" style="opacity: 1;"><g class="legendfill"/><g class="legendlines"><path class="js-line" d="M5,0h30" style="fill: none; stroke: rgb(191, 54, 187); stroke-opacity: 1; stroke-width: 2px;"/></g><g class="legendsymbols"><g class="legendpoints"/></g></g><rect class="legendtoggle" x="0" y="-11.25" width="209.453125" height="22.5" style="fill: rgb(0, 0, 0); fill-opacity: 0;"/></g><g class="traces" transform="translate(0,61.25)" style="opacity: 1;"><text class="legendtext" text-anchor="start" x="40" y="5.85" style="font-family: 'Open Sans', verdana, arial, sans-serif; font-size: 15px; fill: rgb(42, 63, 95); fill-opacity: 1; white-space: pre;">Starch Concentration</text><g class="layers" style="opacity: 1;"><g class="legendfill"/><g class="legendlines"><path class="js-line" d="M5,0h30" style="fill: none; stroke: rgb(31, 119, 180); stroke-opacity: 1; stroke-width: 2px;"/></g><g class="legendsymbols"><g class="legendpoints"/></g></g><rect class="legendtoggle" x="0" y="-11.25" width="209.453125" height="22.5" style="fill: rgb(0, 0, 0); fill-opacity: 0;"/></g><g class="traces" transform="translate(0,83.75)" style="opacity: 1;"><text class="legendtext" text-anchor="start" x="40" y="5.85" style="font-family: 'Open Sans', verdana, arial, sans-serif; font-size: 15px; fill: rgb(42, 63, 95); fill-opacity: 1; white-space: pre;">Glucose Concentration</text><g class="layers" style="opacity: 1;"><g class="legendfill"/><g class="legendlines"><path class="js-line" d="M5,0h30" style="fill: none; stroke: rgb(168, 50, 70); stroke-opacity: 1; stroke-width: 2px;"/></g><g class="legendsymbols"><g class="legendpoints"/></g></g><rect class="legendtoggle" x="0" y="-11.25" width="209.453125" height="22.5" style="fill: rgb(0, 0, 0); fill-opacity: 0;"/></g></g></g><rect class="scrollbar" rx="20" ry="3" width="0" height="0" style="fill: rgb(128, 139, 164); fill-opacity: 1;" x="0" y="0"/></g><g class="g-gtitle"><text class="gtitle" x="600" y="50" text-anchor="middle" dy="0em" style="font-family: 'Open Sans', verdana, arial, sans-serif; font-size: 17px; fill: rgb(42, 63, 95); opacity: 1; font-weight: normal; white-space: pre;">Concentration of Starch and Glucose over Time after training</text></g><g class="g-xtitle"><text class="xtitle" x="206.3888888888889" y="460.3" text-anchor="middle" style="font-family: 'Open Sans', verdana, arial, sans-serif; font-size: 14px; fill: rgb(42, 63, 95); opacity: 1; font-weight: normal; white-space: pre;">Time</text></g><g class="g-x2title"><text class="x2title" x="517.5" y="460.3" text-anchor="middle" style="font-family: 'Open Sans', verdana, arial, sans-serif; font-size: 14px; fill: rgb(42, 63, 95); opacity: 1; font-weight: normal; white-space: pre;">Time</text></g><g class="g-x3title"><text class="x3title" x="828.6111111111112" y="460.3" text-anchor="middle" style="font-family: 'Open Sans', verdana, arial, sans-serif; font-size: 14px; fill: rgb(42, 63, 95); opacity: 1; font-weight: normal; white-space: pre;">Time</text></g><g class="g-ytitle"><text class="ytitle" transform="rotate(-90,31.309375000000003,260)" x="31.309375000000003" y="260" text-anchor="middle" style="font-family: 'Open Sans', verdana, arial, sans-serif; font-size: 14px; fill: rgb(42, 63, 95); opacity: 1; font-weight: normal; white-space: pre;">Concentration</text></g><g class="g-y2title"/><g class="g-y3title"/><g class="annotation" data-index="0" style="opacity: 1;"><g class="annotation-text-g" transform="rotate(0,206.3888888888889,88)"><g class="cursor-pointer" transform="translate(119,76)"><rect class="bg" x="0.5" y="0.5" width="174" height="23" style="stroke-width: 1px; stroke: rgb(0, 0, 0); stroke-opacity: 0; fill: rgb(0, 0, 0); fill-opacity: 0;"/><text class="annotation-text" text-anchor="middle" x="87.5625" y="18" style="font-family: 'Open Sans', verdana, arial, sans-serif; font-size: 16px; fill: rgb(42, 63, 95); fill-opacity: 1; white-space: pre;">Glucose Concentrtion</text></g></g></g><g class="annotation" data-index="1" style="opacity: 1;"><g class="annotation-text-g" transform="rotate(0,517.5,88)"><g class="cursor-pointer" transform="translate(431,76)"><rect class="bg" x="0.5" y="0.5" width="173" height="23" style="stroke-width: 1px; stroke: rgb(0, 0, 0); stroke-opacity: 0; fill: rgb(0, 0, 0); fill-opacity: 0;"/><text class="annotation-text" text-anchor="middle" x="87.03125" y="18" style="font-family: 'Open Sans', verdana, arial, sans-serif; font-size: 16px; fill: rgb(42, 63, 95); fill-opacity: 1; white-space: pre;">Starch Concentration</text></g></g></g><g class="annotation" data-index="2" style="opacity: 1;"><g class="annotation-text-g" transform="rotate(0,828.6111111111112,88)"><g class="cursor-pointer" transform="translate(736,76)"><rect class="bg" x="0.5" y="0.5" width="184" height="23" style="stroke-width: 1px; stroke: rgb(0, 0, 0); stroke-opacity: 0; fill: rgb(0, 0, 0); fill-opacity: 0;"/><text class="annotation-text" text-anchor="middle" x="92.71875" y="18" style="font-family: 'Open Sans', verdana, arial, sans-serif; font-size: 16px; fill: rgb(42, 63, 95); fill-opacity: 1; white-space: pre;">Agents Concentrations</text></g></g></g></g></svg>