<svg class="main-svg" xmlns="http://www.w3.org/2000/svg" xmlns:xlink="http://www.w3.org/1999/xlink" width="1200" height="500" style="" viewBox="0 0 1200 500"><rect x="0" y="0" width="1200" height="500" style="fill: rgb(255, 255, 255); fill-opacity: 1;"/><defs id="defs-e1e5b8"><g class="clips"><clipPath id="clipe1e5b8xyplot" class="plotclip"><rect width="323.75" height="320"/></clipPath><clipPath id="clipe1e5b8xy2plot" class="plotclip"><rect width="323.75" height="320"/></clipPath><clipPath id="clipe1e5b8x2y3plot" class="plotclip"><rect width="323.75" height="320"/></clipPath><clipPath class="axesclip" id="clipe1e5b8x"><rect x="80" y="0" width="323.75" height="500"/></clipPath><clipPath class="axesclip" id="clipe1e5b8y"><rect x="0" y="100" width="1200" height="320"/></clipPath><clipPath class="axesclip" id="clipe1e5b8xy"><rect x="80" y="100" width="323.75" height="320"/></clipPath><clipPath class="axesclip" id="clipe1e5b8y2"><rect x="0" y="100" width="1200" height="320"/></clipPath><clipPath class="axesclip" id="clipe1e5b8xy2"><rect x="80" y="100" width="323.75" height="320"/></clipPath><clipPath class="axesclip" id="clipe1e5b8y3"><rect x="0" y="100" width="1200" height="320"/></clipPath><clipPath class="axesclip" id="clipe1e5b8xy3"><rect x="80" y="100" width="323.75" height="320"/></clipPath><clipPath class="axesclip" id="clipe1e5b8x2"><rect x="578.75" y="0" width="323.75" height="500"/></clipPath><clipPath class="axesclip" id="clipe1e5b8x2y"><rect x="578.75" y="100" width="323.75" height="320"/></clipPath><clipPath class="axesclip" id="clipe1e5b8x2y2"><rect x="578.75" y="100" width="323.75" height="320"/></clipPath><clipPath class="axesclip" id="clipe1e5b8x2y3"><rect x="578.75" y="100" width="323.75" height="320"/></clipPath></g><g class="gradients"/><g class="patterns"/></defs><g class="bglayer"><rect class="bg" x="80" y="100" width="323.75" height="320" style="fill: rgb(229, 236, 246); fill-opacity: 1; stroke-width: 0;"/><rect class="bg" x="578.75" y="100" width="323.75" height="320" style="fill: rgb(229, 236, 246); fill-opacity: 1; stroke-width: 0;"/></g><g class="layer-below"><g class="imagelayer"/><g class="shapelayer"/></g><g class="cartesianlayer"><g class="subplot xy"><g class="layer-subplot"><g class="shapelayer"/><g class="imagelayer"/></g><g class="minor-gridlayer"><g class="x"/><g class="y"/><g class="y2"/></g><g class="gridlayer"><g class="x"><path class="xgrid crisp" transform="translate(144.81,0)" d="M0,100v320" style="stroke: rgb(255, 255, 255); stroke-opacity: 1; stroke-width: 1px;"/><path class="xgrid crisp" transform="translate(209.63,0)" d="M0,100v320" style="stroke: rgb(255, 255, 255); stroke-opacity: 1; stroke-width: 1px;"/><path class="xgrid crisp" transform="translate(274.44,0)" d="M0,100v320" style="stroke: rgb(255, 255, 255); stroke-opacity: 1; stroke-width: 1px;"/><path class="xgrid crisp" transform="translate(339.26,0)" d="M0,100v320" style="stroke: rgb(255, 255, 255); stroke-opacity: 1; stroke-width: 1px;"/></g><g class="y"><path class="ygrid crisp" transform="translate(0,347.43)" d="M80,0h323.75" style="stroke: rgb(255, 255, 255); stroke-opacity: 1; stroke-width: 1px;"/><path class="ygrid crisp" transform="translate(0,289.57)" d="M80,0h323.75" style="stroke: rgb(255, 255, 255); stroke-opacity: 1; stroke-width: 1px;"/><path class="ygrid crisp" transform="translate(0,231.71)" d="M80,0h323.75" style="stroke: rgb(255, 255, 255); stroke-opacity: 1; stroke-width: 1px;"/><path class="ygrid crisp" transform="translate(0,173.86)" d="M80,0h323.75" style="stroke: rgb(255, 255, 255); stroke-opacity: 1; stroke-width: 1px;"/><path class="ygrid crisp" transform="translate(0,116)" d="M80,0h323.75" style="stroke: rgb(255, 255, 255); stroke-opacity: 1; stroke-width: 1px;"/></g><g class="y2"><path class="y2grid crisp" transform="translate(0,405.83)" d="M80,0h323.75" style="stroke: rgb(255, 255, 255); stroke-opacity: 1; stroke-width: 1px;"/><path class="y2grid crisp" transform="translate(0,347.86)" d="M80,0h323.75" style="stroke: rgb(255, 255, 255); stroke-opacity: 1; stroke-width: 1px;"/><path class="y2grid crisp" transform="translate(0,289.9)" d="M80,0h323.75" style="stroke: rgb(255, 255, 255); stroke-opacity: 1; stroke-width: 1px;"/><path class="y2grid crisp" transform="translate(0,231.93)" d="M80,0h323.75" style="stroke: rgb(255, 255, 255); stroke-opacity: 1; stroke-width: 1px;"/><path class="y2grid crisp" transform="translate(0,173.97)" d="M80,0h323.75" style="stroke: rgb(255, 255, 255); stroke-opacity: 1; stroke-width: 1px;"/><path class="y2grid crisp" transform="translate(0,116)" d="M80,0h323.75" style="stroke: rgb(255, 255, 255); stroke-opacity: 1; stroke-width: 1px;"/></g></g><g class="zerolinelayer"><path class="xzl zl crisp" transform="translate(80,0)" d="M0,100v320" style="stroke: rgb(255, 255, 255); stroke-opacity: 1; stroke-width: 2px;"/><path class="yzl zl crisp" transform="translate(0,405.28)" d="M80,0h323.75" style="stroke: rgb(255, 255, 255); stroke-opacity: 1; stroke-width: 2px;"/></g><path class="xlines-below"/><path class="ylines-below"/><g class="overlines-below"><path class="xy2-x"/><path class="xy2-y"/></g><g class="xaxislayer-below"/><g class="yaxislayer-below"/><g class="overaxes-below"><g class="xy2-x"/><g class="xy2-y"/></g><g class="plot" transform="translate(80,100)" clip-path="url(#clipe1e5b8xyplot)"><g class="scatterlayer mlayer"><g class="trace scatter trace1cab6b" style="stroke-miterlimit: 2; opacity: 1;"><g class="fills"/><g class="errorbars"/><g class="lines"><path class="js-line" d="M0,16L9.4,46.73L9.72,47.91L17.5,78.46L17.82,79.82L27.55,123.31L27.87,124.81L42.45,190.13L42.78,191.19L44.72,198.22L45.05,199.41L47.96,207.44L48.29,208.09L50.23,212.53L50.56,212.68L52.82,215.29L53.15,215.37L53.8,215.06L54.12,215.96L55.74,217.34L56.06,217.34L56.39,216.92L56.71,217.33L57.04,217.31L57.36,218.11L57.69,217.23L58.01,217.19L58.98,217.62L59.31,218.13L59.95,218.37L60.28,218.7L61.9,217.3L62.22,217.61L62.55,217.47L62.87,218.18L63.52,216.61L63.84,216.89L64.17,216.74L64.81,216.84L65.14,216.22L65.46,216.47L65.79,215.42L66.76,214.41L67.08,215.08L69.35,212.24L69.68,212.01L70.97,211.01L71.3,210.31L72.27,210.42L72.59,211.04L75.51,209.13L75.83,209.27L77.45,208.02L77.78,208.14L78.75,207.97L79.07,208.53L80.37,208.34L80.69,207.92L82.31,205.43L82.64,205.51L83.29,205.16L83.61,204.72L85.23,203.57L85.56,203.62L86.53,202.37L86.85,202.45L89.44,198.61L89.77,199.2L90.09,199.78L91.06,199.53L91.39,199.6L92.69,198.41L93.01,199.02L94.31,197.49L94.63,197.13L95.28,195.83L95.6,196.5L95.93,196.16L96.25,196.83L96.57,195.97L96.9,195.6L97.87,196.11L98.19,196.32L98.52,196.54L98.84,195.69L99.17,195.93L99.49,195.08L100.79,196.53L101.11,197.29L101.76,197.75L102.08,196.96L103.06,197.77L103.38,197.02L104.35,198.47L104.68,199.33L106.3,200.03L106.62,199.35L107.27,198.57L107.59,197.97L108.24,197.34L108.56,197.89L109.54,198.42L109.86,198.47L110.83,199.25L111.16,198.27L112.13,198.23L112.45,197.93L113.43,199.85L113.75,199.65L114.07,199.47L115.05,199.14L115.37,200.18L116.99,202.42L117.31,201.99L119.26,206.61L119.58,206.95L119.91,206.78L120.23,207.69L121.2,207.54L121.53,208.13L126.71,219.71L127.04,220.53L135.79,259.87L136.11,261.74L142.27,292.68L142.59,293.7L145.51,299.98L145.83,300.42L148.75,303.06L149.07,303.24L151.99,303.85L152.31,303.59L164.31,303.79L164.63,303.66L183.75,303.83L184.07,303.57L204.49,303.67L204.81,303.55L207.08,303.76L207.41,303.64L228.47,303.69L228.8,303.57L230.74,303.66L231.06,303.67L243.38,303.73L243.7,303.62L245.65,303.71L245.97,303.6L247.92,303.69L248.24,303.58L250.19,303.68L250.51,303.57L252.45,303.67L252.78,303.55L254.4,303.78L254.72,303.66L256.34,303.62L256.67,303.77L275.14,303.8L275.46,303.55L277.41,303.81L277.73,303.7L287.13,303.78L287.45,303.53L289.4,303.66L289.72,303.55L291.67,303.68L291.99,303.58L293.61,303.82L293.94,303.71L295.56,303.7L295.88,303.85L297.18,303.67L297.5,303.56L299.12,303.81L299.44,303.69L302.04,303.63L302.36,303.78L304.31,303.66L304.63,303.81L305.6,303.76L305.93,303.77L307.22,303.6L307.55,303.63L309.17,303.75L309.49,303.5L311.11,303.77L311.44,303.65L313.06,303.65L313.38,303.81L315.32,303.69L315.65,303.85L318.24,303.65L318.56,303.68L320.19,303.66L320.51,303.56L322.13,303.83L322.45,303.72L323.75,303.69" style="vector-effect: non-scaling-stroke; fill: none; stroke: rgb(168, 50, 70); stroke-opacity: 1; stroke-width: 2px; opacity: 1;"/></g><g class="points"/><g class="text"/></g><g class="trace scatter trace86530c" style="stroke-miterlimit: 2;"><g class="fills"><g><path class="js-fill" d="M0,16L8.75,44.74L9.07,45.91L16.85,76.19L17.18,77.54L29.17,131.66L29.49,133.2L43.43,196.81L43.75,198.09L47.96,212.45L48.29,212.55L49.91,215.55L50.23,216.16L50.56,216.01L50.88,216.9L52.18,217.61L52.5,216.88L53.8,218.44L54.12,219.27L54.77,218.02L55.09,218.83L55.42,219.63L55.74,219.38L56.06,218.82L56.39,217.98L56.71,218.46L57.04,218.46L57.36,219.25L57.69,218.34L58.01,217.68L60.28,220.35L60.6,219.7L60.93,220.15L61.25,219.3L61.57,218.96L61.9,219.8L62.55,219.84L62.87,220.57L64.17,218.4L64.49,218.46L65.46,219.81L65.79,218.78L66.44,217.42L66.76,217.54L67.08,218.23L68.7,215.22L69.03,215.7L70.65,212.96L70.97,212.95L71.3,211.73L71.62,212.2L71.94,212.57L72.92,211.91L73.24,212.45L73.89,211.41L74.21,211.83L74.54,211.35L75.51,212.32L75.83,211.66L76.16,211.68L76.48,210.9L77.45,211.8L77.78,211.05L78.43,212.12L78.75,210.94L79.72,212.38L80.05,211.43L80.69,212.23L81.02,211.42L82.96,208.53L83.29,209.06L83.94,209.46L84.26,208.75L85.23,208.23L85.56,208.65L87.18,203.97L87.5,204.3L88.15,201.67L88.8,201.97L89.12,202.06L89.44,201.18L89.77,201.77L90.09,202.35L90.42,200.93L91.06,201.23L91.39,201.92L92.04,203.18L92.36,201.98L92.69,201.71L93.01,202.32L93.33,201.03L93.66,201.52L93.98,200.77L94.31,199.53L94.95,198.78L95.28,199.01L95.6,199.69L96.57,199.12L96.9,199.87L97.87,201.15L98.19,200.61L99.81,198.6L100.14,199.35L101.76,202.82L102.08,202.02L103.06,203.09L103.38,201.33L104.03,201.66L104.35,202.46L105.65,204.3L105.97,203.66L107.59,200.82L107.92,201.09L108.24,201.11L108.56,200.99L108.89,202.56L109.21,201.75L109.86,202.1L110.19,201.7L111.16,199.89L111.48,200.46L112.13,200.33L112.45,199.39L113.43,202.06L113.75,200.78L114.4,201.21L114.72,200.27L115.05,200.3L115.37,201.21L116.99,206.71L117.31,206.25L118.29,208.2L118.61,207.93L118.94,207.94L119.26,209.38L120.88,210.83L121.2,210.72L122.82,214.31L123.15,214.54L124.44,216.42L124.77,217.18L126.06,220.66L126.39,221.36L127.36,223.69L127.69,226.61L130.28,236.26L130.6,237.55L134.81,257.83L135.14,259.65L141.62,292.29L141.94,293.32L144.86,299.77L145.19,300.23L148.1,302.96L148.43,303.15L151.02,303.78L151.34,303.65L153.61,303.82L153.94,303.69L155.88,303.87L156.2,303.6L158.47,303.9L158.8,303.66L161.06,303.92L161.39,303.71L163.66,303.83L163.98,303.77L165.93,303.87L166.25,303.69L168.19,303.79L168.52,303.78L178.56,303.83L178.89,303.9L180.83,303.75L181.16,303.88L189.58,303.83L189.91,303.95L191.53,303.81L191.85,303.77L193.8,303.76L194.12,303.71L196.39,303.84L196.71,303.79L199.63,303.95L199.95,303.83L204.81,303.69L205.14,303.83L210.65,303.93L210.97,303.8L235.28,303.89L235.6,303.8L247.92,303.89L248.24,303.71L250.19,303.89L250.51,303.68L252.45,303.89L252.78,303.66L254.72,303.89L255.05,303.65L256.99,303.98L257.31,303.63L259.26,303.97L259.58,303.62L261.53,303.96L261.85,303.62L263.8,303.96L264.12,303.62L266.06,303.96L266.39,303.62L268.33,303.96L268.66,303.63L270.6,303.96L270.93,303.64L272.87,303.97L273.19,303.66L275.14,303.97L275.46,303.68L277.41,303.98L277.73,303.87L285.83,303.86L286.16,303.91L287.78,303.82L288.1,303.89L293.94,303.93L294.26,303.7L296.2,303.81L296.53,303.72L298.47,303.83L298.8,303.74L300.42,303.89L300.74,303.6L302.69,303.92L303.01,303.63L304.95,303.78L305.28,303.66L307.22,303.81L307.55,303.7L309.17,303.98L309.49,303.57L311.44,303.9L311.76,303.62L313.7,303.92L314.03,303.67L315.97,303.95L316.3,303.73L318.24,303.85L318.56,303.78L320.19,303.88L320.51,303.68L322.45,303.91L322.78,303.74L323.75,303.87L323.75,303.51L322.45,303.52L322.13,303.72L317.92,303.39L317.59,303.64L313.7,303.45L313.38,303.74L312.08,303.64L311.76,303.47L309.17,303.51L308.84,303.67L307.22,303.38L306.9,303.79L304.95,303.34L304.63,303.76L302.69,303.4L302.36,303.72L299.44,303.45L299.12,303.75L294.91,303.4L294.58,303.67L292.96,303.43L292.64,303.55L282.27,303.58L281.94,303.4L279.35,303.47L279.03,303.51L276.44,303.42L276.11,303.54L274.17,303.4L273.84,303.53L271.9,303.38L271.57,303.52L269.63,303.36L269.31,303.52L267.69,303.52L267.36,303.47L264.44,303.61L264.12,303.44L262.18,303.61L261.85,303.44L260.23,303.5L259.91,303.61L258.29,303.37L257.96,303.5L256.02,303.38L255.69,303.51L253.75,303.4L253.43,303.51L251.48,303.42L251.16,303.52L249.54,303.54L249.21,303.44L245.65,303.53L245.32,303.47L243.7,303.47L243.38,303.55L223.29,303.59L222.96,303.42L200.6,303.48L200.28,303.55L197.36,303.37L197.04,303.48L195.74,303.68L195.42,303.53L193.15,303.6L192.82,303.44L189.91,303.51L189.58,303.63L188.61,303.73L188.29,303.59L185.05,303.5L184.72,303.62L183.75,303.72L183.43,303.58L182.45,303.68L182.13,303.54L176.3,303.46L175.97,303.5L171.76,303.45L171.44,303.52L162.04,303.4L161.71,303.65L160.09,303.49L159.77,303.5L154.58,303.38L154.26,303.69L152.31,303.38L151.99,303.79L149.4,303.18L149.07,302.99L146.16,300.27L145.83,299.81L142.92,293.27L142.59,292.21L138.7,273.67L138.38,271.76L133.19,242.61L132.87,241.02L128.98,225.09L128.66,224.02L127.04,218.15L126.71,217.29L124.44,211.09L124.12,209.29L123.15,207.86L122.82,207.54L121.53,204.23L121.2,204.36L119.91,203.99L119.58,204.02L117.64,198.14L117.31,197.73L116.02,199.08L115.69,198.73L115.37,199.14L114.4,197.42L114.07,198.08L113.75,198.52L112.13,196.14L111.81,196.74L111.48,196.33L110.83,197.64L110.51,196.57L109.86,194.85L109.54,194.3L108.56,194.79L108.24,193.57L106.94,195.33L106.62,196.48L106.3,196.93L105.65,195.26L105.32,195.28L105,195.81L104.35,194.48L104.03,193.58L103.06,192.46L102.73,191.6L101.76,192.67L101.44,192.44L101.11,193.17L100.79,192.38L100.46,192.01L100.14,192.8L99.49,191.47L99.17,192.73L97.87,191.06L97.55,191.1L97.22,192.03L96.9,191.34L96.57,192.82L96.25,193.89L95.93,193.22L95.6,193.31L95.28,192.64L94.95,193.64L94.63,195.53L93.98,194.94L93.66,193.89L93.01,195.72L92.69,195.1L91.39,197.28L91.06,197.83L89.77,196.63L89.44,196.03L88.47,198.24L88.15,198.85L87.5,198.86L87.18,200.08L86.2,199.05L85.88,198.04L84.58,199.44L84.26,199.02L83.29,201.26L82.96,202.65L82.64,201.89L82.31,201.04L81.99,200.13L80.69,203.62L80.37,204.68L79.72,204.94L79.4,205.36L78.75,205L78.43,204.55L78.1,203.99L77.78,205.23L77.45,204.23L75.83,206.87L75.51,205.94L75.19,206.38L74.86,207.03L74.21,208.14L73.89,209.21L73.56,208.7L73.24,209.36L72.92,209.6L72.27,208.94L71.94,207.88L70.97,209.07L70.65,210.49L69.35,209.69L69.03,209.22L67.41,211.83L67.08,211.94L66.76,211.27L66.44,212.68L66.11,212.22L65.14,213.69L64.81,214.71L64.49,215.57L64.17,215.08L63.84,214.46L63.52,214.1L62.87,215.8L62.55,215.1L61.9,214.8L61.25,216.62L60.93,216.83L59.95,216.32L59.63,216.44L59.31,217.42L58.98,216.78L58.66,216.65L57.69,216.13L57.36,216.98L55.74,215.29L55.42,215.04L54.12,212.65L53.8,211.69L53.47,212.19L53.15,213.34L52.82,213.47L52.18,211.41L51.85,210.43L50.56,209.34L50.23,208.91L47.31,201.46L46.99,201.81L43.43,189.8L43.1,188.56L42.78,188.53L42.45,187.9L31.76,141.87L31.44,140.38L17.5,78.03L17.18,76.68L9.72,47.56L9.4,46.38L0,16Z" style="fill: rgb(168, 50, 70); fill-opacity: 0.3; stroke-width: 0;"/></g></g><g class="errorbars"/><g class="lines"><path class="js-line" d="M0,16L9.4,46.38L9.72,47.56L17.18,76.68L17.5,78.03L31.44,140.38L31.76,141.87L42.45,187.9L42.78,188.53L43.1,188.56L43.43,189.8L46.99,201.81L47.31,201.46L50.23,208.91L50.56,209.34L51.85,210.43L52.18,211.41L52.82,213.47L53.15,213.34L53.47,212.19L53.8,211.69L54.12,212.65L55.42,215.04L55.74,215.29L57.36,216.98L57.69,216.13L58.66,216.65L58.98,216.78L59.31,217.42L59.63,216.44L59.95,216.32L60.93,216.83L61.25,216.62L61.9,214.8L62.55,215.1L62.87,215.8L63.52,214.1L63.84,214.46L64.17,215.08L64.49,215.57L64.81,214.71L65.14,213.69L66.11,212.22L66.44,212.68L66.76,211.27L67.08,211.94L67.41,211.83L69.03,209.22L69.35,209.69L70.65,210.49L70.97,209.07L71.94,207.88L72.27,208.94L72.92,209.6L73.24,209.36L73.56,208.7L73.89,209.21L74.21,208.14L74.86,207.03L75.19,206.38L75.51,205.94L75.83,206.87L77.45,204.23L77.78,205.23L78.1,203.99L78.43,204.55L78.75,205L79.4,205.36L79.72,204.94L80.37,204.68L80.69,203.62L81.99,200.13L82.31,201.04L82.64,201.89L82.96,202.65L83.29,201.26L84.26,199.02L84.58,199.44L85.88,198.04L86.2,199.05L87.18,200.08L87.5,198.86L88.15,198.85L88.47,198.24L89.44,196.03L89.77,196.63L91.06,197.83L91.39,197.28L92.69,195.1L93.01,195.72L93.66,193.89L93.98,194.94L94.63,195.53L94.95,193.64L95.28,192.64L95.6,193.31L95.93,193.22L96.25,193.89L96.57,192.82L96.9,191.34L97.22,192.03L97.55,191.1L97.87,191.06L99.17,192.73L99.49,191.47L100.14,192.8L100.46,192.01L100.79,192.38L101.11,193.17L101.44,192.44L101.76,192.67L102.73,191.6L103.06,192.46L104.03,193.58L104.35,194.48L105,195.81L105.32,195.28L105.65,195.26L106.3,196.93L106.62,196.48L106.94,195.33L108.24,193.57L108.56,194.79L109.54,194.3L109.86,194.85L110.51,196.57L110.83,197.64L111.48,196.33L111.81,196.74L112.13,196.14L113.75,198.52L114.07,198.08L114.4,197.42L115.37,199.14L115.69,198.73L116.02,199.08L117.31,197.73L117.64,198.14L119.58,204.02L119.91,203.99L121.2,204.36L121.53,204.23L122.82,207.54L123.15,207.86L124.12,209.29L124.44,211.09L126.71,217.29L127.04,218.15L128.66,224.02L128.98,225.09L132.87,241.02L133.19,242.61L138.38,271.76L138.7,273.67L142.59,292.21L142.92,293.27L145.83,299.81L146.16,300.27L149.07,302.99L149.4,303.18L151.99,303.79L152.31,303.38L154.26,303.69L154.58,303.38L159.77,303.5L160.09,303.49L161.71,303.65L162.04,303.4L171.44,303.52L171.76,303.45L175.97,303.5L176.3,303.46L182.13,303.54L182.45,303.68L183.43,303.58L183.75,303.72L184.72,303.62L185.05,303.5L188.29,303.59L188.61,303.73L189.58,303.63L189.91,303.51L192.82,303.44L193.15,303.6L195.42,303.53L195.74,303.68L197.04,303.48L197.36,303.37L200.28,303.55L200.6,303.48L222.96,303.42L223.29,303.59L243.38,303.55L243.7,303.47L245.32,303.47L245.65,303.53L249.21,303.44L249.54,303.54L251.16,303.52L251.48,303.42L253.43,303.51L253.75,303.4L255.69,303.51L256.02,303.38L257.96,303.5L258.29,303.37L259.91,303.61L260.23,303.5L261.85,303.44L262.18,303.61L264.12,303.44L264.44,303.61L267.36,303.47L267.69,303.52L269.31,303.52L269.63,303.36L271.57,303.52L271.9,303.38L273.84,303.53L274.17,303.4L276.11,303.54L276.44,303.42L279.03,303.51L279.35,303.47L281.94,303.4L282.27,303.58L292.64,303.55L292.96,303.43L294.58,303.67L294.91,303.4L299.12,303.75L299.44,303.45L302.36,303.72L302.69,303.4L304.63,303.76L304.95,303.34L306.9,303.79L307.22,303.38L308.84,303.67L309.17,303.51L311.76,303.47L312.08,303.64L313.38,303.74L313.7,303.45L317.59,303.64L317.92,303.39L322.13,303.72L322.45,303.52L323.75,303.51" style="vector-effect: non-scaling-stroke; fill: none; stroke: rgb(239, 85, 59); stroke-opacity: 1; stroke-width: 0px; opacity: 1;"/></g><g class="points"/><g class="text"/></g><g class="trace scatter tracef8052c" style="stroke-miterlimit: 2;"><g class="fills"/><g class="errorbars"/><g class="lines"><path class="js-line" d="M0,16L8.75,44.74L9.07,45.91L16.85,76.19L17.18,77.54L29.17,131.66L29.49,133.2L43.43,196.81L43.75,198.09L47.96,212.45L48.29,212.55L49.91,215.55L50.23,216.16L50.56,216.01L50.88,216.9L52.18,217.61L52.5,216.88L53.8,218.44L54.12,219.27L54.77,218.02L55.09,218.83L55.42,219.63L55.74,219.38L56.06,218.82L56.39,217.98L56.71,218.46L57.04,218.46L57.36,219.25L57.69,218.34L58.01,217.68L60.28,220.35L60.6,219.7L60.93,220.15L61.25,219.3L61.57,218.96L61.9,219.8L62.55,219.84L62.87,220.57L64.17,218.4L64.49,218.46L65.46,219.81L65.79,218.78L66.44,217.42L66.76,217.54L67.08,218.23L68.7,215.22L69.03,215.7L70.65,212.96L70.97,212.95L71.3,211.73L71.62,212.2L71.94,212.57L72.92,211.91L73.24,212.45L73.89,211.41L74.21,211.83L74.54,211.35L75.51,212.32L75.83,211.66L76.16,211.68L76.48,210.9L77.45,211.8L77.78,211.05L78.43,212.12L78.75,210.94L79.72,212.38L80.05,211.43L80.69,212.23L81.02,211.42L82.96,208.53L83.29,209.06L83.94,209.46L84.26,208.75L85.23,208.23L85.56,208.65L87.18,203.97L87.5,204.3L88.15,201.67L88.8,201.97L89.12,202.06L89.44,201.18L89.77,201.77L90.09,202.35L90.42,200.93L91.06,201.23L91.39,201.92L92.04,203.18L92.36,201.98L92.69,201.71L93.01,202.32L93.33,201.03L93.66,201.52L93.98,200.77L94.31,199.53L94.95,198.78L95.28,199.01L95.6,199.69L96.57,199.12L96.9,199.87L97.87,201.15L98.19,200.61L99.81,198.6L100.14,199.35L101.76,202.82L102.08,202.02L103.06,203.09L103.38,201.33L104.03,201.66L104.35,202.46L105.65,204.3L105.97,203.66L107.59,200.82L107.92,201.09L108.24,201.11L108.56,200.99L108.89,202.56L109.21,201.75L109.86,202.1L110.19,201.7L111.16,199.89L111.48,200.46L112.13,200.33L112.45,199.39L113.43,202.06L113.75,200.78L114.4,201.21L114.72,200.27L115.05,200.3L115.37,201.21L116.99,206.71L117.31,206.25L118.29,208.2L118.61,207.93L118.94,207.94L119.26,209.38L120.88,210.83L121.2,210.72L122.82,214.31L123.15,214.54L124.44,216.42L124.77,217.18L126.06,220.66L126.39,221.36L127.36,223.69L127.69,226.61L130.28,236.26L130.6,237.55L134.81,257.83L135.14,259.65L141.62,292.29L141.94,293.32L144.86,299.77L145.19,300.23L148.1,302.96L148.43,303.15L151.02,303.78L151.34,303.65L153.61,303.82L153.94,303.69L155.88,303.87L156.2,303.6L158.47,303.9L158.8,303.66L161.06,303.92L161.39,303.71L163.66,303.83L163.98,303.77L165.93,303.87L166.25,303.69L168.19,303.79L168.52,303.78L178.56,303.83L178.89,303.9L180.83,303.75L181.16,303.88L189.58,303.83L189.91,303.95L191.53,303.81L191.85,303.77L193.8,303.76L194.12,303.71L196.39,303.84L196.71,303.79L199.63,303.95L199.95,303.83L204.81,303.69L205.14,303.83L210.65,303.93L210.97,303.8L235.28,303.89L235.6,303.8L247.92,303.89L248.24,303.71L250.19,303.89L250.51,303.68L252.45,303.89L252.78,303.66L254.72,303.89L255.05,303.65L256.99,303.98L257.31,303.63L259.26,303.97L259.58,303.62L261.53,303.96L261.85,303.62L263.8,303.96L264.12,303.62L266.06,303.96L266.39,303.62L268.33,303.96L268.66,303.63L270.6,303.96L270.93,303.64L272.87,303.97L273.19,303.66L275.14,303.97L275.46,303.68L277.41,303.98L277.73,303.87L285.83,303.86L286.16,303.91L287.78,303.82L288.1,303.89L293.94,303.93L294.26,303.7L296.2,303.81L296.53,303.72L298.47,303.83L298.8,303.74L300.42,303.89L300.74,303.6L302.69,303.92L303.01,303.63L304.95,303.78L305.28,303.66L307.22,303.81L307.55,303.7L309.17,303.98L309.49,303.57L311.44,303.9L311.76,303.62L313.7,303.92L314.03,303.67L315.97,303.95L316.3,303.73L318.24,303.85L318.56,303.78L320.19,303.88L320.51,303.68L322.45,303.91L322.78,303.74L323.75,303.87" style="vector-effect: non-scaling-stroke; fill: none; stroke: rgb(0, 204, 150); stroke-opacity: 1; stroke-width: 0px; opacity: 1;"/></g><g class="points"/><g class="text"/></g></g></g><g class="overplot"><g class="xy2" transform="translate(80,100)" clip-path="url(#clipe1e5b8xy2plot)"><g class="scatterlayer mlayer"><g class="trace scatter tracea0f8ef" style="stroke-miterlimit: 2; opacity: 1;"><g class="fills"/><g class="errorbars"/><g class="lines"><path class="js-line" d="M0,16L11.67,16.74L11.99,16.78L22.04,19.07L22.36,19.17L30.79,22.72L31.11,22.89L39.86,28.51L40.19,28.76L47.96,35.48L48.29,35.79L59.31,47.8L59.63,48.19L70.65,63.11L70.97,63.6L79.72,77.92L80.05,78.49L90.42,98.83L90.74,99.52L101.76,125.71L102.08,126.55L110.83,151.07L111.16,152.04L123.8,193.07L124.12,194.19L138.38,241.89L138.7,242.74L142.59,250.69L142.92,251.16L146.16,254.49L146.48,254.71L150.69,256.43L151.02,256.51L191.85,267.22L192.18,267.3L263.15,285.81L263.47,285.9L311.76,298.37L312.08,298.46L323.75,301.45" style="vector-effect: non-scaling-stroke; fill: none; stroke: rgb(31, 119, 180); stroke-opacity: 1; stroke-width: 2px; opacity: 1;"/></g><g class="points"/><g class="text"/></g><g class="trace scatter trace5a87a2" style="stroke-miterlimit: 2;"><g class="fills"><g><path class="js-fill" d="M0,16L11.67,16.75L11.99,16.8L20.42,18.6L20.74,18.69L29.81,22.27L30.14,22.44L37.92,27.16L38.24,27.39L47.64,35.3L47.96,35.61L57.36,45.71L57.69,46.1L67.41,58.74L67.73,59.21L75.83,71.72L76.16,72.27L85.88,90.09L86.2,90.73L95.28,110.5L95.6,111.27L104.35,133.56L104.68,134.45L115.69,167.24L116.02,168.28L130.93,219.2L131.25,220.33L139.03,244.85L139.35,245.67L143.24,253.31L143.56,253.76L147.13,257.12L147.45,257.31L151.67,258.83L151.99,258.91L203.52,272.55L203.84,272.65L241.44,282.53L241.76,282.62L313.06,301.21L313.38,301.3L323.75,304L323.75,298.9L296.2,291.89L295.88,291.82L243.7,278.35L243.38,278.28L209.68,269.58L209.35,269.5L151.34,254.45L151.02,254.37L146.81,252.91L146.48,252.73L143.24,249.9L142.92,249.5L139.35,243.03L139.03,242.26L127.36,204.3L127.04,203.16L116.34,167.01L116.02,165.97L106.94,138.75L106.62,137.84L98.19,115.85L97.87,115.07L87.5,92.07L87.18,91.42L78.1,74.59L77.78,74.04L68.7,59.89L68.38,59.43L58.66,46.78L58.33,46.39L48.94,36.29L48.61,35.97L40.83,29.17L40.51,28.92L31.76,23.19L31.44,23.02L22.69,19.25L22.36,19.14L11.99,16.77L11.67,16.73L0,16Z" style="fill: rgb(68, 68, 68); fill-opacity: 0.3; stroke-width: 0;"/></g></g><g class="errorbars"/><g class="lines"><path class="js-line" d="M0,16L11.67,16.73L11.99,16.77L22.36,19.14L22.69,19.25L31.44,23.02L31.76,23.19L40.51,28.92L40.83,29.17L48.61,35.97L48.94,36.29L58.33,46.39L58.66,46.78L68.38,59.43L68.7,59.89L77.78,74.04L78.1,74.59L87.18,91.42L87.5,92.07L97.87,115.07L98.19,115.85L106.62,137.84L106.94,138.75L116.02,165.97L116.34,167.01L127.04,203.16L127.36,204.3L139.03,242.26L139.35,243.03L142.92,249.5L143.24,249.9L146.48,252.73L146.81,252.91L151.02,254.37L151.34,254.45L209.35,269.5L209.68,269.58L243.38,278.28L243.7,278.35L295.88,291.82L296.2,291.89L323.75,298.9" style="vector-effect: non-scaling-stroke; fill: none; stroke: rgb(68, 68, 68); stroke-opacity: 1; stroke-width: 0px; opacity: 1;"/></g><g class="points"/><g class="text"/></g><g class="trace scatter traceb8d071" style="stroke-miterlimit: 2;"><g class="fills"/><g class="errorbars"/><g class="lines"><path class="js-line" d="M0,16L11.67,16.75L11.99,16.8L20.42,18.6L20.74,18.69L29.81,22.27L30.14,22.44L37.92,27.16L38.24,27.39L47.64,35.3L47.96,35.61L57.36,45.71L57.69,46.1L67.41,58.74L67.73,59.21L75.83,71.72L76.16,72.27L85.88,90.09L86.2,90.73L95.28,110.5L95.6,111.27L104.35,133.56L104.68,134.45L115.69,167.24L116.02,168.28L130.93,219.2L131.25,220.33L139.03,244.85L139.35,245.67L143.24,253.31L143.56,253.76L147.13,257.12L147.45,257.31L151.67,258.83L151.99,258.91L203.52,272.55L203.84,272.65L241.44,282.53L241.76,282.62L313.06,301.21L313.38,301.3L323.75,304" style="vector-effect: non-scaling-stroke; fill: none; stroke: rgb(25, 211, 243); stroke-opacity: 1; stroke-width: 0px; opacity: 1;"/></g><g class="points"/><g class="text"/></g></g></g></g><path class="xlines-above crisp" d="M0,0" style="fill: none;"/><path class="ylines-above crisp" d="M0,0" style="fill: none;"/><g class="overlines-above"><path class="xy2-x crisp" d="M0,0" style="fill: none;"/><path class="xy2-y crisp" d="M0,0" style="fill: none;"/></g><g class="xaxislayer-above"><g class="xtick"><text text-anchor="middle" x="0" y="433" transform="translate(80,0)" style="font-family: 'Open Sans', verdana, arial, sans-serif; font-size: 12px; fill: rgb(42, 63, 95); fill-opacity: 1; white-space: pre; opacity: 1;">0</text></g><g class="xtick"><text text-anchor="middle" x="0" y="433" style="font-family: 'Open Sans', verdana, arial, sans-serif; font-size: 12px; fill: rgb(42, 63, 95); fill-opacity: 1; white-space: pre; opacity: 1;" transform="translate(144.81,0)">200</text></g><g class="xtick"><text text-anchor="middle" x="0" y="433" style="font-family: 'Open Sans', verdana, arial, sans-serif; font-size: 12px; fill: rgb(42, 63, 95); fill-opacity: 1; white-space: pre; opacity: 1;" transform="translate(209.63,0)">400</text></g><g class="xtick"><text text-anchor="middle" x="0" y="433" style="font-family: 'Open Sans', verdana, arial, sans-serif; font-size: 12px; fill: rgb(42, 63, 95); fill-opacity: 1; white-space: pre; opacity: 1;" transform="translate(274.44,0)">600</text></g><g class="xtick"><text text-anchor="middle" x="0" y="433" style="font-family: 'Open Sans', verdana, arial, sans-serif; font-size: 12px; fill: rgb(42, 63, 95); fill-opacity: 1; white-space: pre; opacity: 1;" transform="translate(339.26,0)">800</text></g></g><g class="yaxislayer-above"><g class="ytick"><text text-anchor="end" x="79" y="4.199999999999999" transform="translate(0,405.28)" style="font-family: 'Open Sans', verdana, arial, sans-serif; font-size: 12px; fill: rgb(42, 63, 95); fill-opacity: 1; white-space: pre; opacity: 1;">0</text></g><g class="ytick"><text text-anchor="end" x="79" y="4.199999999999999" style="font-family: 'Open Sans', verdana, arial, sans-serif; font-size: 12px; fill: rgb(42, 63, 95); fill-opacity: 1; white-space: pre; opacity: 1;" transform="translate(0,347.43)">20</text></g><g class="ytick"><text text-anchor="end" x="79" y="4.199999999999999" style="font-family: 'Open Sans', verdana, arial, sans-serif; font-size: 12px; fill: rgb(42, 63, 95); fill-opacity: 1; white-space: pre; opacity: 1;" transform="translate(0,289.57)">40</text></g><g class="ytick"><text text-anchor="end" x="79" y="4.199999999999999" style="font-family: 'Open Sans', verdana, arial, sans-serif; font-size: 12px; fill: rgb(42, 63, 95); fill-opacity: 1; white-space: pre; opacity: 1;" transform="translate(0,231.71)">60</text></g><g class="ytick"><text text-anchor="end" x="79" y="4.199999999999999" style="font-family: 'Open Sans', verdana, arial, sans-serif; font-size: 12px; fill: rgb(42, 63, 95); fill-opacity: 1; white-space: pre; opacity: 1;" transform="translate(0,173.86)">80</text></g><g class="ytick"><text text-anchor="end" x="79" y="4.199999999999999" style="font-family: 'Open Sans', verdana, arial, sans-serif; font-size: 12px; fill: rgb(42, 63, 95); fill-opacity: 1; white-space: pre; opacity: 1;" transform="translate(0,116)">100</text></g></g><g class="overaxes-above"><g class="xy2-x"/><g class="xy2-y"><g class="y2tick"><text text-anchor="start" x="404.75" y="4.199999999999999" transform="translate(0,405.83)" style="font-family: 'Open Sans', verdana, arial, sans-serif; font-size: 12px; fill: rgb(42, 63, 95); fill-opacity: 1; white-space: pre; opacity: 1;">5</text></g><g class="y2tick"><text text-anchor="start" x="404.75" y="4.199999999999999" style="font-family: 'Open Sans', verdana, arial, sans-serif; font-size: 12px; fill: rgb(42, 63, 95); fill-opacity: 1; white-space: pre; opacity: 1;" transform="translate(0,347.86)">6</text></g><g class="y2tick"><text text-anchor="start" x="404.75" y="4.199999999999999" style="font-family: 'Open Sans', verdana, arial, sans-serif; font-size: 12px; fill: rgb(42, 63, 95); fill-opacity: 1; white-space: pre; opacity: 1;" transform="translate(0,289.9)">7</text></g><g class="y2tick"><text text-anchor="start" x="404.75" y="4.199999999999999" style="font-family: 'Open Sans', verdana, arial, sans-serif; font-size: 12px; fill: rgb(42, 63, 95); fill-opacity: 1; white-space: pre; opacity: 1;" transform="translate(0,231.93)">8</text></g><g class="y2tick"><text text-anchor="start" x="404.75" y="4.199999999999999" style="font-family: 'Open Sans', verdana, arial, sans-serif; font-size: 12px; fill: rgb(42, 63, 95); fill-opacity: 1; white-space: pre; opacity: 1;" transform="translate(0,173.97)">9</text></g><g class="y2tick"><text text-anchor="start" x="404.75" y="4.199999999999999" style="font-family: 'Open Sans', verdana, arial, sans-serif; font-size: 12px; fill: rgb(42, 63, 95); fill-opacity: 1; white-space: pre; opacity: 1;" transform="translate(0,116)">10</text></g></g></g></g><g class="subplot x2y3"><g class="layer-subplot"><g class="shapelayer"/><g class="imagelayer"/></g><g class="minor-gridlayer"><g class="x2"/><g class="y3"/></g><g class="gridlayer"><g class="x2"><path class="x2grid crisp" transform="translate(643.56,0)" d="M0,100v320" style="stroke: rgb(255, 255, 255); stroke-opacity: 1; stroke-width: 1px;"/><path class="x2grid crisp" transform="translate(708.38,0)" d="M0,100v320" style="stroke: rgb(255, 255, 255); stroke-opacity: 1; stroke-width: 1px;"/><path class="x2grid crisp" transform="translate(773.19,0)" d="M0,100v320" style="stroke: rgb(255, 255, 255); stroke-opacity: 1; stroke-width: 1px;"/><path class="x2grid crisp" transform="translate(838.01,0)" d="M0,100v320" style="stroke: rgb(255, 255, 255); stroke-opacity: 1; stroke-width: 1px;"/></g><g class="y3"><path class="y3grid crisp" transform="translate(0,372.85)" d="M578.75,0h323.75" style="stroke: rgb(255, 255, 255); stroke-opacity: 1; stroke-width: 1px;"/><path class="y3grid crisp" transform="translate(0,333.90999999999997)" d="M578.75,0h323.75" style="stroke: rgb(255, 255, 255); stroke-opacity: 1; stroke-width: 1px;"/><path class="y3grid crisp" transform="translate(0,294.98)" d="M578.75,0h323.75" style="stroke: rgb(255, 255, 255); stroke-opacity: 1; stroke-width: 1px;"/><path class="y3grid crisp" transform="translate(0,256.03999999999996)" d="M578.75,0h323.75" style="stroke: rgb(255, 255, 255); stroke-opacity: 1; stroke-width: 1px;"/><path class="y3grid crisp" transform="translate(0,217.1)" d="M578.75,0h323.75" style="stroke: rgb(255, 255, 255); stroke-opacity: 1; stroke-width: 1px;"/><path class="y3grid crisp" transform="translate(0,178.16)" d="M578.75,0h323.75" style="stroke: rgb(255, 255, 255); stroke-opacity: 1; stroke-width: 1px;"/><path class="y3grid crisp" transform="translate(0,139.23)" d="M578.75,0h323.75" style="stroke: rgb(255, 255, 255); stroke-opacity: 1; stroke-width: 1px;"/></g></g><g class="zerolinelayer"><path class="x2zl zl crisp" transform="translate(578.75,0)" d="M0,100v320" style="stroke: rgb(255, 255, 255); stroke-opacity: 1; stroke-width: 2px;"/><path class="y3zl zl crisp" transform="translate(0,411.79)" d="M578.75,0h323.75" style="stroke: rgb(255, 255, 255); stroke-opacity: 1; stroke-width: 2px;"/></g><path class="xlines-below"/><path class="ylines-below"/><g class="overlines-below"/><g class="xaxislayer-below"/><g class="yaxislayer-below"/><g class="overaxes-below"/><g class="plot" transform="translate(578.75,100)" clip-path="url(#clipe1e5b8x2y3plot)"><g class="scatterlayer mlayer"><g class="trace scatter trace0bbeb7" style="stroke-miterlimit: 2; opacity: 1;"><g class="fills"/><g class="errorbars"/><g class="lines"><path class="js-line" d="M0,304L10.37,298.69L10.69,298.49L20.09,292.27L20.42,292.02L37.27,280.22L37.59,280.06L45.05,276.57L45.37,276.47L56.06,274.47L56.39,274.46L73.89,272.47L74.21,272.43L102.41,268.26L102.73,268.19L110.51,267.05L110.83,267.01L118.94,266.27L119.26,266.24L148.43,266.06L148.75,266.06L323.75,266.31" style="vector-effect: non-scaling-stroke; fill: none; stroke: rgb(191, 54, 187); stroke-opacity: 1; stroke-width: 2px; opacity: 1;"/></g><g class="points"/><g class="text"/></g><g class="trace scatter traceee1066" style="stroke-miterlimit: 2;"><g class="fills"><g><path class="js-fill" d="M0,304L7.45,300.46L7.78,300.27L42.78,277.75L43.1,277.67L52.18,275.33L52.5,275.31L58.66,274.48L58.98,274.47L64.49,273.84L64.81,273.84L72.59,273.15L72.92,273.13L78.43,272.3L78.75,272.27L84.91,271.65L85.23,271.51L107.92,268.81L108.24,268.8L115.05,268.09L115.37,268.04L132.87,267.45L133.19,267.45L323.75,267.71L323.75,264.91L122.5,264.83L122.18,264.84L100.79,267.17L100.46,267.21L96.9,267.99L96.57,268L84.91,270.17L84.58,270.18L71.62,272.37L71.3,272.38L50.56,275.08L50.23,275.09L46.02,275.84L45.69,275.93L38.89,278.79L38.56,279.02L35.32,280.97L35,281.2L27.87,286.27L27.55,286.54L13.94,296.28L13.61,296.5L0,304Z" style="fill: rgb(191, 54, 187); fill-opacity: 0.3; stroke-width: 0;"/></g></g><g class="errorbars"/><g class="lines"><path class="js-line" d="M0,304L13.61,296.5L13.94,296.28L27.55,286.54L27.87,286.27L35,281.2L35.32,280.97L38.56,279.02L38.89,278.79L45.69,275.93L46.02,275.84L50.23,275.09L50.56,275.08L71.3,272.38L71.62,272.37L84.58,270.18L84.91,270.17L96.57,268L96.9,267.99L100.46,267.21L100.79,267.17L122.18,264.84L122.5,264.83L323.75,264.91" style="vector-effect: non-scaling-stroke; fill: none; stroke: rgb(182, 232, 128); stroke-opacity: 1; stroke-width: 0px; opacity: 1;"/></g><g class="points"/><g class="text"/></g><g class="trace scatter traced86c17" style="stroke-miterlimit: 2;"><g class="fills"/><g class="errorbars"/><g class="lines"><path class="js-line" d="M0,304L7.45,300.46L7.78,300.27L42.78,277.75L43.1,277.67L52.18,275.33L52.5,275.31L58.66,274.48L58.98,274.47L64.49,273.84L64.81,273.84L72.59,273.15L72.92,273.13L78.43,272.3L78.75,272.27L84.91,271.65L85.23,271.51L107.92,268.81L108.24,268.8L115.05,268.09L115.37,268.04L132.87,267.45L133.19,267.45L323.75,267.71" style="vector-effect: non-scaling-stroke; fill: none; stroke: rgb(255, 151, 255); stroke-opacity: 1; stroke-width: 0px; opacity: 1;"/></g><g class="points"/><g class="text"/></g><g class="trace scatter trace8ff568" style="stroke-miterlimit: 2; opacity: 1;"><g class="fills"/><g class="errorbars"/><g class="lines"><path class="js-line" d="M0,304L12.96,301.23L13.29,301.15L66.44,285.76L66.76,285.63L75.51,281.33L75.83,281.07L80.69,277.91L81.02,277.61L84.58,274.72L84.91,274.38L90.09,269.11L90.42,268.69L93.98,264.2L94.31,263.78L100.79,253.6L101.11,252.9L106.3,242.49L106.62,241.72L112.45,225.93L112.78,224.89L117.31,209.11L117.64,207.68L123.8,180.67L124.12,178.84L129.31,149.49L129.63,147.3L134.81,109.43L135.14,106.44L140.97,53.87L141.3,51.77L144.21,38.21L144.54,37.24L147.13,32.28L147.45,31.94L149.72,30.73L150.05,30.69L164.31,29.64L164.63,29.63L236.25,24.42L236.57,24.39L305.28,19.5L305.6,19.46L323.75,18.2" style="vector-effect: non-scaling-stroke; fill: none; stroke: rgb(6, 138, 50); stroke-opacity: 1; stroke-width: 2px; opacity: 1;"/></g><g class="points"/><g class="text"/></g><g class="trace scatter trace8c5f7e" style="stroke-miterlimit: 2;"><g class="fills"><g><path class="js-fill" d="M0,304L10.37,301.95L10.69,301.85L17.18,300.32L17.5,300.24L59.63,288.96L59.95,288.87L73.56,283.22L73.89,283.07L78.75,280.33L79.07,280.14L82.64,277.49L82.96,277.14L90.09,270.43L90.42,269.95L93.33,266.59L93.66,266.01L100.79,254.94L101.11,254.32L108.89,237.4L109.21,236.66L115.69,216.47L116.02,215.34L123.15,185.84L123.47,184.38L126.06,171.24L126.39,169.13L133.52,123.05L133.84,120.66L135.79,103.99L136.11,100.94L142.27,47.07L142.59,45.33L144.86,37.29L145.19,36.59L147.45,33.55L147.78,33.32L150.37,32.63L150.69,32.6L161.71,31.86L162.04,31.84L180.83,30.51L181.16,30.46L213.89,28.12L214.21,28.12L224.91,27.39L225.23,27.34L269.31,24.08L269.63,24.07L278.06,23.5L278.38,23.49L323.75,20.4L323.75,16L296.53,17.98L296.2,18.05L277.08,19.34L276.76,19.37L206.76,24.48L206.44,24.49L167.55,27.4L167.22,27.43L150.37,28.67L150.05,28.7L147.78,29.97L147.45,30.32L144.86,35.42L144.54,36.41L141.3,50.39L140.97,52.3L136.76,86.93L136.44,90.14L131.25,133.97L130.93,136.39L123.15,181.61L122.82,182.99L110.83,229.94L110.51,231.06L103.7,246.83L103.38,247.65L97.55,257.58L97.22,258.1L95.6,260.4L95.28,260.94L91.06,266.71L90.74,267.09L80.69,276.67L80.37,276.96L70.97,283.03L70.65,283.21L64.17,285.97L63.84,286.08L58.98,287.82L58.66,287.98L48.61,290.48L48.29,290.51L41.16,292.44L40.83,292.53L22.36,298.47L22.04,298.58L0,304Z" style="fill: rgb(6, 138, 50); fill-opacity: 0.3; stroke-width: 0;"/></g></g><g class="errorbars"/><g class="lines"><path class="js-line" d="M0,304L22.04,298.58L22.36,298.47L40.83,292.53L41.16,292.44L48.29,290.51L48.61,290.48L58.66,287.98L58.98,287.82L63.84,286.08L64.17,285.97L70.65,283.21L70.97,283.03L80.37,276.96L80.69,276.67L90.74,267.09L91.06,266.71L95.28,260.94L95.6,260.4L97.22,258.1L97.55,257.58L103.38,247.65L103.7,246.83L110.51,231.06L110.83,229.94L122.82,182.99L123.15,181.61L130.93,136.39L131.25,133.97L136.44,90.14L136.76,86.93L140.97,52.3L141.3,50.39L144.54,36.41L144.86,35.42L147.45,30.32L147.78,29.97L150.05,28.7L150.37,28.67L167.22,27.43L167.55,27.4L206.44,24.49L206.76,24.48L276.76,19.37L277.08,19.34L296.2,18.05L296.53,17.98L323.75,16" style="vector-effect: non-scaling-stroke; fill: none; stroke: rgb(99, 110, 250); stroke-opacity: 1; stroke-width: 0px; opacity: 1;"/></g><g class="points"/><g class="text"/></g><g class="trace scatter trace50adbf" style="stroke-miterlimit: 2;"><g class="fills"/><g class="errorbars"/><g class="lines"><path class="js-line" d="M0,304L10.37,301.95L10.69,301.85L17.18,300.32L17.5,300.24L59.63,288.96L59.95,288.87L73.56,283.22L73.89,283.07L78.75,280.33L79.07,280.14L82.64,277.49L82.96,277.14L90.09,270.43L90.42,269.95L93.33,266.59L93.66,266.01L100.79,254.94L101.11,254.32L108.89,237.4L109.21,236.66L115.69,216.47L116.02,215.34L123.15,185.84L123.47,184.38L126.06,171.24L126.39,169.13L133.52,123.05L133.84,120.66L135.79,103.99L136.11,100.94L142.27,47.07L142.59,45.33L144.86,37.29L145.19,36.59L147.45,33.55L147.78,33.32L150.37,32.63L150.69,32.6L161.71,31.86L162.04,31.84L180.83,30.51L181.16,30.46L213.89,28.12L214.21,28.12L224.91,27.39L225.23,27.34L269.31,24.08L269.63,24.07L278.06,23.5L278.38,23.49L323.75,20.4" style="vector-effect: non-scaling-stroke; fill: none; stroke: rgb(239, 85, 59); stroke-opacity: 1; stroke-width: 0px; opacity: 1;"/></g><g class="points"/><g class="text"/></g></g></g><g class="overplot"/><path class="xlines-above crisp" d="M0,0" style="fill: none;"/><path class="ylines-above crisp" d="M0,0" style="fill: none;"/><g class="overlines-above"/><g class="xaxislayer-above"><g class="x2tick"><text text-anchor="middle" x="0" y="433" transform="translate(578.75,0)" style="font-family: 'Open Sans', verdana, arial, sans-serif; font-size: 12px; fill: rgb(42, 63, 95); fill-opacity: 1; white-space: pre; opacity: 1;">0</text></g><g class="x2tick"><text text-anchor="middle" x="0" y="433" style="font-family: 'Open Sans', verdana, arial, sans-serif; font-size: 12px; fill: rgb(42, 63, 95); fill-opacity: 1; white-space: pre; opacity: 1;" transform="translate(643.56,0)">200</text></g><g class="x2tick"><text text-anchor="middle" x="0" y="433" style="font-family: 'Open Sans', verdana, arial, sans-serif; font-size: 12px; fill: rgb(42, 63, 95); fill-opacity: 1; white-space: pre; opacity: 1;" transform="translate(708.38,0)">400</text></g><g class="x2tick"><text text-anchor="middle" x="0" y="433" style="font-family: 'Open Sans', verdana, arial, sans-serif; font-size: 12px; fill: rgb(42, 63, 95); fill-opacity: 1; white-space: pre; opacity: 1;" transform="translate(773.19,0)">600</text></g><g class="x2tick"><text text-anchor="middle" x="0" y="433" style="font-family: 'Open Sans', verdana, arial, sans-serif; font-size: 12px; fill: rgb(42, 63, 95); fill-opacity: 1; white-space: pre; opacity: 1;" transform="translate(838.01,0)">800</text></g></g><g class="yaxislayer-above"><g class="y3tick"><text text-anchor="end" x="577.75" y="4.199999999999999" transform="translate(0,411.79)" style="font-family: 'Open Sans', verdana, arial, sans-serif; font-size: 12px; fill: rgb(42, 63, 95); fill-opacity: 1; white-space: pre; opacity: 1;">0</text></g><g class="y3tick"><text text-anchor="end" x="577.75" y="4.199999999999999" style="font-family: 'Open Sans', verdana, arial, sans-serif; font-size: 12px; fill: rgb(42, 63, 95); fill-opacity: 1; white-space: pre; opacity: 1;" transform="translate(0,372.85)">0.5</text></g><g class="y3tick"><text text-anchor="end" x="577.75" y="4.199999999999999" style="font-family: 'Open Sans', verdana, arial, sans-serif; font-size: 12px; fill: rgb(42, 63, 95); fill-opacity: 1; white-space: pre; opacity: 1;" transform="translate(0,333.90999999999997)">1</text></g><g class="y3tick"><text text-anchor="end" x="577.75" y="4.199999999999999" style="font-family: 'Open Sans', verdana, arial, sans-serif; font-size: 12px; fill: rgb(42, 63, 95); fill-opacity: 1; white-space: pre; opacity: 1;" transform="translate(0,294.98)">1.5</text></g><g class="y3tick"><text text-anchor="end" x="577.75" y="4.199999999999999" style="font-family: 'Open Sans', verdana, arial, sans-serif; font-size: 12px; fill: rgb(42, 63, 95); fill-opacity: 1; white-space: pre; opacity: 1;" transform="translate(0,256.03999999999996)">2</text></g><g class="y3tick"><text text-anchor="end" x="577.75" y="4.199999999999999" style="font-family: 'Open Sans', verdana, arial, sans-serif; font-size: 12px; fill: rgb(42, 63, 95); fill-opacity: 1; white-space: pre; opacity: 1;" transform="translate(0,217.1)">2.5</text></g><g class="y3tick"><text text-anchor="end" x="577.75" y="4.199999999999999" style="font-family: 'Open Sans', verdana, arial, sans-serif; font-size: 12px; fill: rgb(42, 63, 95); fill-opacity: 1; white-space: pre; opacity: 1;" transform="translate(0,178.16)">3</text></g><g class="y3tick"><text text-anchor="end" x="577.75" y="4.199999999999999" style="font-family: 'Open Sans', verdana, arial, sans-serif; font-size: 12px; fill: rgb(42, 63, 95); fill-opacity: 1; white-space: pre; opacity: 1;" transform="translate(0,139.23)">3.5</text></g><g class="y3tick"><text text-anchor="end" x="577.75" y="4.199999999999999" style="font-family: 'Open Sans', verdana, arial, sans-serif; font-size: 12px; fill: rgb(42, 63, 95); fill-opacity: 1; white-space: pre; opacity: 1;" transform="translate(0,100.29)">4</text></g></g><g class="overaxes-above"/></g><g class="subplot xy2"/></g><g class="polarlayer"/><g class="smithlayer"/><g class="ternarylayer"/><g class="geolayer"/><g class="funnelarealayer"/><g class="pielayer"/><g class="iciclelayer"/><g class="treemaplayer"/><g class="sunburstlayer"/><g class="glimages"/><defs id="topdefs-e1e5b8"><g class="clips"/><clipPath id="legende1e5b8"><rect width="215" height="100" x="0" y="0"/></clipPath></defs><g class="layer-above"><g class="imagelayer"/><g class="shapelayer"/></g><g class="infolayer"><g class="legend" pointer-events="all" transform="translate(972.5,100)"><rect class="bg" shape-rendering="crispEdges" style="stroke: rgb(68, 68, 68); stroke-opacity: 1; fill: rgb(255, 255, 255); fill-opacity: 1; stroke-width: 0px;" width="215" height="100" x="0" y="0"/><g class="scrollbox" transform="" clip-path="url(#legende1e5b8)"><g class="groups"><g class="traces" transform="translate(0,16.25)" style="opacity: 1;"><text class="legendtext" text-anchor="start" x="40" y="5.85" style="font-family: 'Open Sans', verdana, arial, sans-serif; font-size: 15px; fill: rgb(42, 63, 95); fill-opacity: 1; white-space: pre;">Agent 2</text><g class="layers" style="opacity: 1;"><g class="legendfill"/><g class="legendlines"><path class="js-line" d="M5,0h30" style="fill: none; stroke: rgb(6, 138, 50); stroke-opacity: 1; stroke-width: 2px;"/></g><g class="legendsymbols"><g class="legendpoints"/></g></g><rect class="legendtoggle" x="0" y="-11.25" width="209.453125" height="22.5" style="fill: rgb(0, 0, 0); fill-opacity: 0;"/></g><g class="traces" transform="translate(0,38.75)" style="opacity: 1;"><text class="legendtext" text-anchor="start" x="40" y="5.85" style="font-family: 'Open Sans', verdana, arial, sans-serif; font-size: 15px; fill: rgb(42, 63, 95); fill-opacity: 1; white-space: pre;">Agent 1</text><g class="layers" style="opacity: 1;"><g class="legendfill"/><g class="legendlines"><path class="js-line" d="M5,0h30" style="fill: none; stroke: rgb(191, 54, 187); stroke-opacity: 1; stroke-width: 2px;"/></g><g class="legendsymbols"><g class="legendpoints"/></g></g><rect class="legendtoggle" x="0" y="-11.25" width="209.453125" height="22.5" style="fill: rgb(0, 0, 0); fill-opacity: 0;"/></g><g class="traces" transform="translate(0,61.25)" style="opacity: 1;"><text class="legendtext" text-anchor="start" x="40" y="5.85" style="font-family: 'Open Sans', verdana, arial, sans-serif; font-size: 15px; fill: rgb(42, 63, 95); fill-opacity: 1; white-space: pre;">Starch Concentration</text><g class="layers" style="opacity: 1;"><g class="legendfill"/><g class="legendlines"><path class="js-line" d="M5,0h30" style="fill: none; stroke: rgb(31, 119, 180); stroke-opacity: 1; stroke-width: 2px;"/></g><g class="legendsymbols"><g class="legendpoints"/></g></g><rect class="legendtoggle" x="0" y="-11.25" width="209.453125" height="22.5" style="fill: rgb(0, 0, 0); fill-opacity: 0;"/></g><g class="traces" transform="translate(0,83.75)" style="opacity: 1;"><text class="legendtext" text-anchor="start" x="40" y="5.85" style="font-family: 'Open Sans', verdana, arial, sans-serif; font-size: 15px; fill: rgb(42, 63, 95); fill-opacity: 1; white-space: pre;">Glucose Concentration</text><g class="layers" style="opacity: 1;"><g class="legendfill"/><g class="legendlines"><path class="js-line" d="M5,0h30" style="fill: none; stroke: rgb(168, 50, 70); stroke-opacity: 1; stroke-width: 2px;"/></g><g class="legendsymbols"><g class="legendpoints"/></g></g><rect class="legendtoggle" x="0" y="-11.25" width="209.453125" height="22.5" style="fill: rgb(0, 0, 0); fill-opacity: 0;"/></g></g></g><rect class="scrollbar" rx="20" ry="3" width="0" height="0" style="fill: rgb(128, 139, 164); fill-opacity: 1;" x="0" y="0"/></g><g class="g-gtitle"><text class="gtitle" x="600" y="50" text-anchor="middle" dy="0em" style="font-family: 'Open Sans', verdana, arial, sans-serif; font-size: 17px; fill: rgb(42, 63, 95); opacity: 1; font-weight: normal; white-space: pre;">Concentration of Starch and Glucose over Time after training</text></g><g class="g-xtitle"><text class="xtitle" x="241.875" y="460.3" text-anchor="middle" style="font-family: 'Open Sans', verdana, arial, sans-serif; font-size: 14px; fill: rgb(42, 63, 95); opacity: 1; font-weight: normal; white-space: pre;">Time</text></g><g class="g-x2title"><text class="x2title" x="740.625" y="460.3" text-anchor="middle" style="font-family: 'Open Sans', verdana, arial, sans-serif; font-size: 14px; fill: rgb(42, 63, 95); opacity: 1; font-weight: normal; white-space: pre;">Time</text></g><g class="g-ytitle"><text class="ytitle" transform="rotate(-90,31.309375000000003,260)" x="31.309375000000003" y="260" text-anchor="middle" style="font-family: 'Open Sans', verdana, arial, sans-serif; font-size: 14px; fill: rgb(42, 63, 95); opacity: 1; font-weight: normal; white-space: pre;">Glucose Concentration</text></g><g class="g-y2title"><text class="y2title" transform="rotate(-90,444.815625,260)" x="444.815625" y="260" text-anchor="middle" style="font-family: 'Open Sans', verdana, arial, sans-serif; font-size: 14px; fill: rgb(42, 63, 95); opacity: 1; font-weight: normal; white-space: pre;">Starch Concentration</text></g><g class="g-y3title"><text class="y3title" transform="rotate(-90,533.325,260)" x="533.325" y="260" text-anchor="middle" style="font-family: 'Open Sans', verdana, arial, sans-serif; font-size: 14px; fill: rgb(42, 63, 95); opacity: 1; font-weight: normal; white-space: pre;">Agent Concentration</text></g><g class="annotation" data-index="0" style="opacity: 1;"><g class="annotation-text-g" transform="rotate(0,241.875,87.99999999999999)"><g class="cursor-pointer" transform="translate(49,76)"><rect class="bg" x="0.5" y="0.5" width="385" height="23" style="stroke-width: 1px; stroke: rgb(0, 0, 0); stroke-opacity: 0; fill: rgb(0, 0, 0); fill-opacity: 0;"/><text class="annotation-text" text-anchor="middle" x="193.0625" y="18" style="font-family: 'Open Sans', verdana, arial, sans-serif; font-size: 16px; fill: rgb(42, 63, 95); fill-opacity: 1; white-space: pre;">Glucose Concentrtion and Starch Concentration</text></g></g></g><g class="annotation" data-index="1" style="opacity: 1;"><g class="annotation-text-g" transform="rotate(0,740.6250000000001,88)"><g class="cursor-pointer" transform="translate(648,76)"><rect class="bg" x="0.5" y="0.5" width="184" height="23" style="stroke-width: 1px; stroke: rgb(0, 0, 0); stroke-opacity: 0; fill: rgb(0, 0, 0); fill-opacity: 0;"/><text class="annotation-text" text-anchor="middle" x="92.71875" y="18" style="font-family: 'Open Sans', verdana, arial, sans-serif; font-size: 16px; fill: rgb(42, 63, 95); fill-opacity: 1; white-space: pre;">Agents Concentrations</text></g></g></g></g></svg>