<svg class="main-svg" xmlns="http://www.w3.org/2000/svg" xmlns:xlink="http://www.w3.org/1999/xlink" width="1600" height="500" style="" viewBox="0 0 1600 500"><rect x="0" y="0" width="1600" height="500" style="fill: rgb(255, 255, 255); fill-opacity: 1;"/><defs id="defs-c9137e"><g class="clips"><clipPath id="clipc9137exyplot" class="plotclip"><rect width="392.02222222222224" height="320"/></clipPath><clipPath id="clipc9137ex2y2plot" class="plotclip"><rect width="392.02222222222224" height="320"/></clipPath><clipPath id="clipc9137ex3y3plot" class="plotclip"><rect width="392.0222222222222" height="320"/></clipPath><clipPath class="axesclip" id="clipc9137ex"><rect x="80" y="0" width="392.02222222222224" height="500"/></clipPath><clipPath class="axesclip" id="clipc9137ey"><rect x="0" y="100" width="1600" height="320"/></clipPath><clipPath class="axesclip" id="clipc9137exy"><rect x="80" y="100" width="392.02222222222224" height="320"/></clipPath><clipPath class="axesclip" id="clipc9137ey2"><rect x="0" y="100" width="1600" height="320"/></clipPath><clipPath class="axesclip" id="clipc9137exy2"><rect x="80" y="100" width="392.02222222222224" height="320"/></clipPath><clipPath class="axesclip" id="clipc9137ey3"><rect x="0" y="100" width="1600" height="320"/></clipPath><clipPath class="axesclip" id="clipc9137exy3"><rect x="80" y="100" width="392.02222222222224" height="320"/></clipPath><clipPath class="axesclip" id="clipc9137ex2"><rect x="562.4888888888888" y="0" width="392.02222222222224" height="500"/></clipPath><clipPath class="axesclip" id="clipc9137ex2y"><rect x="562.4888888888888" y="100" width="392.02222222222224" height="320"/></clipPath><clipPath class="axesclip" id="clipc9137ex2y2"><rect x="562.4888888888888" y="100" width="392.02222222222224" height="320"/></clipPath><clipPath class="axesclip" id="clipc9137ex2y3"><rect x="562.4888888888888" y="100" width="392.02222222222224" height="320"/></clipPath><clipPath class="axesclip" id="clipc9137ex3"><rect x="1044.9777777777776" y="0" width="392.0222222222222" height="500"/></clipPath><clipPath class="axesclip" id="clipc9137ex3y"><rect x="1044.9777777777776" y="100" width="392.0222222222222" height="320"/></clipPath><clipPath class="axesclip" id="clipc9137ex3y2"><rect x="1044.9777777777776" y="100" width="392.0222222222222" height="320"/></clipPath><clipPath class="axesclip" id="clipc9137ex3y3"><rect x="1044.9777777777776" y="100" width="392.0222222222222" height="320"/></clipPath></g><g class="gradients"/><g class="patterns"/></defs><g class="bglayer"><rect class="bg" x="80" y="100" width="392.02222222222224" height="320" style="fill: rgb(229, 236, 246); fill-opacity: 1; stroke-width: 0;"/><rect class="bg" x="562.4888888888888" y="100" width="392.02222222222224" height="320" style="fill: rgb(229, 236, 246); fill-opacity: 1; stroke-width: 0;"/><rect class="bg" x="1044.9777777777776" y="100" width="392.0222222222222" height="320" style="fill: rgb(229, 236, 246); fill-opacity: 1; stroke-width: 0;"/></g><g class="layer-below"><g class="imagelayer"/><g class="shapelayer"/></g><g class="cartesianlayer"><g class="subplot xy"><g class="layer-subplot"><g class="shapelayer"/><g class="imagelayer"/></g><g class="minor-gridlayer"><g class="x"/><g class="y"/></g><g class="gridlayer"><g class="x"><path class="xgrid crisp" transform="translate(178.03,0)" d="M0,100v320" style="stroke: rgb(255, 255, 255); stroke-opacity: 1; stroke-width: 1px;"/><path class="xgrid crisp" transform="translate(276.06,0)" d="M0,100v320" style="stroke: rgb(255, 255, 255); stroke-opacity: 1; stroke-width: 1px;"/><path class="xgrid crisp" transform="translate(374.09,0)" d="M0,100v320" style="stroke: rgb(255, 255, 255); stroke-opacity: 1; stroke-width: 1px;"/></g><g class="y"><path class="ygrid crisp" transform="translate(0,347.5)" d="M80,0h392.02222222222224" style="stroke: rgb(255, 255, 255); stroke-opacity: 1; stroke-width: 1px;"/><path class="ygrid crisp" transform="translate(0,289.62)" d="M80,0h392.02222222222224" style="stroke: rgb(255, 255, 255); stroke-opacity: 1; stroke-width: 1px;"/><path class="ygrid crisp" transform="translate(0,231.75)" d="M80,0h392.02222222222224" style="stroke: rgb(255, 255, 255); stroke-opacity: 1; stroke-width: 1px;"/><path class="ygrid crisp" transform="translate(0,173.87)" d="M80,0h392.02222222222224" style="stroke: rgb(255, 255, 255); stroke-opacity: 1; stroke-width: 1px;"/><path class="ygrid crisp" transform="translate(0,116)" d="M80,0h392.02222222222224" style="stroke: rgb(255, 255, 255); stroke-opacity: 1; stroke-width: 1px;"/></g></g><g class="zerolinelayer"><path class="xzl zl crisp" transform="translate(80,0)" d="M0,100v320" style="stroke: rgb(255, 255, 255); stroke-opacity: 1; stroke-width: 2px;"/><path class="yzl zl crisp" transform="translate(0,405.37)" d="M80,0h392.02222222222224" style="stroke: rgb(255, 255, 255); stroke-opacity: 1; stroke-width: 2px;"/></g><path class="xlines-below"/><path class="ylines-below"/><g class="overlines-below"/><g class="xaxislayer-below"/><g class="yaxislayer-below"/><g class="overaxes-below"/><g class="plot" transform="translate(80,100)" clip-path="url(#clipc9137exyplot)"><g class="scatterlayer mlayer"><g class="trace scatter trace70086a" style="stroke-miterlimit: 2; opacity: 1;"><g class="fills"/><g class="errorbars"/><g class="lines"><path class="js-line" d="M0,16L4.41,65.92L4.51,67.26L14.12,195.64L14.21,195.47L14.9,202.76L15.29,202.73L15.39,202.53L15.59,202.15L15.68,203.89L17.45,222.38L17.55,222.07L17.94,225.2L18.33,224.48L18.43,222.81L18.53,223.08L18.63,221.39L18.72,221.05L18.82,222.71L19.31,221.63L19.41,219.86L20.19,217.46L20.29,219.21L20.39,220.96L20.78,216.52L20.88,216.72L20.98,216.38L21.08,216.05L21.17,217.86L21.27,219.63L21.37,219.81L21.47,221.58L22.15,221.36L22.45,226.58L22.55,224.51L23.72,233.59L23.82,231.41L23.92,230.96L24.02,232.65L24.12,234.32L24.21,233.85L24.31,235.55L24.51,234.65L24.61,236.34L25.19,231.79L25.39,233.1L25.49,234.84L26.47,229.02L26.66,230.4L26.76,232.22L26.96,231.34L27.06,233.15L27.15,232.67L27.25,234.46L28.04,229.26L28.13,226.59L29.02,221.69L29.11,223.89L29.51,225.21L29.7,222.08L29.8,219.15L30.29,225.54L30.59,222.19L30.68,222.1L31.66,231.27L31.76,231.2L31.86,228.05L32.06,224.85L32.55,227.56L32.64,227.64L33.62,234.21L33.72,230.87L34.21,232.37L34.31,235.25L34.6,238.94L34.7,241.77L35.68,249.96L35.78,252.74L37.55,266.54L37.64,267.44L42.05,299.8L42.15,300.15L44.11,303.93L44.21,303.67L45.19,303.94L45.29,303.68L46.27,303.95L46.37,303.7L47.35,303.97L47.45,303.71L48.33,303.89L48.43,303.62L49.41,303.91L49.51,303.65L50.49,303.93L50.58,303.67L51.56,303.96L51.66,303.7L52.94,303.93L53.03,303.67L54.31,303.9L54.41,303.63L55.39,303.93L55.49,303.67L56.47,303.96L56.56,303.71L57.84,303.95L57.94,303.69L58.82,303.89L58.92,303.62L59.9,303.93L59.99,303.67L60.97,303.97L61.07,303.71L61.95,303.91L62.05,303.65L63.33,303.91L63.43,303.64L64.41,303.96L64.5,303.7L65.39,303.91L65.48,303.64L66.46,303.96L66.56,303.7L67.84,303.96L67.93,303.71L68.82,303.92L68.92,303.66L69.9,303.98L69.99,303.72L71.17,303.89L71.27,303.63L72.25,303.96L72.35,303.7L73.23,303.92L73.33,303.66L74.21,303.89L74.31,303.62L75.29,303.95L75.39,303.7L76.27,303.93L76.37,303.66L77.25,303.9L77.35,303.63L78.33,303.97L78.42,303.71L79.6,303.9L79.7,303.64L80.68,303.98L80.78,303.72L81.66,303.96L81.76,303.7L82.64,303.94L82.74,303.68L83.62,303.92L83.72,303.66L84.6,303.9L84.7,303.64L85.58,303.89L85.68,303.62L86.66,303.97L86.76,303.72L87.93,303.93L88.03,303.66L88.91,303.92L89.01,303.65L89.89,303.91L89.99,303.64L90.87,303.9L90.97,303.64L91.85,303.9L91.95,303.63L92.83,303.89L92.93,303.63L93.81,303.89L93.91,303.63L94.8,303.89L94.89,303.63L95.78,303.9L95.87,303.63L96.95,303.76L97.05,303.87L97.93,303.76L98.03,16L102.74,68.84L102.83,70.18L112.05,192.07L112.15,191.84L113.62,205.22L113.71,204.87L114.7,211.54L114.79,211.13L114.89,211.56L116.17,220.92L116.26,220.39L116.36,219.86L116.46,221.37L116.85,220.88L116.95,221.17L117.05,221.49L117.24,220.32L117.34,219.75L117.64,215.51L118.22,215.85L118.32,216.12L118.81,210.41L119.2,211.11L119.3,212.74L119.4,212.13L119.6,214.06L119.79,212.81L119.89,214.47L120.87,219.05L120.97,218.4L121.85,222.47L121.95,221.76L123.03,217.9L123.13,219.64L123.22,218.92L123.62,220.9L123.71,222.61L123.91,225.95L124.4,222.16L124.5,219.54L124.89,214.74L125.09,218.44L125.18,220.26L125.58,219.92L125.87,222.9L125.97,222.21L126.07,221.52L126.16,220.84L126.46,223.98L126.56,225.86L126.65,225.22L126.85,228.96L126.95,230.82L127.05,232.7L127.54,229.65L127.64,229.07L127.73,231.05L128.22,225.79L128.32,225.27L128.42,227.42L128.81,222.82L129.01,224.54L129.11,224.06L129.6,226.93L129.89,225.48L129.99,225.02L130.48,222.89L130.58,225.21L130.67,227.53L131.56,240.1L131.85,239.15L131.95,238.97L132.24,238.66L132.34,241.11L133.22,250.17L133.42,250.16L133.52,250.16L134.4,254.15L134.5,254.56L135.87,263.95L135.97,264.87L140.18,299.44L140.28,299.83L142.14,303.85L142.24,303.94L143.03,303.66L143.12,303.77L144.3,303.9L144.4,303.62L145.38,303.93L145.48,303.66L146.46,303.96L146.55,303.69L147.44,303.89L147.54,303.62L148.52,303.93L148.61,303.66L149.59,303.97L149.69,303.7L150.57,303.91L150.67,303.63L151.65,303.95L151.75,303.68L152.63,303.89L152.73,303.61L153.71,303.94L153.81,303.67L154.69,303.89L154.79,303.61L155.77,303.94L155.87,303.67L156.75,303.89L156.85,303.62L157.83,303.95L157.93,303.68L158.81,303.91L158.91,303.63L159.89,303.97L159.99,303.7L160.87,303.93L160.97,303.66L161.85,303.89L161.95,303.61L162.93,303.96L163.02,303.69L163.91,303.92L164,303.65L164.89,303.89L164.98,303.61L165.96,303.96L166.06,303.7L166.95,303.93L167.04,303.66L167.93,303.91L168.02,303.63L169,303.98L169.1,303.72L169.98,303.96L170.08,303.7L171.26,303.9L171.36,303.62L172.34,303.98L172.43,303.72L173.61,303.92L173.71,303.65L174.59,303.91L174.69,303.63L175.57,303.89L175.67,303.62L176.65,303.99L176.75,303.73L177.63,303.98L177.73,303.71L178.61,303.97L178.71,303.7L179.59,303.96L179.69,303.7L180.57,303.96L180.67,303.69L181.55,303.95L181.65,303.69L182.53,303.95L182.63,303.68L183.51,303.95L183.61,303.68L184.69,303.81L184.79,303.92L185.57,303.69L185.67,303.81L186.55,303.69L186.65,303.81L186.75,303.92L187.53,303.7L187.63,303.82L188.61,303.83L188.71,303.94L189.49,303.72L189.59,303.84L190.57,303.85L190.67,303.96L191.35,303.62L191.45,303.75L191.55,303.87L192.53,303.88L192.63,303.99L193.32,303.66L193.41,303.78L193.51,303.9L194.3,303.68L194.39,303.8L195.47,303.93L195.57,303.67L195.96,303.76L196.06,16L201.55,75.65L201.65,77.07L210.37,189.01L210.47,189.59L210.76,189.55L212.14,204.53L212.24,204.09L212.73,204.58L213.02,201L213.12,202.61L213.41,206.18L213.61,204.05L213.71,203.56L214.29,207.67L214.59,205.82L214.69,205.31L216.06,217.73L216.16,217.09L216.55,218.9L216.84,215.69L216.94,217.24L217.04,218.77L217.43,214.91L217.53,212.9L218.41,217.87L218.51,215.76L219.1,219.42L219.29,218.02L219.39,215.81L219.69,214.5L219.98,219.42L220.18,217.15L220.27,216.39L220.86,221.9L221.16,218.63L221.25,217.8L221.45,218.59L222.04,216.26L222.14,217.95L222.33,217.02L222.43,218.69L222.63,215.24L223.02,217.05L223.12,218.77L224.1,210.76L224.29,214.37L224.39,216.14L224.68,218.84L224.88,215.06L225.08,216.02L225.18,217.78L225.47,218.13L225.67,216.32L225.86,217.15L225.96,218.88L226.25,216.58L226.45,220.26L226.55,222.1L226.74,223.06L227.63,210.72L228.31,211.16L228.41,213.24L228.51,212.52L228.61,214.65L228.7,216.74L229.39,208.91L229.59,210.71L229.68,213.09L229.88,212.03L229.98,214.47L230.47,212.67L230.57,212.43L230.76,211.97L230.86,214.67L232.14,231.49L232.23,227.46L232.43,227.34L232.53,226.02L232.72,225.88L232.82,228.69L233.02,228.7L233.12,231.57L233.31,231.51L233.41,234.24L235.08,248.51L235.17,248.88L236.45,257.45L236.55,258.39L240.96,301.02L241.06,301.32L242.43,303.89L242.53,303.57L242.62,303.7L243.6,303.96L243.7,303.66L244.68,303.93L244.78,303.62L245.76,303.9L245.86,303.58L246.94,303.98L247.04,303.68L248.02,303.96L248.11,303.65L249.09,303.94L249.19,303.63L250.17,303.92L250.27,303.61L251.25,303.91L251.35,303.59L252.33,303.9L252.43,303.58L253.41,303.89L253.51,303.57L254.49,303.89L254.58,303.57L255.56,303.89L255.66,303.56L256.64,303.89L256.74,303.57L257.72,303.89L257.82,303.57L258.8,303.9L258.9,303.58L259.88,303.91L259.98,303.6L260.96,303.93L261.05,303.62L262.03,303.95L262.13,303.64L263.11,303.96L263.21,303.66L264.19,303.99L264.29,303.68L265.17,303.9L265.27,303.58L266.25,303.93L266.35,303.62L267.33,303.96L267.43,303.65L268.41,303.99L268.5,303.69L269.39,303.92L269.48,303.6L270.46,303.96L270.56,303.65L271.45,303.89L271.54,303.56L272.52,303.93L272.62,303.62L273.6,303.98L273.7,303.67L274.58,303.91L274.68,303.6L275.66,303.97L275.76,303.66L276.64,303.91L276.74,303.59L277.72,303.97L277.82,303.66L278.7,303.91L278.8,303.6L279.78,303.98L279.88,303.67L280.76,303.93L280.86,303.62L281.84,304L281.93,303.7L282.82,303.95L282.91,303.65L283.8,303.91L283.9,303.6L284.88,303.99L284.97,303.69L285.86,303.95L285.95,303.64L286.84,303.92L286.93,303.6L287.91,304L288.01,303.7L288.89,303.97L288.99,303.67L289.87,303.94L289.97,303.63L290.86,303.92L290.95,303.6L291.84,303.89L291.93,303.57L292.91,303.99L293.01,303.69L293.89,303.97L293.99,303.67L294.09,16L294.78,22.42L294.87,23.43L295.66,30.92L295.76,32.04L296.93,44.65L297.03,45.89L301.34,108.63L301.44,110.29L306.25,178.32L306.34,179.02L308.5,203.04L308.6,203.57L308.79,201.73L309.09,206.31L309.19,205.84L309.48,204.42L309.68,206.45L309.77,207.95L309.97,206.9L310.17,209.87L310.27,210.33L310.66,209.07L311.05,213.81L311.44,213.36L311.54,212.7L311.83,212.81L312.23,210.11L312.32,211.55L312.42,212.95L312.52,213.25L312.72,211.83L312.81,211.12L313.11,208.98L313.3,211.78L313.4,213.18L313.6,210.57L314.09,213.09L314.19,214.48L315.07,217.98L315.17,215.93L316.05,223.66L316.34,223.13L316.44,222.19L316.54,219.97L317.03,224.3L317.13,225.61L318.5,214.58L318.79,215.02L318.89,216.5L319.09,219.38L319.48,214.71L319.58,213.7L319.68,212.71L319.87,215.7L320.07,214.5L320.17,216.03L321.05,208.46L321.24,211.58L321.34,213.09L321.83,218.04L322.03,213.96L322.13,210.96L322.32,209.48L322.42,211.07L322.52,212.66L322.62,214.23L322.81,212.06L323.21,213.07L323.3,211.95L323.6,211.32L323.89,216.28L324.09,214.18L324.19,213.17L324.28,214.9L324.77,210.17L324.87,211.93L324.97,213.66L326.24,206.26L326.34,208.13L327.52,218.94L327.62,217.82L327.81,215.71L328.01,219.48L328.2,217.47L328.3,219.37L328.4,221.26L328.69,218.33L328.99,218.44L329.09,217.49L329.28,215.77L329.48,220.13L329.87,217.15L329.97,216.46L330.07,215.83L330.17,218.16L330.36,217L330.46,219.46L331.44,227.93L331.54,227.82L331.64,227.74L333.01,249.37L333.11,249.71L334.48,258.2L334.58,261.43L339.09,300.89L339.18,301.19L340.75,303.93L340.85,303.59L340.95,303.71L342.03,303.98L342.12,303.65L343.2,303.93L343.3,303.6L344.38,303.89L344.48,303.56L345.65,303.95L345.75,303.63L346.83,303.92L346.93,303.59L348.01,303.9L348.1,303.56L349.28,303.97L349.38,303.65L350.46,303.95L350.56,303.63L351.63,303.94L351.73,303.61L352.81,303.93L352.91,303.59L353.99,303.92L354.08,303.59L355.16,303.92L355.26,303.58L356.34,303.92L356.44,303.59L357.52,303.93L357.61,303.6L358.69,303.94L358.79,303.61L359.87,303.95L359.97,303.63L361.04,303.97L361.14,303.64L362.22,303.98L362.32,303.67L363.3,303.91L363.4,303.57L364.48,303.94L364.57,303.61L365.65,303.97L365.75,303.65L366.73,303.9L366.83,303.56L367.91,303.94L368,303.62L369.08,303.98L369.18,303.67L370.16,303.93L370.26,303.6L371.34,303.98L371.44,303.66L372.42,303.93L372.51,303.6L373.59,303.99L373.69,303.67L374.67,303.94L374.77,303.62L375.75,303.9L375.85,303.56L376.93,303.97L377.02,303.65L378,303.94L378.1,303.61L379.08,303.91L379.18,303.57L380.26,303.99L380.36,303.67L381.34,303.96L381.43,303.64L382.42,303.94L382.51,303.61L383.49,303.92L383.59,303.59L384.57,303.91L384.67,303.57L385.65,303.89L385.75,303.56L386.73,303.89L386.83,303.55L387.9,303.99L388,303.68L388.98,303.99L389.08,303.67L390.06,303.99L390.16,303.67L391.14,303.99L391.24,303.68L391.83,303.96L392.02,303.77" style="vector-effect: non-scaling-stroke; fill: none; stroke: rgb(99, 110, 250); stroke-opacity: 1; stroke-width: 2px; opacity: 1;"/></g><g class="points"/><g class="text"/></g></g></g><g class="overplot"/><path class="xlines-above crisp" d="M0,0" style="fill: none;"/><path class="ylines-above crisp" d="M0,0" style="fill: none;"/><g class="overlines-above"/><g class="xaxislayer-above"><g class="xtick"><text text-anchor="middle" x="0" y="433" transform="translate(80,0)" style="font-family: 'Open Sans', verdana, arial, sans-serif; font-size: 12px; fill: rgb(42, 63, 95); fill-opacity: 1; white-space: pre; opacity: 1;">0</text></g><g class="xtick"><text text-anchor="middle" x="0" y="433" style="font-family: 'Open Sans', verdana, arial, sans-serif; font-size: 12px; fill: rgb(42, 63, 95); fill-opacity: 1; white-space: pre; opacity: 1;" transform="translate(178.03,0)">1000</text></g><g class="xtick"><text text-anchor="middle" x="0" y="433" style="font-family: 'Open Sans', verdana, arial, sans-serif; font-size: 12px; fill: rgb(42, 63, 95); fill-opacity: 1; white-space: pre; opacity: 1;" transform="translate(276.06,0)">2000</text></g><g class="xtick"><text text-anchor="middle" x="0" y="433" style="font-family: 'Open Sans', verdana, arial, sans-serif; font-size: 12px; fill: rgb(42, 63, 95); fill-opacity: 1; white-space: pre; opacity: 1;" transform="translate(374.09,0)">3000</text></g></g><g class="yaxislayer-above"><g class="ytick"><text text-anchor="end" x="79" y="4.199999999999999" transform="translate(0,405.37)" style="font-family: 'Open Sans', verdana, arial, sans-serif; font-size: 12px; fill: rgb(42, 63, 95); fill-opacity: 1; white-space: pre; opacity: 1;">0</text></g><g class="ytick"><text text-anchor="end" x="79" y="4.199999999999999" style="font-family: 'Open Sans', verdana, arial, sans-serif; font-size: 12px; fill: rgb(42, 63, 95); fill-opacity: 1; white-space: pre; opacity: 1;" transform="translate(0,347.5)">20</text></g><g class="ytick"><text text-anchor="end" x="79" y="4.199999999999999" style="font-family: 'Open Sans', verdana, arial, sans-serif; font-size: 12px; fill: rgb(42, 63, 95); fill-opacity: 1; white-space: pre; opacity: 1;" transform="translate(0,289.62)">40</text></g><g class="ytick"><text text-anchor="end" x="79" y="4.199999999999999" style="font-family: 'Open Sans', verdana, arial, sans-serif; font-size: 12px; fill: rgb(42, 63, 95); fill-opacity: 1; white-space: pre; opacity: 1;" transform="translate(0,231.75)">60</text></g><g class="ytick"><text text-anchor="end" x="79" y="4.199999999999999" style="font-family: 'Open Sans', verdana, arial, sans-serif; font-size: 12px; fill: rgb(42, 63, 95); fill-opacity: 1; white-space: pre; opacity: 1;" transform="translate(0,173.87)">80</text></g><g class="ytick"><text text-anchor="end" x="79" y="4.199999999999999" style="font-family: 'Open Sans', verdana, arial, sans-serif; font-size: 12px; fill: rgb(42, 63, 95); fill-opacity: 1; white-space: pre; opacity: 1;" transform="translate(0,116)">100</text></g></g><g class="overaxes-above"/></g><g class="subplot x2y2"><g class="layer-subplot"><g class="shapelayer"/><g class="imagelayer"/></g><g class="minor-gridlayer"><g class="x2"/><g class="y2"/></g><g class="gridlayer"><g class="x2"><path class="x2grid crisp" transform="translate(660.5188888888888,0)" d="M0,100v320" style="stroke: rgb(255, 255, 255); stroke-opacity: 1; stroke-width: 1px;"/><path class="x2grid crisp" transform="translate(758.5488888888888,0)" d="M0,100v320" style="stroke: rgb(255, 255, 255); stroke-opacity: 1; stroke-width: 1px;"/><path class="x2grid crisp" transform="translate(856.5788888888887,0)" d="M0,100v320" style="stroke: rgb(255, 255, 255); stroke-opacity: 1; stroke-width: 1px;"/></g><g class="y2"><path class="y2grid crisp" transform="translate(0,392.61)" d="M562.4888888888888,0h392.02222222222224" style="stroke: rgb(255, 255, 255); stroke-opacity: 1; stroke-width: 1px;"/><path class="y2grid crisp" transform="translate(0,323.45)" d="M562.4888888888888,0h392.02222222222224" style="stroke: rgb(255, 255, 255); stroke-opacity: 1; stroke-width: 1px;"/><path class="y2grid crisp" transform="translate(0,254.3)" d="M562.4888888888888,0h392.02222222222224" style="stroke: rgb(255, 255, 255); stroke-opacity: 1; stroke-width: 1px;"/><path class="y2grid crisp" transform="translate(0,185.15)" d="M562.4888888888888,0h392.02222222222224" style="stroke: rgb(255, 255, 255); stroke-opacity: 1; stroke-width: 1px;"/><path class="y2grid crisp" transform="translate(0,116)" d="M562.4888888888888,0h392.02222222222224" style="stroke: rgb(255, 255, 255); stroke-opacity: 1; stroke-width: 1px;"/></g></g><g class="zerolinelayer"><path class="x2zl zl crisp" transform="translate(562.4888888888888,0)" d="M0,100v320" style="stroke: rgb(255, 255, 255); stroke-opacity: 1; stroke-width: 2px;"/></g><path class="xlines-below"/><path class="ylines-below"/><g class="overlines-below"/><g class="xaxislayer-below"/><g class="yaxislayer-below"/><g class="overaxes-below"/><g class="plot" transform="translate(562.4888888888888,100)" clip-path="url(#clipc9137ex2y2plot)"><g class="scatterlayer mlayer"><g class="trace scatter trace8cb57a" style="stroke-miterlimit: 2; opacity: 1;"><g class="fills"/><g class="errorbars"/><g class="lines"><path class="js-line" d="M0,16L3.33,16.74L3.43,16.78L6.57,19.34L6.67,19.46L10,24.83L10.1,25.03L13.63,34.08L13.72,34.38L17.55,47.72L17.65,48.1L24.8,81.96L24.9,82.5L29.8,113.52L29.9,114.22L36.37,165.47L36.47,166.25L40.88,195.12L40.98,195.5L42.84,200.1L42.94,200.23L45.39,202.2L45.49,202.26L97.93,237.32L98.03,16L101.27,16.73L101.36,16.78L104.01,18.76L104.11,18.86L107.15,23.26L107.24,23.44L110.28,30.41L110.38,30.68L114.21,43.11L114.3,43.48L118.62,61.73L118.71,62.19L123.62,88.71L123.71,89.32L128.71,123.84L128.81,124.59L139.5,206.48L139.59,206.81L141.56,210.76L141.65,210.86L146.85,214.54L146.95,214.61L170.77,231.23L170.87,231.3L195.96,248.58L196.06,16L199.39,16.73L199.49,16.77L202.63,19.16L202.73,19.27L205.86,24.01L205.96,24.21L209.1,31.76L209.2,32.04L214.98,52.91L215.08,53.33L219.69,75.82L219.78,76.36L224.39,105.33L224.49,106.03L229.29,144.8L229.39,145.69L236.55,216.85L236.64,217.82L239.88,241.99L239.98,242.38L241.84,246.72L241.94,246.83L245.96,250.16L246.06,250.24L293.99,288.88L294.09,16L297.62,16.71L297.72,16.76L300.85,19.22L300.95,19.34L303.8,23.92L303.89,24.12L307.03,32.04L307.13,32.34L310.95,45.68L311.05,46.07L315.66,67.04L315.75,67.54L320.56,95.95L320.66,96.61L327.22,149.79L327.32,150.72L333.11,212.1L333.2,213.15L337.71,252.78L337.81,253.25L339.87,259.04L339.97,259.17L343.11,262.03L343.2,262.12L392.02,304" style="vector-effect: non-scaling-stroke; fill: none; stroke: rgb(239, 85, 59); stroke-opacity: 1; stroke-width: 2px; opacity: 1;"/></g><g class="points"/><g class="text"/></g></g></g><g class="overplot"/><path class="xlines-above crisp" d="M0,0" style="fill: none;"/><path class="ylines-above crisp" d="M0,0" style="fill: none;"/><g class="overlines-above"/><g class="xaxislayer-above"><g class="x2tick"><text text-anchor="middle" x="0" y="433" transform="translate(562.4888888888888,0)" style="font-family: 'Open Sans', verdana, arial, sans-serif; font-size: 12px; fill: rgb(42, 63, 95); fill-opacity: 1; white-space: pre; opacity: 1;">0</text></g><g class="x2tick"><text text-anchor="middle" x="0" y="433" style="font-family: 'Open Sans', verdana, arial, sans-serif; font-size: 12px; fill: rgb(42, 63, 95); fill-opacity: 1; white-space: pre; opacity: 1;" transform="translate(660.5188888888888,0)">1000</text></g><g class="x2tick"><text text-anchor="middle" x="0" y="433" style="font-family: 'Open Sans', verdana, arial, sans-serif; font-size: 12px; fill: rgb(42, 63, 95); fill-opacity: 1; white-space: pre; opacity: 1;" transform="translate(758.5488888888888,0)">2000</text></g><g class="x2tick"><text text-anchor="middle" x="0" y="433" style="font-family: 'Open Sans', verdana, arial, sans-serif; font-size: 12px; fill: rgb(42, 63, 95); fill-opacity: 1; white-space: pre; opacity: 1;" transform="translate(856.5788888888887,0)">3000</text></g></g><g class="yaxislayer-above"><g class="y2tick"><text text-anchor="end" x="561.4888888888888" y="4.199999999999999" transform="translate(0,392.61)" style="font-family: 'Open Sans', verdana, arial, sans-serif; font-size: 12px; fill: rgb(42, 63, 95); fill-opacity: 1; white-space: pre; opacity: 1;">6</text></g><g class="y2tick"><text text-anchor="end" x="561.4888888888888" y="4.199999999999999" style="font-family: 'Open Sans', verdana, arial, sans-serif; font-size: 12px; fill: rgb(42, 63, 95); fill-opacity: 1; white-space: pre; opacity: 1;" transform="translate(0,323.45)">7</text></g><g class="y2tick"><text text-anchor="end" x="561.4888888888888" y="4.199999999999999" style="font-family: 'Open Sans', verdana, arial, sans-serif; font-size: 12px; fill: rgb(42, 63, 95); fill-opacity: 1; white-space: pre; opacity: 1;" transform="translate(0,254.3)">8</text></g><g class="y2tick"><text text-anchor="end" x="561.4888888888888" y="4.199999999999999" style="font-family: 'Open Sans', verdana, arial, sans-serif; font-size: 12px; fill: rgb(42, 63, 95); fill-opacity: 1; white-space: pre; opacity: 1;" transform="translate(0,185.15)">9</text></g><g class="y2tick"><text text-anchor="end" x="561.4888888888888" y="4.199999999999999" style="font-family: 'Open Sans', verdana, arial, sans-serif; font-size: 12px; fill: rgb(42, 63, 95); fill-opacity: 1; white-space: pre; opacity: 1;" transform="translate(0,116)">10</text></g></g><g class="overaxes-above"/></g><g class="subplot x3y3"><g class="layer-subplot"><g class="shapelayer"/><g class="imagelayer"/></g><g class="minor-gridlayer"><g class="x3"/><g class="y3"/></g><g class="gridlayer"><g class="x3"><path class="x3grid crisp" transform="translate(1143.0077777777776,0)" d="M0,100v320" style="stroke: rgb(255, 255, 255); stroke-opacity: 1; stroke-width: 1px;"/><path class="x3grid crisp" transform="translate(1241.0377777777776,0)" d="M0,100v320" style="stroke: rgb(255, 255, 255); stroke-opacity: 1; stroke-width: 1px;"/><path class="x3grid crisp" transform="translate(1339.0677777777776,0)" d="M0,100v320" style="stroke: rgb(255, 255, 255); stroke-opacity: 1; stroke-width: 1px;"/></g><g class="y3"><path class="y3grid crisp" transform="translate(0,365.71)" d="M1044.9777777777776,0h392.0222222222222" style="stroke: rgb(255, 255, 255); stroke-opacity: 1; stroke-width: 1px;"/><path class="y3grid crisp" transform="translate(0,317.84000000000003)" d="M1044.9777777777776,0h392.0222222222222" style="stroke: rgb(255, 255, 255); stroke-opacity: 1; stroke-width: 1px;"/><path class="y3grid crisp" transform="translate(0,269.97)" d="M1044.9777777777776,0h392.0222222222222" style="stroke: rgb(255, 255, 255); stroke-opacity: 1; stroke-width: 1px;"/><path class="y3grid crisp" transform="translate(0,222.1)" d="M1044.9777777777776,0h392.0222222222222" style="stroke: rgb(255, 255, 255); stroke-opacity: 1; stroke-width: 1px;"/><path class="y3grid crisp" transform="translate(0,174.24)" d="M1044.9777777777776,0h392.0222222222222" style="stroke: rgb(255, 255, 255); stroke-opacity: 1; stroke-width: 1px;"/><path class="y3grid crisp" transform="translate(0,126.37)" d="M1044.9777777777776,0h392.0222222222222" style="stroke: rgb(255, 255, 255); stroke-opacity: 1; stroke-width: 1px;"/></g></g><g class="zerolinelayer"><path class="x3zl zl crisp" transform="translate(1044.9777777777776,0)" d="M0,100v320" style="stroke: rgb(255, 255, 255); stroke-opacity: 1; stroke-width: 2px;"/><path class="y3zl zl crisp" transform="translate(0,413.57)" d="M1044.9777777777776,0h392.0222222222222" style="stroke: rgb(255, 255, 255); stroke-opacity: 1; stroke-width: 2px;"/></g><path class="xlines-below"/><path class="ylines-below"/><g class="overlines-below"/><g class="xaxislayer-below"/><g class="yaxislayer-below"/><g class="overaxes-below"/><g class="plot" transform="translate(1044.9777777777776,100)" clip-path="url(#clipc9137ex3y3plot)"><g class="scatterlayer mlayer"><g class="trace scatter trace50cbde" style="stroke-miterlimit: 2; opacity: 1;"><g class="fills"/><g class="errorbars"/><g class="lines"><path class="js-line" d="M0,304L2.55,298.83L2.65,298.58L11.37,273.16L11.47,272.67L13.14,266.07L13.23,265.85L13.63,265.52L13.72,265.06L14.8,264.03L14.9,263.77L15.59,263.42L15.68,262.82L19.21,257.67L19.31,257.67L19.8,257.15L19.9,256.85L21.08,254.96L21.17,254.87L22.35,252.85L22.45,252.55L23.23,251.34L23.33,250.97L23.92,250.52L24.02,249.9L25,248.48L25.1,248.48L26.66,247.74L26.76,247.02L27.15,246.78L27.25,246.12L29.41,245.47L29.51,244.71L30.19,244.25L30.29,243.92L30.88,243.18L30.98,243.04L31.57,242.46L31.66,242.25L32.64,241.6L32.74,240.84L34.51,240.41L34.6,240.17L36.17,238.72L36.27,238.73L97.93,239.07L98.03,304L100.87,298.16L100.97,297.91L101.76,296.08L101.85,295.57L104.11,289.37L104.21,289.12L111.07,269.13L111.17,269.13L111.95,267.38L112.05,266.4L113.03,265.43L113.13,265.19L114.6,260.32L114.7,259.86L115.68,258.27L115.77,257.88L118.32,253.98L118.42,253.98L119.2,253.45L119.3,252.55L119.89,251.71L119.99,251L120.28,250.84L120.38,250.21L120.77,249.15L120.87,248.71L123.13,246.05L123.22,246.05L124.4,244.59L124.5,244.59L125.09,243.86L125.18,243.49L125.58,243.41L125.67,242.31L126.85,240.24L126.95,239.35L127.83,238.56L127.93,238.56L129.11,237.97L129.2,237.77L130.87,237.05L130.97,236.9L132.83,235.35L132.93,235.35L136.85,235.21L136.95,235.21L195.96,235.68L196.06,304L199,298.42L199.1,298.09L201.06,293.08L201.16,292.7L204,283.93L204.1,283.56L210.76,265.99L210.86,265.82L212.24,262.41L212.33,262.41L213.31,260.52L213.41,260.08L214,259.98L214.1,259.22L214.69,258.38L214.78,257.72L216.16,255.15L216.25,255.15L218.51,251.1L218.61,250.66L218.9,250.17L219,249.76L220.27,248.98L220.37,248.61L221.06,247.74L221.16,247.1L222.04,246.45L222.14,246.37L222.33,246.35L222.43,245.57L222.82,245.05L222.92,244.69L224.49,243.92L224.59,243.39L225.57,241.97L225.67,241.97L227.23,239.2L227.33,239.2L229,236.9L229.1,236.91L230.17,235.61L230.27,235.61L230.96,234.92L231.06,234.03L232.43,232.47L232.53,232.25L233.51,231.69L233.61,231.03L234.49,230.13L234.59,229.97L293.99,229.92L294.09,304L296.05,299.38L296.15,299.13L298.31,293.24L298.4,292.84L302.13,281.33L302.23,281.33L307.72,265.49L307.81,265.49L311.54,258.35L311.64,258.35L312.91,257.33L313.01,257.33L316.44,250.29L316.54,250.29L318.3,248.09L318.4,248.09L320.66,244.53L320.75,244.53L321.24,244.24L321.34,243.64L323.4,240.82L323.5,240.82L324.77,239.75L324.87,239.33L326.64,236.68L326.73,236.3L328.11,234.07L328.2,234.07L328.99,233.17L329.09,233.18L330.36,232.72L330.46,232.37L331.15,232.3L331.24,231.45L332.71,228.77L332.81,228.77L334.28,228.64L334.38,228.64L336.73,228.59L336.83,228.59L392.02,229.07" style="vector-effect: non-scaling-stroke; fill: none; stroke: rgb(0, 204, 150); stroke-opacity: 1; stroke-width: 2px; opacity: 1;"/></g><g class="points"/><g class="text"/></g><g class="trace scatter trace7cf296" style="stroke-miterlimit: 2; opacity: 1;"><g class="fills"/><g class="errorbars"/><g class="lines"><path class="js-line" d="M0,304L3.04,301.16L3.14,301.06L12.25,288.3L12.35,288.03L19.41,273.45L19.51,273.45L20.19,272.15L20.29,271.58L21.76,269.25L21.86,269.25L26.86,251.49L26.96,251.46L27.94,245.58L28.04,244.62L28.43,244.02L28.53,243.49L29.9,236.63L30,236.25L32.74,215.34L32.84,213.76L33.04,212.58L33.13,211.42L39.9,106.36L40,104.45L42.94,76.1L43.04,75.86L44.31,74.73L44.41,74.72L50.58,73.97L50.68,73.94L60.39,72.72L60.48,72.7L66.56,71.97L66.66,71.94L76.46,70.71L76.56,70.69L81.17,70.17L81.27,70.15L97.93,68.02L98.03,304L101.85,300.74L101.95,300.53L104.79,297.15L104.89,297.1L106.46,295.29L106.56,295.18L114.99,282.2L115.09,282.2L119.79,274.26L119.89,273.99L121.26,270.62L121.36,270.49L126.46,250.81L126.56,249.51L126.75,249.39L126.85,248.35L128.71,237.13L128.81,236.63L130.48,226.67L130.58,224.74L131.85,210.49L131.95,208.51L132.93,198.69L133.03,196.75L134.01,182.32L134.11,180.52L140.38,69.55L140.48,69L141.95,65.22L142.05,65.18L178.9,60.11L179,60.11L185.37,59.29L185.47,59.28L195.96,57.92L196.06,304L199.2,301.96L199.3,301.76L205.47,294.79L205.57,294.74L207.73,291.97L207.82,291.93L212.53,285.46L212.63,285.47L215.18,280.54L215.27,280.41L217.43,275.83L217.53,275.83L219.98,270.41L220.08,270.41L221.35,267.92L221.45,267.61L222.72,262.57L222.82,262.18L225.86,251.12L225.96,250.32L228.21,238.12L228.31,237.91L230.57,214.59L230.66,214.3L234.49,169.38L234.59,167.76L237.43,104.3L237.53,101.27L239.88,46.28L239.98,45.04L241.64,34.24L241.74,34.04L243.02,33.29L243.11,33.27L249.19,32.25L249.29,32.21L257.13,30.71L257.23,30.66L280.27,26.47L280.37,26.44L283.7,25.87L283.8,25.85L292.52,24.31L292.62,24.31L293.99,24.06L294.09,304L295.76,302.84L295.85,302.84L298.8,299.65L298.89,299.64L314.58,281.73L314.68,281.43L317.91,274.65L318.01,274.57L322.71,259.17L322.81,258.29L323.4,256.47L323.5,256.17L325.66,243.16L325.75,242.78L326.34,240.36L326.44,239.44L328.11,228.58L328.2,228.18L330.36,203.87L330.46,202.38L338.6,33.78L338.69,32.97L340.26,26.75L340.36,26.65L343.01,26.03L343.11,26.01L347.81,25.02L347.91,24.98L353.1,23.96L353.2,23.95L371.34,20.18L371.44,20.18L378.79,18.64L378.89,18.64L391.14,16.17L391.24,16.18L392.02,16" style="vector-effect: non-scaling-stroke; fill: none; stroke: rgb(171, 99, 250); stroke-opacity: 1; stroke-width: 2px; opacity: 1;"/></g><g class="points"/><g class="text"/></g></g></g><g class="overplot"/><path class="xlines-above crisp" d="M0,0" style="fill: none;"/><path class="ylines-above crisp" d="M0,0" style="fill: none;"/><g class="overlines-above"/><g class="xaxislayer-above"><g class="x3tick"><text text-anchor="middle" x="0" y="433" transform="translate(1044.9777777777776,0)" style="font-family: 'Open Sans', verdana, arial, sans-serif; font-size: 12px; fill: rgb(42, 63, 95); fill-opacity: 1; white-space: pre; opacity: 1;">0</text></g><g class="x3tick"><text text-anchor="middle" x="0" y="433" style="font-family: 'Open Sans', verdana, arial, sans-serif; font-size: 12px; fill: rgb(42, 63, 95); fill-opacity: 1; white-space: pre; opacity: 1;" transform="translate(1143.0077777777776,0)">1000</text></g><g class="x3tick"><text text-anchor="middle" x="0" y="433" style="font-family: 'Open Sans', verdana, arial, sans-serif; font-size: 12px; fill: rgb(42, 63, 95); fill-opacity: 1; white-space: pre; opacity: 1;" transform="translate(1241.0377777777776,0)">2000</text></g><g class="x3tick"><text text-anchor="middle" x="0" y="433" style="font-family: 'Open Sans', verdana, arial, sans-serif; font-size: 12px; fill: rgb(42, 63, 95); fill-opacity: 1; white-space: pre; opacity: 1;" transform="translate(1339.0677777777776,0)">3000</text></g></g><g class="yaxislayer-above"><g class="y3tick"><text text-anchor="end" x="1043.9777777777776" y="4.199999999999999" transform="translate(0,413.57)" style="font-family: 'Open Sans', verdana, arial, sans-serif; font-size: 12px; fill: rgb(42, 63, 95); fill-opacity: 1; white-space: pre; opacity: 1;">0</text></g><g class="y3tick"><text text-anchor="end" x="1043.9777777777776" y="4.199999999999999" style="font-family: 'Open Sans', verdana, arial, sans-serif; font-size: 12px; fill: rgb(42, 63, 95); fill-opacity: 1; white-space: pre; opacity: 1;" transform="translate(0,365.71)">0.5</text></g><g class="y3tick"><text text-anchor="end" x="1043.9777777777776" y="4.199999999999999" style="font-family: 'Open Sans', verdana, arial, sans-serif; font-size: 12px; fill: rgb(42, 63, 95); fill-opacity: 1; white-space: pre; opacity: 1;" transform="translate(0,317.84000000000003)">1</text></g><g class="y3tick"><text text-anchor="end" x="1043.9777777777776" y="4.199999999999999" style="font-family: 'Open Sans', verdana, arial, sans-serif; font-size: 12px; fill: rgb(42, 63, 95); fill-opacity: 1; white-space: pre; opacity: 1;" transform="translate(0,269.97)">1.5</text></g><g class="y3tick"><text text-anchor="end" x="1043.9777777777776" y="4.199999999999999" style="font-family: 'Open Sans', verdana, arial, sans-serif; font-size: 12px; fill: rgb(42, 63, 95); fill-opacity: 1; white-space: pre; opacity: 1;" transform="translate(0,222.1)">2</text></g><g class="y3tick"><text text-anchor="end" x="1043.9777777777776" y="4.199999999999999" style="font-family: 'Open Sans', verdana, arial, sans-serif; font-size: 12px; fill: rgb(42, 63, 95); fill-opacity: 1; white-space: pre; opacity: 1;" transform="translate(0,174.24)">2.5</text></g><g class="y3tick"><text text-anchor="end" x="1043.9777777777776" y="4.199999999999999" style="font-family: 'Open Sans', verdana, arial, sans-serif; font-size: 12px; fill: rgb(42, 63, 95); fill-opacity: 1; white-space: pre; opacity: 1;" transform="translate(0,126.37)">3</text></g></g><g class="overaxes-above"/></g></g><g class="polarlayer"/><g class="smithlayer"/><g class="ternarylayer"/><g class="geolayer"/><g class="funnelarealayer"/><g class="pielayer"/><g class="iciclelayer"/><g class="treemaplayer"/><g class="sunburstlayer"/><g class="glimages"/><defs id="topdefs-c9137e"><g class="clips"/><clipPath id="legendc9137e"><rect width="124" height="126" x="0" y="0"/></clipPath></defs><g class="layer-above"><g class="imagelayer"/><g class="shapelayer"/></g><g class="infolayer"><g class="legend" pointer-events="all" transform="translate(1464.14,100)"><rect class="bg" shape-rendering="crispEdges" width="124" height="126" x="0" y="0" style="stroke: rgb(68, 68, 68); stroke-opacity: 1; fill: rgb(255, 255, 255); fill-opacity: 1; stroke-width: 0px;"/><g class="scrollbox" transform="" clip-path="url(#legendc9137e)"><g class="groups"><g class="traces" transform="translate(0,19.5)" style="opacity: 1;"><text class="legendtext" text-anchor="start" x="40" y="7.8" style="font-family: 'Open Sans', verdana, arial, sans-serif; font-size: 20px; fill: rgb(42, 63, 95); fill-opacity: 1; white-space: pre;">Glucose</text><g class="layers" style="opacity: 1;"><g class="legendfill"/><g class="legendlines"><path class="js-line" d="M5,0h30" style="fill: none; stroke: rgb(99, 110, 250); stroke-opacity: 1; stroke-width: 2px;"/></g><g class="legendsymbols"><g class="legendpoints"/></g></g><rect class="legendtoggle" x="0" y="-14.5" width="118.546875" height="29" style="fill: rgb(0, 0, 0); fill-opacity: 0;"/></g><g class="traces" transform="translate(0,48.5)" style="opacity: 1;"><text class="legendtext" text-anchor="start" x="40" y="7.8" style="font-family: 'Open Sans', verdana, arial, sans-serif; font-size: 20px; fill: rgb(42, 63, 95); fill-opacity: 1; white-space: pre;">Starch</text><g class="layers" style="opacity: 1;"><g class="legendfill"/><g class="legendlines"><path class="js-line" d="M5,0h30" style="fill: none; stroke: rgb(239, 85, 59); stroke-opacity: 1; stroke-width: 2px;"/></g><g class="legendsymbols"><g class="legendpoints"/></g></g><rect class="legendtoggle" x="0" y="-14.5" width="118.546875" height="29" style="fill: rgb(0, 0, 0); fill-opacity: 0;"/></g><g class="traces" transform="translate(0,77.5)" style="opacity: 1;"><text class="legendtext" text-anchor="start" x="40" y="7.8" style="font-family: 'Open Sans', verdana, arial, sans-serif; font-size: 20px; fill: rgb(42, 63, 95); fill-opacity: 1; white-space: pre;">agent1</text><g class="layers" style="opacity: 1;"><g class="legendfill"/><g class="legendlines"><path class="js-line" d="M5,0h30" style="fill: none; stroke: rgb(0, 204, 150); stroke-opacity: 1; stroke-width: 2px;"/></g><g class="legendsymbols"><g class="legendpoints"/></g></g><rect class="legendtoggle" x="0" y="-14.5" width="118.546875" height="29" style="fill: rgb(0, 0, 0); fill-opacity: 0;"/></g><g class="traces" transform="translate(0,106.5)" style="opacity: 1;"><text class="legendtext" text-anchor="start" x="40" y="7.8" style="font-family: 'Open Sans', verdana, arial, sans-serif; font-size: 20px; fill: rgb(42, 63, 95); fill-opacity: 1; white-space: pre;">agent2</text><g class="layers" style="opacity: 1;"><g class="legendfill"/><g class="legendlines"><path class="js-line" d="M5,0h30" style="fill: none; stroke: rgb(171, 99, 250); stroke-opacity: 1; stroke-width: 2px;"/></g><g class="legendsymbols"><g class="legendpoints"/></g></g><rect class="legendtoggle" x="0" y="-14.5" width="118.546875" height="29" style="fill: rgb(0, 0, 0); fill-opacity: 0;"/></g></g></g><rect class="scrollbar" rx="20" ry="3" width="0" height="0" x="0" y="0" style="fill: rgb(128, 139, 164); fill-opacity: 1;"/></g><g class="g-gtitle"><text class="gtitle" x="800" y="50" text-anchor="middle" dy="0em" style="font-family: 'Open Sans', verdana, arial, sans-serif; font-size: 20px; fill: rgb(42, 63, 95); opacity: 1; font-weight: normal; white-space: pre;">Concentration Profiles in Toy-Exoenzyme-Single_Two_Comb</text></g><g class="g-xtitle"><text class="xtitle" x="276.0111111111111" y="464.5" text-anchor="middle" style="font-family: 'Open Sans', verdana, arial, sans-serif; font-size: 20px; fill: rgb(42, 63, 95); opacity: 1; font-weight: normal; white-space: pre;">Time</text></g><g class="g-x2title"><text class="x2title" x="758.5" y="464.5" text-anchor="middle" style="font-family: 'Open Sans', verdana, arial, sans-serif; font-size: 20px; fill: rgb(42, 63, 95); opacity: 1; font-weight: normal; white-space: pre;">Time</text></g><g class="g-x3title"><text class="x3title" x="1240.9888888888888" y="464.5" text-anchor="middle" style="font-family: 'Open Sans', verdana, arial, sans-serif; font-size: 20px; fill: rgb(42, 63, 95); opacity: 1; font-weight: normal; white-space: pre;">Time</text></g><g class="g-ytitle"><text class="ytitle" transform="rotate(-90,27.109375,260)" x="27.109375" y="260" text-anchor="middle" style="font-family: 'Open Sans', verdana, arial, sans-serif; font-size: 20px; fill: rgb(42, 63, 95); opacity: 1; font-weight: normal; white-space: pre;">Concentration</text></g><g class="g-y2title"><text class="y2title" transform="rotate(-90,517.21875,260)" x="517.21875" y="260" text-anchor="middle" style="font-family: 'Open Sans', verdana, arial, sans-serif; font-size: 20px; fill: rgb(42, 63, 95); opacity: 1; font-weight: normal; white-space: pre;">Concentration</text></g><g class="g-y3title"><text class="y3title" transform="rotate(-90,995.34375,260)" x="995.34375" y="260" text-anchor="middle" style="font-family: 'Open Sans', verdana, arial, sans-serif; font-size: 20px; fill: rgb(42, 63, 95); opacity: 1; font-weight: normal; white-space: pre;">Concentration</text></g><g class="annotation" data-index="0" style="opacity: 1;"><g class="annotation-text-g" transform="rotate(0,276.0111111111111,88)"><g class="cursor-pointer" transform="translate(189,76)"><rect class="bg" x="0.5" y="0.5" width="174" height="23" style="stroke-width: 1px; stroke: rgb(0, 0, 0); stroke-opacity: 0; fill: rgb(0, 0, 0); fill-opacity: 0;"/><text class="annotation-text" text-anchor="middle" x="87.5625" y="18" style="font-family: 'Open Sans', verdana, arial, sans-serif; font-size: 16px; fill: rgb(42, 63, 95); fill-opacity: 1; white-space: pre;">Glucose Concentrtion</text></g></g></g><g class="annotation" data-index="1" style="opacity: 1;"><g class="annotation-text-g" transform="rotate(0,758.5,88)"><g class="cursor-pointer" transform="translate(672,76)"><rect class="bg" x="0.5" y="0.5" width="173" height="23" style="stroke-width: 1px; stroke: rgb(0, 0, 0); stroke-opacity: 0; fill: rgb(0, 0, 0); fill-opacity: 0;"/><text class="annotation-text" text-anchor="middle" x="87.03125" y="18" style="font-family: 'Open Sans', verdana, arial, sans-serif; font-size: 16px; fill: rgb(42, 63, 95); fill-opacity: 1; white-space: pre;">Starch Concentration</text></g></g></g><g class="annotation" data-index="2" style="opacity: 1;"><g class="annotation-text-g" transform="rotate(0,1240.988888888889,88)"><g class="cursor-pointer" transform="translate(1148,76)"><rect class="bg" x="0.5" y="0.5" width="184" height="23" style="stroke-width: 1px; stroke: rgb(0, 0, 0); stroke-opacity: 0; fill: rgb(0, 0, 0); fill-opacity: 0;"/><text class="annotation-text" text-anchor="middle" x="92.71875" y="18" style="font-family: 'Open Sans', verdana, arial, sans-serif; font-size: 16px; fill: rgb(42, 63, 95); fill-opacity: 1; white-space: pre;">Agents Concentrations</text></g></g></g></g></svg>