<svg class="main-svg" xmlns="http://www.w3.org/2000/svg" xmlns:xlink="http://www.w3.org/1999/xlink" width="700" height="500" style="" viewBox="0 0 700 500"><rect x="0" y="0" width="700" height="500" style="fill: rgb(255, 255, 255); fill-opacity: 1;"/><defs id="defs-ed773a"><g class="clips"><clipPath id="cliped773axyplot" class="plotclip"><rect width="494" height="320"/></clipPath><clipPath class="axesclip" id="cliped773ax"><rect x="80" y="0" width="494" height="500"/></clipPath><clipPath class="axesclip" id="cliped773ay"><rect x="0" y="100" width="700" height="320"/></clipPath><clipPath class="axesclip" id="cliped773axy"><rect x="80" y="100" width="494" height="320"/></clipPath></g><g class="gradients"/><g class="patterns"/></defs><g class="bglayer"><rect class="bg" x="80" y="100" width="494" height="320" style="fill: rgb(229, 236, 246); fill-opacity: 1; stroke-width: 0;"/></g><g class="layer-below"><g class="imagelayer"/><g class="shapelayer"/></g><g class="cartesianlayer"><g class="subplot xy"><g class="layer-subplot"><g class="shapelayer"/><g class="imagelayer"/></g><g class="minor-gridlayer"><g class="x"/><g class="y"/></g><g class="gridlayer"><g class="x"><path class="xgrid crisp" transform="translate(217.2,0)" d="M0,100v320" style="stroke: rgb(255, 255, 255); stroke-opacity: 1; stroke-width: 1px;"/><path class="xgrid crisp" transform="translate(354.4,0)" d="M0,100v320" style="stroke: rgb(255, 255, 255); stroke-opacity: 1; stroke-width: 1px;"/><path class="xgrid crisp" transform="translate(491.6,0)" d="M0,100v320" style="stroke: rgb(255, 255, 255); stroke-opacity: 1; stroke-width: 1px;"/></g><g class="y"><path class="ygrid crisp" transform="translate(0,404.72)" d="M80,0h494" style="stroke: rgb(255, 255, 255); stroke-opacity: 1; stroke-width: 1px;"/><path class="ygrid crisp" transform="translate(0,333.81)" d="M80,0h494" style="stroke: rgb(255, 255, 255); stroke-opacity: 1; stroke-width: 1px;"/><path class="ygrid crisp" transform="translate(0,262.89)" d="M80,0h494" style="stroke: rgb(255, 255, 255); stroke-opacity: 1; stroke-width: 1px;"/><path class="ygrid crisp" transform="translate(0,191.98000000000002)" d="M80,0h494" style="stroke: rgb(255, 255, 255); stroke-opacity: 1; stroke-width: 1px;"/></g></g><g class="zerolinelayer"><path class="xzl zl crisp" transform="translate(80,0)" d="M0,100v320" style="stroke: rgb(255, 255, 255); stroke-opacity: 1; stroke-width: 2px;"/><path class="yzl zl crisp" transform="translate(0,121.06)" d="M80,0h494" style="stroke: rgb(255, 255, 255); stroke-opacity: 1; stroke-width: 2px;"/></g><path class="xlines-below"/><path class="ylines-below"/><g class="overlines-below"/><g class="xaxislayer-below"/><g class="yaxislayer-below"/><g class="overaxes-below"/><g class="plot" transform="translate(80,100)" clip-path="url(#cliped773axyplot)"><g class="scatterlayer mlayer"><g class="trace scatter traced42241" style="stroke-miterlimit: 2; opacity: 1;"><g class="fills"/><g class="errorbars"/><g class="lines"><path class="js-line" d="M0,144.45L0.49,153.67L0.52,135.23L0.66,139.49L0.69,139.84L2.41,85.94L2.69,89.13L2.72,89.84L3.46,69.27L3.51,73.88L3.54,72.46L3.59,80.62L3.84,64.66L3.87,62.54L4.06,69.98L4.31,59.34L4.61,64.66L4.64,65.38L4.77,72.46L4.97,58.28L5.3,62.89L5.32,57.22L5.41,61.83L5.43,53.67L5.46,63.96L6.17,48.71L6.28,51.19L6.31,55.45L6.39,59.7L7.08,45.87L7.13,47.64L7.16,50.12L7.3,56.15L7.79,40.2L7.85,45.16L7.88,40.19L8.64,50.83L8.67,44.09L8.73,39.48L9.47,53.66L9.49,50.82L9.52,46.21L9.82,54.37L10.13,43.02L10.18,47.99L10.21,41.61L10.29,47.64L10.51,38.06L10.95,43.02L10.98,44.09L11.03,51.53L11.69,37L11.72,41.96L11.74,47.99L11.85,49.05L12.51,37.34L12.54,37.35L12.57,43.73L12.79,33.45L13.36,39.12L13.39,39.47L13.61,46.21L14.19,32.03L14.21,38.05L14.46,40.89L14.71,31.31L15.01,34.86L15.04,33.44L15.45,38.05L15.61,30.6L15.75,34.51L15.78,29.9L16.02,27.77L16.11,35.57L16.55,28.48L16.57,33.8L16.77,34.51L17.31,26.36L17.34,27.42L17.37,30.96L17.84,25.64L17.89,33.44L18.11,26.35L18.14,29.18L18.77,23.86L18.82,25.98L18.85,28.11L19.32,23.5L19.65,24.22L19.67,27.05L19.84,22.44L20.22,27.06L20.44,23.16L20.47,22.81L20.66,27.06L20.83,22.1L21.21,23.52L21.24,22.45L21.38,23.87L21.76,21.4L21.79,22.1L21.81,24.94L22.56,21.75L22.58,22.11L22.61,23.52L23.32,21.4L23.41,22.11L23.43,22.46L23.68,21.05L23.93,23.17L24.23,21.4L24.26,21.76L24.75,23.18L25,21.04L25.03,21.76L25.79,21.04L25.82,21.4L25.9,21.04L26.23,22.46L26.53,21.04L26.56,21.04L26.75,22.46L27.3,21.4L27.33,21.05L27.77,22.11L28.04,21.05L28.07,21.05L28.62,22.11L28.89,21.4L28.92,21.05L29.74,21.76L29.77,21.05L29.94,22.11L30.51,21.05L30.54,21.05L31.2,21.76L31.28,21.4L31.31,21.05L31.91,21.76L32.08,21.4L32.1,21.04L32.68,21.75L32.87,21.4L32.9,21.04L33.2,21.74L33.64,21.04L33.67,21.04L34.35,21.39L34.41,21.04L34.44,21.04L41.49,21.04L41.52,22.45L42.28,21.03L42.31,21.03L42.92,21.75L43.11,21.04L43.14,21.04L45.19,21.04L45.22,22.1L45.88,21.03L45.99,21.04L46.02,21.74L46.7,21.03L46.78,21.04L46.81,21.39L46.92,21.74L47.61,21.03L47.64,21.03L48.43,21.75L48.46,21.03L49.06,22.1L49.2,21.03L49.23,21.03L49.89,21.39L49.97,21.03L50,21.03L50.74,21.38L50.82,21.03L50.85,21.03L51.45,21.74L51.64,21.03L51.67,21.03L151.47,21.06L151.5,21.77L152.29,21.06L152.32,21.06L173.31,21.02L173.34,21.01L203.11,20.98L203.14,20.97L208.87,20.93L208.9,20.92L245.53,20.55L245.56,20.53L250.72,20.35L250.75,20.31L255.77,20.21L255.79,20.19L256.4,20.93L256.62,20.21L256.65,20.19L282.55,19.99L282.58,20.68L283.32,19.87L283.34,19.9L283.37,19.84L283.51,19.77L284.14,20.22L284.17,19.87L284.22,20.25L284.47,19.81L284.91,19.88L284.94,19.9L285.1,19.81L285.13,20.5L285.62,19.84L285.65,19.77L286.39,20.19L286.47,20.15L286.5,19.86L286.53,20.2L287.19,19.74L287.24,19.78L287.27,19.77L288.06,20.48L288.09,20.13L288.12,19.71L288.26,19.67L288.75,20.39L288.86,19.65L288.89,19.66L289.27,19.61L289.35,20.37L289.63,19.95L289.66,19.66L289.68,20.33L290.4,19.49L290.42,19.55L290.81,19.48L291,20.27L291.16,19.85L291.19,19.5L291.77,19.87L291.96,19.52L291.99,19.52L292.62,19.8L292.7,19.32L292.73,19.36L292.87,19.29L292.89,20.06L293.44,19.59L293.47,19.29L293.96,19.25L294.21,20L294.24,19.27L294.62,20.36L294.98,19.19L295.01,19.22L295.12,19.2L295.77,19.95L295.8,19.23L295.91,19.13L296.54,19.92L296.57,19.19L297.34,19.63L297.37,19.25L298.93,19.31L298.96,20.03L299.7,19.19L299.73,19.21L299.75,19.17L300.25,19.88L300.55,19.63L300.58,19.24L300.71,19.22L301.37,19.61L301.4,19.21L301.48,19.2L301.98,19.6L302.14,19.23L302.17,19.29L302.33,19.18L302.99,19.67L303.02,19.23L303.57,19.6L303.84,19.25L303.87,19.22L304.45,19.61L304.58,19.11L304.61,19.15L304.64,19.14L304.8,19.52L305.46,19.16L305.49,19.21L307,19.07L307.02,19.45L307.85,19.01L307.88,18.99L308.09,18.94L308.64,19.63L308.67,18.9L309.44,19.32L309.47,18.98L310.18,19.36L310.24,19.01L310.26,18.99L313.34,18.93L313.36,19.33L314.1,18.86L314.13,18.91L314.16,18.87L314.65,19.2L314.9,18.87L314.93,18.88L315.45,19.3L315.67,18.86L315.7,18.92L316.13,19.32L316.46,18.96L316.49,18.99L319.76,18.97L319.78,19.34L320.53,18.9L320.55,18.93L320.58,19.28L320.63,18.86L320.8,19.6L321.29,18.84L321.32,18.92L324.34,18.75L324.37,18.71L325.08,18.64L325.11,18.56L326.12,18.53L326.15,18.54L327.39,18.44L327.41,18.39L329.99,18.41L330.02,18.77L330.29,18.29L330.38,18.8L330.79,18.38L330.82,18.34L331.61,18.71L331.64,18.4L331.67,18.36L341.41,18.01L341.43,18L341.68,17.94L341.96,19.05L342.18,18.01L342.2,18.04L342.28,17.94L342.92,18.33L342.94,18.01L342.97,17.99L343.05,17.89L343.19,18.35L343.71,17.9L343.74,17.96L344.12,18.66L344.51,17.91L344.54,17.93L345.74,18.25L345.82,17.91L345.85,17.87L348.43,18.18L348.46,18.56L349.04,17.74L349.23,17.84L349.25,17.83L349.45,18.18L350.13,17.73L350.16,17.85L350.19,18.23L350.9,17.72L350.96,17.85L350.98,17.81L352,17.79L352.03,18.13L352.79,17.76L352.82,17.7L354,17.77L354.03,17.7L355.04,18.26L355.18,17.9L355.21,17.84L356.06,18.35L356.09,17.94L361.08,17.77L361.11,17.71L362.54,17.87L362.56,17.85L366.51,17.66L366.54,18.05L367.31,17.69L367.36,17.73L367.39,17.77L367.64,18.06L368.38,17.66L368.41,17.72L369.81,17.67L369.83,17.76L369.86,18.09L370.63,17.58L370.66,17.69L370.79,18.01L370.9,17.53L371.4,17.54L371.43,17.56L373.48,17.85L373.51,17.48L373.54,18.25L374.03,17.45L374.25,17.47L374.28,17.4L376.01,17.51L376.04,18.18L376.5,17.32L376.8,17.39L376.83,17.77L377.41,18.43L377.57,17.23L377.6,17.29L377.63,17.34L377.74,17.71L377.82,17.28L378.37,17.27L378.4,17.27L380.98,17.36L381,18.09L381.72,17.18L381.77,17.27L381.8,17.23L385.34,17.25L385.37,17.57L385.94,17.06L386.11,17.07L386.13,17.51L386.79,17.03L386.9,17.18L386.93,17.18L394.34,17.12L394.37,17.88L395.13,17.05L395.16,17.14L395.27,17.48L395.35,17.05L395.93,17.11L395.96,17.08L396.81,17.48L396.86,17.14L396.89,17.08L397.11,17.5L397.66,17.23L397.69,17.23L397.8,17.17L398.32,17.58L398.43,17.21L398.45,17.16L399.74,17.22L399.77,17.04L400.51,17.57L400.57,17.17L400.59,17.13L401.39,17.3L401.42,16.98L402.35,17L402.38,16.96L402.52,16.94L402.82,17.44L403.12,16.91L403.15,16.98L403.34,16.97L403.37,17.05L403.39,18.04L403.91,16.9L404.13,17.02L404.16,18.32L404.46,16.96L404.93,17L404.96,17.03L405.73,17.56L405.97,17.25L406,17.11L406.99,17.16L407.02,17.14L408.22,17.45L408.25,18.52L408.36,17.08L409.02,17.2L409.05,17.07L409.32,18.84L409.81,17.23L409.84,17.21L412.23,17.37L412.26,17.29L413.13,17.77L413.16,17.51L413.19,17.15L414.29,17.38L414.31,17.36L415.52,17.59L415.55,17.18L415.66,17.61L416.32,17.28L416.35,17.26L417.06,17.76L417.39,17.32L417.42,17.24L418.95,17.61L418.98,17.36L419.01,17.3L419.8,17.48L419.83,17.2L419.97,17.17L420.1,17.85L420.6,17.44L420.63,17.33L421.45,17.23L421.48,17.91L421.53,17.21L421.59,19.25L422.24,17.33L422.27,17.36L422.93,17.32L422.96,17.77L423.73,17.33L423.75,17.4L424.88,17.3L424.91,17.7L424.93,18.31L425.18,17.2L425.7,17.28L425.73,17.36L426.91,17.5L426.99,17.37L427.02,17.25L427.18,17.73L427.79,17.36L427.82,17.3L428.8,17.82L428.83,17.39L428.86,17.35L428.99,17.87L429.68,17.58L429.71,17.54L430.78,17.3L430.86,17.41L430.89,17.47L431.44,17.42L431.46,18.77L431.85,17.31L432.23,17.35L432.26,17.42L434.73,17.61L434.76,18.01L435.47,17.47L435.53,17.51L435.55,17.44L436.82,17.51L436.84,17.46L437.45,18.47L437.61,17.43L437.64,17.46L437.83,17.44L437.91,17.8L438.38,17.46L438.41,17.53L438.65,17.85L439.01,17.47L439.07,17.56L439.09,17.96L439.75,17.37L439.86,17.47L439.89,17.53L440.03,17.45L440.63,18.77L440.66,17.48L440.68,17.39L440.77,17.8L441.45,17.42L441.48,17.39L442.17,18.39L442.22,17.43L442.25,17.37L442.8,17.72L442.85,17.46L442.88,17.35L446.58,17.34L446.61,18.64L447.35,17.25L447.38,17.31L447.41,17.4L449.14,17.28L449.16,17.69L449.47,17.21L449.52,18.98L449.93,17.34L449.96,17.42L450.21,17.27L450.43,18L450.7,17.3L450.73,17.27L451.39,18.16L451.5,17.38L451.52,17.37L451.66,17.26L452.29,17.7L452.32,17.3L452.46,17.26L452.65,18.3L453.06,17.41L453.09,17.37L453.33,17.96L453.69,17.28L453.72,17.97L454.29,17.22L454.49,17.28L454.51,17.33L454.71,17.23L454.82,17.63L455.31,17.4L455.34,17.35L456.49,17.26L456.52,17.6L456.54,18.01L456.71,18.3L456.74,17.19L457.34,17.32L457.37,17.45L457.56,17.34L458.11,17.64L458.14,17.32L458.44,17.93L458.93,17.36L458.96,17.72L459.67,17.31L459.7,17.65L459.73,17.99L460.17,18.08L460.22,17.27L460.5,17.36L460.52,17.38L461.79,17.38L461.81,17.81L462.44,17.36L462.58,17.38L462.61,17.42L462.72,17.32L463.38,17.85L463.4,17.45L463.95,17.66L463.98,18.41L464.01,17.35L464.75,17.5L464.78,17.41L465.68,17.44L465.71,17.41L465.76,18.78L466.37,17.36L466.45,17.39L466.48,17.44L467.58,17.95L467.71,17.53L467.74,17.46L468.12,17.66L468.51,17.52L468.54,17.46L471.03,17.85L471.06,18.58L471.5,17.48L471.83,17.62L471.86,17.82L471.91,17.49L472.51,18L472.62,17.58L472.65,17.58L473.23,18.23L473.37,17.55L473.39,17.53L474.49,17.8L474.52,17.74L474.55,17.75L476.33,17.64L476.36,18.69L477.12,17.54L477.15,17.91L477.48,18.64L477.7,17.54L477.89,17.59L477.92,17.9L478.36,18.9L478.5,17.52L478.69,17.61L478.72,17.61L481.57,17.75L481.6,17.64L482.75,17.58L482.78,18.24L482.8,19.27L482.86,17.54L483.49,17.61L483.52,17.55L484.34,17.93L484.37,17.58L484.59,17.92L484.67,17.64L484.7,18.63L484.75,17.56L485.47,17.71L485.49,17.64L485.77,17.65L485.8,18.67L486.01,17.52L486.15,20.04L486.56,17.68L486.59,17.67L487.44,17.87L487.47,17.84L487.5,17.82L490.16,17.79L490.19,17.89L491.7,17.74L491.72,18.03L492.35,17.5L492.38,19.26L492.82,17.41L493.15,17.57L493.18,17.51L493.97,17.73L494,17.67" style="vector-effect: non-scaling-stroke; fill: none; stroke: rgb(99, 110, 250); stroke-opacity: 1; stroke-width: 2px; opacity: 1;"/></g><g class="points"/><g class="text"/></g><g class="trace scatter trace9026e0" style="stroke-miterlimit: 2; opacity: 1;"><g class="fills"/><g class="errorbars"/><g class="lines"><path class="js-line" d="M0,284.5L0.3,304L0.44,283.79L0.74,289.46L0.77,277.4L0.82,286.98L0.88,272.08L1.32,277.4L1.34,272.09L1.43,273.86L2.77,210.38L2.85,212.51L2.88,223.5L3.7,186.63L3.73,191.59L3.84,193.37L4.45,166.42L4.5,173.51L4.53,176L4.77,182.73L5.19,143.37L5.32,155.08L5.35,158.97L5.38,144.79L5.73,174.58L6.09,147.99L6.12,158.27L6.15,167.49L6.56,142.32L6.78,151.18L6.81,139.48L6.91,151.53L7.52,126.71L7.55,134.16L7.82,136.64L8.12,113.59L8.31,117.49L8.34,128.49L8.73,129.55L9,108.63L9.11,113.95L9.14,125.3L9.44,100.48L9.91,104.02L9.93,114.31L10.65,95.87L10.76,97.28L10.78,106.51L11.17,90.55L11.41,110.76L11.47,104.73L11.5,96.22L11.83,117.14L12.27,102.96L12.29,99.76L12.92,116.43L12.95,111.82L12.98,94.45L13.28,119.98L13.72,107.57L13.75,103.31L13.86,99.05L13.97,118.21L14.49,100.83L14.52,101.9L14.54,101.54L14.6,110.76L14.71,105.8L14.74,115.72L15.23,119.63L15.5,88.07L15.53,97.99L15.56,94.45L15.78,107.57L15.83,83.81L15.92,86.65L15.94,84.52L16.22,77.07L16.38,94.8L16.57,79.91L16.6,88.42L16.74,89.48L17.01,75.3L17.1,78.13L17.12,85.94L17.34,94.45L17.62,75.65L17.81,81.68L17.84,73.17L18.27,72.82L18.41,86.29L18.58,83.81L18.6,77.43L18.66,69.62L18.99,92.32L19.32,73.88L19.35,93.73L20.06,67.86L20.11,75.66L20.14,75.66L20.55,80.63L20.61,62.9L20.94,66.79L20.96,69.28L21.32,61.12L21.38,76.01L21.65,62.18L21.68,72.47L21.95,73.17L22.39,61.48L22.5,62.19L22.53,66.09L22.64,74.95L23.02,59.7L23.16,62.9L23.19,58.64L23.24,72.47L23.9,54.74L23.93,58.28L23.96,55.09L24.2,54.03L24.31,66.08L24.37,57.57L24.39,51.54L24.42,50.48L24.48,63.6L24.97,51.54L25,59.34L25.05,60.05L25.35,45.87L25.79,50.48L25.82,52.96L25.85,59.35L26.31,43.39L26.53,51.2L26.56,50.49L26.75,57.93L27.19,43.04L27.22,47.3L27.25,44.81L27.49,49.78L27.91,39.85L27.99,43.75L28.02,39.14L28.43,38.78L28.54,46.59L28.78,43.39L28.81,39.5L28.89,44.1L29,35.24L29.55,39.85L29.58,38.08L29.77,35.6L30.02,45.88L30.32,39.85L30.35,39.14L30.38,44.1L30.76,34.18L31.06,37.01L31.09,36.66L31.25,41.27L31.28,34.89L31.39,36.66L31.42,35.24L31.99,41.98L32.02,31.34L32.16,36.66L32.19,32.76L32.24,32.4L32.9,41.98L32.98,35.6L33.01,33.82L33.15,33.47L33.37,38.79L33.39,35.24L33.42,31.7L33.89,37.73L34.11,27.8L34.16,33.82L34.19,30.63L34.35,28.15L34.46,37.37L34.93,30.99L34.96,32.76L34.99,34.89L35.07,29.21L35.7,32.4L35.73,29.57L36.14,35.95L36.36,26.73L36.44,31.69L36.47,26.02L36.91,24.96L36.96,32.76L37.18,28.86L37.21,26.73L37.29,27.79L37.32,26.73L37.35,33.11L37.81,26.38L38.11,28.5L38.14,26.38L38.25,29.92L38.42,24.6L38.88,25.31L38.91,28.15L39.21,24.6L39.32,31.69L39.65,26.37L39.68,27.44L40.01,22.83L40.23,29.56L40.45,25.31L40.47,26.73L40.72,23.89L41.13,29.21L41.16,26.73L41.19,25.31L41.21,28.5L41.32,23.18L41.93,26.73L41.96,24.96L42.18,22.47L42.26,27.08L42.67,24.6L42.7,24.24L42.81,27.08L43.19,22.83L43.44,23.89L43.46,24.95L43.55,27.08L44.01,22.47L44.23,23.54L44.26,25.31L44.56,26.37L44.7,22.47L45.03,22.83L45.06,26.02L45.28,21.41L45.85,21.76L45.88,23.89L45.96,24.95L46.54,22.47L46.62,22.82L46.65,24.6L47.33,21.76L47.42,22.12L47.44,23.18L47.88,24.95L47.96,21.76L48.18,22.47L48.21,24.95L48.49,21.05L48.95,22.11L48.98,23.53L49.2,21.4L49.56,24.59L49.72,22.47L49.75,23.53L50.02,21.4L50.08,26.01L50.41,22.47L50.43,22.47L50.52,23.53L50.82,21.41L51.04,22.12L51.07,24.24L51.83,21.05L51.86,22.82L51.89,23.54L52.19,21.05L52.57,22.12L52.6,21.05L53.18,23.18L53.34,22.47L53.37,21.41L53.48,23.89L53.7,21.06L54.06,21.77L54.08,22.12L54.44,23.89L54.63,21.06L54.77,22.12L54.8,23.19L55.43,21.06L55.59,21.41L55.62,21.77L55.65,23.18L55.7,21.41L56.39,22.83L56.42,21.77L56.5,21.41L56.64,23.89L57.16,22.48L57.18,21.77L57.79,21.06L57.9,23.54L57.93,21.77L57.95,21.41L58.01,21.06L58.75,23.19L58.78,21.77L58.97,21.06L59.02,23.19L59.49,22.12L59.52,21.41L59.68,21.06L60.09,23.19L60.26,21.77L60.29,21.06L60.78,23.19L61.05,21.77L61.08,21.42L61.14,23.19L61.44,21.06L61.79,21.77L61.82,21.77L61.93,22.83L62.34,21.06L62.56,22.13L62.59,21.06L62.97,22.83L63.33,21.77L63.36,21.06L63.8,22.83L64.04,21.42L64.07,21.06L64.57,22.48L64.84,21.77L64.87,21.77L64.9,22.48L64.92,21.06L65.61,22.12L65.64,21.06L66.05,22.83L66.43,21.77L66.46,22.12L66.93,22.83L67.26,21.05L67.28,21.06L67.31,21.05L67.45,23.18L68.08,22.47L68.11,21.41L68.27,21.05L68.87,22.12L68.9,21.41L69.4,22.11L69.45,21.05L69.56,21.06L69.59,22.47L70.36,21.05L70.38,21.41L70.6,22.12L71.04,21.05L71.1,21.76L71.12,22.83L71.81,21.05L71.89,21.41L71.92,22.82L72.69,21.05L72.72,22.11L73.32,21.05L73.37,21.75L73.4,22.46L73.68,22.47L74.09,21.04L74.17,21.4L74.2,21.04L74.66,22.11L74.94,21.04L74.97,21.04L75.16,21.75L75.73,21.4L75.76,21.05L76.37,21.76L76.53,21.41L76.56,21.05L76.89,21.4L76.91,22.11L77.55,21.04L77.68,21.05L77.71,22.11L78.48,21.03L78.51,21.04L79.27,21.75L79.3,21.04L80.7,21.04L80.73,22.1L81.47,21.03L81.5,21.39L81.52,21.04L82.13,21.38L82.26,21.03L82.29,21.03L83.06,21.38L83.09,21.04L83.12,21.03L94.37,21L94.39,20.99L94.91,21.34L95.13,20.99L95.16,20.98L95.74,21.33L95.96,20.97L95.98,20.98L96.07,22.04L96.09,20.97L96.73,20.98L96.75,20.99L98.87,20.98L98.89,21.68L99.58,20.97L99.63,21.68L99.66,21.68L100.38,20.96L100.43,20.97L100.46,20.97L100.76,21.33L101.25,20.97L101.28,20.98L101.97,20.97L101.99,21.69L102.6,20.96L102.76,20.97L102.79,20.96L102.93,21.68L103.53,20.98L103.56,20.99L103.91,21.69L104.35,20.98L104.38,20.97L104.49,21.69L105.15,21.32L105.18,20.96L105.56,21.31L105.92,20.96L105.95,20.96L106.58,21.32L106.69,21.3L106.71,20.96L106.8,21.66L106.85,20.94L107.45,20.94L107.48,20.94L107.98,22.36L108.22,20.93L108.25,20.93L108.91,21.3L108.99,20.94L109.02,20.94L109.73,21.65L109.79,20.95L109.81,20.95L110.06,21.65L110.61,21.31L110.64,20.94L111.24,21.66L111.38,20.95L111.41,20.96L111.87,21.67L112.2,21.3L112.23,20.96L112.37,21.67L112.97,20.95L113,20.96L115.06,20.98L115.08,21.69L115.82,20.98L115.85,21.34L116.56,20.98L116.59,21.35L116.62,21.35L116.87,21.7L117.39,20.99L117.42,21.34L118.05,20.99L118.18,21L118.21,21.35L118.57,22.06L118.9,20.99L118.95,21L118.98,21.35L119.36,22.07L119.67,21L119.69,22.07L120.41,21.01L120.46,21.36L120.49,21.72L121.17,21L121.26,21.01L121.28,21L121.39,21.71L121.97,20.99L122,20.99L123.53,21.35L123.56,22.06L124.33,20.98L124.36,20.98L125.07,21.35L125.13,21.34L125.15,20.99L125.87,21.7L125.95,21.35L125.98,20.99L165.08,20.95L165.11,20.93L173.2,21.33L173.23,20.97L205.22,20.86L205.25,20.84L205.39,21.21L206.05,20.86L206.07,20.86L206.18,21.23L206.84,20.89L206.87,20.88L213.89,20.79L213.92,20.77L229.59,20.48L229.62,21.56L230.19,20.46L230.39,20.47L230.41,20.48L233.32,20.43L233.35,20.41L234.2,20.82L234.23,20.46L244.43,20.31L244.46,20.3L247.26,20.09L247.29,20.07L248.06,20.39L248.08,20.02L248.5,20.76L248.82,20L248.85,20L248.91,19.99L249.32,20.67L249.59,19.97L249.62,19.96L249.95,20.34L250.11,19.91L250.36,19.93L250.39,19.93L250.53,20.65L251.07,19.89L251.1,19.92L251.18,19.86L251.6,20.56L251.84,19.9L251.87,19.93L252.25,19.84L252.31,20.19L252.34,20.56L253.05,19.79L253.08,19.82L253.11,19.82L256.01,19.64L256.04,20.35L256.67,19.58L256.81,19.62L256.84,19.61L257.5,19.97L257.58,19.6L257.61,19.61L259.83,19.48L259.86,20.19L260.05,20.55L260.13,19.44L260.65,19.52L260.68,19.49L261.12,20.95L261.45,20.21L261.47,19.46L261.97,19.9L262.24,19.84L262.27,19.5L262.68,19.49L262.71,20.18L262.79,19.47L262.87,20.58L263.48,19.54L263.51,19.94L263.7,19.51L263.97,20.66L264.25,19.55L264.27,19.9L264.47,20.25L264.93,19.46L265.04,19.55L265.07,19.52L265.43,19.46L265.45,20.19L265.81,19.81L265.84,19.47L266.36,19.41L266.61,20.21L266.63,19.84L266.69,19.47L266.91,20.93L267.35,19.86L267.37,19.53L267.84,19.46L267.9,20.2L268.14,20.14L268.17,19.83L268.28,19.42L268.72,20.16L268.88,19.43L268.91,19.41L268.99,20.16L269.24,19.36L269.65,19.46L269.68,19.46L269.84,19.4L270.17,20.09L270.42,19.74L270.45,19.36L270.94,20.84L271.19,20.47L271.22,19.7L271.41,19.34L271.82,20.86L271.93,20.48L271.96,19.43L272.07,19.41L272.72,20.13L272.75,19.45L272.94,21.21L273.19,19.36L273.49,19.72L273.52,19.4L273.58,19.38L274.23,20.49L274.26,20.14L274.29,19.44L274.43,20.49L274.62,19.37L275.06,20.14L275.08,19.77L275.52,19.34L275.72,20.75L275.77,20.07L275.8,19.34L275.91,20.42L275.94,19.32L276.62,20.08L276.65,19.7L277.06,19.39L277.09,20.43L277.17,19.73L277.2,20.77L277.72,19.38L277.97,19.42L277.99,19.42L278.08,20.85L278.73,20.13L278.76,19.75L278.87,20.5L279.5,19.38L279.53,20.12L279.58,19.32L280.16,20.44L280.3,19.42L280.33,19.69L280.41,19.32L280.66,20.43L281.04,19.72L281.07,19.38L281.31,20.52L281.81,19.4L281.83,19.38L281.94,20.12L282.58,19.39L282.6,19.37L283.34,19.7L283.37,19.27L284.11,19.99L284.14,19.65L284.17,19.29L284.74,19.68L284.77,20.03L285.46,19.2L285.54,19.25L285.57,19.27L285.65,19.2L285.92,19.62L286.31,19.25L286.34,19.21L286.91,19.61L287.1,19.21L287.13,19.23L287.46,19.58L287.93,19.23L287.95,19.18L290.89,18.94L290.92,19.27L291.36,19.33L291.52,18.9L291.69,18.94L291.71,18.96L292.43,19.61L292.51,19.2L292.54,18.82L292.62,19.21L293.03,18.76L293.28,18.79L293.3,18.8L293.44,18.71L294.07,19.2L294.1,19.15L294.13,18.85L294.9,19.2L294.92,18.76L296.21,18.79L296.24,19.44L296.98,18.74L297.01,18.76L297.04,18.81L297.5,19.25L297.83,18.84L297.86,18.82L299.37,18.83L299.4,18.82L305.27,18.62L305.3,19.4L305.84,18.57L306.06,18.58L306.09,18.61L306.31,18.62L306.34,18.59L307.08,19.33L307.11,18.63L307.13,18.99L307.44,18.5L307.85,18.51L307.88,18.89L308.12,18.44L308.56,19.18L308.64,18.47L308.67,18.47L308.73,18.45L309.44,19.24L309.47,18.55L309.93,18.45L309.99,18.89L310.21,18.83L310.24,18.84L310.45,19.17L310.95,18.47L310.98,18.51L311,18.87L311.52,19.29L311.77,18.5L311.8,18.55L311.83,18.56L312.43,18.5L312.46,19.26L313.17,18.46L313.23,18.48L313.25,18.48L313.77,18.83L314.02,18.44L314.05,18.45L314.9,18.77L314.93,18.37L315.97,18.8L316,18.5L316.02,18.44L317.7,18.82L317.73,18.4L318.41,19.13L318.49,18.43L318.52,18.48L318.58,18.44L318.99,18.84L319.26,18.47L319.29,18.53L319.48,18.46L319.89,18.83L320.03,18.43L320.06,18.45L320.69,18.78L320.83,18.41L320.85,18.41L321.16,19.12L321.62,18.45L321.65,18.46L322.09,18.34L322.36,18.74L322.39,18.42L322.42,18.37L322.58,18.77L322.86,18.28L323.16,18.34L323.19,18.4L323.38,18.29L323.76,18.73L323.9,18.23L323.93,18.27L329.91,17.94L329.94,17.9L331.09,17.96L331.12,17.88L331.31,18.66L331.83,17.91L331.86,17.89L332.16,18.37L332.6,17.91L332.63,17.97L333.94,17.84L333.97,18.23L334.41,17.81L334.6,18.29L334.74,17.87L334.77,17.92L334.79,18.31L335.12,17.85L335.51,18.26L335.53,17.89L345,17.69L345.03,18.05L345.74,17.57L345.82,17.58L345.85,17.59L347.06,17.52L347.09,17.52L349.53,17.37L349.56,18.07L349.91,17.29L350.32,17.32L350.35,17.69L350.57,18L350.96,17.27L351.12,17.31L351.15,17.67L351.56,17.95L351.89,17.21L351.92,17.22L351.94,17.28L352.05,17.23L352.22,17.63L352.68,17.25L352.71,17.26L357.24,17.23L357.27,17.94L357.38,17.16L358.04,17.22L358.06,17.23L359.68,17.23L359.71,17.18L360.89,17.63L360.94,17.21L360.97,17.18L363.58,17.21L363.61,17.15L367.89,17.04L367.91,17.79L368.46,17.01L368.68,17.05L368.71,17.07L370.33,17.04L370.36,17.79L371.12,16.99L371.15,17.07L371.7,16.99L371.73,17.8L371.95,16.92L372.5,16.99L372.52,17L373.02,17.43L373.29,17L373.32,16.95L375.05,16.96L375.08,16.94L375.13,17.37L375.82,17.01L375.84,16.99L377.16,17L377.19,16.94L377.22,17.4L377.24,16.92L377.93,16.98L377.96,16.99L380.37,17.74L380.43,17.01L380.45,16.99L383.42,17.11L383.44,17.51L384.13,17.02L384.21,17.08L384.24,17.41L384.32,17.48L384.95,17.08L385.01,17.09L385.04,17.09L385.15,17.05L385.69,17.5L385.8,17.48L385.83,17.13L387.12,16.98L387.15,17.03L387.18,17.32L387.37,17.39L387.94,16.96L387.97,17.05L389.65,16.94L389.67,17.14L389.87,17.67L390.41,16.91L390.44,16.95L390.47,16.93L391.24,17.29L391.27,16.98L393.49,16.89L393.52,16.87L394.78,17.72L394.94,17.02L394.97,17.01L395,17.67L395.52,16.87L395.71,16.91L395.74,16.86L397.19,16.85L397.22,16.83L398.23,16.85L398.26,16.79L400.38,17.21L400.4,16.77L400.43,17.22L400.92,16.72L401.14,16.74L401.17,16.78L403.37,16.7L403.39,17.81L403.72,16.71L404.13,16.75L404.16,17.91L404.55,16.69L404.93,16.75L404.96,16.75L407.18,16.62L407.21,17.75L407.95,16.62L407.98,16.66L408,16.63L408.17,16.57L408.25,17.34L408.74,16.6L408.77,16.62L408.88,16.56L409.32,18.48L409.51,16.59L409.54,16.57L409.65,18.07L409.92,16.54L410.28,16.55L410.31,16.59L410.45,16.55L410.99,17.03L411.08,16.69L411.1,16.61L411.27,16.54L411.87,16.64L411.9,16.56L412.72,16.93L412.75,16.6L413.13,17.38L413.55,16.56L413.57,16.58L414.12,16.95L414.34,16.59L414.37,16.6L415.3,17.25L415.49,16.56L415.52,16.54L417.36,16.72L417.39,16.57L417.42,16.55L417.8,16.91L418.18,16.51L418.21,16.51L419.34,16.48L419.36,16.45L420.1,17.28L420.16,16.47L420.19,16.53L420.76,17.24L420.98,16.87L421.01,16.52L421.53,16.85L421.56,16.44L421.59,19.46L422.13,16.42L422.35,16.45L422.38,16.43L423.07,17.17L423.18,16.58L423.21,16.43L423.89,16.94L424,16.57L424.03,16.6L424.25,16.47L424.74,16.86L424.77,16.46L424.85,16.92L425.51,16.49L425.54,16.5L425.7,16.46L426.06,16.89L426.28,16.5L426.31,16.52L431.57,16.36L431.6,17.09L432.04,16.31L432.37,16.35L432.4,16.35L437.42,16.29L437.45,17.01L437.86,16.26L438.21,16.32L438.24,16.3L440.57,16.3L440.6,17.08L440.63,17.76L441.07,16.21L441.29,16.29L441.32,16.3L441.4,16.23L441.75,16.71L442.06,16.33L442.08,16.28L442.52,17.06L442.85,16.42L442.88,16.4L449.49,16.51L449.52,18.67L450.07,16.39L450.29,16.45L450.32,16.83L450.84,17.21L450.92,16.4L451.08,16.42L451.11,16.48L451.22,16.35L451.66,16.8L451.85,16.47L451.88,16.41L452.57,16.44L452.59,17.15L452.81,16.35L453.36,16.46L453.39,16.35L453.69,17.17L454.13,16.45L454.16,16.5L455.2,16.49L455.23,16.87L455.89,16.42L456,16.46L456.02,16.45L456.22,16.41L456.71,16.8L456.76,16.45L456.79,16.47L456.87,17.19L456.96,16.44L457.53,16.49L457.56,16.56L458.27,16.45L458.3,17.54L458.79,16.36L459.07,16.45L459.1,16.46L459.29,16.36L459.81,17.48L459.84,16.71L459.86,16.37L460.44,16.77L460.61,16.37L460.63,16.37L462.61,16.27L462.64,17.09L463.05,16.27L463.4,16.33L463.43,16.35L463.82,16.33L463.84,17.1L464.5,16.29L464.64,16.32L464.67,16.26L471.17,16.22L471.2,16.63L471.75,16.18L471.94,16.27L471.97,16.23L475.78,16.47L475.81,17.19L476.55,16.03L476.58,16.07L476.6,16.07L476.74,16.02L477.15,16.85L477.34,16.08L477.37,16.16L477.51,16.07L477.92,16.88L478.14,16.1L478.17,16.18L478.22,16.86L478.28,16.11L478.91,16.1L478.94,16.2L479.73,16.21L479.76,16.61L480.2,16.07L480.55,16.11L480.58,16.46L480.88,16.59L481.32,16.06L481.35,16.14L481.38,16.26L482.23,16.14L482.26,16.51L482.8,17.28L482.83,16.08L483.02,16.17L483.05,16.13L483.16,16.85L483.79,16.13L483.82,16.12L484.62,16.49L484.64,16.14L484.81,16.1L485,16.51L485.38,16.09L485.41,16.16L485.96,16.52L485.99,17.25L486.15,17.59L486.65,16.04L486.76,16.05L486.78,16.06L487.85,16.2L487.91,16.02L487.94,16L490.35,16.31L490.38,17.11L490.95,16.25L491.15,16.38L491.17,16.7L491.94,16.12L491.97,16.51L492.24,16.07L492.38,17.3L492.74,16.22L492.77,16.6L493.53,16.17L493.56,16.24L493.59,16.22L493.97,16.34L494,16.22" style="vector-effect: non-scaling-stroke; fill: none; stroke: rgb(239, 85, 59); stroke-opacity: 1; stroke-width: 2px; opacity: 1;"/></g><g class="points"/><g class="text"/></g></g></g><g class="overplot"/><path class="xlines-above crisp" d="M0,0" style="fill: none;"/><path class="ylines-above crisp" d="M0,0" style="fill: none;"/><g class="overlines-above"/><g class="xaxislayer-above"><g class="xtick"><text text-anchor="middle" x="0" y="433" transform="translate(80,0)" style="font-family: 'Open Sans', verdana, arial, sans-serif; font-size: 12px; fill: rgb(42, 63, 95); fill-opacity: 1; white-space: pre; opacity: 1;">0</text></g><g class="xtick"><text text-anchor="middle" x="0" y="433" style="font-family: 'Open Sans', verdana, arial, sans-serif; font-size: 12px; fill: rgb(42, 63, 95); fill-opacity: 1; white-space: pre; opacity: 1;" transform="translate(217.2,0)">5k</text></g><g class="xtick"><text text-anchor="middle" x="0" y="433" style="font-family: 'Open Sans', verdana, arial, sans-serif; font-size: 12px; fill: rgb(42, 63, 95); fill-opacity: 1; white-space: pre; opacity: 1;" transform="translate(354.4,0)">10k</text></g><g class="xtick"><text text-anchor="middle" x="0" y="433" style="font-family: 'Open Sans', verdana, arial, sans-serif; font-size: 12px; fill: rgb(42, 63, 95); fill-opacity: 1; white-space: pre; opacity: 1;" transform="translate(491.6,0)">15k</text></g></g><g class="yaxislayer-above"><g class="ytick"><text text-anchor="end" x="79" y="4.199999999999999" transform="translate(0,404.72)" style="font-family: 'Open Sans', verdana, arial, sans-serif; font-size: 12px; fill: rgb(42, 63, 95); fill-opacity: 1; white-space: pre; opacity: 1;">−800</text></g><g class="ytick"><text text-anchor="end" x="79" y="4.199999999999999" style="font-family: 'Open Sans', verdana, arial, sans-serif; font-size: 12px; fill: rgb(42, 63, 95); fill-opacity: 1; white-space: pre; opacity: 1;" transform="translate(0,333.81)">−600</text></g><g class="ytick"><text text-anchor="end" x="79" y="4.199999999999999" style="font-family: 'Open Sans', verdana, arial, sans-serif; font-size: 12px; fill: rgb(42, 63, 95); fill-opacity: 1; white-space: pre; opacity: 1;" transform="translate(0,262.89)">−400</text></g><g class="ytick"><text text-anchor="end" x="79" y="4.199999999999999" style="font-family: 'Open Sans', verdana, arial, sans-serif; font-size: 12px; fill: rgb(42, 63, 95); fill-opacity: 1; white-space: pre; opacity: 1;" transform="translate(0,191.98000000000002)">−200</text></g><g class="ytick"><text text-anchor="end" x="79" y="4.199999999999999" style="font-family: 'Open Sans', verdana, arial, sans-serif; font-size: 12px; fill: rgb(42, 63, 95); fill-opacity: 1; white-space: pre; opacity: 1;" transform="translate(0,121.06)">0</text></g></g><g class="overaxes-above"/></g></g><g class="polarlayer"/><g class="smithlayer"/><g class="ternarylayer"/><g class="geolayer"/><g class="funnelarealayer"/><g class="pielayer"/><g class="iciclelayer"/><g class="treemaplayer"/><g class="sunburstlayer"/><g class="glimages"/><defs id="topdefs-ed773a"><g class="clips"/><clipPath id="legended773a"><rect width="104" height="55" x="0" y="0"/></clipPath></defs><g class="layer-above"><g class="imagelayer"/><g class="shapelayer"/></g><g class="infolayer"><g class="legend" pointer-events="all" transform="translate(583.88,100)"><rect class="bg" shape-rendering="crispEdges" width="104" height="55" x="0" y="0" style="stroke: rgb(68, 68, 68); stroke-opacity: 1; fill: rgb(255, 255, 255); fill-opacity: 1; stroke-width: 0px;"/><g class="scrollbox" transform="" clip-path="url(#legended773a)"><g class="groups"><g class="traces" transform="translate(0,16.25)" style="opacity: 1;"><text class="legendtext" text-anchor="start" x="40" y="5.85" style="font-family: 'Open Sans', verdana, arial, sans-serif; font-size: 15px; fill: rgb(42, 63, 95); fill-opacity: 1; white-space: pre;">Agent 1</text><g class="layers" style="opacity: 1;"><g class="legendfill"/><g class="legendlines"><path class="js-line" d="M5,0h30" style="fill: none; stroke: rgb(99, 110, 250); stroke-opacity: 1; stroke-width: 2px;"/></g><g class="legendsymbols"><g class="legendpoints"/></g></g><rect class="legendtoggle" x="0" y="-11.25" width="98.75" height="22.5" style="fill: rgb(0, 0, 0); fill-opacity: 0;"/></g><g class="traces" transform="translate(0,38.75)" style="opacity: 1;"><text class="legendtext" text-anchor="start" x="40" y="5.85" style="font-family: 'Open Sans', verdana, arial, sans-serif; font-size: 15px; fill: rgb(42, 63, 95); fill-opacity: 1; white-space: pre;">Agent 2</text><g class="layers" style="opacity: 1;"><g class="legendfill"/><g class="legendlines"><path class="js-line" d="M5,0h30" style="fill: none; stroke: rgb(239, 85, 59); stroke-opacity: 1; stroke-width: 2px;"/></g><g class="legendsymbols"><g class="legendpoints"/></g></g><rect class="legendtoggle" x="0" y="-11.25" width="98.75" height="22.5" style="fill: rgb(0, 0, 0); fill-opacity: 0;"/></g></g></g><rect class="scrollbar" rx="20" ry="3" width="0" height="0" x="0" y="0" style="fill: rgb(128, 139, 164); fill-opacity: 1;"/></g><g class="g-gtitle"/><g class="g-xtitle"><text class="xtitle" x="327" y="460.3" text-anchor="middle" style="font-family: 'Open Sans', verdana, arial, sans-serif; font-size: 14px; fill: rgb(42, 63, 95); opacity: 1; font-weight: normal; white-space: pre;">Episode</text></g><g class="g-ytitle"><text class="ytitle" transform="rotate(-90,21.481250000000003,260)" x="21.481250000000003" y="260" text-anchor="middle" style="font-family: 'Open Sans', verdana, arial, sans-serif; font-size: 14px; fill: rgb(42, 63, 95); opacity: 1; font-weight: normal; white-space: pre;">Totall Rewards Collected During Episode</text></g></g></svg>