<svg class="main-svg" xmlns="http://www.w3.org/2000/svg" xmlns:xlink="http://www.w3.org/1999/xlink" width="1200" height="900" style="" viewBox="0 0 1200 900"><rect x="0" y="0" width="1200" height="900" style="fill: rgb(255, 255, 255); fill-opacity: 1;"/><defs id="defs-7750c4"><g class="clips"><clipPath id="clip7750c4xyplot" class="plotclip"><rect width="974" height="160"/></clipPath><clipPath id="clip7750c4x2y2plot" class="plotclip"><rect width="974" height="160.00000000000003"/></clipPath><clipPath id="clip7750c4x3y3plot" class="plotclip"><rect width="974" height="160"/></clipPath><clipPath class="axesclip" id="clip7750c4x"><rect x="80" y="0" width="974" height="900"/></clipPath><clipPath class="axesclip" id="clip7750c4y"><rect x="0" y="100" width="1200" height="160"/></clipPath><clipPath class="axesclip" id="clip7750c4xy"><rect x="80" y="100" width="974" height="160"/></clipPath><clipPath class="axesclip" id="clip7750c4y2"><rect x="0" y="379.99999999999994" width="1200" height="160.00000000000003"/></clipPath><clipPath class="axesclip" id="clip7750c4xy2"><rect x="80" y="379.99999999999994" width="974" height="160.00000000000003"/></clipPath><clipPath class="axesclip" id="clip7750c4y3"><rect x="0" y="660" width="1200" height="160"/></clipPath><clipPath class="axesclip" id="clip7750c4xy3"><rect x="80" y="660" width="974" height="160"/></clipPath><clipPath class="axesclip" id="clip7750c4x2"><rect x="80" y="0" width="974" height="900"/></clipPath><clipPath class="axesclip" id="clip7750c4x2y"><rect x="80" y="100" width="974" height="160"/></clipPath><clipPath class="axesclip" id="clip7750c4x2y2"><rect x="80" y="379.99999999999994" width="974" height="160.00000000000003"/></clipPath><clipPath class="axesclip" id="clip7750c4x2y3"><rect x="80" y="660" width="974" height="160"/></clipPath><clipPath class="axesclip" id="clip7750c4x3"><rect x="80" y="0" width="974" height="900"/></clipPath><clipPath class="axesclip" id="clip7750c4x3y"><rect x="80" y="100" width="974" height="160"/></clipPath><clipPath class="axesclip" id="clip7750c4x3y2"><rect x="80" y="379.99999999999994" width="974" height="160.00000000000003"/></clipPath><clipPath class="axesclip" id="clip7750c4x3y3"><rect x="80" y="660" width="974" height="160"/></clipPath></g><g class="gradients"/><g class="patterns"/></defs><g class="bglayer"><rect class="bg" x="80" y="100" width="974" height="160" style="fill: rgb(229, 236, 246); fill-opacity: 1; stroke-width: 0;"/><rect class="bg" x="80" y="379.99999999999994" width="974" height="160.00000000000003" style="fill: rgb(229, 236, 246); fill-opacity: 1; stroke-width: 0;"/><rect class="bg" x="80" y="660" width="974" height="160" style="fill: rgb(229, 236, 246); fill-opacity: 1; stroke-width: 0;"/></g><g class="layer-below"><g class="imagelayer"/><g class="shapelayer"/></g><g class="cartesianlayer"><g class="subplot xy"><g class="layer-subplot"><g class="shapelayer"/><g class="imagelayer"/></g><g class="minor-gridlayer"><g class="x"/><g class="y"/></g><g class="gridlayer"><g class="x"><path class="xgrid crisp" transform="translate(201.78,0)" d="M0,100v160" style="stroke: rgb(255, 255, 255); stroke-opacity: 1; stroke-width: 1px;"/><path class="xgrid crisp" transform="translate(323.56,0)" d="M0,100v160" style="stroke: rgb(255, 255, 255); stroke-opacity: 1; stroke-width: 1px;"/><path class="xgrid crisp" transform="translate(445.34,0)" d="M0,100v160" style="stroke: rgb(255, 255, 255); stroke-opacity: 1; stroke-width: 1px;"/><path class="xgrid crisp" transform="translate(567.12,0)" d="M0,100v160" style="stroke: rgb(255, 255, 255); stroke-opacity: 1; stroke-width: 1px;"/><path class="xgrid crisp" transform="translate(688.9,0)" d="M0,100v160" style="stroke: rgb(255, 255, 255); stroke-opacity: 1; stroke-width: 1px;"/><path class="xgrid crisp" transform="translate(810.68,0)" d="M0,100v160" style="stroke: rgb(255, 255, 255); stroke-opacity: 1; stroke-width: 1px;"/><path class="xgrid crisp" transform="translate(932.46,0)" d="M0,100v160" style="stroke: rgb(255, 255, 255); stroke-opacity: 1; stroke-width: 1px;"/></g><g class="y"><path class="ygrid crisp" transform="translate(0,182.13)" d="M80,0h974" style="stroke: rgb(255, 255, 255); stroke-opacity: 1; stroke-width: 1px;"/><path class="ygrid crisp" transform="translate(0,108)" d="M80,0h974" style="stroke: rgb(255, 255, 255); stroke-opacity: 1; stroke-width: 1px;"/></g></g><g class="zerolinelayer"><path class="xzl zl crisp" transform="translate(80,0)" d="M0,100v160" style="stroke: rgb(255, 255, 255); stroke-opacity: 1; stroke-width: 2px;"/><path class="yzl zl crisp" transform="translate(0,256.27)" d="M80,0h974" style="stroke: rgb(255, 255, 255); stroke-opacity: 1; stroke-width: 2px;"/></g><path class="xlines-below"/><path class="ylines-below"/><g class="overlines-below"/><g class="xaxislayer-below"/><g class="yaxislayer-below"/><g class="overaxes-below"/><g class="plot" transform="translate(80,100)" clip-path="url(#clip7750c4xyplot)"><g class="scatterlayer mlayer"><g class="trace scatter trace46809e" style="stroke-miterlimit: 2; opacity: 1;"><g class="fills"/><g class="errorbars"/><g class="lines"><path class="js-line" d="M0,8L25.09,10.83L25.33,10.87L51.88,16L52.12,16.06L79.89,23.46L80.13,23.54L112.53,34.62L112.77,34.72L126.9,40.22L127.14,40.33L136.39,44.2L136.64,44.31L155.64,53.01L155.88,53.15L172.2,61.99L172.44,62.15L181.21,69.61L181.45,69.85L189.73,78.45L189.98,78.73L198.99,89.99L199.23,90.35L235.28,143L235.52,143.19L243.32,151.25L243.56,8L267.67,10.74L267.92,10.78L294.71,15.97L294.95,16.03L321.5,23.13L321.74,23.21L351.95,33.59L352.19,33.7L391.89,50.72L392.13,50.85L412.84,61.59L413.08,61.74L423.8,69.7L424.04,69.94L435.24,82.11L435.49,82.42L449.86,102.02L450.1,102.38L461.55,120.03L461.79,120.36L477.62,141.38L477.87,141.7L486.39,151.58L486.63,151.78L486.88,152L487.12,8L510.75,10.64L510.99,10.67L539.24,16.07L539.49,16.13L567.98,23.9L568.23,23.98L617.18,42.42L617.43,42.53L640.32,52.81L640.57,52.96L659.32,62.79L659.56,63.01L671.74,73.04L671.98,73.27L676.86,78.52L677.1,78.81L686.6,90.96L686.84,91.33L710.47,124.66L710.71,124.99L720.21,138L720.45,138.42L725.32,144.39L725.57,144.63L730.44,148.48L730.68,8L754.55,10.66L754.8,10.7L770.14,13.37L770.38,13.42L783.29,16.24L783.54,16.3L799.85,20.46L800.1,20.52L815.2,25.06L815.44,25.14L830.3,30.07L830.54,30.15L863.91,42.87L864.15,42.96L882.66,51.16L882.91,51.27L890.46,54.89L890.7,55.02L907.51,66.06L907.75,66.26L918.71,77.18L918.96,77.46L929.67,91.02L929.92,91.38L934.54,97.89L934.79,98.23L960.36,135.29L960.6,135.56L972.78,150.67L973.03,150.85L974,151.66" style="vector-effect: non-scaling-stroke; fill: none; stroke: rgb(99, 110, 250); stroke-opacity: 1; stroke-width: 2px; opacity: 1;"/></g><g class="points"/><g class="text"/></g></g></g><g class="overplot"/><path class="xlines-above crisp" d="M0,0" style="fill: none;"/><path class="ylines-above crisp" d="M0,0" style="fill: none;"/><g class="overlines-above"/><g class="xaxislayer-above"><g class="xtick"><text text-anchor="middle" x="0" y="273" transform="translate(80,0)" style="font-family: 'Open Sans', verdana, arial, sans-serif; font-size: 12px; fill: rgb(42, 63, 95); fill-opacity: 1; white-space: pre; opacity: 1;">0</text></g><g class="xtick"><text text-anchor="middle" x="0" y="273" style="font-family: 'Open Sans', verdana, arial, sans-serif; font-size: 12px; fill: rgb(42, 63, 95); fill-opacity: 1; white-space: pre; opacity: 1;" transform="translate(201.78,0)">500</text></g><g class="xtick"><text text-anchor="middle" x="0" y="273" style="font-family: 'Open Sans', verdana, arial, sans-serif; font-size: 12px; fill: rgb(42, 63, 95); fill-opacity: 1; white-space: pre; opacity: 1;" transform="translate(323.56,0)">1000</text></g><g class="xtick"><text text-anchor="middle" x="0" y="273" style="font-family: 'Open Sans', verdana, arial, sans-serif; font-size: 12px; fill: rgb(42, 63, 95); fill-opacity: 1; white-space: pre; opacity: 1;" transform="translate(445.34,0)">1500</text></g><g class="xtick"><text text-anchor="middle" x="0" y="273" style="font-family: 'Open Sans', verdana, arial, sans-serif; font-size: 12px; fill: rgb(42, 63, 95); fill-opacity: 1; white-space: pre; opacity: 1;" transform="translate(567.12,0)">2000</text></g><g class="xtick"><text text-anchor="middle" x="0" y="273" style="font-family: 'Open Sans', verdana, arial, sans-serif; font-size: 12px; fill: rgb(42, 63, 95); fill-opacity: 1; white-space: pre; opacity: 1;" transform="translate(688.9,0)">2500</text></g><g class="xtick"><text text-anchor="middle" x="0" y="273" style="font-family: 'Open Sans', verdana, arial, sans-serif; font-size: 12px; fill: rgb(42, 63, 95); fill-opacity: 1; white-space: pre; opacity: 1;" transform="translate(810.68,0)">3000</text></g><g class="xtick"><text text-anchor="middle" x="0" y="273" style="font-family: 'Open Sans', verdana, arial, sans-serif; font-size: 12px; fill: rgb(42, 63, 95); fill-opacity: 1; white-space: pre; opacity: 1;" transform="translate(932.46,0)">3500</text></g></g><g class="yaxislayer-above"><g class="ytick"><text text-anchor="end" x="79" y="4.199999999999999" transform="translate(0,256.27)" style="font-family: 'Open Sans', verdana, arial, sans-serif; font-size: 12px; fill: rgb(42, 63, 95); fill-opacity: 1; white-space: pre; opacity: 1;">0</text></g><g class="ytick"><text text-anchor="end" x="79" y="4.199999999999999" style="font-family: 'Open Sans', verdana, arial, sans-serif; font-size: 12px; fill: rgb(42, 63, 95); fill-opacity: 1; white-space: pre; opacity: 1;" transform="translate(0,182.13)">50</text></g><g class="ytick"><text text-anchor="end" x="79" y="4.199999999999999" style="font-family: 'Open Sans', verdana, arial, sans-serif; font-size: 12px; fill: rgb(42, 63, 95); fill-opacity: 1; white-space: pre; opacity: 1;" transform="translate(0,108)">100</text></g></g><g class="overaxes-above"/></g><g class="subplot x2y2"><g class="layer-subplot"><g class="shapelayer"/><g class="imagelayer"/></g><g class="minor-gridlayer"><g class="x2"/><g class="y2"/></g><g class="gridlayer"><g class="x2"><path class="x2grid crisp" transform="translate(201.78,0)" d="M0,379.99999999999994v160.00000000000003" style="stroke: rgb(255, 255, 255); stroke-opacity: 1; stroke-width: 1px;"/><path class="x2grid crisp" transform="translate(323.56,0)" d="M0,379.99999999999994v160.00000000000003" style="stroke: rgb(255, 255, 255); stroke-opacity: 1; stroke-width: 1px;"/><path class="x2grid crisp" transform="translate(445.34,0)" d="M0,379.99999999999994v160.00000000000003" style="stroke: rgb(255, 255, 255); stroke-opacity: 1; stroke-width: 1px;"/><path class="x2grid crisp" transform="translate(567.12,0)" d="M0,379.99999999999994v160.00000000000003" style="stroke: rgb(255, 255, 255); stroke-opacity: 1; stroke-width: 1px;"/><path class="x2grid crisp" transform="translate(688.9,0)" d="M0,379.99999999999994v160.00000000000003" style="stroke: rgb(255, 255, 255); stroke-opacity: 1; stroke-width: 1px;"/><path class="x2grid crisp" transform="translate(810.68,0)" d="M0,379.99999999999994v160.00000000000003" style="stroke: rgb(255, 255, 255); stroke-opacity: 1; stroke-width: 1px;"/><path class="x2grid crisp" transform="translate(932.46,0)" d="M0,379.99999999999994v160.00000000000003" style="stroke: rgb(255, 255, 255); stroke-opacity: 1; stroke-width: 1px;"/></g><g class="y2"><path class="y2grid crisp" transform="translate(0,478.06999999999994)" d="M80,0h974" style="stroke: rgb(255, 255, 255); stroke-opacity: 1; stroke-width: 1px;"/><path class="y2grid crisp" transform="translate(0,424.13999999999993)" d="M80,0h974" style="stroke: rgb(255, 255, 255); stroke-opacity: 1; stroke-width: 1px;"/></g></g><g class="zerolinelayer"><path class="x2zl zl crisp" transform="translate(80,0)" d="M0,379.99999999999994v160.00000000000003" style="stroke: rgb(255, 255, 255); stroke-opacity: 1; stroke-width: 2px;"/><path class="y2zl zl crisp" transform="translate(0,532)" d="M80,0h974" style="stroke: rgb(255, 255, 255); stroke-opacity: 1; stroke-width: 2px;"/></g><path class="xlines-below"/><path class="ylines-below"/><g class="overlines-below"/><g class="xaxislayer-below"/><g class="yaxislayer-below"/><g class="overaxes-below"/><g class="plot" transform="translate(80,379.99999999999994)" clip-path="url(#clip7750c4x2y2plot)"><g class="scatterlayer mlayer"><g class="trace scatter trace3bb415" style="stroke-miterlimit: 2; opacity: 1;"><g class="fills"/><g class="errorbars"/><g class="lines"><path class="js-line" d="M0,152L11.2,145.27L11.45,145.17L16.32,142.82L16.56,142.7L20.7,140.85L20.95,140.79L28.25,138.76L28.5,138.78L35.8,137.02L36.05,137.04L46.52,135.53L46.76,135.54L48.47,135.48L48.71,135.46L52.37,135.4L52.61,135.26L57.48,134.4L57.72,134.52L60.16,134.38L60.4,134.4L62.11,134.38L62.35,134.28L66.98,133.99L67.22,133.91L69.9,134.44L70.15,134.46L72.34,134.2L72.58,134.19L74.29,134.15L74.53,134.1L76.72,134.17L76.97,134.16L83.78,134.59L84.03,134.45L89.14,134.14L89.39,134.23L90.6,134.22L90.85,134.29L92.31,134.06L92.55,133.98L95.48,134.33L95.72,134.23L97.18,134.95L97.42,135.04L102.78,135.6L103.03,135.7L104,135.81L104.24,135.82L111.06,137.05L111.31,137.04L113.99,137.42L114.23,137.25L116.67,137.74L116.91,137.82L121.29,137.44L121.54,137.57L127.63,139.29L127.87,139.2L130.06,139.25L130.31,139.32L131.28,139.06L131.52,138.95L134.2,139.19L134.45,139.21L142.48,139.8L142.73,139.71L145.16,140.1L145.41,140.25L146.38,140.1L146.62,140.14L149.3,140.52L149.55,140.37L150.52,140.67L150.76,140.58L156.61,141.21L156.85,140.98L159.29,141.43L159.53,141.35L160.99,141.88L161.24,141.59L162.94,140.91L163.19,140.87L164.65,142.02L164.89,141.93L166.11,141.3L166.35,141.29L167.81,141.64L168.06,141.73L169.03,141.66L169.27,141.2L170.25,141.08L170.49,140.71L171.71,141.04L171.95,140.71L172.68,140.42L172.93,139.94L174.88,139.39L175.12,139.5L178.53,137.18L178.77,137.2L179.26,137.04L179.5,137.4L179.75,137.45L182.18,135.73L182.43,136L182.91,136.55L183.16,136.27L183.4,135.95L185.11,136.64L185.35,136.53L188.03,135.84L188.27,135.55L189.98,134.57L190.22,135.18L191.44,134.98L191.68,134.42L192.41,134.5L192.66,134.44L193.39,133.46L193.63,134.15L193.87,134.1L195.09,134.46L195.34,134.01L196.8,133.52L197.04,133.72L198.75,133.78L198.99,133.11L200.21,132.98L200.45,133.31L200.69,133.16L200.94,133.67L201.18,134.27L202.64,134.23L202.89,134.21L204.59,134.36L204.83,134.55L205.81,135.02L206.05,135.08L210.68,135.41L210.92,136.18L211.41,135.52L211.65,136.4L211.9,136.86L213.6,135.53L213.85,135.27L215.31,134.21L215.55,134.74L217.99,134.13L218.23,134.51L218.96,134.93L219.2,135.59L219.94,134.92L220.18,135.82L221.15,134.73L221.4,135.07L222.61,136.03L222.86,135.76L223.1,135.35L223.35,135.14L223.59,135.88L223.83,136.15L225.05,137.19L225.29,137.4L227,139.39L227.24,138.17L227.49,138.46L227.73,137.76L227.97,137.33L228.7,137.89L228.95,138.84L229.19,139.46L229.68,138.77L229.92,138.96L232.11,140.15L232.36,139.82L233.82,142.03L234.06,142.06L234.55,142.74L234.79,141.89L235.04,141.43L235.28,141.28L235.52,141.86L235.77,141.99L236.01,141.81L236.25,142.59L236.5,143.14L236.74,142.95L236.98,142.35L237.47,142.67L237.72,141.64L238.2,142.89L238.45,141.82L238.69,141.19L239.42,141.96L239.66,142.72L240.39,144.07L240.64,143.65L240.88,143.71L241.86,144.24L242.1,143.87L243.07,144.9L243.32,144.54L243.56,152L248.43,148.55L248.68,148.36L254.03,145.03L254.28,144.95L257.44,143.44L257.69,143.34L263.29,140.88L263.53,140.82L265.97,140.02L266.21,139.93L269.62,138.95L269.87,138.9L272.79,138.18L273.03,138.19L285.45,135.95L285.7,135.89L308.84,134.25L309.08,134.36L325.15,134.37L325.4,134.41L327.83,134.38L328.08,134.43L336.36,135.03L336.6,134.95L339.77,135.17L340.01,135.35L344.88,136.53L345.13,136.54L346.59,136.59L346.83,136.71L350.48,136.94L350.73,136.84L352.19,137.04L352.43,137.15L357.79,136.89L358.03,136.67L359.25,137L359.5,136.92L367.53,137.94L367.78,138.18L368.75,138.46L368.99,138.47L372.89,138.36L373.14,138.2L375.08,138.4L375.33,138.43L376.55,138.32L376.79,138.36L379.71,138.98L379.95,138.95L381.17,138.84L381.42,138.55L383.61,138.38L383.85,138.07L386.29,138.8L386.53,138.99L388.24,139.59L388.48,139.62L391.16,139.93L391.4,139.61L392.86,139.8L393.11,139.91L396.03,140.68L396.27,140.44L397.25,140.95L397.49,140.78L399.2,140.82L399.44,140.49L400.66,139.96L400.9,139.85L401.63,140.11L401.88,140.03L404.07,141.01L404.31,140.8L405.77,141.37L406.02,141.28L407.48,141.35L407.72,141.14L408.94,141.2L409.18,141.37L410.64,141.18L410.89,140.96L412.11,141.33L412.35,140.82L416,140.58L416.25,140.65L418.19,140.45L418.44,140.13L419.66,139.91L419.9,139.56L426.96,136.43L427.21,136.13L428.42,136.08L428.67,136.3L430.62,136.14L430.86,135.67L431.83,135.67L432.08,135.59L432.81,135.16L433.05,134.96L433.78,135.46L434.03,135.46L435,135.39L435.24,135.01L436.46,134.02L436.7,134.12L437.44,134.69L437.68,134.87L438.41,134.48L438.65,134.33L439.87,133.71L440.11,133.62L440.85,133.69L441.09,134.25L442.06,134.73L442.31,134.41L443.52,134.75L443.77,134.23L446.45,132.97L446.69,133.65L447.18,133.91L447.42,134.74L448.4,134.66L448.64,135.15L449.86,135.41L450.1,135.05L451.56,133.23L451.81,133.88L452.29,133.98L452.54,133.69L452.78,133.3L453.27,132.2L453.51,132.69L453.75,133.14L454.24,133.14L454.48,133.6L455.46,133.74L455.7,133.46L456.92,133.46L457.16,133.44L458.63,134.29L458.87,134.16L459.36,133.71L459.6,134.28L459.84,134.39L460.82,135.85L461.06,136.05L463.01,138.17L463.25,137.39L463.5,136.61L463.98,137.13L464.23,137.97L465.44,139.21L465.69,139.5L466.42,139.05L466.66,139.24L466.91,139.12L469.1,141.8L469.34,141.13L470.32,140.73L470.56,140.74L471.29,141.49L471.53,141.98L471.78,142.81L472.26,142.07L472.51,142.12L473.24,141.52L473.48,141.24L474.21,140.67L474.46,140.89L474.7,141.81L475.19,141.52L475.43,142L475.67,142.31L476.89,140.71L477.14,141.45L477.62,142.19L477.87,141.66L478.11,141.89L478.84,142.93L479.08,141.45L480.06,141.57L480.3,141.53L480.79,142.35L481.03,141.74L481.28,141.15L483.22,142.3L483.47,142.03L484.2,140.83L484.44,141.11L484.69,141.22L485.42,140.91L485.66,141.48L486.63,140.58L486.88,141.54L487.12,152L487.85,151.45L488.1,151.26L494.67,146.96L494.92,146.78L507.09,141.19L507.34,141.12L520.98,137.33L521.22,137.3L548.26,134.31L548.5,134.48L554.59,133.91L554.83,134.06L558.24,134.46L558.49,134.55L563.11,134.53L563.36,134.64L574.8,134.94L575.05,134.88L576.51,135L576.75,135.12L578.7,135.06L578.94,135.09L586.98,135.86L587.23,135.62L588.69,135.63L588.93,135.68L598.19,136.78L598.43,136.91L603.54,137.36L603.79,137.44L605.25,137.54L605.49,137.62L607.2,137.56L607.44,137.63L614.26,139.3L614.5,139.24L617.43,139.43L617.67,139.38L619.62,139.48L619.86,139.62L622.05,139.99L622.3,140.1L624.49,139.79L624.73,139.52L626.68,139.34L626.93,139.12L627.9,139.18L628.14,138.97L629.12,139.18L629.36,139.17L630.82,139.84L631.07,139.82L634.96,140.62L635.21,140.78L636.67,141.24L636.91,140.96L638.37,141.65L638.62,141.74L640.32,141.41L640.57,141.19L642.27,141.58L642.51,141.6L643.97,141.8L644.22,142.07L648.12,142.32L648.36,141.93L649.58,141.61L649.82,141.8L651.28,141.55L651.53,141.38L654.45,140.85L654.69,141.05L656.15,140.24L656.4,140.67L658.35,140.68L658.59,140.19L659.32,140.07L659.56,139.7L660.78,140.38L661.02,140.24L663.7,139.13L663.95,139.31L664.92,139.62L665.16,139.69L666.14,139.59L666.38,139.81L667.36,139.99L667.6,139.89L668.33,139.7L668.57,139.28L669.79,138.69L670.04,138.28L671.01,138.17L671.25,137.83L672.96,136.08L673.2,135.76L674.18,135.41L674.42,135L675.64,135.17L675.88,135.13L677.59,133.64L677.83,133.65L679.53,133.06L679.78,133.1L680.51,133.96L680.75,133.53L681.48,132.86L681.73,132.33L682.46,132.84L682.7,133.64L683.92,134L684.16,133.99L684.89,133.81L685.14,133.91L686.6,133.24L686.84,133.62L687.57,134.12L687.82,134.36L689.52,134.22L689.76,134.9L692.2,134.66L692.44,134.1L693.42,135.43L693.66,135.47L695.12,136.96L695.37,136.47L695.61,136.2L697.31,136.48L697.56,135.87L698.29,135.69L698.53,135.24L698.78,135.71L699.02,135.22L699.26,134.77L699.51,135.31L699.99,134.8L700.24,134.9L701.46,136.26L701.7,136.28L702.92,137.5L703.16,137.45L704.38,137.03L704.62,137.88L705.6,138.39L705.84,138.01L706.08,138.47L706.57,138.08L706.81,137.49L707.3,138.08L707.54,137.25L707.79,136.51L708.28,137.01L708.52,136.87L709.01,136.48L709.25,137.5L709.49,138.02L709.74,137.34L709.98,136.83L710.71,138.13L710.95,137.77L711.2,138.03L712.17,138.54L712.42,138.47L713.88,135.4L714.12,135.3L716.07,139.49L716.31,140.44L718.02,139.88L718.26,140.25L719.24,139.63L719.48,139.65L719.97,140.41L720.21,138.93L720.45,138.57L720.7,138.97L720.94,139.23L722.16,141.41L722.4,140.93L722.65,140.29L722.89,140.49L723.13,141.2L723.62,140.34L723.86,140.98L724.11,141.66L724.35,141.52L724.59,141.97L724.84,142.42L726.3,144.17L726.54,143.85L726.79,143.29L728,142.15L728.25,142.61L728.49,142.88L729.22,142.46L729.46,142.96L729.95,143.31L730.2,142.9L730.44,142.61L730.68,152L731.41,151.38L731.66,151.12L745.05,143.41L745.3,143.36L758.94,138.7L759.18,138.7L764.54,137.49L764.78,137.46L767.95,136.77L768.19,136.78L770.14,136.5L770.38,136.49L777.2,134.99L777.45,134.87L785.73,134.3L785.97,134.24L789.14,134.08L789.38,134.04L791.09,134.14L791.33,134.17L799.61,134.19L799.85,134.28L802.78,134.6L803.02,134.59L807.16,134.45L807.4,134.43L810.57,134.86L810.81,134.94L815.93,135.3L816.17,135.25L820.07,134.96L820.31,135.01L823.48,135.5L823.72,135.42L825.43,135.75L825.67,135.75L839.55,137.79L839.8,137.74L841.26,137.77L841.5,137.56L845.64,137.36L845.89,137.55L859.04,139.11L859.28,139.1L860.5,138.68L860.74,138.74L862.69,139.72L862.94,139.85L867.56,140.51L867.81,140.33L869.51,139.88L869.76,139.95L870.97,140.15L871.22,140.19L879.5,140.67L879.74,140.99L881.45,140.68L881.69,140.76L882.91,140.99L883.15,141.31L886.07,140.57L886.32,140.67L888.75,141.24L889,141.25L891.19,140.68L891.43,140.91L895.33,140.19L895.57,140.42L896.55,141.05L896.79,140.77L897.03,140.75L900.93,139.7L901.18,139.42L903.12,138.66L903.37,138.4L906.29,137.44L906.53,137.3L907.51,137.29L907.75,137.16L908.48,137.28L908.73,137.6L909.7,137.82L909.94,137.61L910.92,136.85L911.16,136.66L913.11,135.87L913.35,135.49L913.84,135.5L914.08,136.06L915.79,135.96L916.03,136.16L917.49,135.22L917.74,135.45L919.44,134.4L919.69,134.32L920.66,134.36L920.9,134.24L921.63,135L921.88,134.62L922.85,134.86L923.1,134.38L924.8,133.13L925.04,133.48L926.26,133.39L926.51,133.73L927.72,133.77L927.97,133.74L929.92,133.69L930.16,133.96L932.35,134.6L932.59,134.46L934.06,134.37L934.3,134.39L935.03,134.56L935.27,134.96L936.25,135.68L936.49,135.32L938.2,134.72L938.44,134.51L939.9,134.33L940.15,134.47L941.12,134.52L941.36,134.64L941.61,134.49L941.85,135.14L942.09,135.09L942.34,134.81L942.58,135.13L942.82,135.54L943.55,134.05L943.8,134.31L944.04,134.77L945.5,135.89L945.75,135.3L949.4,136.96L949.64,136.8L950.37,137.12L950.62,137.23L951.35,136.97L951.59,137.9L953.78,137.37L954.03,137.7L954.76,137.69L955,138.31L956.46,139.68L956.71,139.27L956.95,139.29L957.92,139.36L958.17,139.65L958.41,139.96L958.66,139.52L958.9,139.31L960.6,140.8L960.85,140.27L961.09,139.74L961.33,139.48L961.58,139.83L961.82,140.11L963.04,141.36L963.28,140.5L963.53,140.39L963.77,141.04L964.01,141.52L964.5,141.76L964.74,140.79L964.99,140.35L965.23,141.01L965.48,141.48L965.96,140.86L966.21,141.6L967.18,141.32L967.42,142.13L968.15,141.52L968.4,142.53L968.64,142.82L968.89,142.07L969.13,141.85L969.86,142.2L970.1,142.19L972.05,143.91L972.3,143.49L973.03,143.32L973.27,143.76L974,143.45" style="vector-effect: non-scaling-stroke; fill: none; stroke: rgb(239, 85, 59); stroke-opacity: 1; stroke-width: 2px; opacity: 1;"/></g><g class="points"/><g class="text"/></g><g class="trace scatter trace48aa36" style="stroke-miterlimit: 2; opacity: 1;"><g class="fills"/><g class="errorbars"/><g class="lines"><path class="js-line" d="M0,152L12.18,142.91L12.42,142.78L17.29,140.17L17.54,140.06L34.59,134.18L34.83,134.15L45.06,131.49L45.3,131.47L48.71,131L48.96,131.04L63.08,128.57L63.33,128.34L65.76,127.21L66.01,127.24L76.97,124.05L77.21,123.9L78.43,123.6L78.67,123.41L81.59,122.24L81.84,122.14L83.3,121.7L83.54,121.5L84.76,121.35L85,121.09L97.18,114.91L97.42,114.96L101.32,111.98L101.56,111.9L104.73,110.17L104.97,110.25L107.65,108.69L107.9,108.33L109.12,107.67L109.36,107.34L110.33,107.33L110.58,107.1L112.77,105.64L113.01,105.14L115.69,102L115.93,101.85L117.4,100.23L117.64,99.99L118.86,99.49L119.1,99.27L120.08,99.13L120.32,98.78L121.54,98.16L121.78,97.71L123.97,96.49L124.22,96.01L124.7,95.49L124.95,95L126.41,93.89L126.65,93.54L130.55,89.61L130.79,89.66L133.23,87.39L133.47,87.37L136.15,84.3L136.39,84.64L140.05,81.95L140.29,81.81L141.51,80.7L141.75,80.26L143.7,77.41L143.94,77.11L145.41,75.1L145.65,74.76L146.38,74.22L146.62,73.91L147.6,72.71L147.84,72.28L155.39,59.58L155.64,59.16L158.31,53.31L158.56,52.43L163.43,43.26L163.67,42.5L163.92,42.45L164.16,41.62L164.89,40.93L165.13,40.11L168.3,32.45L168.54,32.25L169.27,31.53L169.52,31.01L170.98,27.22L171.22,26.77L173.66,23.51L173.9,23.74L175.12,22.22L175.36,21.24L176.34,20.41L176.58,19.94L179.5,16.56L179.75,16.52L180.48,15.76L180.72,15.59L182.18,15.67L182.43,15.1L183.4,13.4L183.64,12.95L186.81,11.18L187.05,11.49L189.49,10.73L189.73,11.05L191.2,10.35L191.44,10.19L192.41,10.71L192.66,10.27L193.14,9.03L193.39,9.48L193.63,9.9L195.09,11.3L195.34,10.61L196.31,12.2L196.55,11.93L197.53,12.83L197.77,12.7L198.26,12.44L198.5,12.75L198.75,12.69L199.23,13.11L199.48,13.84L200.21,13.67L200.45,14.77L201.67,16.6L201.91,17.17L208,30.15L208.24,30.18L214.09,45.16L214.33,46.65L215.55,49.97L215.79,50.91L217.5,54.12L217.74,54.71L218.23,55.68L218.47,56.29L218.72,56.45L218.96,57.66L227.97,92.4L228.22,94.06L229.19,97.79L229.43,98.28L233.82,115.78L234.06,117.28L235.28,122.74L235.52,122.49L235.77,122.83L240.88,142.72L241.13,142.74L242.34,143.95L242.59,145.07L243.32,146.8L243.56,152L253.55,144.09L253.79,143.96L259.64,140.96L259.88,140.87L276.44,134.8L276.69,134.77L292.52,131.38L292.76,131.28L294.95,131.09L295.2,131.05L301.53,129.63L301.77,129.48L303.96,129.19L304.21,129.19L322.47,125.44L322.72,125.24L326.62,123.43L326.86,123.52L328.32,123.16L328.56,122.92L333.19,120.35L333.43,120.16L339.52,117.47L339.77,117.34L340.74,116.56L340.99,116.45L352.19,109.89L352.43,109.53L354.87,107.79L355.11,107.94L357.55,106.24L357.79,105.98L362.18,103.17L362.42,102.78L364.61,101.82L364.85,101.61L367.29,99.42L367.53,99.09L368.26,98.5L368.51,97.86L369.73,97.69L369.97,97.53L371.19,97.01L371.43,96.49L378.98,88.64L379.22,88.85L381.17,86.7L381.42,86.43L382.39,86.39L382.63,86.15L384.1,84.07L384.34,84.22L384.58,84.1L385.8,82.69L386.04,82.24L388.48,79.28L388.72,78.77L397.49,64.33L397.73,63.79L398.95,62.28L399.2,61.69L402.61,53.89L402.85,53.55L410.16,34.17L410.4,33.85L412.59,28.84L412.84,28.97L415.51,24.2L415.76,24.45L418.44,18.56L418.68,18.84L420.14,16.36L420.39,16.48L423.07,12.99L423.31,12.94L424.28,11.65L424.53,11.33L425.99,11.12L426.23,10.63L427.21,11.11L427.45,10.78L427.69,10.49L428.67,9.87L428.91,9.46L430.37,10.82L430.62,10.08L431.35,10.29L431.59,10L433.54,8.79L433.78,9.01L435.73,8L435.97,8.44L436.95,9.16L437.19,8.7L438.17,9.12L438.41,9.73L443.77,14.17L444.01,13.61L444.99,15.66L445.23,14.91L449.37,22.9L449.61,22.88L451.56,27.67L451.81,28.01L452.29,29.22L452.54,30.46L454,35.14L454.24,35.27L454.97,36.49L455.22,37.54L456.19,39.75L456.43,40.11L460.57,51.11L460.82,50.91L463.5,58.56L463.74,59.7L464.96,63.42L465.2,64.85L469.1,73.25L469.34,75.07L471.05,82.73L471.29,83.78L473.97,95.82L474.21,95.02L476.89,107.32L477.14,108.04L478.11,111.17L478.35,113.11L479.57,117.16L479.81,118.82L481.28,126.78L481.52,129.28L486.88,144.91L487.12,152L495.4,145.29L495.65,145.16L502.47,141.22L502.71,141.15L509.77,138.16L510.02,138.07L533.64,131.43L533.89,131.49L535.83,131.32L536.08,131.32L537.54,131.23L537.78,131.27L542.9,130.39L543.14,130.37L545.82,129.35L546.06,129.29L550.45,127.76L550.69,127.64L558.97,125.88L559.22,125.65L562.87,125.47L563.11,125.22L568.96,123.82L569.2,123.67L571.39,123.28L571.64,123.05L576.02,121.64L576.27,121.72L577.24,121.41L577.48,121.15L580.41,119.46L580.65,119.64L585.52,117.63L585.76,117.36L586.98,116.98L587.23,116.79L589.42,115.88L589.66,116L591.12,115.01L591.37,114.8L592.58,114.07L592.83,114.05L595.26,112.88L595.51,112.73L597.21,110.87L597.45,110.81L598.67,110.23L598.92,109.88L600.86,108.69L601.11,108.35L602.57,107.56L602.81,107.32L604.76,106.53L605.01,106.53L607.68,104.57L607.93,104.18L609.39,102.11L609.63,101.84L613.29,98.62L613.53,98.89L613.77,98.79L614.02,99.12L614.5,98.73L614.75,98.45L620.35,94.52L620.59,94.67L624.25,91.82L624.49,91.43L625.22,91.09L625.46,90.28L627.41,89.31L627.66,89.34L633.99,83.74L634.23,83.2L635.94,80.67L636.18,79.87L636.67,79.07L636.91,78.34L639.35,75.09L639.59,74.46L650.55,51.3L650.79,50.38L652.74,47.34L652.99,46.69L658.1,35.67L658.35,35.32L659.56,33.9L659.81,33.58L661.51,31.48L661.75,31.05L662.24,30.41L662.49,29.98L663.7,28.99L663.95,28.99L665.9,26.62L666.14,26.42L667.84,24.68L668.09,24.98L668.33,25.5L672.47,22.82L672.72,23.01L673.45,22.92L673.69,23.4L674.66,23.4L674.91,23.18L675.64,24.23L675.88,25.04L678.07,27.3L678.32,27.17L681.24,29.93L681.48,29.24L682.21,29.78L682.46,30.21L682.94,29.61L683.19,30L683.43,30.25L684.41,30.83L684.65,31.12L687.09,35.46L687.33,35.06L690.25,40.24L690.5,40.18L690.98,40.17L691.23,41.47L691.96,41.93L692.2,42.42L694.64,46.16L694.88,45.91L695.12,46.29L696.83,50.05L697.07,50.39L699.02,55.58L699.26,55.94L700.72,59.79L700.97,60.52L702.43,63.28L702.67,63.69L705.84,70.58L706.08,70.52L706.33,70.65L706.57,71.66L712.42,91.9L712.66,92.04L715.83,103.52L716.07,104.86L716.56,106.79L716.8,107.97L718.99,116.08L719.24,117.69L721.43,127.68L721.67,127.89L725.57,142.44L725.81,142.72L727.76,146.34L728,146.04L728.25,146.27L729.22,146.62L729.46,146.51L729.95,146.08L730.2,146.78L730.44,146.5L730.68,152L742.62,143.1L742.86,142.99L749.92,139.44L750.17,139.36L754.31,137.6L754.55,137.49L758.21,136.18L758.45,136.07L763.32,134.79L763.56,134.84L768.43,133.86L768.68,133.83L781.1,130.93L781.34,130.97L795.96,128.57L796.2,128.37L798.39,127.81L798.64,127.72L802.53,126.88L802.78,126.6L804.97,125.87L805.21,125.64L809.84,123.7L810.08,123.51L816.42,121.95L816.66,122.05L820.07,120.4L820.31,120.06L823.48,119.2L823.72,119.24L825.18,118.38L825.43,118.35L826.65,117.54L826.89,117.16L831.27,114.67L831.52,114.24L834.68,111.82L834.93,111.97L840.53,107.92L840.77,107.66L844.43,104.83L844.67,104.91L849.78,100.29L850.03,100.29L851.49,98.9L851.73,98.47L852.46,97.85L852.71,97.58L853.68,96.51L853.92,96.15L857.33,93.42L857.58,93.11L860.5,89.42L860.74,89.39L864.64,85.45L864.88,84.86L866.1,83.98L866.35,83.72L867.81,82.06L868.05,82.15L868.78,81.42L869.03,81.23L880.72,65.91L880.96,65.28L882.42,62.85L882.66,62.14L887.54,50.62L887.78,50.46L892.16,41.05L892.41,40.73L894.84,34.49L895.09,34.21L897.52,30.08L897.77,29.52L900.69,25.57L900.93,25.42L902.88,23.53L903.12,23.49L907.02,17.82L907.26,17.84L910.67,12.85L910.92,13.01L911.4,12.7L911.65,12.1L912.38,11.87L912.62,11.93L915.06,10.99L915.3,11.11L915.79,10.84L916.03,11.2L916.28,11.55L917.01,10.98L917.25,11.23L917.49,11.74L918.22,12.39L918.47,12.05L918.71,11.82L919.69,11.78L919.93,11.59L920.66,11.88L920.9,12.04L922.12,12.84L922.37,13.02L923.1,13.87L923.34,14.58L928.21,19.73L928.45,18.89L931.38,22.83L931.62,22.62L933.81,27.93L934.06,28.34L934.3,28.36L934.54,29.17L936,32L936.25,31.64L936.98,32.41L937.22,32.92L937.71,33.31L937.95,33.89L939.17,37.02L939.41,36.68L941.85,41.65L942.09,41.51L942.34,41.18L942.58,41.39L942.82,42.92L943.31,43.34L943.55,43.87L949.4,60.34L949.64,61.48L951.84,67.69L952.08,68.83L952.32,68.85L952.57,69.64L958.9,92.44L959.14,92.72L965.23,113.51L965.48,115.32L965.96,116.65L966.21,117.96L967.67,122.62L967.91,123.59L971.56,139.73L971.81,140.03L973.76,145.91L974,145.37" style="vector-effect: non-scaling-stroke; fill: none; stroke: rgb(0, 204, 150); stroke-opacity: 1; stroke-width: 2px; opacity: 1;"/></g><g class="points"/><g class="text"/></g></g></g><g class="overplot"/><path class="xlines-above crisp" d="M0,0" style="fill: none;"/><path class="ylines-above crisp" d="M0,0" style="fill: none;"/><g class="overlines-above"/><g class="xaxislayer-above"><g class="x2tick"><text text-anchor="middle" x="0" y="553" transform="translate(80,0)" style="font-family: 'Open Sans', verdana, arial, sans-serif; font-size: 12px; fill: rgb(42, 63, 95); fill-opacity: 1; white-space: pre; opacity: 1;">0</text></g><g class="x2tick"><text text-anchor="middle" x="0" y="553" style="font-family: 'Open Sans', verdana, arial, sans-serif; font-size: 12px; fill: rgb(42, 63, 95); fill-opacity: 1; white-space: pre; opacity: 1;" transform="translate(201.78,0)">500</text></g><g class="x2tick"><text text-anchor="middle" x="0" y="553" style="font-family: 'Open Sans', verdana, arial, sans-serif; font-size: 12px; fill: rgb(42, 63, 95); fill-opacity: 1; white-space: pre; opacity: 1;" transform="translate(323.56,0)">1000</text></g><g class="x2tick"><text text-anchor="middle" x="0" y="553" style="font-family: 'Open Sans', verdana, arial, sans-serif; font-size: 12px; fill: rgb(42, 63, 95); fill-opacity: 1; white-space: pre; opacity: 1;" transform="translate(445.34,0)">1500</text></g><g class="x2tick"><text text-anchor="middle" x="0" y="553" style="font-family: 'Open Sans', verdana, arial, sans-serif; font-size: 12px; fill: rgb(42, 63, 95); fill-opacity: 1; white-space: pre; opacity: 1;" transform="translate(567.12,0)">2000</text></g><g class="x2tick"><text text-anchor="middle" x="0" y="553" style="font-family: 'Open Sans', verdana, arial, sans-serif; font-size: 12px; fill: rgb(42, 63, 95); fill-opacity: 1; white-space: pre; opacity: 1;" transform="translate(688.9,0)">2500</text></g><g class="x2tick"><text text-anchor="middle" x="0" y="553" style="font-family: 'Open Sans', verdana, arial, sans-serif; font-size: 12px; fill: rgb(42, 63, 95); fill-opacity: 1; white-space: pre; opacity: 1;" transform="translate(810.68,0)">3000</text></g><g class="x2tick"><text text-anchor="middle" x="0" y="553" style="font-family: 'Open Sans', verdana, arial, sans-serif; font-size: 12px; fill: rgb(42, 63, 95); fill-opacity: 1; white-space: pre; opacity: 1;" transform="translate(932.46,0)">3500</text></g></g><g class="yaxislayer-above"><g class="y2tick"><text text-anchor="end" x="79" y="4.199999999999999" transform="translate(0,532)" style="font-family: 'Open Sans', verdana, arial, sans-serif; font-size: 12px; fill: rgb(42, 63, 95); fill-opacity: 1; white-space: pre; opacity: 1;">0</text></g><g class="y2tick"><text text-anchor="end" x="79" y="4.199999999999999" style="font-family: 'Open Sans', verdana, arial, sans-serif; font-size: 12px; fill: rgb(42, 63, 95); fill-opacity: 1; white-space: pre; opacity: 1;" transform="translate(0,478.06999999999994)">5</text></g><g class="y2tick"><text text-anchor="end" x="79" y="4.199999999999999" style="font-family: 'Open Sans', verdana, arial, sans-serif; font-size: 12px; fill: rgb(42, 63, 95); fill-opacity: 1; white-space: pre; opacity: 1;" transform="translate(0,424.13999999999993)">10</text></g></g><g class="overaxes-above"/></g><g class="subplot x3y3"><g class="layer-subplot"><g class="shapelayer"/><g class="imagelayer"/></g><g class="minor-gridlayer"><g class="x3"/><g class="y3"/></g><g class="gridlayer"><g class="x3"><path class="x3grid crisp" transform="translate(201.78,0)" d="M0,660v160" style="stroke: rgb(255, 255, 255); stroke-opacity: 1; stroke-width: 1px;"/><path class="x3grid crisp" transform="translate(323.56,0)" d="M0,660v160" style="stroke: rgb(255, 255, 255); stroke-opacity: 1; stroke-width: 1px;"/><path class="x3grid crisp" transform="translate(445.34,0)" d="M0,660v160" style="stroke: rgb(255, 255, 255); stroke-opacity: 1; stroke-width: 1px;"/><path class="x3grid crisp" transform="translate(567.12,0)" d="M0,660v160" style="stroke: rgb(255, 255, 255); stroke-opacity: 1; stroke-width: 1px;"/><path class="x3grid crisp" transform="translate(688.9,0)" d="M0,660v160" style="stroke: rgb(255, 255, 255); stroke-opacity: 1; stroke-width: 1px;"/><path class="x3grid crisp" transform="translate(810.68,0)" d="M0,660v160" style="stroke: rgb(255, 255, 255); stroke-opacity: 1; stroke-width: 1px;"/><path class="x3grid crisp" transform="translate(932.46,0)" d="M0,660v160" style="stroke: rgb(255, 255, 255); stroke-opacity: 1; stroke-width: 1px;"/></g><g class="y3"><path class="y3grid crisp" transform="translate(0,769.64)" d="M80,0h974" style="stroke: rgb(255, 255, 255); stroke-opacity: 1; stroke-width: 1px;"/><path class="y3grid crisp" transform="translate(0,716.7)" d="M80,0h974" style="stroke: rgb(255, 255, 255); stroke-opacity: 1; stroke-width: 1px;"/><path class="y3grid crisp" transform="translate(0,663.76)" d="M80,0h974" style="stroke: rgb(255, 255, 255); stroke-opacity: 1; stroke-width: 1px;"/></g></g><g class="zerolinelayer"><path class="x3zl zl crisp" transform="translate(80,0)" d="M0,660v160" style="stroke: rgb(255, 255, 255); stroke-opacity: 1; stroke-width: 2px;"/></g><path class="xlines-below"/><path class="ylines-below"/><g class="overlines-below"/><g class="xaxislayer-below"/><g class="yaxislayer-below"/><g class="overaxes-below"/><g class="plot" transform="translate(80,660)" clip-path="url(#clip7750c4x3y3plot)"><g class="scatterlayer mlayer"><g class="trace scatter trace9b0ecd" style="stroke-miterlimit: 2; opacity: 1;"><g class="fills"/><g class="errorbars"/><g class="lines"><path class="js-line" d="M0,152L17.78,151.25L18.02,151.23L38.24,148.88L38.48,148.84L53.83,146.25L54.07,146.2L87.19,138.65L87.44,138.58L121.54,127.93L121.78,127.84L177.31,106.95L177.56,106.82L189.25,99.17L189.49,98.98L199.48,90.56L199.72,90.33L235.28,56.61L235.52,56.43L239.18,54.06L239.42,53.89L243.32,51.46L243.56,152L260.61,151.25L260.85,151.23L281.07,148.87L281.31,148.84L309.08,143.68L309.32,143.63L325.4,139.67L325.64,139.6L365.1,127.49L365.34,127.4L413.08,109.03L413.32,108.92L425.74,102.64L425.99,102.49L437.92,93.66L438.17,93.46L453.02,79.49L453.27,79.22L463.5,68.41L463.74,68.16L470.56,62.38L470.8,62.18L483.47,52.92L483.71,52.86L486.88,50.5L487.12,152L504.41,151.25L504.66,151.23L525.85,148.73L526.09,148.69L554.83,143.36L555.08,143.3L589.66,133.98L589.9,133.9L628.87,120.67L629.12,120.58L663.7,107.25L663.95,107.12L675.15,100.71L675.39,100.53L681.73,95.33L681.97,95.11L724.84,56.79L725.08,56.61L730.44,53.02L730.68,152L747.98,151.26L748.22,151.24L770.38,148.65L770.63,148.61L799.85,143.02L800.1,142.96L834.2,133.7L834.44,133.62L862.45,124.68L862.69,124.6L888.27,115.63L888.51,115.54L904.34,108.82L904.59,108.69L918.96,99.57L919.2,99.38L932.11,88.23L932.35,88.01L951.35,69.62L951.59,69.38L966.21,56.81L966.45,56.62L974,51.12" style="vector-effect: non-scaling-stroke; fill: none; stroke: rgb(171, 99, 250); stroke-opacity: 1; stroke-width: 2px; opacity: 1;"/></g><g class="points"/><g class="text"/></g><g class="trace scatter trace29f154" style="stroke-miterlimit: 2; opacity: 1;"><g class="fills"/><g class="errorbars"/><g class="lines"><path class="js-line" d="M0,152L15.59,151.26L15.83,151.24L32.64,149.16L32.88,149.12L61.62,143.65L61.86,143.6L83.3,138.55L83.54,138.48L90.12,136.81L90.36,136.74L114.23,130.05L114.47,129.95L121.78,127.76L122.02,127.64L131.77,124.52L132.01,124.46L137.61,122.56L137.86,122.46L156.61,115.44L156.85,115.38L159.78,114.28L160.02,114.19L171.22,108.73L171.47,108.58L179.99,101.74L180.24,101.47L182.43,99.25L182.67,99.02L185.84,95.88L186.08,95.61L196.07,83.39L196.31,83.05L202.89,73.14L203.13,72.69L215.06,53.01L215.31,52.5L218.72,46.76L218.96,46.3L225.05,35.4L225.29,34.78L241.37,9.9L241.61,9.66L243.32,8.25L243.56,152L259.15,151.26L259.39,151.24L275.95,149.18L276.2,149.14L305.43,143.54L305.67,143.48L346.34,132.8L346.59,132.71L360.96,128.38L361.2,128.28L372.65,124.32L372.89,124.28L378.49,122.42L378.74,122.29L384.58,120.06L384.83,119.96L395.54,116.11L395.79,115.97L412.59,109.23L412.84,108.99L419.41,104.63L419.66,104.44L427.94,96.83L428.18,96.55L434.03,89.73L434.27,89.37L452.05,63.01L452.29,62.55L455.46,57.2L455.7,56.87L462.04,46.2L462.28,45.74L473,28.39L473.24,27.97L476.16,23.21L476.41,23L484.2,11.04L484.44,10.79L486.88,8.13L487.12,152L502.71,151.26L502.95,151.24L533.15,146.98L533.4,146.93L567.5,139.2L567.74,139.1L587.96,133.3L588.2,133.21L595.99,130.74L596.24,130.68L611.82,125.6L612.07,125.55L623.27,121.24L623.52,121.17L656.4,108.25L656.64,108.07L662.97,103.9L663.22,103.64L670.77,96.8L671.01,96.53L675.15,92.32L675.39,92.01L696.34,62.23L696.58,61.8L724.11,16.85L724.35,16.5L727.27,13.51L727.52,13.33L730.44,11.53L730.68,152L746.51,151.25L746.76,151.22L764.05,149.03L764.29,148.99L790.6,144.05L790.84,143.98L834.2,132.95L834.44,132.84L840.29,131.12L840.53,131.06L849.3,128.48L849.54,128.39L868.78,122.01L869.03,121.92L882.91,116.91L883.15,116.87L888.02,115.19L888.27,115.04L895.57,111.83L895.82,111.67L900.93,108.74L901.18,108.59L913.6,98.35L913.84,98.05L917.01,94.6L917.25,94.29L931.62,75.03L931.86,74.6L945.99,51.86L946.23,51.38L953.05,39.71L953.3,39.43L960.6,27.54L960.85,27.16L972.05,9.75L972.3,9.48L974,8" style="vector-effect: non-scaling-stroke; fill: none; stroke: rgb(255, 161, 90); stroke-opacity: 1; stroke-width: 2px; opacity: 1;"/></g><g class="points"/><g class="text"/></g></g></g><g class="overplot"/><path class="xlines-above crisp" d="M0,0" style="fill: none;"/><path class="ylines-above crisp" d="M0,0" style="fill: none;"/><g class="overlines-above"/><g class="xaxislayer-above"><g class="x3tick"><text text-anchor="middle" x="0" y="833" transform="translate(80,0)" style="font-family: 'Open Sans', verdana, arial, sans-serif; font-size: 12px; fill: rgb(42, 63, 95); fill-opacity: 1; white-space: pre; opacity: 1;">0</text></g><g class="x3tick"><text text-anchor="middle" x="0" y="833" style="font-family: 'Open Sans', verdana, arial, sans-serif; font-size: 12px; fill: rgb(42, 63, 95); fill-opacity: 1; white-space: pre; opacity: 1;" transform="translate(201.78,0)">500</text></g><g class="x3tick"><text text-anchor="middle" x="0" y="833" style="font-family: 'Open Sans', verdana, arial, sans-serif; font-size: 12px; fill: rgb(42, 63, 95); fill-opacity: 1; white-space: pre; opacity: 1;" transform="translate(323.56,0)">1000</text></g><g class="x3tick"><text text-anchor="middle" x="0" y="833" style="font-family: 'Open Sans', verdana, arial, sans-serif; font-size: 12px; fill: rgb(42, 63, 95); fill-opacity: 1; white-space: pre; opacity: 1;" transform="translate(445.34,0)">1500</text></g><g class="x3tick"><text text-anchor="middle" x="0" y="833" style="font-family: 'Open Sans', verdana, arial, sans-serif; font-size: 12px; fill: rgb(42, 63, 95); fill-opacity: 1; white-space: pre; opacity: 1;" transform="translate(567.12,0)">2000</text></g><g class="x3tick"><text text-anchor="middle" x="0" y="833" style="font-family: 'Open Sans', verdana, arial, sans-serif; font-size: 12px; fill: rgb(42, 63, 95); fill-opacity: 1; white-space: pre; opacity: 1;" transform="translate(688.9,0)">2500</text></g><g class="x3tick"><text text-anchor="middle" x="0" y="833" style="font-family: 'Open Sans', verdana, arial, sans-serif; font-size: 12px; fill: rgb(42, 63, 95); fill-opacity: 1; white-space: pre; opacity: 1;" transform="translate(810.68,0)">3000</text></g><g class="x3tick"><text text-anchor="middle" x="0" y="833" style="font-family: 'Open Sans', verdana, arial, sans-serif; font-size: 12px; fill: rgb(42, 63, 95); fill-opacity: 1; white-space: pre; opacity: 1;" transform="translate(932.46,0)">3500</text></g></g><g class="yaxislayer-above"><g class="y3tick"><text text-anchor="end" x="79" y="4.199999999999999" transform="translate(0,769.64)" style="font-family: 'Open Sans', verdana, arial, sans-serif; font-size: 12px; fill: rgb(42, 63, 95); fill-opacity: 1; white-space: pre; opacity: 1;">0.5</text></g><g class="y3tick"><text text-anchor="end" x="79" y="4.199999999999999" style="font-family: 'Open Sans', verdana, arial, sans-serif; font-size: 12px; fill: rgb(42, 63, 95); fill-opacity: 1; white-space: pre; opacity: 1;" transform="translate(0,716.7)">1</text></g><g class="y3tick"><text text-anchor="end" x="79" y="4.199999999999999" style="font-family: 'Open Sans', verdana, arial, sans-serif; font-size: 12px; fill: rgb(42, 63, 95); fill-opacity: 1; white-space: pre; opacity: 1;" transform="translate(0,663.76)">1.5</text></g></g><g class="overaxes-above"/></g></g><g class="polarlayer"/><g class="smithlayer"/><g class="ternarylayer"/><g class="geolayer"/><g class="funnelarealayer"/><g class="pielayer"/><g class="iciclelayer"/><g class="treemaplayer"/><g class="sunburstlayer"/><g class="glimages"/><defs id="topdefs-7750c4"><g class="clips"/><clipPath id="legend7750c4"><rect width="115" height="155" x="0" y="0"/></clipPath></defs><g class="layer-above"><g class="imagelayer"/><g class="shapelayer"/></g><g class="infolayer"><g class="legend" pointer-events="all" transform="translate(1073.48,100)"><rect class="bg" shape-rendering="crispEdges" style="stroke: rgb(68, 68, 68); stroke-opacity: 1; fill: rgb(255, 255, 255); fill-opacity: 1; stroke-width: 0px;" width="115" height="155" x="0" y="0"/><g class="scrollbox" transform="" clip-path="url(#legend7750c4)"><g class="groups"><g class="traces" transform="translate(0,19.5)" style="opacity: 1;"><text class="legendtext" text-anchor="start" x="40" y="7.8" style="font-family: 'Open Sans', verdana, arial, sans-serif; font-size: 20px; fill: rgb(42, 63, 95); fill-opacity: 1; white-space: pre;">S</text><g class="layers" style="opacity: 1;"><g class="legendfill"/><g class="legendlines"><path class="js-line" d="M5,0h30" style="fill: none; stroke: rgb(99, 110, 250); stroke-opacity: 1; stroke-width: 2px;"/></g><g class="legendsymbols"><g class="legendpoints"/></g></g><rect class="legendtoggle" x="0" y="-14.5" width="109.640625" height="29" style="fill: rgb(0, 0, 0); fill-opacity: 0;"/></g><g class="traces" transform="translate(0,48.5)" style="opacity: 1;"><text class="legendtext" text-anchor="start" x="40" y="7.8" style="font-family: 'Open Sans', verdana, arial, sans-serif; font-size: 20px; fill: rgb(42, 63, 95); fill-opacity: 1; white-space: pre;">A</text><g class="layers" style="opacity: 1;"><g class="legendfill"/><g class="legendlines"><path class="js-line" d="M5,0h30" style="fill: none; stroke: rgb(239, 85, 59); stroke-opacity: 1; stroke-width: 2px;"/></g><g class="legendsymbols"><g class="legendpoints"/></g></g><rect class="legendtoggle" x="0" y="-14.5" width="109.640625" height="29" style="fill: rgb(0, 0, 0); fill-opacity: 0;"/></g><g class="traces" transform="translate(0,77.5)" style="opacity: 1;"><text class="legendtext" text-anchor="start" x="40" y="7.8" style="font-family: 'Open Sans', verdana, arial, sans-serif; font-size: 20px; fill: rgb(42, 63, 95); fill-opacity: 1; white-space: pre;">B</text><g class="layers" style="opacity: 1;"><g class="legendfill"/><g class="legendlines"><path class="js-line" d="M5,0h30" style="fill: none; stroke: rgb(0, 204, 150); stroke-opacity: 1; stroke-width: 2px;"/></g><g class="legendsymbols"><g class="legendpoints"/></g></g><rect class="legendtoggle" x="0" y="-14.5" width="109.640625" height="29" style="fill: rgb(0, 0, 0); fill-opacity: 0;"/></g><g class="traces" transform="translate(0,106.5)" style="opacity: 1;"><text class="legendtext" text-anchor="start" x="40" y="7.8" style="font-family: 'Open Sans', verdana, arial, sans-serif; font-size: 20px; fill: rgb(42, 63, 95); fill-opacity: 1; white-space: pre;">agent1</text><g class="layers" style="opacity: 1;"><g class="legendfill"/><g class="legendlines"><path class="js-line" d="M5,0h30" style="fill: none; stroke: rgb(171, 99, 250); stroke-opacity: 1; stroke-width: 2px;"/></g><g class="legendsymbols"><g class="legendpoints"/></g></g><rect class="legendtoggle" x="0" y="-14.5" width="109.640625" height="29" style="fill: rgb(0, 0, 0); fill-opacity: 0;"/></g><g class="traces" transform="translate(0,135.5)" style="opacity: 1;"><text class="legendtext" text-anchor="start" x="40" y="7.8" style="font-family: 'Open Sans', verdana, arial, sans-serif; font-size: 20px; fill: rgb(42, 63, 95); fill-opacity: 1; white-space: pre;">agent2</text><g class="layers" style="opacity: 1;"><g class="legendfill"/><g class="legendlines"><path class="js-line" d="M5,0h30" style="fill: none; stroke: rgb(255, 161, 90); stroke-opacity: 1; stroke-width: 2px;"/></g><g class="legendsymbols"><g class="legendpoints"/></g></g><rect class="legendtoggle" x="0" y="-14.5" width="109.640625" height="29" style="fill: rgb(0, 0, 0); fill-opacity: 0;"/></g></g></g><rect class="scrollbar" rx="20" ry="3" width="0" height="0" style="fill: rgb(128, 139, 164); fill-opacity: 1;" x="0" y="0"/></g><g class="g-gtitle"><text class="gtitle" x="600" y="50" text-anchor="middle" dy="0em" style="font-family: 'Open Sans', verdana, arial, sans-serif; font-size: 25px; fill: rgb(42, 63, 95); opacity: 1; font-weight: normal; white-space: pre;">Concentration Profiles in Toy-NECOM-Auxotrophs</text></g><g class="g-xtitle"/><g class="g-x2title"/><g class="g-x3title"><text class="x3title" x="567" y="860.3" text-anchor="middle" style="font-family: 'Open Sans', verdana, arial, sans-serif; font-size: 14px; fill: rgb(42, 63, 95); opacity: 1; font-weight: normal; white-space: pre;">Time</text></g><g class="g-ytitle"><text class="ytitle" transform="rotate(-90,31.309375000000003,180)" x="31.309375000000003" y="180" text-anchor="middle" style="font-family: 'Open Sans', verdana, arial, sans-serif; font-size: 14px; fill: rgb(42, 63, 95); opacity: 1; font-weight: normal; white-space: pre;">Concentration</text></g><g class="g-y2title"><text class="y2title" transform="rotate(-90,38.934375,459.99999999999994)" x="38.934375" y="459.99999999999994" text-anchor="middle" style="font-family: 'Open Sans', verdana, arial, sans-serif; font-size: 14px; fill: rgb(42, 63, 95); opacity: 1; font-weight: normal; white-space: pre;">Concentration</text></g><g class="g-y3title"><text class="y3title" transform="rotate(-90,34.575,740)" x="34.575" y="740" text-anchor="middle" style="font-family: 'Open Sans', verdana, arial, sans-serif; font-size: 14px; fill: rgb(42, 63, 95); opacity: 1; font-weight: normal; white-space: pre;">Concentration</text></g><g class="annotation" data-index="0" style="opacity: 1;"><g class="annotation-text-g" transform="rotate(0,567,88)"><g class="cursor-pointer" transform="translate(560,76)"><rect class="bg" x="0.5" y="0.5" width="14" height="23" style="stroke-width: 1px; stroke: rgb(0, 0, 0); stroke-opacity: 0; fill: rgb(0, 0, 0); fill-opacity: 0;"/><text class="annotation-text" text-anchor="middle" x="7.46875" y="18" style="font-family: 'Open Sans', verdana, arial, sans-serif; font-size: 16px; fill: rgb(42, 63, 95); fill-opacity: 1; white-space: pre;">S</text></g></g></g><g class="annotation" data-index="1" style="opacity: 1;"><g class="annotation-text-g" transform="rotate(0,567,367.99999999999994)"><g class="cursor-pointer" transform="translate(560,356)"><rect class="bg" x="0.5" y="0.5" width="14" height="23" style="stroke-width: 1px; stroke: rgb(0, 0, 0); stroke-opacity: 0; fill: rgb(0, 0, 0); fill-opacity: 0;"/><text class="annotation-text" text-anchor="middle" x="7.46875" y="18" style="font-family: 'Open Sans', verdana, arial, sans-serif; font-size: 16px; fill: rgb(42, 63, 95); fill-opacity: 1; white-space: pre;">A</text></g></g></g><g class="annotation" data-index="2" style="opacity: 1;"><g class="annotation-text-g" transform="rotate(0,567,648)"><g class="cursor-pointer" transform="translate(538,636)"><rect class="bg" x="0.5" y="0.5" width="58" height="23" style="stroke-width: 1px; stroke: rgb(0, 0, 0); stroke-opacity: 0; fill: rgb(0, 0, 0); fill-opacity: 0;"/><text class="annotation-text" text-anchor="middle" x="29.609375" y="18" style="font-family: 'Open Sans', verdana, arial, sans-serif; font-size: 16px; fill: rgb(42, 63, 95); fill-opacity: 1; white-space: pre;">Agents</text></g></g></g></g></svg>